<svg width="1440" height="1024" viewBox="0 0 1440 1024" fill="none" xmlns="http://www.w3.org/2000/svg">
<rect width="1440" height="1024" fill="#F5F5F5"/>
<rect width="612" height="1024" fill="#2D9CDB"/>
<g filter="url(#filter0_d)">
<rect x="810" y="186" width="475" height="630" fill="white"/>
</g>
<path d="M890 382C890 380.343 891.343 379 893 379H1201C1202.66 379 1204 380.343 1204 382V423C1204 424.657 1202.66 426 1201 426H893C891.343 426 890 424.657 890 423V382Z" fill="white"/>
<path d="M890.5 382C890.5 380.619 891.619 379.5 893 379.5H1201C1202.38 379.5 1203.5 380.619 1203.5 382V423C1203.5 424.381 1202.38 425.5 1201 425.5H893C891.619 425.5 890.5 424.381 890.5 423V382Z" stroke="black" stroke-opacity="0.8"/>
<path d="M901.024 400.786V404.98H905.596V406.33H901.024V410.65H906.136V412H899.386V399.436H906.136V400.786H901.024ZM920.477 401.956C921.245 401.956 921.929 402.118 922.529 402.442C923.129 402.754 923.603 403.228 923.951 403.864C924.299 404.5 924.473 405.274 924.473 406.186V412H922.853V406.42C922.853 405.436 922.607 404.686 922.115 404.17C921.635 403.642 920.981 403.378 920.153 403.378C919.301 403.378 918.623 403.654 918.119 404.206C917.615 404.746 917.363 405.532 917.363 406.564V412H915.743V406.42C915.743 405.436 915.497 404.686 915.005 404.17C914.525 403.642 913.871 403.378 913.043 403.378C912.191 403.378 911.513 403.654 911.009 404.206C910.505 404.746 910.253 405.532 910.253 406.564V412H908.615V402.136H910.253V403.558C910.577 403.042 911.009 402.646 911.549 402.37C912.101 402.094 912.707 401.956 913.367 401.956C914.195 401.956 914.927 402.142 915.563 402.514C916.199 402.886 916.673 403.432 916.985 404.152C917.261 403.456 917.717 402.916 918.353 402.532C918.989 402.148 919.697 401.956 920.477 401.956ZM926.547 407.032C926.547 406.024 926.751 405.142 927.159 404.386C927.567 403.618 928.125 403.024 928.833 402.604C929.553 402.184 930.351 401.974 931.227 401.974C932.091 401.974 932.841 402.16 933.477 402.532C934.113 402.904 934.587 403.372 934.899 403.936V402.136H936.555V412H934.899V410.164C934.575 410.74 934.089 411.22 933.441 411.604C932.805 411.976 932.061 412.162 931.209 412.162C930.333 412.162 929.541 411.946 928.833 411.514C928.125 411.082 927.567 410.476 927.159 409.696C926.751 408.916 926.547 408.028 926.547 407.032ZM934.899 407.05C934.899 406.306 934.749 405.658 934.449 405.106C934.149 404.554 933.741 404.134 933.225 403.846C932.721 403.546 932.163 403.396 931.551 403.396C930.939 403.396 930.381 403.54 929.877 403.828C929.373 404.116 928.971 404.536 928.671 405.088C928.371 405.64 928.221 406.288 928.221 407.032C928.221 407.788 928.371 408.448 928.671 409.012C928.971 409.564 929.373 409.99 929.877 410.29C930.381 410.578 930.939 410.722 931.551 410.722C932.163 410.722 932.721 410.578 933.225 410.29C933.741 409.99 934.149 409.564 934.449 409.012C934.749 408.448 934.899 407.794 934.899 407.05ZM940.17 400.534C939.858 400.534 939.594 400.426 939.378 400.21C939.162 399.994 939.054 399.73 939.054 399.418C939.054 399.106 939.162 398.842 939.378 398.626C939.594 398.41 939.858 398.302 940.17 398.302C940.47 398.302 940.722 398.41 940.926 398.626C941.142 398.842 941.25 399.106 941.25 399.418C941.25 399.73 941.142 399.994 940.926 400.21C940.722 400.426 940.47 400.534 940.17 400.534ZM940.962 402.136V412H939.324V402.136H940.962ZM945.391 398.68V412H943.753V398.68H945.391Z" fill="black" fill-opacity="0.5"/>
<path d="M890.5 480C890.5 478.619 891.619 477.5 893 477.5H1201C1202.38 477.5 1203.5 478.619 1203.5 480V521C1203.5 522.381 1202.38 523.5 1201 523.5H893C891.619 523.5 890.5 522.381 890.5 521V480Z" fill="white" stroke="black"/>
<path d="M903.364 512.126C902.536 512.126 901.792 511.982 901.132 511.694C900.484 511.394 899.974 510.986 899.602 510.47C899.23 509.942 899.038 509.336 899.026 508.652H900.772C900.832 509.24 901.072 509.738 901.492 510.146C901.924 510.542 902.548 510.74 903.364 510.74C904.144 510.74 904.756 510.548 905.2 510.164C905.656 509.768 905.884 509.264 905.884 508.652C905.884 508.172 905.752 507.782 905.488 507.482C905.224 507.182 904.894 506.954 904.498 506.798C904.102 506.642 903.568 506.474 902.896 506.294C902.068 506.078 901.402 505.862 900.898 505.646C900.406 505.43 899.98 505.094 899.62 504.638C899.272 504.17 899.098 503.546 899.098 502.766C899.098 502.082 899.272 501.476 899.62 500.948C899.968 500.42 900.454 500.012 901.078 499.724C901.714 499.436 902.44 499.292 903.256 499.292C904.432 499.292 905.392 499.586 906.136 500.174C906.892 500.762 907.318 501.542 907.414 502.514H905.614C905.554 502.034 905.302 501.614 904.858 501.254C904.414 500.882 903.826 500.696 903.094 500.696C902.41 500.696 901.852 500.876 901.42 501.236C900.988 501.584 900.772 502.076 900.772 502.712C900.772 503.168 900.898 503.54 901.15 503.828C901.414 504.116 901.732 504.338 902.104 504.494C902.488 504.638 903.022 504.806 903.706 504.998C904.534 505.226 905.2 505.454 905.704 505.682C906.208 505.898 906.64 506.24 907 506.708C907.36 507.164 907.54 507.788 907.54 508.58C907.54 509.192 907.378 509.768 907.054 510.308C906.73 510.848 906.25 511.286 905.614 511.622C904.978 511.958 904.228 512.126 903.364 512.126ZM918.95 506.69C918.95 507.002 918.932 507.332 918.896 507.68H911.012C911.072 508.652 911.402 509.414 912.002 509.966C912.614 510.506 913.352 510.776 914.216 510.776C914.924 510.776 915.512 510.614 915.98 510.29C916.46 509.954 916.796 509.51 916.988 508.958H918.752C918.488 509.906 917.96 510.68 917.168 511.28C916.376 511.868 915.392 512.162 914.216 512.162C913.28 512.162 912.44 511.952 911.696 511.532C910.964 511.112 910.388 510.518 909.968 509.75C909.548 508.97 909.338 508.07 909.338 507.05C909.338 506.03 909.542 505.136 909.95 504.368C910.358 503.6 910.928 503.012 911.66 502.604C912.404 502.184 913.256 501.974 914.216 501.974C915.152 501.974 915.98 502.178 916.7 502.586C917.42 502.994 917.972 503.558 918.356 504.278C918.752 504.986 918.95 505.79 918.95 506.69ZM917.258 506.348C917.258 505.724 917.12 505.19 916.844 504.746C916.568 504.29 916.19 503.948 915.71 503.72C915.242 503.48 914.72 503.36 914.144 503.36C913.316 503.36 912.608 503.624 912.02 504.152C911.444 504.68 911.114 505.412 911.03 506.348H917.258ZM925.919 501.956C927.119 501.956 928.091 502.322 928.835 503.054C929.579 503.774 929.951 504.818 929.951 506.186V512H928.331V506.42C928.331 505.436 928.085 504.686 927.593 504.17C927.101 503.642 926.429 503.378 925.577 503.378C924.713 503.378 924.023 503.648 923.507 504.188C923.003 504.728 922.751 505.514 922.751 506.546V512H921.113V502.136H922.751V503.54C923.075 503.036 923.513 502.646 924.065 502.37C924.629 502.094 925.247 501.956 925.919 501.956ZM937.522 501.956C938.266 501.956 938.938 502.118 939.538 502.442C940.138 502.754 940.606 503.228 940.942 503.864C941.29 504.5 941.464 505.274 941.464 506.186V512H939.844V506.42C939.844 505.436 939.598 504.686 939.106 504.17C938.614 503.642 937.942 503.378 937.09 503.378C936.226 503.378 935.536 503.648 935.02 504.188C934.516 504.728 934.264 505.514 934.264 506.546V512H932.626V498.68H934.264V503.54C934.588 503.036 935.032 502.646 935.596 502.37C936.172 502.094 936.814 501.956 937.522 501.956ZM943.528 507.032C943.528 506.024 943.732 505.142 944.14 504.386C944.548 503.618 945.106 503.024 945.814 502.604C946.534 502.184 947.332 501.974 948.208 501.974C949.072 501.974 949.822 502.16 950.458 502.532C951.094 502.904 951.568 503.372 951.88 503.936V502.136H953.536V512H951.88V510.164C951.556 510.74 951.07 511.22 950.422 511.604C949.786 511.976 949.042 512.162 948.19 512.162C947.314 512.162 946.522 511.946 945.814 511.514C945.106 511.082 944.548 510.476 944.14 509.696C943.732 508.916 943.528 508.028 943.528 507.032ZM951.88 507.05C951.88 506.306 951.73 505.658 951.43 505.106C951.13 504.554 950.722 504.134 950.206 503.846C949.702 503.546 949.144 503.396 948.532 503.396C947.92 503.396 947.362 503.54 946.858 503.828C946.354 504.116 945.952 504.536 945.652 505.088C945.352 505.64 945.202 506.288 945.202 507.032C945.202 507.788 945.352 508.448 945.652 509.012C945.952 509.564 946.354 509.99 946.858 510.29C947.362 510.578 947.92 510.722 948.532 510.722C949.144 510.722 949.702 510.578 950.206 510.29C950.722 509.99 951.13 509.564 951.43 509.012C951.73 508.448 951.88 507.794 951.88 507.05Z" fill="black" fill-opacity="0.5"/>
<g filter="url(#filter1_dd)">
<path d="M890 603H1173V658H890V603Z" fill="#2D9CDB"/>
</g>
<path d="M1000.31 638C999.848 638 999.48 637.872 999.208 637.616C998.952 637.36 998.824 637 998.824 636.536V622.544C998.824 622.08 998.952 621.72 999.208 621.464C999.48 621.208 999.848 621.08 1000.31 621.08H1008.98C1009.44 621.08 1009.8 621.184 1010.06 621.392C1010.31 621.6 1010.44 621.896 1010.44 622.28C1010.44 622.68 1010.31 622.992 1010.06 623.216C1009.8 623.424 1009.44 623.528 1008.98 623.528H1001.85V628.184H1008.5C1008.96 628.184 1009.32 628.288 1009.58 628.496C1009.83 628.704 1009.96 629.008 1009.96 629.408C1009.96 629.792 1009.83 630.088 1009.58 630.296C1009.32 630.504 1008.96 630.608 1008.5 630.608H1001.85V635.552H1008.98C1009.44 635.552 1009.8 635.664 1010.06 635.888C1010.31 636.096 1010.44 636.4 1010.44 636.8C1010.44 637.184 1010.31 637.48 1010.06 637.688C1009.8 637.896 1009.44 638 1008.98 638H1000.31ZM1019.51 625.976C1020.92 625.976 1021.96 626.376 1022.65 627.176C1023.34 627.976 1023.68 629.184 1023.68 630.8V636.704C1023.68 637.152 1023.55 637.504 1023.28 637.76C1023.02 638.016 1022.66 638.144 1022.2 638.144C1021.73 638.144 1021.36 638.016 1021.09 637.76C1020.82 637.504 1020.68 637.152 1020.68 636.704V630.968C1020.68 630.056 1020.51 629.392 1020.16 628.976C1019.82 628.56 1019.28 628.352 1018.55 628.352C1017.68 628.352 1016.99 628.624 1016.46 629.168C1015.95 629.712 1015.69 630.44 1015.69 631.352V636.704C1015.69 637.152 1015.56 637.504 1015.28 637.76C1015.01 638.016 1014.64 638.144 1014.18 638.144C1013.72 638.144 1013.35 638.016 1013.08 637.76C1012.82 637.504 1012.69 637.152 1012.69 636.704V627.416C1012.69 627 1012.83 626.664 1013.1 626.408C1013.37 626.152 1013.74 626.024 1014.2 626.024C1014.62 626.024 1014.96 626.152 1015.21 626.408C1015.48 626.648 1015.62 626.968 1015.62 627.368V628.016C1016.02 627.36 1016.56 626.856 1017.23 626.504C1017.9 626.152 1018.66 625.976 1019.51 625.976ZM1032.83 635.912C1033.63 635.96 1034.03 636.32 1034.03 636.992C1034.03 637.376 1033.87 637.672 1033.55 637.88C1033.24 638.072 1032.8 638.152 1032.23 638.12L1031.58 638.072C1028.89 637.88 1027.55 636.44 1027.55 633.752V628.52H1026.35C1025.92 628.52 1025.58 628.424 1025.34 628.232C1025.12 628.04 1025 627.76 1025 627.392C1025 627.024 1025.12 626.744 1025.34 626.552C1025.58 626.36 1025.92 626.264 1026.35 626.264H1027.55V624.056C1027.55 623.624 1027.68 623.28 1027.96 623.024C1028.23 622.768 1028.6 622.64 1029.06 622.64C1029.51 622.64 1029.87 622.768 1030.14 623.024C1030.41 623.28 1030.55 623.624 1030.55 624.056V626.264H1032.59C1033.02 626.264 1033.35 626.36 1033.57 626.552C1033.81 626.744 1033.93 627.024 1033.93 627.392C1033.93 627.76 1033.81 628.04 1033.57 628.232C1033.35 628.424 1033.02 628.52 1032.59 628.52H1030.55V633.968C1030.55 635.152 1031.09 635.784 1032.18 635.864L1032.83 635.912ZM1042.14 626.024C1042.56 625.992 1042.89 626.08 1043.13 626.288C1043.37 626.496 1043.49 626.808 1043.49 627.224C1043.49 627.656 1043.38 627.976 1043.18 628.184C1042.97 628.392 1042.59 628.528 1042.05 628.592L1041.33 628.664C1040.38 628.76 1039.69 629.08 1039.24 629.624C1038.81 630.168 1038.59 630.848 1038.59 631.664V636.704C1038.59 637.168 1038.45 637.528 1038.16 637.784C1037.87 638.024 1037.51 638.144 1037.08 638.144C1036.65 638.144 1036.29 638.024 1036 637.784C1035.73 637.528 1035.59 637.168 1035.59 636.704V627.416C1035.59 626.968 1035.73 626.624 1036 626.384C1036.29 626.144 1036.64 626.024 1037.06 626.024C1037.47 626.024 1037.81 626.144 1038.06 626.384C1038.32 626.608 1038.45 626.936 1038.45 627.368V628.328C1038.75 627.624 1039.2 627.08 1039.79 626.696C1040.4 626.312 1041.07 626.096 1041.81 626.048L1042.14 626.024ZM1049.82 625.976C1051.45 625.976 1052.66 626.384 1053.44 627.2C1054.24 628 1054.64 629.224 1054.64 630.872V636.728C1054.64 637.16 1054.52 637.504 1054.26 637.76C1054 638 1053.65 638.12 1053.2 638.12C1052.79 638.12 1052.44 637.992 1052.17 637.736C1051.92 637.48 1051.79 637.144 1051.79 636.728V636.2C1051.52 636.824 1051.08 637.312 1050.49 637.664C1049.92 638.016 1049.24 638.192 1048.48 638.192C1047.69 638.192 1046.98 638.032 1046.34 637.712C1045.7 637.392 1045.2 636.952 1044.83 636.392C1044.46 635.832 1044.28 635.208 1044.28 634.52C1044.28 633.656 1044.49 632.976 1044.92 632.48C1045.37 631.984 1046.09 631.624 1047.08 631.4C1048.08 631.176 1049.44 631.064 1051.19 631.064H1051.79V630.512C1051.79 629.728 1051.62 629.16 1051.28 628.808C1050.95 628.44 1050.4 628.256 1049.65 628.256C1049.19 628.256 1048.72 628.328 1048.24 628.472C1047.76 628.6 1047.19 628.792 1046.53 629.048C1046.12 629.256 1045.81 629.36 1045.62 629.36C1045.33 629.36 1045.09 629.256 1044.9 629.048C1044.72 628.84 1044.64 628.568 1044.64 628.232C1044.64 627.96 1044.7 627.728 1044.83 627.536C1044.97 627.328 1045.2 627.136 1045.52 626.96C1046.08 626.656 1046.75 626.416 1047.52 626.24C1048.3 626.064 1049.07 625.976 1049.82 625.976ZM1049.08 636.032C1049.88 636.032 1050.52 635.768 1051.02 635.24C1051.53 634.696 1051.79 634 1051.79 633.152V632.648H1051.36C1050.28 632.648 1049.45 632.696 1048.86 632.792C1048.27 632.888 1047.84 633.056 1047.59 633.296C1047.33 633.536 1047.2 633.864 1047.2 634.28C1047.2 634.792 1047.38 635.216 1047.73 635.552C1048.1 635.872 1048.55 636.032 1049.08 636.032ZM1064.24 626.024C1064.66 625.992 1064.99 626.08 1065.23 626.288C1065.47 626.496 1065.59 626.808 1065.59 627.224C1065.59 627.656 1065.48 627.976 1065.28 628.184C1065.07 628.392 1064.69 628.528 1064.15 628.592L1063.43 628.664C1062.48 628.76 1061.79 629.08 1061.34 629.624C1060.91 630.168 1060.69 630.848 1060.69 631.664V636.704C1060.69 637.168 1060.55 637.528 1060.26 637.784C1059.97 638.024 1059.61 638.144 1059.18 638.144C1058.75 638.144 1058.39 638.024 1058.1 637.784C1057.83 637.528 1057.69 637.168 1057.69 636.704V627.416C1057.69 626.968 1057.83 626.624 1058.1 626.384C1058.39 626.144 1058.74 626.024 1059.16 626.024C1059.57 626.024 1059.91 626.144 1060.16 626.384C1060.42 626.608 1060.55 626.936 1060.55 627.368V628.328C1060.85 627.624 1061.3 627.08 1061.89 626.696C1062.5 626.312 1063.17 626.096 1063.91 626.048L1064.24 626.024Z" fill="white"/>
<path d="M973.184 311.664H983.936V318H964.976V284.304H973.184V311.664ZM1000.04 318.384C997.419 318.384 995.051 317.824 992.939 316.704C990.859 315.584 989.211 313.984 987.995 311.904C986.811 309.824 986.219 307.392 986.219 304.608C986.219 301.856 986.827 299.44 988.043 297.36C989.259 295.248 990.923 293.632 993.035 292.512C995.147 291.392 997.515 290.832 1000.14 290.832C1002.76 290.832 1005.13 291.392 1007.24 292.512C1009.36 293.632 1011.02 295.248 1012.24 297.36C1013.45 299.44 1014.06 301.856 1014.06 304.608C1014.06 307.36 1013.44 309.792 1012.19 311.904C1010.97 313.984 1009.29 315.584 1007.15 316.704C1005.04 317.824 1002.67 318.384 1000.04 318.384ZM1000.04 311.28C1001.61 311.28 1002.94 310.704 1004.03 309.552C1005.15 308.4 1005.71 306.752 1005.71 304.608C1005.71 302.464 1005.16 300.816 1004.08 299.664C1003.02 298.512 1001.71 297.936 1000.14 297.936C998.539 297.936 997.211 298.512 996.155 299.664C995.099 300.784 994.571 302.432 994.571 304.608C994.571 306.752 995.083 308.4 996.107 309.552C997.163 310.704 998.475 311.28 1000.04 311.28ZM1028.59 290.832C1030.48 290.832 1032.13 291.216 1033.53 291.984C1034.97 292.752 1036.08 293.76 1036.85 295.008V291.216H1045.05V317.952C1045.05 320.416 1044.56 322.64 1043.57 324.624C1042.61 326.64 1041.12 328.24 1039.1 329.424C1037.12 330.608 1034.64 331.2 1031.66 331.2C1027.69 331.2 1024.48 330.256 1022.01 328.368C1019.55 326.512 1018.14 323.984 1017.79 320.784H1025.9C1026.16 321.808 1026.77 322.608 1027.73 323.184C1028.69 323.792 1029.87 324.096 1031.28 324.096C1032.97 324.096 1034.32 323.6 1035.31 322.608C1036.33 321.648 1036.85 320.096 1036.85 317.952V314.16C1036.05 315.408 1034.94 316.432 1033.53 317.232C1032.13 318 1030.48 318.384 1028.59 318.384C1026.38 318.384 1024.38 317.824 1022.59 316.704C1020.8 315.552 1019.37 313.936 1018.32 311.856C1017.29 309.744 1016.78 307.312 1016.78 304.56C1016.78 301.808 1017.29 299.392 1018.32 297.312C1019.37 295.232 1020.8 293.632 1022.59 292.512C1024.38 291.392 1026.38 290.832 1028.59 290.832ZM1036.85 304.608C1036.85 302.56 1036.27 300.944 1035.12 299.76C1034 298.576 1032.62 297.984 1030.99 297.984C1029.36 297.984 1027.97 298.576 1026.81 299.76C1025.69 300.912 1025.13 302.512 1025.13 304.56C1025.13 306.608 1025.69 308.24 1026.81 309.456C1027.97 310.64 1029.36 311.232 1030.99 311.232C1032.62 311.232 1034 310.64 1035.12 309.456C1036.27 308.272 1036.85 306.656 1036.85 304.608ZM1055.12 288.432C1053.68 288.432 1052.5 288.016 1051.57 287.184C1050.67 286.32 1050.22 285.264 1050.22 284.016C1050.22 282.736 1050.67 281.68 1051.57 280.848C1052.5 279.984 1053.68 279.552 1055.12 279.552C1056.53 279.552 1057.68 279.984 1058.58 280.848C1059.5 281.68 1059.97 282.736 1059.97 284.016C1059.97 285.264 1059.5 286.32 1058.58 287.184C1057.68 288.016 1056.53 288.432 1055.12 288.432ZM1059.2 291.216V318H1050.99V291.216H1059.2ZM1081.47 290.928C1084.6 290.928 1087.1 291.952 1088.96 294C1090.84 296.016 1091.79 298.8 1091.79 302.352V318H1083.63V303.456C1083.63 301.664 1083.16 300.272 1082.24 299.28C1081.31 298.288 1080.06 297.792 1078.49 297.792C1076.92 297.792 1075.68 298.288 1074.75 299.28C1073.82 300.272 1073.36 301.664 1073.36 303.456V318H1065.15V291.216H1073.36V294.768C1074.19 293.584 1075.31 292.656 1076.72 291.984C1078.12 291.28 1079.71 290.928 1081.47 290.928Z" fill="#2D9CDB"/>
<g filter="url(#filter2_d)">
<path d="M948.879 714.242V715.297H939.105V721.977H948.48V723.031H939.105V729.945H949.043V731H937.875V714.242H948.879ZM952.266 730.414V729.242C953.633 729.711 954.977 729.945 956.297 729.945C958.883 729.945 960.176 729.125 960.176 727.484C960.176 726.156 959.219 725.492 957.305 725.492H955.734C953.156 725.492 951.867 724.398 951.867 722.211C951.867 719.867 953.574 718.695 956.988 718.695C958.301 718.695 959.641 718.891 961.008 719.281V720.453C959.641 719.984 958.301 719.75 956.988 719.75C954.395 719.75 953.098 720.57 953.098 722.211C953.098 723.617 953.977 724.32 955.734 724.32H957.305C960.039 724.32 961.406 725.375 961.406 727.484C961.406 729.828 959.703 731 956.297 731C954.977 731 953.633 730.805 952.266 730.414ZM973.5 720.078C972.289 719.891 971.137 719.797 970.043 719.797C966.801 719.797 965.18 721.449 965.18 724.754C965.18 728.137 966.73 729.828 969.832 729.828C970.957 729.828 972.18 729.617 973.5 729.195V720.078ZM974.73 735.453H973.5V730.414C972.109 730.805 970.883 731 969.82 731C965.93 731 963.984 728.926 963.984 724.777C963.984 720.723 966.035 718.695 970.137 718.695C971.801 718.695 973.332 718.863 974.73 719.199V735.453ZM988.629 718.695V731H987.727L987.586 729.43C986.172 730.477 984.594 731 982.852 731C979.945 731 978.492 729.473 978.492 726.418V718.695H979.723V726.453C979.723 728.75 980.785 729.898 982.91 729.898C984.465 729.898 985.961 729.379 987.398 728.34V718.695H988.629ZM997.348 718.695C1000.71 718.695 1002.4 720.559 1002.4 724.285C1002.4 724.551 1002.39 724.828 1002.38 725.117H993.035C993.035 728.336 994.738 729.945 998.145 729.945C999.543 729.945 1000.79 729.75 1001.87 729.359V730.414C1000.79 730.805 999.543 731 998.145 731C993.918 731 991.805 728.902 991.805 724.707C991.805 720.699 993.652 718.695 997.348 718.695ZM993.035 724.016H1001.21C1001.17 721.156 999.879 719.727 997.348 719.727C994.613 719.727 993.176 721.156 993.035 724.016ZM1014.47 730.648C1013.45 730.883 1012.36 731 1011.19 731C1007.05 731 1004.98 728.871 1004.98 724.613C1004.98 720.668 1007.05 718.695 1011.19 718.695C1012.36 718.695 1013.45 718.812 1014.47 719.047V720.102C1013.38 719.867 1012.32 719.75 1011.3 719.75C1007.98 719.75 1006.32 721.371 1006.32 724.613C1006.32 728.168 1007.98 729.945 1011.3 729.945C1012.32 729.945 1013.38 729.828 1014.47 729.594V730.648ZM1018.93 714.242V715.648H1017.47V714.242H1018.93ZM1018.82 718.695V731H1017.59V718.695H1018.82ZM1028.67 731V718.695H1029.55L1029.68 720.242C1030.94 719.211 1032.3 718.695 1033.77 718.695C1035.71 718.695 1036.96 719.258 1037.53 720.383C1038.95 719.258 1040.38 718.695 1041.83 718.695C1044.58 718.695 1045.96 720.059 1045.96 722.785V731H1044.73V722.785C1044.73 720.793 1043.76 719.797 1041.82 719.797C1040.27 719.797 1039 720.328 1037.99 721.391V731H1036.76V722.586C1036.76 720.727 1035.76 719.797 1033.76 719.797C1032.3 719.797 1031.02 720.328 1029.9 721.391V731H1028.67ZM1051.3 714.242V715.648H1049.84V714.242H1051.3ZM1051.18 718.695V731H1049.95V718.695H1051.18ZM1055.18 731V718.695H1056.06L1056.21 720.266C1057.78 719.219 1059.32 718.695 1060.83 718.695C1063.82 718.695 1065.32 719.988 1065.32 722.574V731H1064.09V722.539C1064.09 720.711 1062.98 719.797 1060.77 719.797C1059.29 719.797 1057.84 720.316 1056.41 721.355V731H1055.18ZM1069.08 731V714.242H1070.31V720.031C1071.75 719.141 1073.22 718.695 1074.73 718.695C1077.72 718.695 1079.21 720.223 1079.21 723.277V731H1077.98V722.773C1077.98 720.789 1076.88 719.797 1074.67 719.797C1073.19 719.797 1071.74 720.316 1070.31 721.355V731H1069.08ZM1082.27 727.52C1082.27 725.074 1083.9 723.852 1087.15 723.852C1088.3 723.852 1089.52 723.93 1090.83 724.086V722.574C1090.83 720.691 1089.64 719.75 1087.28 719.75C1086.01 719.75 1084.71 719.945 1083.39 720.336V719.281C1084.71 718.891 1086.01 718.695 1087.28 718.695C1090.46 718.695 1092.06 719.969 1092.06 722.516V731H1091.31L1091.03 729.781C1089.49 730.594 1088 731 1086.55 731C1083.7 731 1082.27 729.84 1082.27 727.52ZM1087.15 724.906C1084.72 724.906 1083.5 725.766 1083.5 727.484C1083.5 729.125 1084.52 729.945 1086.55 729.945C1088.05 729.945 1089.48 729.547 1090.83 728.75V725.141C1089.52 724.984 1088.3 724.906 1087.15 724.906ZM1101.45 730.414V729.242C1102.81 729.711 1104.16 729.945 1105.48 729.945C1108.06 729.945 1109.36 729.125 1109.36 727.484C1109.36 726.156 1108.4 725.492 1106.48 725.492H1104.91C1102.34 725.492 1101.05 724.398 1101.05 722.211C1101.05 719.867 1102.75 718.695 1106.17 718.695C1107.48 718.695 1108.82 718.891 1110.19 719.281V720.453C1108.82 719.984 1107.48 719.75 1106.17 719.75C1103.57 719.75 1102.28 720.57 1102.28 722.211C1102.28 723.617 1103.16 724.32 1104.91 724.32H1106.48C1109.22 724.32 1110.59 725.375 1110.59 727.484C1110.59 729.828 1108.88 731 1105.48 731C1104.16 731 1102.81 730.805 1101.45 730.414ZM1118.71 718.695C1122.07 718.695 1123.76 720.559 1123.76 724.285C1123.76 724.551 1123.75 724.828 1123.73 725.117H1114.39C1114.39 728.336 1116.1 729.945 1119.5 729.945C1120.9 729.945 1122.14 729.75 1123.23 729.359V730.414C1122.14 730.805 1120.9 731 1119.5 731C1115.28 731 1113.16 728.902 1113.16 724.707C1113.16 720.699 1115.01 718.695 1118.71 718.695ZM1114.39 724.016H1122.57C1122.53 721.156 1121.24 719.727 1118.71 719.727C1115.97 719.727 1114.54 721.156 1114.39 724.016ZM1126.92 731V718.695H1127.8L1127.95 720.266C1129.52 719.219 1131.06 718.695 1132.57 718.695C1135.56 718.695 1137.06 719.988 1137.06 722.574V731H1135.83V722.539C1135.83 720.711 1134.72 719.797 1132.51 719.797C1131.04 719.797 1129.58 720.316 1128.15 721.355V731H1126.92ZM1140.82 731V714.242H1142.05V720.031C1143.49 719.141 1144.96 718.695 1146.47 718.695C1149.46 718.695 1150.96 720.223 1150.96 723.277V731H1149.73V722.773C1149.73 720.789 1148.62 719.797 1146.41 719.797C1144.93 719.797 1143.48 720.316 1142.05 721.355V731H1140.82ZM1154.02 727.52C1154.02 725.074 1155.64 723.852 1158.89 723.852C1160.04 723.852 1161.27 723.93 1162.57 724.086V722.574C1162.57 720.691 1161.39 719.75 1159.02 719.75C1157.75 719.75 1156.46 719.945 1155.13 720.336V719.281C1156.46 718.891 1157.75 718.695 1159.02 718.695C1162.21 718.695 1163.8 719.969 1163.8 722.516V731H1163.05L1162.77 729.781C1161.23 730.594 1159.74 731 1158.29 731C1155.44 731 1154.02 729.84 1154.02 727.52ZM1158.89 724.906C1156.46 724.906 1155.25 725.766 1155.25 727.484C1155.25 729.125 1156.26 729.945 1158.29 729.945C1159.79 729.945 1161.22 729.547 1162.57 728.75V725.141C1161.27 724.984 1160.04 724.906 1158.89 724.906Z" fill="#2D9CDB"/>
</g>
<path d="M296.68 318.03H201.84V416.89H296.68V318.03Z" fill="#E0E0E0"/>
<path d="M290.26 318.03H195.42V416.89H290.26V318.03Z" fill="#EBEBEB"/>
<path d="M277.51 331.32H208.17V403.6H277.51V331.32Z" fill="#FAFAFA"/>
<path d="M208.17 404.08C207.661 404.802 207.081 405.472 206.44 406.08C205.32 407.24 203.76 408.82 202.02 410.54C200.28 412.26 198.67 413.79 197.5 414.89C196.89 415.517 196.22 416.083 195.5 416.58C196.006 415.859 196.582 415.189 197.22 414.58C198.33 413.42 199.9 411.84 201.65 410.12C203.4 408.4 205 406.86 206.18 405.76C206.78 405.129 207.447 404.565 208.17 404.08Z" fill="#E0E0E0"/>
<path d="M277.51 403.9C278.233 404.408 278.903 404.987 279.51 405.63C280.67 406.75 282.25 408.31 283.96 410.05C285.67 411.79 287.22 413.4 288.31 414.57C288.937 415.18 289.503 415.85 290 416.57C289.294 416.063 288.641 415.487 288.05 414.85C286.88 413.74 285.3 412.17 283.58 410.42C281.86 408.67 280.32 407.07 279.23 405.89C278.587 405.29 278.011 404.623 277.51 403.9Z" fill="#E0E0E0"/>
<path d="M277.32 331.51C277.827 330.787 278.407 330.116 279.05 329.51C280.17 328.35 281.73 326.77 283.47 325.05C285.21 323.33 286.82 321.8 287.99 320.71C288.596 320.079 289.266 319.512 289.99 319.02C289.485 319.743 288.909 320.413 288.27 321.02C287.16 322.18 285.59 323.77 283.84 325.49C282.09 327.21 280.49 328.75 279.31 329.84C278.707 330.465 278.04 331.025 277.32 331.51Z" fill="#E0E0E0"/>
<path d="M208 331.69C207.282 331.191 206.612 330.625 206 330C204.83 328.89 203.26 327.33 201.54 325.59C199.82 323.85 198.28 322.24 197.19 321.06C196.56 320.453 195.993 319.783 195.5 319.06C196.207 319.569 196.86 320.149 197.45 320.79C198.62 321.9 200.2 323.46 201.92 325.21C203.64 326.96 205.18 328.57 206.27 329.74C206.916 330.325 207.496 330.979 208 331.69Z" fill="#E0E0E0"/>
<path d="M277.32 403.6C277.32 403.6 277.32 403.48 277.32 403.25C277.32 403.02 277.32 402.67 277.32 402.25C277.32 401.35 277.32 400.05 277.32 398.35C277.32 394.94 277.32 389.96 277.26 383.63C277.26 370.97 277.19 352.93 277.14 331.33L277.37 331.55H208.23L208.49 331.29C208.49 357.82 208.49 382.64 208.49 403.57L208.27 403.34L258.35 403.46L272.41 403.52H276.13H277.13H277.46H276.22H272.54L258.54 403.58L208.32 403.69H208V403.47C208 382.54 208 357.72 208 331.19V330.93H208.27H277.41H277.64V331.16C277.59 352.82 277.55 370.91 277.52 383.6C277.52 389.91 277.52 394.87 277.46 398.28C277.46 399.95 277.46 401.28 277.46 402.13C277.46 402.55 277.46 402.88 277.46 403.13C277.46 403.38 277.32 403.6 277.32 403.6Z" fill="#E0E0E0"/>
<path d="M245.013 367.395L244.125 368.869L256.582 376.369L257.469 374.895L245.013 367.395Z" fill="#E0E0E0"/>
<path d="M245 365.79C245.494 366.091 245.85 366.574 245.991 367.136C246.131 367.698 246.045 368.292 245.75 368.79C245.449 369.285 244.965 369.641 244.404 369.781C243.842 369.921 243.248 369.835 242.75 369.54L242.09 369.15C241.597 368.847 241.243 368.364 241.103 367.803C240.962 367.242 241.048 366.649 241.34 366.15C241.641 365.655 242.124 365.299 242.686 365.159C243.247 365.019 243.842 365.105 244.34 365.4L245 365.79Z" fill="#EBEBEB"/>
<path d="M239 350.28C241.104 351.543 242.786 353.401 243.833 355.62C244.88 357.838 245.246 360.318 244.883 362.745C244.521 365.171 243.446 367.436 241.796 369.252C240.146 371.068 237.994 372.353 235.613 372.945C233.232 373.538 230.729 373.411 228.421 372.58C226.112 371.749 224.102 370.252 222.644 368.278C221.187 366.305 220.347 363.943 220.233 361.492C220.118 359.041 220.733 356.611 222 354.51C223.698 351.699 226.44 349.676 229.626 348.883C232.812 348.09 236.183 348.593 239 350.28Z" fill="#EBEBEB"/>
<path d="M239.4 350.56L238.97 350.28C237.487 349.391 235.835 348.818 234.12 348.6C232.35 355.88 227.59 362.82 222.4 368C223.392 369.431 224.677 370.634 226.17 371.53L226.84 371.9C233 366.42 238.24 358.78 239.4 350.56Z" fill="#FAFAFA"/>
<path d="M256.64 375.39C256.152 376.2 255.916 377.136 255.96 378.081C256.005 379.025 256.329 379.935 256.89 380.695C257.452 381.456 258.227 382.033 259.116 382.353C260.006 382.673 260.97 382.722 261.888 382.494C262.805 382.266 263.635 381.771 264.271 381.072C264.907 380.373 265.322 379.501 265.462 378.566C265.602 377.631 265.463 376.675 265.06 375.82C264.657 374.964 264.01 374.248 263.2 373.76C262.663 373.434 262.067 373.217 261.445 373.122C260.824 373.028 260.19 373.057 259.58 373.208C258.971 373.36 258.397 373.631 257.892 374.005C257.387 374.38 256.962 374.85 256.64 375.39ZM263.57 379.57C263.232 380.133 262.734 380.584 262.14 380.864C261.546 381.145 260.882 381.242 260.232 381.145C259.582 381.048 258.976 380.76 258.49 380.318C258.003 379.876 257.659 379.3 257.501 378.662C257.343 378.024 257.377 377.354 257.6 376.736C257.823 376.118 258.224 375.58 258.753 375.19C259.282 374.8 259.914 374.575 260.571 374.545C261.227 374.515 261.878 374.68 262.44 375.02C263.192 375.474 263.734 376.209 263.945 377.061C264.157 377.914 264.022 378.816 263.57 379.57Z" fill="#E0E0E0"/>
<path d="M230 359.54C230.13 359.32 231.83 359.69 231.83 359.69C231.83 359.69 232.83 358.26 233 358.27C233.17 358.28 233.42 360.06 233.42 360.06C234.014 360.212 234.588 360.433 235.13 360.72C235.13 360.9 233.56 361.72 233.56 361.72C233.56 361.72 233.64 363.47 233.45 363.55C233.26 363.63 232.06 362.35 232.06 362.35C231.487 362.577 230.89 362.734 230.28 362.82C230.1 362.71 230.99 361.12 230.99 361.12C230.99 361.12 229.84 359.75 230 359.54Z" fill="#E0E0E0"/>
<path d="M233.17 352.94C233.25 352.71 234.99 352.7 234.99 352.7C234.99 352.7 235.62 351.09 235.82 351.06C236.02 351.03 236.62 352.71 236.62 352.71C237.232 352.73 237.84 352.824 238.43 352.99C238.51 353.15 237.11 354.26 237.11 354.26C237.11 354.26 237.57 355.95 237.4 356.08C237.23 356.21 235.78 355.21 235.78 355.21C235.273 355.554 234.726 355.833 234.15 356.04C233.94 355.98 234.48 354.24 234.48 354.24C234.48 354.24 233.09 353.18 233.17 352.94Z" fill="#E0E0E0"/>
<path d="M225.44 365.51C225.27 365.69 226.08 367.23 226.08 367.23C226.08 367.23 224.95 368.54 225.01 368.73C225.07 368.92 226.85 368.66 226.85 368.66C226.85 368.66 227.77 370.15 227.95 370.13C228.13 370.11 228.45 368.37 228.45 368.37C228.45 368.37 230.16 367.99 230.19 367.78C230.22 367.57 228.66 366.78 228.66 366.78C228.735 366.169 228.735 365.551 228.66 364.94C228.51 364.79 227.21 366.07 227.21 366.07C227.21 366.07 225.61 365.33 225.44 365.51Z" fill="#E0E0E0"/>
<path d="M318.13 454C318.13 454 329.38 455.05 324.2 479.8C319.02 504.55 314.27 517.4 314.27 517.4C314.27 517.4 313.68 522.98 318.14 522.61C322.6 522.24 331.55 518.2 334.85 522.88C338.28 527.74 335.75 533.88 329.03 540.51C322.31 547.14 308.1 562.18 306.82 563.51C305.54 564.84 304.69 567.62 307.82 567.85C310.95 568.08 332.53 564.55 333.59 574.92C334.65 585.29 312.89 600.65 310.54 602.38C308.19 604.11 307.87 605.38 308.48 606.76C309.09 608.14 316.24 606.27 322.48 605.52C328.72 604.77 335.89 605 336 611C336.11 617 325 632.78 291.2 645.64L275.14 650.57L262.6 639.28C237.23 613.49 233.73 594.55 236.34 589.11C238.95 583.67 245.7 586.53 251.01 589.8C256.32 593.07 262.01 597.8 263.18 596.75C264.35 595.7 264.55 594.45 263.13 591.9C261.71 589.35 248.35 566.31 253.64 557.33C258.93 548.35 277.11 560.59 280.01 561.66C282.91 562.73 283.26 559.86 282.68 558.12C282.1 556.38 275.46 536.74 272.11 527.92C268.76 519.1 269.02 512.45 274.17 509.47C279.17 506.59 285.57 513.99 289.47 516.19C293.37 518.39 295.16 513.07 295.16 513.07C295.16 513.07 296.16 499.41 301.82 474.76C307.48 450.11 318.36 454 318.36 454" fill="#F5F5F5"/>
<path d="M313.54 476.12C313.527 476.275 313.503 476.428 313.47 476.58C313.4 476.91 313.31 477.35 313.2 477.91L312.1 483L308 501.69C304.58 517.52 299.87 539.32 294.67 563.41C289.47 587.5 284.75 609.35 281.16 625.11C279.35 632.96 277.88 639.32 276.85 643.76C276.33 645.93 275.92 647.63 275.63 648.82C275.49 649.37 275.38 649.82 275.3 650.13C275.271 650.282 275.224 650.43 275.16 650.57C275.175 650.419 275.198 650.269 275.23 650.12C275.3 649.79 275.39 649.35 275.5 648.79L276.6 643.7L280.7 625C284.17 609.22 288.87 587.39 294.03 563.27C299.19 539.15 303.95 517.34 307.54 501.58C309.35 493.73 310.82 487.37 311.85 482.93C312.37 480.76 312.78 479.06 313.07 477.87L313.4 476.55C313.434 476.403 313.481 476.259 313.54 476.12Z" fill="#E0E0E0"/>
<path d="M322.57 529C321.45 530.013 320.272 530.958 319.04 531.83L310.43 538.5C307.07 541.11 304.01 543.5 301.74 545.09C300.61 545.9 299.67 546.54 299.02 546.96C298.694 547.209 298.334 547.408 297.95 547.55C297.95 547.48 299.28 546.44 301.47 544.72L310 538C313.36 535.39 316.46 533.08 318.74 531.48C319.88 530.68 320.82 530.04 321.48 529.62C321.809 529.358 322.177 529.149 322.57 529Z" fill="#E0E0E0"/>
<path d="M296.56 546.81C296.41 546.91 291.71 540.49 286.06 532.46C280.41 524.43 275.95 517.84 276.06 517.74C276.17 517.64 280.91 524.06 286.57 532.09C292.23 540.12 296.71 546.71 296.56 546.81Z" fill="#E0E0E0"/>
<path d="M289.47 589.79C289.085 589.627 288.725 589.411 288.4 589.15C287.73 588.71 286.8 588.04 285.65 587.15C283.36 585.45 280.25 583.03 276.96 580.15C273.67 577.27 270.83 574.56 268.83 572.53C267.83 571.53 267.04 570.67 266.5 570.08C266.196 569.783 265.933 569.447 265.72 569.08C266.925 570.039 268.07 571.071 269.15 572.17C271.23 574.11 274.15 576.78 277.39 579.63C280.63 582.48 283.72 584.95 285.93 586.74C287.173 587.681 288.355 588.699 289.47 589.79Z" fill="#E0E0E0"/>
<path d="M316.53 578.84C315.286 579.531 313.989 580.12 312.65 580.6C310.22 581.6 306.84 582.97 303.1 584.43C299.36 585.89 295.96 587.17 293.49 588.07C292.172 588.616 290.815 589.061 289.43 589.4C290.681 588.718 291.981 588.129 293.32 587.64C295.75 586.64 299.12 585.28 302.87 583.82C306.62 582.36 310.01 581.07 312.48 580.17C313.795 579.627 315.148 579.182 316.53 578.84Z" fill="#E0E0E0"/>
<path d="M315.09 617.58C314.676 617.843 314.233 618.058 313.77 618.22L310.07 619.73C306.93 620.98 302.59 622.66 297.78 624.48C292.97 626.3 288.59 627.92 285.41 629.06L281.64 630.38C281.187 630.567 280.714 630.701 280.23 630.78C280.642 630.513 281.085 630.299 281.55 630.14L285.25 628.63C288.39 627.38 292.73 625.7 297.54 623.88C302.35 622.06 306.73 620.44 309.9 619.3L313.68 617.98C314.133 617.791 314.606 617.657 315.09 617.58Z" fill="#E0E0E0"/>
<path d="M281 630.23C280.541 629.977 280.109 629.679 279.71 629.34C278.9 628.73 277.71 627.82 276.34 626.69C273.53 624.41 269.72 621.18 265.65 617.45C261.58 613.72 258.03 610.2 255.52 607.6C254.27 606.29 253.27 605.22 252.59 604.47C252.217 604.101 251.882 603.696 251.59 603.26C252.026 603.544 252.425 603.879 252.78 604.26L255.85 607.26C258.44 609.78 262.03 613.26 266.09 616.96C270.15 620.66 273.91 623.96 276.64 626.33L279.87 629.13C280.285 629.454 280.664 629.823 281 630.23Z" fill="#E0E0E0"/>
<path d="M452.257 597.599L416.337 643.924L462.994 680.102L498.915 633.777L452.257 597.599Z" fill="#E0E0E0"/>
<path d="M471.292 612.524L435.534 658.834L482.175 694.849L517.933 648.539L471.292 612.524Z" fill="#EBEBEB"/>
<path d="M479.47 666.7L476.62 670.37L461.32 658.5L476.64 638.74L491.58 650.32L488.74 654L478.34 645.94L475 650.22L484.17 657.34L481.42 660.9L472.24 653.78L468.69 658.36L479.47 666.7Z" fill="white"/>
<path d="M448.24 644.43C448.24 644.57 441.09 644.58 432.29 644.43C423.49 644.28 416.29 644.06 416.29 643.92C416.29 643.78 423.43 643.77 432.29 643.92C441.15 644.07 448.24 644.28 448.24 644.43Z" fill="#EBEBEB"/>
<path d="M458.58 631.09C458.58 631.23 451.44 631.24 442.63 631.09C433.82 630.94 426.68 630.72 426.68 630.58C426.68 630.44 433.83 630.43 442.68 630.58C451.53 630.73 458.58 631 458.58 631.09Z" fill="#EBEBEB"/>
<path d="M468.92 617.75C468.92 617.9 461.78 617.9 452.97 617.75C444.16 617.6 436.97 617.38 436.97 617.24C436.97 617.1 444.12 617.09 452.97 617.24C461.82 617.39 468.93 617.61 468.92 617.75Z" fill="#EBEBEB"/>
<path d="M460.68 604.12C458.468 604.353 456.241 604.406 454.02 604.28C451.794 604.334 449.567 604.21 447.36 603.91C449.576 603.69 451.806 603.64 454.03 603.76C456.252 603.713 458.475 603.833 460.68 604.12Z" fill="#EBEBEB"/>
<path d="M409.7 522.86H350.66V581.48H409.7V522.86Z" fill="#EBEBEB"/>
<path d="M435.48 522.86H376.44V581.48H435.48V522.86Z" fill="#F5F5F5"/>
<path d="M393.56 552.93C393.56 545.39 399.35 540 407.14 540C409.078 539.918 411.009 540.274 412.791 541.041C414.572 541.808 416.158 542.966 417.43 544.43L413.71 547.86C412.949 546.931 411.988 546.185 410.899 545.678C409.81 545.17 408.621 544.915 407.42 544.93C405.298 544.93 403.264 545.773 401.763 547.273C400.263 548.773 399.42 550.808 399.42 552.93C399.42 555.052 400.263 557.087 401.763 558.587C403.264 560.087 405.298 560.93 407.42 560.93C408.627 560.937 409.82 560.67 410.909 560.151C411.998 559.631 412.956 558.872 413.71 557.93L417.43 561.36C415.07 564.26 411.43 565.83 407.1 565.83C399.35 565.87 393.56 560.47 393.56 552.93Z" fill="white"/>
<path d="M376.17 562.33C376.26 562.45 370.62 566.83 363.57 572.11C356.52 577.39 350.74 581.6 350.66 581.48C350.58 581.36 356.21 576.99 363.26 571.7C370.31 566.41 376.09 562.22 376.17 562.33Z" fill="#E0E0E0"/>
<path d="M376.17 545.45C376.26 545.57 370.62 549.95 363.57 555.24C356.52 560.53 350.74 564.72 350.66 564.6C350.58 564.48 356.21 560.11 363.26 554.82C370.31 549.53 376.09 545.34 376.17 545.45Z" fill="#E0E0E0"/>
<path d="M376.17 528.58C376.26 528.69 370.62 533.07 363.57 538.36C356.52 543.65 350.74 547.84 350.66 547.73C350.58 547.62 356.21 543.23 363.26 537.94C370.31 532.65 376.09 528.46 376.17 528.58Z" fill="#E0E0E0"/>
<path d="M361.3 522.86C359.691 524.391 357.966 525.795 356.14 527.06C354.413 528.461 352.581 529.728 350.66 530.85C352.265 529.311 353.99 527.903 355.82 526.64C357.546 525.24 359.378 523.976 361.3 522.86Z" fill="#E0E0E0"/>
<path d="M478.7 367.13V468.54H347.71L342.99 367.84L478.7 367.13Z" fill="#E0E0E0"/>
<path d="M342.99 367.73V468.55H473.98V367.73H342.99Z" fill="white"/>
<path d="M474.48 469.05H342.48V367.22H474.48V469.05ZM343.48 468.05H473.48V368.22H343.48V468.05Z" fill="#E0E0E0"/>
<path d="M459.79 378.08H357.18V455.27H459.79V378.08Z" fill="white"/>
<path d="M459.79 378.08H459.3H457.85H452.26L431.26 378.14L357.26 378.26L357.5 378.02C357.5 401.18 357.5 427.46 357.5 455.21L357.24 454.95L459.85 455L459.64 455.21C459.69 431.89 459.72 412.62 459.75 399.16C459.75 392.43 459.75 387.16 459.81 383.56C459.81 381.76 459.81 380.39 459.81 379.45C459.81 378.51 459.81 378.02 459.81 378.02C459.81 378.02 459.81 378.48 459.81 379.4C459.81 380.32 459.81 381.69 459.81 383.47C459.81 387.06 459.81 392.32 459.87 399.03C459.87 412.52 459.93 431.83 459.98 455.21V455.43H459.76H357.15H356.89V455.17C356.89 427.42 356.89 401.17 356.89 377.98V377.75H357.12L431.31 377.86L452.31 377.93H457.85H459.74L459.79 378.08Z" fill="#E0E0E0"/>
<path d="M343 367.49C343.787 367.861 344.532 368.317 345.22 368.85C346.55 369.74 348.37 371.01 350.33 372.46C352.29 373.91 354.04 375.29 355.27 376.32C355.969 376.838 356.613 377.428 357.19 378.08C356.427 377.667 355.71 377.174 355.05 376.61L350.05 372.88L345.05 369.15C344.315 368.663 343.629 368.107 343 367.49Z" fill="#E0E0E0"/>
<path d="M474 367.72C471.796 369.653 469.478 371.453 467.06 373.11C464.746 374.921 462.325 376.591 459.81 378.11C462.017 376.181 464.334 374.381 466.75 372.72C469.064 370.909 471.485 369.239 474 367.72Z" fill="#E0E0E0"/>
<path d="M459.27 455.27C461.891 457.287 464.404 459.44 466.8 461.72C469.314 463.866 471.711 466.146 473.98 468.55C471.359 466.533 468.846 464.38 466.45 462.1C463.939 459.951 461.542 457.671 459.27 455.27Z" fill="#E0E0E0"/>
<path d="M343 468.55C345.16 466.247 347.447 464.067 349.85 462.02C352.135 459.839 354.538 457.786 357.05 455.87C354.887 458.17 352.6 460.35 350.2 462.4C347.912 464.578 345.509 466.631 343 468.55Z" fill="#E0E0E0"/>
<path d="M404.41 419.8C404.297 418.727 404.27 417.647 404.33 416.57C404.4 415.3 404.33 414 404.33 412.73C404.28 408.2 401.26 405.41 396.81 405.46C394.716 405.674 392.721 406.455 391.04 407.72C383.14 413.13 386.04 425.03 391.04 431.19C392.677 433.145 394.639 434.802 396.84 436.09C399.59 437.61 404.14 437.72 406.04 435.09C406.774 434.061 407.227 432.859 407.354 431.601C407.48 430.343 407.275 429.074 406.76 427.92C405.567 425.349 404.774 422.611 404.41 419.8Z" fill="#EBEBEB"/>
<path d="M406 401.91C405.22 404.37 403 405.91 401.09 405.26C399.18 404.61 398.23 402.15 399.02 399.68C399.81 397.21 402.02 395.68 403.93 396.33C405.84 396.98 406.83 399.44 406 401.91Z" fill="#EBEBEB"/>
<path d="M397 401.47C397 403.28 395.81 404.73 394.39 404.71C392.97 404.69 391.85 403.21 391.87 401.4C391.89 399.59 393.06 398.14 394.48 398.16C395.9 398.18 397 399.66 397 401.47Z" fill="#EBEBEB"/>
<path d="M390.7 402.88C391.4 404.34 391.05 405.97 389.91 406.52C388.77 407.07 387.27 406.34 386.56 404.88C385.85 403.42 386.21 401.79 387.35 401.24C388.49 400.69 390 401.42 390.7 402.88Z" fill="#EBEBEB"/>
<path d="M386.11 406.65C386.371 406.969 386.538 407.356 386.59 407.765C386.642 408.175 386.578 408.59 386.405 408.965C386.232 409.34 385.957 409.658 385.612 409.884C385.267 410.11 384.865 410.235 384.452 410.243C384.039 410.251 383.633 410.143 383.279 409.932C382.924 409.72 382.637 409.413 382.449 409.045C382.261 408.678 382.18 408.265 382.216 407.854C382.251 407.443 382.402 407.05 382.65 406.72C383.35 405.78 384.9 405.75 386.11 406.65Z" fill="#EBEBEB"/>
<path d="M384 411.58C384.306 411.762 384.555 412.026 384.718 412.342C384.882 412.658 384.953 413.014 384.924 413.369C384.895 413.724 384.767 414.063 384.554 414.349C384.342 414.634 384.053 414.854 383.722 414.984C383.39 415.113 383.029 415.147 382.679 415.081C382.329 415.015 382.005 414.853 381.743 414.611C381.481 414.37 381.292 414.06 381.198 413.717C381.104 413.374 381.108 413.011 381.21 412.67C381.442 412.161 381.863 411.763 382.384 411.559C382.905 411.356 383.484 411.363 384 411.58Z" fill="#EBEBEB"/>
<path d="M417.28 419.8C417.393 418.727 417.42 417.647 417.36 416.57C417.3 415.3 417.36 414 417.36 412.73C417.41 408.2 420.44 405.41 424.89 405.46C426.98 405.675 428.971 406.457 430.65 407.72C438.56 413.13 435.65 425.03 430.65 431.19C429.015 433.147 427.053 434.805 424.85 436.09C422.1 437.61 417.55 437.72 415.65 435.09C414.917 434.061 414.465 432.858 414.339 431.6C414.213 430.343 414.416 429.075 414.93 427.92C416.127 425.351 416.92 422.612 417.28 419.8Z" fill="#EBEBEB"/>
<path d="M415.65 401.91C416.44 404.37 418.65 405.91 420.57 405.26C422.49 404.61 423.42 402.15 422.64 399.68C421.86 397.21 419.64 395.68 417.72 396.33C415.8 396.98 414.87 399.44 415.65 401.91Z" fill="#EBEBEB"/>
<path d="M424.69 401.47C424.69 403.28 425.88 404.73 427.3 404.71C428.72 404.69 429.85 403.21 429.82 401.4C429.79 399.59 428.63 398.14 427.21 398.16C425.79 398.18 424.67 399.66 424.69 401.47Z" fill="#EBEBEB"/>
<path d="M431 402.88C430.29 404.34 430.64 405.97 431.78 406.52C432.92 407.07 434.42 406.34 435.13 404.88C435.84 403.42 435.49 401.79 434.34 401.24C433.19 400.69 431.7 401.42 431 402.88Z" fill="#EBEBEB"/>
<path d="M435.58 406.65C435.026 406.983 434.623 407.519 434.457 408.145C434.29 408.77 434.374 409.435 434.69 410C435.39 410.94 436.94 411 438.15 410.07C438.455 409.938 438.727 409.738 438.944 409.486C439.161 409.234 439.318 408.936 439.403 408.614C439.488 408.293 439.499 407.956 439.436 407.63C439.372 407.303 439.235 406.995 439.035 406.729C438.835 406.463 438.578 406.246 438.282 406.094C437.986 405.942 437.659 405.859 437.327 405.852C436.994 405.844 436.664 405.912 436.362 406.05C436.059 406.188 435.792 406.393 435.58 406.65Z" fill="#EBEBEB"/>
<path d="M437.73 411.58C437.185 411.683 436.701 411.992 436.379 412.443C436.057 412.893 435.921 413.451 436 414C436.024 414.508 436.206 414.995 436.52 415.395C436.835 415.794 437.266 416.085 437.754 416.228C438.242 416.37 438.762 416.356 439.242 416.189C439.722 416.021 440.137 415.708 440.431 415.293C440.724 414.877 440.88 414.381 440.877 413.873C440.875 413.364 440.713 412.87 440.416 412.458C440.119 412.045 439.7 411.736 439.218 411.574C438.737 411.411 438.217 411.403 437.73 411.55V411.58Z" fill="#EBEBEB"/>
<path d="M532.74 699C532.74 699.14 431.21 699.26 306.01 699.26C180.81 699.26 79.2598 699.14 79.2598 699C79.2598 698.86 180.76 698.74 306.01 698.74C431.26 698.74 532.74 698.86 532.74 699Z" fill="#263238"/>
<path d="M121.27 596.89C122.91 605.64 113.61 615.81 112.76 619.59C111.91 623.37 112.3 627.59 114.76 630.66C116.972 633.188 120.066 634.776 123.41 635.1C126.721 635.408 130.058 635.29 133.34 634.75L164 631" fill="#2D9CDB"/>
<path d="M203.44 516.72L227.16 532.59L226.91 590.99C226.91 590.99 228.55 620.87 226.5 625.78C224.45 630.69 121.28 638.48 121.28 638.48C121.28 638.48 120.06 599.99 121.28 580.75C122.5 561.51 155.63 507.75 155.63 507.75L203.44 516.72Z" fill="#2D9CDB"/>
<path d="M222.37 636.37C222.37 636.37 258.46 613.52 268.07 617.16C277.68 620.8 301.18 657.89 301.18 657.89L287.6 683.06L257.14 660.21C257.14 660.21 257.8 684.72 235.62 689.35C213.44 693.98 222.37 636.37 222.37 636.37Z" fill="#EB996E"/>
<path d="M230.6 536.07L231.27 536.94C233.62 539.94 241.38 550.22 243.97 556.55C247.03 564.05 253.17 578.02 256.57 583.13C259.97 588.24 278.3 605 283.15 620.61C286.86 632.54 289.29 643.11 289.29 643.11L264.41 654C264.41 654 236.81 620.61 233.74 613.8C230.67 606.99 227.3 600.8 227.3 600.8L224.54 562.33" fill="#FFBE9D"/>
<path d="M120.74 633.54C120.74 633.54 115.08 639.23 115.63 645.02C116.18 650.81 115.63 663.76 115.63 663.76C115.63 663.76 117.88 703.17 155.91 698.48L192.09 695.16C192.09 695.16 212.09 695.72 222.33 687.46C232.57 679.2 235.55 637.46 231.7 633.54L228.7 631.06C228.7 631.06 228.59 627.66 226.58 626.55C224.57 625.44 120.74 633.54 120.74 633.54Z" fill="#F5F5F5"/>
<path d="M120.74 633.54L121.27 633.48L122.84 633.34L128.95 632.83L151.88 631L187 628.43L208.27 627C212 626.77 215.82 626.55 219.73 626.37C221.73 626.29 223.65 626.19 225.66 626.22C225.931 626.221 226.202 626.244 226.47 626.29C226.611 626.337 226.743 626.408 226.86 626.5C226.975 626.572 227.082 626.656 227.18 626.75C227.572 627.109 227.891 627.54 228.12 628.02C228.558 628.963 228.813 629.981 228.87 631.02L228.78 630.84L231.78 633.32C232.387 634.168 232.772 635.155 232.9 636.19C233.084 637.183 233.217 638.184 233.3 639.19C233.46 641.19 233.49 643.25 233.46 645.31C233.388 649.496 233.091 653.676 232.57 657.83C232.063 662.115 231.315 666.369 230.33 670.57C229.388 674.906 227.903 679.106 225.91 683.07C225.147 684.511 224.184 685.838 223.05 687.01C222.457 687.566 221.818 688.072 221.14 688.52C220.505 688.991 219.836 689.415 219.14 689.79C216.35 691.305 213.38 692.461 210.3 693.23C204.319 694.742 198.168 695.475 192 695.41L163.52 698L156.77 698.61C154.54 698.8 152.34 699.07 150.16 699.05C145.901 699.134 141.661 698.457 137.64 697.05C133.875 695.703 130.427 693.596 127.51 690.86C124.822 688.314 122.568 685.345 120.84 682.07C119.246 679.092 117.988 675.946 117.09 672.69C116.26 669.748 115.707 666.735 115.44 663.69C115.66 658.69 115.76 654.2 115.74 650.3C115.74 648.35 115.67 646.54 115.53 644.89C115.437 643.368 115.673 641.843 116.22 640.42C116.967 638.485 118.013 636.68 119.32 635.07C119.755 634.507 120.229 633.976 120.74 633.48L120.39 633.89C120.15 634.16 119.81 634.57 119.39 635.12C118.122 636.74 117.111 638.544 116.39 640.47C115.865 641.874 115.643 643.374 115.74 644.87C115.89 646.53 115.96 648.34 115.99 650.3C116.04 654.21 115.99 658.69 115.75 663.7C116.338 670.063 118.184 676.246 121.18 681.89C122.905 685.115 125.137 688.042 127.79 690.56C130.679 693.241 134.08 695.309 137.79 696.64C141.768 698.005 145.956 698.655 150.16 698.56C152.33 698.56 154.51 698.31 156.73 698.12L163.48 697.49L192 694.9C198.106 694.972 204.196 694.259 210.12 692.78C213.155 692.023 216.082 690.884 218.83 689.39C219.528 689.026 220.197 688.608 220.83 688.14C221.49 687.715 222.106 687.226 222.67 686.68C223.771 685.547 224.707 684.264 225.45 682.87C227.414 678.94 228.882 674.782 229.82 670.49C230.799 666.308 231.543 662.075 232.05 657.81C232.566 653.675 232.863 649.516 232.94 645.35C232.94 643.35 232.94 641.28 232.79 639.28C232.69 638.28 232.59 637.28 232.4 636.34C232.274 635.398 231.932 634.498 231.4 633.71L228.4 631.23L228.32 631.16V631.04C228.274 630.064 228.039 629.107 227.63 628.22C227.423 627.797 227.142 627.414 226.8 627.09C226.717 627.011 226.626 626.941 226.53 626.88C226.44 626.88 226.32 626.72 226.27 626.74C226.042 626.702 225.811 626.682 225.58 626.68C223.58 626.68 221.63 626.75 219.69 626.82C215.79 627 211.97 627.22 208.23 627.44L187 628.84L151.9 631.32L129 633L122.89 633.43L121.31 633.53L120.74 633.54Z" fill="#263238"/>
<path d="M144.84 692.17C144.84 692.17 135.75 680.57 138.78 667.89C141.81 655.21 153.88 633.16 173.61 629.58C193.34 626 201.93 628.75 210.18 634.95C218.43 641.15 223.49 647 233.08 650C242.67 653 270 664.86 270 664.86L266.42 692.17C266.42 692.17 227.26 692.1 218.04 690.17C212.571 689.048 207.2 687.49 201.98 685.51C200.536 688.679 198.31 691.429 195.511 693.502C192.712 695.575 189.433 696.902 185.98 697.36C174.43 698.87 153.66 701.83 144.84 692.17Z" fill="#FFBE9D"/>
<path d="M227.16 532.59C232.636 537.379 237.463 542.862 241.52 548.9C247.17 557.82 253.7 575 253.7 575C253.7 575 225.64 595.48 223.46 595C221.28 594.52 215 558 215 558L227.16 532.59Z" fill="#2D9CDB"/>
<path d="M226.7 611.83C226.653 611.627 226.63 611.419 226.63 611.21C226.63 610.75 226.57 610.21 226.53 609.44C226.45 607.84 226.34 605.63 226.2 602.92C225.92 597.42 225.48 589.82 224.82 581.44C224.16 573.06 223.39 565.44 222.82 560C222.52 557.31 222.28 555.11 222.11 553.52C222.04 552.79 221.98 552.21 221.93 551.75C221.917 551.544 221.917 551.336 221.93 551.13C222.001 551.326 222.045 551.532 222.06 551.74C222.14 552.19 222.23 552.74 222.34 553.49C222.57 555.01 222.87 557.23 223.21 559.96C223.9 565.43 224.72 573.01 225.39 581.4C226.06 589.79 226.39 597.4 226.62 602.91C226.71 605.66 226.76 607.91 226.78 609.44V611.21C226.78 611.419 226.753 611.628 226.7 611.83Z" fill="#263238"/>
<path d="M157.77 698.31C156.606 698.374 155.439 698.259 154.31 697.97C151.216 697.177 148.39 695.576 146.12 693.33C144.552 691.798 143.205 690.055 142.12 688.15C140.879 685.944 139.915 683.592 139.25 681.15C138.447 678.498 137.944 675.764 137.75 673C137.658 671.519 137.765 670.032 138.07 668.58L138.52 666.38C138.71 665.65 138.91 664.91 139.11 664.17C139.932 661.307 141.03 658.531 142.39 655.88C143 654.57 143.79 653.38 144.47 652.17C145.15 650.96 145.95 649.86 146.78 648.82C149.586 645.061 152.814 641.635 156.4 638.61C159.691 635.796 163.24 633.299 167 631.15C167 631.15 166.76 631.34 166.27 631.68L164.15 633.12C162.34 634.42 159.7 636.29 156.69 638.9C153.161 641.941 149.981 645.366 147.21 649.11C146.4 650.11 145.71 651.31 144.94 652.45C144.17 653.59 143.5 654.82 142.94 656.12C141.596 658.745 140.511 661.495 139.7 664.33C139.51 665.06 139.31 665.79 139.11 666.51C138.91 667.23 138.82 667.97 138.67 668.69C138.37 670.099 138.263 671.542 138.35 672.98C138.518 675.718 138.994 678.429 139.77 681.06C140.419 683.453 141.353 685.759 142.55 687.93C143.607 689.817 144.927 691.544 146.47 693.06C148.681 695.3 151.438 696.923 154.47 697.77C155.555 698.032 156.658 698.213 157.77 698.31Z" fill="#263238"/>
<path d="M147.41 650.06C147.012 650.198 146.599 650.289 146.18 650.33C145.38 650.48 144.18 650.63 142.78 650.76C135.228 651.434 127.616 650.633 120.37 648.4C118.99 647.97 117.88 647.58 117.13 647.27C116.732 647.131 116.347 646.957 115.98 646.75C116.399 646.807 116.809 646.918 117.2 647.08C117.97 647.33 119.08 647.66 120.47 648.08C127.715 650.092 135.244 650.886 142.75 650.43C144.19 650.34 145.35 650.24 146.15 650.16C146.566 650.084 146.988 650.051 147.41 650.06Z" fill="#263238"/>
<path d="M129 691.23C129 691.23 128.87 691.15 128.66 690.94C128.356 690.646 128.069 690.336 127.8 690.01C126.783 688.817 125.916 687.504 125.22 686.1C122.967 681.404 122.023 676.187 122.49 671C122.994 665.867 124.174 660.824 126 656C126.66 654.15 127.23 652.66 127.64 651.64C127.822 651.098 128.049 650.573 128.32 650.07C128.198 650.628 128.034 651.177 127.83 651.71L126.34 656.12C124.637 660.953 123.515 665.972 123 671.07C122.544 676.161 123.412 681.283 125.52 685.94C126.475 687.83 127.643 689.604 129 691.23Z" fill="#263238"/>
<path d="M317.38 639.51H257.76V698.71H317.38V639.51Z" fill="#2D9CDB"/>
<g opacity="0.3">
<path opacity="0.3" d="M317.38 639.51H257.76V698.71H317.38V639.51Z" fill="black"/>
</g>
<path d="M343.42 639.51H283.8V698.71H343.42V639.51Z" fill="#2D9CDB"/>
<path d="M319.31 677.11H307.58L305.35 682.52H299.35L310.61 657.26H316.39L327.68 682.52H321.55L319.31 677.11ZM317.47 672.67L313.47 663L309.47 672.67H317.47Z" fill="white"/>
<path d="M283.53 679.38C283.62 679.49 277.92 683.92 270.8 689.25C263.68 694.58 257.8 698.83 257.8 698.72C257.8 698.61 263.41 694.18 270.53 688.84C277.65 683.5 283.44 679.26 283.53 679.38Z" fill="#263238"/>
<path d="M283.53 662.33C283.62 662.45 277.92 666.87 270.8 672.21C263.68 677.55 257.8 681.79 257.8 681.67C257.8 681.55 263.41 677.14 270.53 671.79C277.65 666.44 283.44 662.22 283.53 662.33Z" fill="#263238"/>
<path d="M283.53 645.29C283.62 645.41 277.92 649.83 270.8 655.17C263.68 660.51 257.8 664.74 257.8 664.63C257.8 664.52 263.41 660.09 270.53 654.75C277.65 649.41 283.44 645.18 283.53 645.29Z" fill="#263238"/>
<path d="M268.52 639.51C266.89 641.057 265.145 642.477 263.3 643.76C261.552 645.174 259.7 646.455 257.76 647.59C259.387 646.04 261.132 644.619 262.98 643.34C264.725 641.923 266.578 640.643 268.52 639.51Z" fill="#263238"/>
<path d="M249 656C249 656 285.62 666 288 664.78C290.38 663.56 310.28 652.6 313 654C314.53 654.8 316.21 653.57 313 660.22C310.74 664.9 301.65 682.15 296.48 691.95C295.405 693.991 293.735 695.657 291.693 696.729C289.65 697.8 287.33 698.226 285.04 697.95L231.78 691.45L249 656Z" fill="#FFBE9D"/>
<path d="M187.33 662.36C187.43 662.36 187.53 663.89 188.1 666.3C188.432 667.706 188.867 669.087 189.4 670.43C190.066 672.067 190.862 673.649 191.78 675.16C192.742 676.654 193.819 678.072 195 679.4C195.964 680.476 197.007 681.478 198.12 682.4C200.02 683.97 201.36 684.75 201.31 684.83C200.956 684.712 200.619 684.548 200.31 684.34C199.933 684.144 199.572 683.92 199.23 683.67C198.756 683.36 198.299 683.026 197.86 682.67C196.696 681.76 195.609 680.757 194.61 679.67C193.394 678.341 192.299 676.905 191.34 675.38C190.423 673.857 189.64 672.258 189 670.6C188.482 669.229 188.077 667.817 187.79 666.38C187.667 665.829 187.574 665.271 187.51 664.71C187.441 664.293 187.401 663.872 187.39 663.45C187.328 663.09 187.308 662.724 187.33 662.36Z" fill="#EB996E"/>
<path d="M201.86 685.2C201.467 685.188 201.077 685.128 200.7 685.02C199.96 684.87 198.88 684.64 197.57 684.3C194.095 683.502 190.808 682.038 187.89 679.99C186.29 678.818 184.932 677.347 183.89 675.66C183.068 674.27 182.496 672.747 182.2 671.16C182.004 670.095 181.944 669.01 182.02 667.93C182.024 667.533 182.089 667.138 182.21 666.76C182.184 668.212 182.304 669.662 182.57 671.09C182.9 672.617 183.485 674.077 184.3 675.41C185.325 677.025 186.64 678.435 188.18 679.57C191.053 681.576 194.259 683.056 197.65 683.94L200.73 684.83C201.118 684.915 201.496 685.039 201.86 685.2Z" fill="#EB996E"/>
<path d="M155.63 507.77C155.63 507.77 129.71 514.88 125.63 531.27C121.55 547.66 109.84 596.27 123.35 611.41C136.86 626.55 176.17 628.6 176.17 628.6L201.96 618.77L154 589.71C154 589.71 159 564.71 159.76 559.82C160.52 554.93 155.63 507.77 155.63 507.77Z" fill="#FFBE9D"/>
<path d="M157.53 507.4C157.53 507.4 127.15 512 120.74 538.64C114.33 565.28 116.12 570.13 117 570.91C117.88 571.69 122.36 567.1 132.75 569.42C143.14 571.74 152.52 588.14 159.47 583.07C166.42 578 165.65 536.07 165.65 536.07L157.53 507.4Z" fill="#2D9CDB"/>
<path d="M155.13 584.93C155.13 584.93 155.3 585.02 155.63 585.13C156.106 585.272 156.614 585.272 157.09 585.13C157.85 584.918 158.527 584.478 159.03 583.87C159.665 583.032 160.016 582.012 160.03 580.96C160.028 579.67 159.948 578.381 159.79 577.1C159.67 575.7 159.56 574.21 159.45 572.64C159.24 569.49 159.07 566.03 158.99 562.39C158.842 556.175 159.012 549.957 159.5 543.76C159.69 541.38 159.9 539.46 160.07 538.14L160.29 536.62C160.3 536.439 160.337 536.26 160.4 536.09C160.422 536.269 160.422 536.451 160.4 536.63C160.4 537.04 160.33 537.54 160.28 538.16C160.18 539.49 160.02 541.41 159.87 543.78C159.58 548.53 159.35 555.11 159.52 562.38C159.6 566.01 159.75 569.46 159.94 572.61C160.04 574.17 160.14 575.66 160.23 577.07C160.371 578.368 160.431 579.674 160.41 580.98C160.385 582.095 159.999 583.173 159.31 584.05C158.764 584.692 158.023 585.138 157.2 585.32C156.682 585.441 156.14 585.396 155.65 585.19C155.46 585.14 155.283 585.052 155.13 584.93Z" fill="#263238"/>
<path d="M180.34 621.09C180.34 621.09 172.02 630.92 177.82 640.34C177.82 640.34 176.14 662.46 180.34 663.26C184.2 664 186.48 655.48 186.48 655.48C186.48 655.48 183.62 673.09 190.58 670.22C190.58 670.22 198.36 671.86 201.58 657.94C201.58 657.94 207.72 655.48 208.95 651.8C210.18 648.12 208.95 640.34 208.95 640.34L206.31 632.34L211.82 637.43C212.608 635.426 212.794 633.237 212.357 631.129C211.92 629.021 210.879 627.086 209.36 625.56C204.04 619.83 200.48 617.99 200.48 617.99L180.34 621.09Z" fill="#FFBE9D"/>
<path d="M200.68 618C200.82 618.053 200.953 618.12 201.08 618.2C201.33 618.34 201.69 618.57 202.15 618.89C203.5 619.842 204.786 620.881 206 622C206.79 622.72 207.64 623.53 208.54 624.45C209.548 625.426 210.447 626.509 211.22 627.68C212.117 629.15 212.662 630.808 212.813 632.523C212.964 634.239 212.716 635.966 212.09 637.57L211.99 637.83L211.77 637.63L206.25 632.55L206.61 632.32C207.46 634.85 208.35 637.51 209.27 640.27C209.51 641.91 209.68 643.58 209.77 645.27C209.897 647.042 209.83 648.823 209.57 650.58C209.436 651.511 209.094 652.399 208.57 653.18C208.022 653.95 207.369 654.64 206.63 655.23C205.145 656.413 203.503 657.382 201.75 658.11L201.9 657.93L201.34 660C201.15 660.71 200.85 661.4 200.61 662.11C199.808 664.351 198.54 666.396 196.89 668.11C196.066 668.939 195.07 669.577 193.973 669.979C192.876 670.382 191.704 670.539 190.54 670.44H190.69C190.3 670.631 189.875 670.739 189.441 670.758C189.008 670.777 188.575 670.706 188.17 670.55C187.407 670.156 186.821 669.488 186.53 668.68C186.002 667.207 185.725 665.655 185.71 664.09C185.631 661.192 185.822 658.293 186.28 655.43L186.72 655.53C186.002 657.919 184.834 660.149 183.28 662.1C182.881 662.553 182.399 662.927 181.86 663.2C181.588 663.348 181.289 663.437 180.981 663.463C180.673 663.489 180.362 663.45 180.07 663.35C179.529 663.092 179.1 662.649 178.86 662.1C178.623 661.609 178.432 661.097 178.29 660.57C177.834 658.661 177.566 656.712 177.49 654.75C177.38 652.94 177.36 651.27 177.37 649.75C177.37 646.75 177.52 644.37 177.62 642.75C177.68 641.97 177.72 641.36 177.76 640.91C177.76 640.72 177.76 640.57 177.81 640.44C177.86 640.31 177.81 640.29 177.81 640.29V641C177.81 641.45 177.81 642.06 177.74 642.84C177.68 644.45 177.6 646.84 177.62 649.84C177.62 651.34 177.62 653 177.79 654.84C177.888 656.776 178.169 658.698 178.63 660.58C178.767 661.08 178.951 661.565 179.18 662.03C179.382 662.488 179.735 662.862 180.18 663.09C180.422 663.165 180.677 663.192 180.929 663.168C181.181 663.144 181.426 663.07 181.65 662.95C182.138 662.699 182.575 662.36 182.94 661.95C184.439 660.038 185.562 657.86 186.25 655.53L186.7 655.63C186.262 658.465 186.082 661.333 186.16 664.2C186.181 665.707 186.451 667.201 186.96 668.62C187.211 669.303 187.701 669.872 188.34 670.22C188.685 670.346 189.051 670.4 189.417 670.379C189.784 670.359 190.142 670.264 190.47 670.1H190.53H190.62C191.683 670.224 192.76 670.076 193.75 669.67C194.764 669.242 195.695 668.64 196.5 667.89C198.091 666.24 199.318 664.275 200.1 662.12C200.33 661.43 200.62 660.75 200.81 660.05L201.37 658.05V657.92L201.49 657.87C203.197 657.159 204.799 656.217 206.25 655.07C206.95 654.515 207.569 653.866 208.09 653.14C208.566 652.413 208.877 651.59 209 650.73C209.254 649.012 209.324 647.273 209.21 645.54C209.12 643.83 208.96 642.16 208.72 640.54C207.81 637.78 206.93 635.12 206.1 632.54L205.83 631.72L206.46 632.31L211.95 637.41L211.63 637.48C212.24 635.933 212.487 634.267 212.351 632.609C212.216 630.952 211.703 629.348 210.85 627.92C210.1 626.763 209.229 625.691 208.25 624.72C207.36 623.8 206.53 622.97 205.76 622.25C204.578 621.132 203.333 620.084 202.03 619.11C201.58 618.78 201.23 618.53 201.03 618.37C200.905 618.255 200.788 618.131 200.68 618Z" fill="#EB996E"/>
<path d="M201.87 638.94C202.1 639.843 202.235 640.768 202.27 641.7C202.43 643.42 202.57 645.8 202.57 648.43C202.57 651.06 202.43 653.43 202.27 655.16C202.23 656.091 202.096 657.016 201.87 657.92C201.786 656.992 201.786 656.058 201.87 655.13C201.94 653.42 202.01 651.05 202.02 648.43C202.03 645.81 201.94 643.43 201.87 641.73C201.799 640.801 201.799 639.869 201.87 638.94Z" fill="#EB996E"/>
<path d="M195 640.75C195.141 641.128 195.241 641.521 195.3 641.92C195.524 642.997 195.691 644.085 195.8 645.18C196.587 652.428 195.627 659.759 193 666.56C192.607 667.582 192.163 668.583 191.67 669.56C191.511 669.933 191.313 670.288 191.08 670.62C190.99 670.62 191.73 669.03 192.65 666.42C195.07 659.624 196.021 652.391 195.44 645.2C195.24 642.46 194.92 640.77 195 640.75Z" fill="#EB996E"/>
<path d="M187.19 645.79C187.573 647.513 187.654 649.289 187.43 651.04C187.374 652.807 187.008 654.55 186.35 656.19C186.2 656.19 186.68 653.87 186.91 651C187.14 648.13 187 645.8 187.19 645.79Z" fill="#EB996E"/>
<path d="M180.75 624.45C180.038 624.913 179.369 625.439 178.75 626.02C177.331 627.521 176.455 629.454 176.26 631.51C176.107 633.576 176.404 635.65 177.13 637.59C177.66 639.1 178.13 639.99 178.04 640.03C177.5 639.332 177.074 638.552 176.78 637.72C175.939 635.743 175.596 633.59 175.78 631.45C175.979 629.278 176.959 627.253 178.54 625.75C179.019 625.308 179.561 624.94 180.15 624.66C180.49 624.48 180.74 624.42 180.75 624.45Z" fill="#EB996E"/>
<path d="M155.33 590.33C155.33 590.42 154.19 589.78 152.27 589.2C151.141 588.866 149.982 588.642 148.81 588.53C147.378 588.407 145.936 588.437 144.51 588.62C143.089 588.834 141.695 589.196 140.35 589.7C139.252 590.125 138.197 590.654 137.2 591.28C135.51 592.36 134.63 593.28 134.56 593.19C134.49 593.1 134.74 592.93 135.14 592.52C135.372 592.262 135.627 592.024 135.9 591.81C136.252 591.52 136.619 591.25 137 591C137.992 590.315 139.055 589.738 140.17 589.28C142.923 588.166 145.909 587.754 148.86 588.08C150.059 588.219 151.239 588.487 152.38 588.88C152.818 589.02 153.246 589.191 153.66 589.39C153.98 589.526 154.291 589.683 154.59 589.86C155.09 590.12 155.35 590.29 155.33 590.33Z" fill="#EB996E"/>
<path d="M201.65 520.47L201.76 510.09C215.19 508.35 223.09 497.42 223.98 481.92C224.46 473.67 224.79 472.67 224.21 454.85C223.713 443.683 221.622 432.645 218 422.07C218 422.07 207.13 408.45 186.55 410C165.97 411.55 155.35 439.1 155.35 439.1C155.35 439.1 155.49 481.1 156.7 489.53C157.91 497.96 157.7 501.04 157.7 501.04L158.55 514.68C158.389 520.882 160.675 526.899 164.913 531.43C169.151 535.962 175.001 538.645 181.2 538.9C193.75 539.38 200.68 530.81 201.65 520.47Z" fill="#FFBE9D"/>
<path d="M156.37 465.42C156.01 465.26 141.94 461.04 142.29 475.42C142.64 489.8 157 486.5 157 486.09C157 485.68 156.37 465.42 156.37 465.42Z" fill="#FFBE9D"/>
<path d="M152.51 480.74C152.44 480.74 152.26 480.92 151.84 481.13C151.25 481.397 150.58 481.425 149.97 481.21C148.43 480.69 147.09 478.31 146.97 475.72C146.903 474.485 147.115 473.252 147.59 472.11C147.707 471.652 147.935 471.23 148.255 470.881C148.574 470.532 148.974 470.268 149.42 470.11C149.706 470.024 150.014 470.043 150.288 470.162C150.562 470.28 150.786 470.492 150.92 470.76C151.12 471.16 151.04 471.45 151.12 471.47C151.2 471.49 151.42 471.22 151.29 470.63C151.201 470.274 150.993 469.96 150.7 469.74C150.297 469.452 149.798 469.334 149.31 469.41C148.721 469.54 148.176 469.818 147.726 470.219C147.276 470.62 146.936 471.13 146.74 471.7C146.165 472.952 145.901 474.324 145.97 475.7C146.13 478.59 147.68 481.27 149.78 481.82C150.168 481.924 150.574 481.94 150.969 481.866C151.364 481.791 151.736 481.629 152.06 481.39C152.49 481.09 152.56 480.77 152.51 480.74Z" fill="#EB996E"/>
<path d="M212.69 467.2C212.69 468.017 212.372 468.803 211.802 469.389C211.233 469.975 210.457 470.317 209.64 470.34C209.241 470.368 208.84 470.317 208.461 470.188C208.083 470.06 207.734 469.857 207.435 469.591C207.135 469.325 206.892 469.003 206.72 468.642C206.547 468.281 206.449 467.889 206.43 467.49C206.426 466.679 206.737 465.898 207.296 465.311C207.855 464.724 208.62 464.376 209.43 464.34C209.833 464.304 210.24 464.351 210.625 464.477C211.011 464.603 211.366 464.806 211.671 465.073C211.976 465.341 212.223 465.667 212.398 466.032C212.573 466.398 212.672 466.795 212.69 467.2Z" fill="#263238"/>
<path d="M212.79 461.62C212.39 462.03 210.03 460.25 206.66 460.23C203.29 460.21 200.8 461.89 200.44 461.47C200.26 461.29 200.66 460.55 201.75 459.78C203.22 458.772 204.968 458.247 206.75 458.28C208.503 458.287 210.208 458.851 211.62 459.89C212.63 460.7 213 461.44 212.79 461.62Z" fill="#263238"/>
<path d="M179 467.2C179 468.009 178.689 468.787 178.13 469.372C177.571 469.957 176.808 470.304 176 470.34C175.601 470.368 175.2 470.317 174.821 470.188C174.443 470.06 174.094 469.857 173.794 469.591C173.495 469.325 173.252 469.003 173.08 468.642C172.907 468.281 172.809 467.89 172.79 467.49C172.784 466.678 173.093 465.896 173.653 465.309C174.213 464.721 174.979 464.374 175.79 464.34C176.189 464.312 176.591 464.363 176.97 464.493C177.349 464.622 177.699 464.826 177.998 465.093C178.297 465.359 178.54 465.683 178.712 466.045C178.884 466.407 178.982 466.8 179 467.2Z" fill="#263238"/>
<path d="M179.63 462C179.24 462.41 176.87 460.63 173.5 460.62C170.13 460.61 167.65 462.27 167.28 461.85C167.11 461.67 167.5 460.93 168.59 460.16C170.061 459.153 171.808 458.629 173.59 458.66C175.346 458.667 177.055 459.231 178.47 460.27C179.47 461.08 179.82 461.82 179.63 462Z" fill="#263238"/>
<path d="M177 450C176.81 450.71 174.78 450.79 172.54 451.51C170.3 452.23 168.54 453.24 168.01 452.75C167.76 452.51 167.91 451.85 168.54 451.08C169.423 450.133 170.543 449.44 171.785 449.074C173.027 448.709 174.345 448.683 175.6 449C176.56 449.23 177.05 449.69 177 450Z" fill="#263238"/>
<path d="M213.55 450.06C213.25 450.71 212.1 450.81 211 450.29C209.9 449.77 209.25 448.82 209.56 448.17C209.87 447.52 211.01 447.41 212.11 447.94C213.21 448.47 213.86 449.41 213.55 450.06Z" fill="#263238"/>
<path d="M188.51 486.58C188.56 486.78 188.11 487.14 187.21 487.25C186.018 487.376 184.822 487.043 183.867 486.318C182.912 485.594 182.269 484.532 182.07 483.35C181.94 482.46 182.16 481.92 182.37 481.92C182.79 481.92 183.14 483.82 184.82 485.07C186.5 486.32 188.41 486.16 188.51 486.58Z" fill="#263238"/>
<path d="M201.76 510.09C201.76 510.09 184.51 510.37 180.44 507.39C180.44 507.39 183.44 515.61 201.71 514.73L201.76 510.09Z" fill="#EB996E"/>
<path d="M150.81 464.75C150.319 466.646 150.291 468.632 150.73 470.54C151.32 472.39 153.16 474.01 155.07 473.65C157.55 473.19 158.41 470.13 158.71 467.65C159.57 460.65 160.1 453.58 160.3 446.51C160.3 444.51 160.78 442.02 162.71 441.57C163.83 441.3 164.95 441.91 166.07 442.21C167.198 442.488 168.38 442.448 169.487 442.095C170.594 441.742 171.581 441.09 172.34 440.21C172.57 442.91 176.23 444.12 178.69 442.98C181.15 441.84 182.6 439.31 183.9 436.98C183.698 438.478 183.818 440.002 184.25 441.45C184.479 442.169 184.923 442.8 185.522 443.26C186.121 443.719 186.846 443.984 187.6 444.02C189.35 443.94 190.54 442.26 191.35 440.71C193.315 436.973 194.695 432.956 195.44 428.8C196.696 435.247 200.439 440.941 205.86 444.65L207.69 439.24C208.337 440.361 209.188 441.352 210.2 442.16C210.71 442.557 211.318 442.811 211.959 442.895C212.601 442.98 213.254 442.892 213.85 442.64C214.134 442.497 214.386 442.295 214.586 442.047C214.787 441.799 214.933 441.512 215.014 441.204C215.096 440.896 215.111 440.574 215.058 440.259C215.005 439.945 214.887 439.645 214.71 439.38C215.15 441.81 218.44 443 220.56 441.74C221.575 441.032 222.318 440 222.667 438.812C223.016 437.625 222.95 436.355 222.48 435.21C221.743 446.995 222.506 458.827 224.75 470.42C228.16 464.42 231.65 458.14 231.95 451.24C232.17 446.29 230.71 441.37 231.02 436.43C231.23 433.05 232.26 429.74 232.27 426.35C232.227 423.82 231.658 421.326 230.599 419.028C229.54 416.73 228.015 414.677 226.12 413C222.274 409.656 217.375 407.772 212.28 407.68C208.49 407.59 204.68 408.39 200.93 407.84C197.74 407.37 194.78 405.95 191.66 405.17C188.422 404.387 185.056 404.298 181.781 404.908C178.506 405.518 175.398 406.814 172.66 408.71C172.66 408.71 166.06 412.55 157.93 422C157.93 422 143.19 422.44 143.85 443.11C144.51 463.78 146 466.24 146 466.24L150.81 464.75Z" fill="#263238"/>
<path d="M158.93 424.73C158.83 424.73 158.66 423.78 157.93 422.45C156.955 420.697 155.419 419.323 153.569 418.549C151.719 417.774 149.663 417.644 147.73 418.18C146.24 418.57 145.43 419.12 145.38 419.04C145.33 418.96 145.54 418.85 145.92 418.61C146.455 418.276 147.029 418.011 147.63 417.82C149.639 417.164 151.818 417.253 153.767 418.07C155.717 418.887 157.308 420.378 158.25 422.27C158.539 422.831 158.758 423.425 158.9 424.04C158.958 424.265 158.969 424.5 158.93 424.73Z" fill="#263238"/>
<path d="M160.75 424.3C160.517 424.194 160.307 424.045 160.13 423.86C159.602 423.403 159.126 422.89 158.71 422.33C157.298 420.474 156.476 418.237 156.349 415.909C156.223 413.581 156.798 411.268 158 409.27C158.354 408.669 158.773 408.109 159.25 407.6C159.59 407.24 159.8 407.07 159.82 407.09C159.84 407.11 159.13 407.93 158.32 409.45C157.25 411.417 156.749 413.642 156.87 415.878C156.992 418.113 157.733 420.271 159.01 422.11C160 423.53 160.82 424.23 160.75 424.3Z" fill="#263238"/>
<path d="M195 468.85C195.21 468.79 195.61 469.54 196.09 470.78C196.33 471.41 196.58 472.15 196.85 472.99L197.24 474.31C197.435 474.83 197.553 475.376 197.59 475.93C197.616 476.279 197.57 476.63 197.455 476.96C197.34 477.29 197.158 477.593 196.92 477.85C196.477 478.288 195.906 478.572 195.29 478.66C194.77 478.735 194.24 478.69 193.74 478.53C193.347 478.387 192.976 478.188 192.64 477.94C191.49 477.01 191.14 476.25 191.26 476.11C191.38 475.97 192.13 476.46 193.26 476.99C193.814 477.286 194.456 477.375 195.07 477.24C195.367 477.177 195.638 477.028 195.85 476.81C195.941 476.696 196.009 476.564 196.048 476.423C196.088 476.282 196.098 476.135 196.08 475.99C196.04 475.562 195.953 475.139 195.82 474.73C195.72 474.26 195.61 473.82 195.51 473.38C195.32 472.52 195.18 471.73 195.07 471.07C194.85 469.75 194.82 468.9 195 468.85Z" fill="#263238"/>
<path d="M151.22 446.53C151.113 446.206 151.049 445.87 151.03 445.53C150.95 444.88 150.85 443.93 150.76 442.74C150.457 439.65 150.618 436.532 151.24 433.49C151.904 430.414 153.479 427.609 155.76 425.44C156.46 424.804 157.244 424.265 158.09 423.84C158.398 423.658 158.737 423.533 159.09 423.47C158.015 424.111 157.01 424.862 156.09 425.71C153.953 427.889 152.476 430.628 151.83 433.61C151.228 436.607 151.016 439.669 151.2 442.72C151.274 443.989 151.281 445.261 151.22 446.53Z" fill="#455A64"/>
<path d="M163.68 441.17C163.01 440.577 162.443 439.877 162 439.1C159.633 435.43 158.576 431.067 159 426.72C159.046 425.826 159.235 424.945 159.56 424.11C159.65 424.11 159.45 425.11 159.37 426.75C159.288 428.852 159.5 430.956 160 433C160.508 435.056 161.299 437.032 162.35 438.87C163.12 440.32 163.75 441.12 163.68 441.17Z" fill="#455A64"/>
<path d="M194.77 428.44C194.726 428.281 194.709 428.115 194.72 427.95C194.72 427.57 194.72 427.1 194.67 426.53C194.647 424.803 194.513 423.08 194.27 421.37C193.939 418.842 192.984 416.436 191.49 414.37C190.585 413.187 189.422 412.226 188.09 411.56C186.65 410.851 185.089 410.421 183.49 410.29C180.372 410.045 177.244 410.61 174.41 411.93C173.178 412.51 172.003 413.203 170.9 414C169.951 414.71 169.064 415.5 168.25 416.36C167.061 417.608 166.051 419.015 165.25 420.54C164.66 421.61 164.42 422.25 164.37 422.23C164.39 422.064 164.438 421.901 164.51 421.75C164.669 421.302 164.856 420.865 165.07 420.44C165.823 418.858 166.811 417.398 168 416.11C168.813 415.214 169.703 414.391 170.66 413.65C171.776 412.815 172.972 412.091 174.23 411.49C177.133 410.1 180.351 409.503 183.56 409.76C185.223 409.901 186.845 410.356 188.34 411.1C189.739 411.812 190.954 412.839 191.89 414.1C193.418 416.236 194.372 418.729 194.66 421.34C194.87 423.072 194.95 424.816 194.9 426.56C194.9 427.18 194.9 427.66 194.84 427.98C194.835 428.136 194.812 428.29 194.77 428.44Z" fill="#455A64"/>
<path d="M211.28 431.61C211.219 431.451 211.172 431.287 211.14 431.12C211.05 430.73 210.94 430.26 210.81 429.68C210.53 428.44 210.14 426.63 209.5 424.44C208.819 421.872 207.81 419.402 206.5 417.09C204.863 414.272 202.427 412.003 199.5 410.57C196.54 409.218 193.313 408.555 190.06 408.63C187.396 408.687 184.745 409.022 182.15 409.63C179.93 410.12 178.15 410.63 176.91 410.95L175.49 411.32C175.323 411.369 175.153 411.403 174.98 411.42C175.128 411.327 175.29 411.26 175.46 411.22L176.85 410.75C178.07 410.37 179.85 409.81 182.07 409.27C184.688 408.607 187.371 408.235 190.07 408.16C193.401 408.054 196.711 408.721 199.74 410.11C202.746 411.593 205.237 413.945 206.89 416.86C208.217 419.213 209.226 421.732 209.89 424.35C210.48 426.57 210.82 428.35 211.04 429.65C211.15 430.28 211.22 430.77 211.27 431.11C211.301 431.275 211.304 431.444 211.28 431.61Z" fill="#455A64"/>
<path d="M219.39 434.32C219.3 434.32 219.5 432.73 219.71 430.18C220.087 426.877 219.718 423.531 218.63 420.39C217.993 418.703 216.965 417.192 215.63 415.98C214.512 415.011 213.178 414.325 211.74 413.98C210.397 413.703 209.009 413.734 207.68 414.07C207.68 414.07 207.76 414 207.93 413.93C208.189 413.823 208.457 413.736 208.73 413.67C209.741 413.435 210.791 413.418 211.81 413.62C213.332 413.932 214.751 414.62 215.94 415.62C217.372 416.858 218.475 418.431 219.15 420.2C220.273 423.407 220.599 426.839 220.1 430.2C219.96 431.48 219.79 432.51 219.67 433.2C219.62 433.583 219.526 433.959 219.39 434.32Z" fill="#455A64"/>
<path d="M173.09 477.36C172.95 477.36 172.9 477 172.98 476.61C173.06 476.22 173.23 475.94 173.37 475.96C173.51 475.98 173.57 476.33 173.49 476.72C173.41 477.11 173.24 477.39 173.09 477.36Z" fill="#EB996E"/>
<path d="M179.11 476.11C178.98 476.11 178.8 476 178.72 475.77C178.64 475.54 178.72 475.31 178.83 475.27C178.94 475.23 179.14 475.37 179.22 475.6C179.3 475.83 179.25 476.06 179.11 476.11Z" fill="#EB996E"/>
<path d="M176.06 479.74C175.92 479.74 175.77 479.46 175.73 479.07C175.69 478.68 175.73 478.36 175.92 478.34C176.11 478.32 176.21 478.63 176.25 479.02C176.29 479.41 176.2 479.73 176.06 479.74Z" fill="#EB996E"/>
<path d="M168.47 479.05C168.33 479.05 168.31 478.66 168.47 478.27C168.63 477.88 168.79 477.6 168.93 477.65C169.07 477.7 169.09 478.03 168.93 478.42C168.77 478.81 168.61 479.09 168.47 479.05Z" fill="#EB996E"/>
<path d="M208.53 476C208.38 476 208.24 475.74 208.2 475.39C208.16 475.04 208.2 474.75 208.39 474.73C208.58 474.71 208.68 474.99 208.72 475.34C208.76 475.69 208.67 476 208.53 476Z" fill="#EB996E"/>
<path d="M214.16 475.82C214.01 475.82 213.9 475.51 213.9 475.12C213.9 474.73 214.01 474.42 214.16 474.42C214.31 474.42 214.42 474.74 214.42 475.12C214.42 475.5 214.3 475.82 214.16 475.82Z" fill="#EB996E"/>
<path d="M218.82 475.54C218.67 475.54 218.5 475.27 218.42 474.89C218.34 474.51 218.42 474.16 218.53 474.13C218.64 474.1 218.85 474.4 218.93 474.78C219.01 475.16 219 475.51 218.82 475.54Z" fill="#EB996E"/>
<path d="M211.49 480.59C211.36 480.59 211.34 480.2 211.49 479.81C211.64 479.42 211.82 479.15 211.95 479.19C212.08 479.23 212.11 479.58 211.95 479.96C211.79 480.34 211.63 480.63 211.49 480.59Z" fill="#EB996E"/>
<path d="M216.79 479.89C216.65 479.89 216.5 479.67 216.46 479.36C216.42 479.05 216.46 478.79 216.65 478.77C216.84 478.75 216.94 478.99 216.98 479.3C217.02 479.61 216.93 479.87 216.79 479.89Z" fill="#EB996E"/>
<path d="M202.12 519.43C202.176 519.693 202.209 519.961 202.22 520.23C202.283 521.002 202.3 521.776 202.27 522.55C202.157 525.415 201.478 528.229 200.27 530.83C198.493 534.746 195.415 537.926 191.56 539.83C189.292 540.946 186.797 541.524 184.27 541.52C181.568 541.484 178.895 540.959 176.38 539.97C171.524 538.085 167.155 535.128 163.6 531.32C160.689 528.229 158.623 524.441 157.6 520.32C156.915 517.541 156.816 514.649 157.31 511.83C157.452 511.071 157.646 510.323 157.89 509.59C158.07 509.09 158.17 508.83 158.18 508.83C158.141 509.099 158.078 509.363 157.99 509.62C157.047 513.097 157.047 516.763 157.99 520.24C159.045 524.289 161.109 528.005 163.99 531.04C167.515 534.764 171.821 537.66 176.6 539.52C179.057 540.489 181.669 541.007 184.31 541.05C186.762 541.058 189.183 540.507 191.39 539.44C195.158 537.6 198.188 534.532 199.98 530.74C201.178 528.185 201.88 525.427 202.05 522.61C202.12 521.61 202.11 520.84 202.11 520.31C202.082 520.017 202.086 519.722 202.12 519.43Z" fill="#263238"/>
<g opacity="0.7">
<path opacity="0.7" d="M198.94 588.17L192.54 584.81L181.35 590.69L183.48 578.23L174.43 569.41L186.94 567.59L192.54 556.25L198.13 567.59L210.64 569.41L201.59 578.23L202.65 584.42" fill="white"/>
</g>
<g opacity="0.7">
<path opacity="0.7" d="M195.86 590.08L201.33 592L200.79 586.74L195.86 590.08Z" fill="white"/>
</g>
<path d="M207 578.1C206.876 578.566 206.698 579.015 206.47 579.44C205.909 580.626 205.239 581.757 204.47 582.82C201.938 586.379 198.474 589.171 194.459 590.891C190.444 592.611 186.033 593.192 181.71 592.57C180.412 592.397 179.133 592.102 177.89 591.69C177.429 591.556 176.984 591.375 176.56 591.15C178.271 591.606 180.007 591.96 181.76 592.21C186.011 592.719 190.32 592.099 194.255 590.412C198.189 588.725 201.609 586.03 204.17 582.6C205.202 581.158 206.147 579.655 207 578.1Z" fill="#263238"/>
<g opacity="0.4">
<path opacity="0.4" d="M226.37 592.87C226.26 595.47 230.94 590.23 231.37 587.66C231.8 585.09 230.96 582.51 230.18 580.03L222.35 555.37C222.35 555.37 226.59 587.87 226.37 592.87Z" fill="black"/>
</g>
<path d="M497.79 635.33C499.237 636.02 500.53 636.996 501.59 638.199C502.651 639.402 503.457 640.807 503.96 642.33C504.952 645.383 505.232 648.622 504.78 651.8C504.09 657.95 500.59 664.16 496.83 669.07C491.65 664.55 490.46 656.67 490.11 652.63C489.55 646.25 492.42 634.38 497.79 635.34" fill="#2D9CDB"/>
<path d="M502.85 679.21C502.498 677.452 502.615 675.632 503.191 673.934C503.767 672.237 504.781 670.721 506.13 669.54C507.507 668.384 509.101 667.514 510.817 666.98C512.534 666.446 514.34 666.259 516.13 666.43C517.77 666.56 519.55 667.04 520.5 668.43C520.902 669.091 521.12 669.848 521.131 670.622C521.141 671.396 520.944 672.158 520.56 672.83C519.778 674.17 518.652 675.278 517.3 676.04C512.82 678.86 507.96 680.76 502.89 679.24" fill="#2D9CDB"/>
<path d="M496.21 698.06C496.234 697.632 496.294 697.207 496.39 696.79C496.56 695.91 496.77 694.79 497.02 693.38C497.6 689.578 498.789 685.894 500.54 682.47C502.367 679.054 505.069 676.186 508.37 674.16C509.374 673.564 510.445 673.088 511.56 672.74C511.862 672.647 512.169 672.57 512.48 672.51C512.69 672.51 512.81 672.45 512.81 672.51C510.25 673.338 507.881 674.669 505.841 676.424C503.801 678.178 502.131 680.322 500.93 682.73C499.208 686.117 497.995 689.739 497.33 693.48C497.02 694.92 496.76 696.07 496.56 696.87C496.482 697.277 496.364 697.675 496.21 698.06Z" fill="#263238"/>
<path d="M496.4 644.56C496.446 644.74 496.47 644.924 496.47 645.11C496.47 645.52 496.47 646.04 496.56 646.69C496.63 648.07 496.72 650.06 496.79 652.52C496.95 657.45 497.08 664.26 497.05 671.78C497.02 679.3 496.83 686.11 496.63 691.04C496.53 693.5 496.43 695.49 496.34 696.87C496.34 697.52 496.26 698.04 496.24 698.45C496.233 698.635 496.21 698.819 496.17 699C496.148 698.817 496.148 698.633 496.17 698.45C496.17 698.04 496.17 697.51 496.17 696.86C496.17 695.43 496.25 693.45 496.31 691.03C496.43 686.1 496.57 679.3 496.6 671.78C496.63 664.26 496.6 657.46 496.48 652.53C496.48 650.11 496.41 648.13 496.39 646.7C496.39 646.05 496.39 645.52 496.39 645.11C496.378 644.927 496.382 644.743 496.4 644.56Z" fill="#263238"/>
<path d="M493.89 683C493.262 679.273 491.756 675.749 489.495 672.719C487.234 669.69 484.285 667.243 480.89 665.58C479.16 664.75 476.89 664.21 475.48 665.5C474.07 666.79 474.37 669.1 475.07 670.89C476.59 674.602 479.175 677.781 482.499 680.025C485.824 682.27 489.739 683.479 493.75 683.5" fill="#2D9CDB"/>
<path d="M481.75 671.36C482.13 671.487 482.498 671.648 482.85 671.84C483.19 672.01 483.62 672.21 484.09 672.5C484.56 672.79 485.09 673.08 485.67 673.5C486.294 673.924 486.895 674.381 487.47 674.87C488.146 675.413 488.79 675.994 489.4 676.61C490.788 678.036 492.012 679.612 493.05 681.31C494.062 683.027 494.871 684.856 495.46 686.76C495.717 687.59 495.921 688.435 496.07 689.29C496.221 690.029 496.324 690.778 496.38 691.53C496.447 692.148 496.477 692.769 496.47 693.39C496.498 693.86 496.498 694.33 496.47 694.8C496.462 695.2 496.416 695.599 496.33 695.99C496.23 695.99 496.41 694.28 496.11 691.56C496.031 690.821 495.911 690.086 495.75 689.36C495.58 688.523 495.366 687.695 495.11 686.88C494.506 685.018 493.701 683.228 492.71 681.54C491.688 679.871 490.491 678.316 489.14 676.9C488.551 676.285 487.93 675.701 487.28 675.15C486.68 674.61 486.07 674.15 485.52 673.76C483.26 672.16 481.7 671.45 481.75 671.36Z" fill="#263238"/>
<path d="M422.92 581.47H363.88V640.09H422.92V581.47Z" fill="#2D9CDB"/>
<g opacity="0.3">
<path opacity="0.3" d="M422.92 581.47H363.88V640.09H422.92V581.47Z" fill="black"/>
</g>
<path d="M448.7 581.47H389.66V640.09H448.7V581.47Z" fill="#2D9CDB"/>
<path d="M431.3 617.23C431.3 621.55 427.87 624.05 421.3 624.05H408.36V599H420.58C426.83 599 430.05 601.61 430.05 605.5C430.076 606.64 429.776 607.764 429.186 608.739C428.597 609.715 427.741 610.503 426.72 611.01C428.077 611.371 429.271 612.184 430.104 613.315C430.936 614.446 431.358 615.827 431.3 617.23ZM414.11 603.4V609.3H419.86C422.69 609.3 424.22 608.3 424.22 606.3C424.22 604.3 422.69 603.37 419.86 603.37L414.11 603.4ZM425.47 616.62C425.47 614.51 423.86 613.51 420.86 613.51H414.11V619.69H420.86C423.86 619.69 425.47 618.76 425.47 616.62Z" fill="white"/>
<path d="M389.4 620.94C389.48 621.06 383.84 625.44 376.8 630.73C369.76 636.02 363.97 640.21 363.88 640.09C363.79 639.97 369.43 635.6 376.48 630.31C383.53 625.02 389.31 620.83 389.4 620.94Z" fill="#263238"/>
<path d="M389.4 604.06C389.48 604.18 383.84 608.56 376.8 613.85C369.76 619.14 363.97 623.33 363.88 623.22C363.79 623.11 369.43 618.72 376.48 613.43C383.53 608.14 389.31 604 389.4 604.06Z" fill="#263238"/>
<path d="M389.4 587.19C389.48 587.3 383.84 591.68 376.8 596.97C369.76 602.26 363.97 606.45 363.88 606.34C363.79 606.23 369.43 601.84 376.48 596.55C383.53 591.26 389.31 587.07 389.4 587.19Z" fill="#263238"/>
<path d="M374.53 581.47C372.919 583.003 371.19 584.407 369.36 585.67C367.637 587.078 365.805 588.345 363.88 589.46C365.491 587.927 367.22 586.523 369.05 585.26C370.772 583.852 372.605 582.585 374.53 581.47Z" fill="#263238"/>
<path d="M410.6 640.09H351.56V698.71H410.6V640.09Z" fill="#263238"/>
<path d="M436.38 640.09H377.34V698.71H436.38V640.09Z" fill="#455A64"/>
<path d="M396 657.66H407.4C415.58 657.66 421.19 662.59 421.19 670.17C421.19 677.75 415.58 682.68 407.4 682.68H396V657.66ZM407.08 677.93C412.08 677.93 415.3 674.93 415.3 670.17C415.3 665.41 412.05 662.42 407.08 662.42H401.79V677.93H407.08Z" fill="white"/>
<path d="M377.07 679.57C377.16 679.68 371.52 684.06 364.47 689.35C357.42 694.64 351.64 698.83 351.56 698.72C351.48 698.61 357.11 694.22 364.16 688.93C371.21 683.64 377 679.45 377.07 679.57Z" fill="#455A64"/>
<path d="M377.07 662.69C377.16 662.8 371.52 667.18 364.47 672.47C357.42 677.76 351.64 681.95 351.56 681.84C351.48 681.73 357.11 677.34 364.16 672.06C371.21 666.78 377 662.57 377.07 662.69Z" fill="#455A64"/>
<path d="M377.07 645.81C377.16 645.93 371.52 650.31 364.47 655.59C357.42 660.87 351.64 665.08 351.56 664.96C351.48 664.84 357.11 660.47 364.16 655.18C371.21 649.89 377 645.7 377.07 645.81Z" fill="#455A64"/>
<path d="M362.21 640.09C358.878 643.035 355.317 645.71 351.56 648.09C354.899 645.153 358.459 642.478 362.21 640.09Z" fill="#455A64"/>
<path d="M212.602 165.469L207.117 171.375V186H196.57V134.812H207.117V158.016L211.758 151.652L224.801 134.812H237.773L219.598 157.559L238.301 186H225.75L212.602 165.469ZM252.328 186H242.133V147.961H252.328V186ZM241.535 138.117C241.535 136.594 242.039 135.34 243.047 134.355C244.078 133.371 245.473 132.879 247.23 132.879C248.965 132.879 250.348 133.371 251.379 134.355C252.41 135.34 252.926 136.594 252.926 138.117C252.926 139.664 252.398 140.93 251.344 141.914C250.312 142.898 248.941 143.391 247.23 143.391C245.52 143.391 244.137 142.898 243.082 141.914C242.051 140.93 241.535 139.664 241.535 138.117ZM259.148 166.699C259.148 160.77 260.473 156.047 263.121 152.531C265.793 149.016 269.438 147.258 274.055 147.258C277.758 147.258 280.816 148.641 283.23 151.406V132H293.426V186H284.25L283.758 181.957C281.227 185.121 277.969 186.703 273.984 186.703C269.508 186.703 265.91 184.945 263.191 181.43C260.496 177.891 259.148 172.98 259.148 166.699ZM269.309 167.438C269.309 171 269.93 173.73 271.172 175.629C272.414 177.527 274.219 178.477 276.586 178.477C279.727 178.477 281.941 177.152 283.23 174.504V159.492C281.965 156.844 279.773 155.52 276.656 155.52C271.758 155.52 269.309 159.492 269.309 167.438ZM304.219 150.527L299.438 147.75C301.453 144.586 302.496 141.316 302.566 137.941V132H310.652V137.449C310.652 139.559 310.066 141.844 308.895 144.305C307.723 146.766 306.164 148.84 304.219 150.527ZM330.27 175.488C330.27 174.246 329.648 173.273 328.406 172.57C327.188 171.844 325.219 171.199 322.5 170.637C313.453 168.738 308.93 164.895 308.93 159.105C308.93 155.73 310.324 152.918 313.113 150.668C315.926 148.395 319.594 147.258 324.117 147.258C328.945 147.258 332.801 148.395 335.684 150.668C338.59 152.941 340.043 155.895 340.043 159.527H329.883C329.883 158.074 329.414 156.879 328.477 155.941C327.539 154.98 326.074 154.5 324.082 154.5C322.371 154.5 321.047 154.887 320.109 155.66C319.172 156.434 318.703 157.418 318.703 158.613C318.703 159.738 319.23 160.652 320.285 161.355C321.363 162.035 323.168 162.633 325.699 163.148C328.23 163.641 330.363 164.203 332.098 164.836C337.465 166.805 340.148 170.215 340.148 175.066C340.148 178.535 338.66 181.348 335.684 183.504C332.707 185.637 328.863 186.703 324.152 186.703C320.965 186.703 318.129 186.141 315.645 185.016C313.184 183.867 311.25 182.309 309.844 180.34C308.438 178.348 307.734 176.203 307.734 173.906H317.367C317.461 175.711 318.129 177.094 319.371 178.055C320.613 179.016 322.277 179.496 324.363 179.496C326.309 179.496 327.773 179.133 328.758 178.406C329.766 177.656 330.27 176.684 330.27 175.488ZM387.434 182.133C384.926 185.18 381.457 186.703 377.027 186.703C372.949 186.703 369.832 185.531 367.676 183.188C365.543 180.844 364.453 177.41 364.406 172.887V147.961H374.566V172.535C374.566 176.496 376.371 178.477 379.98 178.477C383.426 178.477 385.793 177.281 387.082 174.891V147.961H397.277V186H387.715L387.434 182.133ZM439.184 167.332C439.184 173.191 437.848 177.891 435.176 181.43C432.527 184.945 428.941 186.703 424.418 186.703C420.574 186.703 417.469 185.367 415.102 182.695V200.625H404.941V147.961H414.363L414.715 151.688C417.176 148.734 420.387 147.258 424.348 147.258C429.035 147.258 432.68 148.992 435.281 152.461C437.883 155.93 439.184 160.711 439.184 166.805V167.332ZM429.023 166.594C429.023 163.055 428.391 160.324 427.125 158.402C425.883 156.48 424.066 155.52 421.676 155.52C418.488 155.52 416.297 156.738 415.102 159.176V174.75C416.344 177.258 418.559 178.512 421.746 178.512C426.598 178.512 429.023 174.539 429.023 166.594Z" fill="white"/>
<defs>
<filter id="filter0_d" x="806" y="186" width="483" height="638" filterUnits="userSpaceOnUse" color-interpolation-filters="sRGB">
<feFlood flood-opacity="0" result="BackgroundImageFix"/>
<feColorMatrix in="SourceAlpha" type="matrix" values="0 0 0 0 0 0 0 0 0 0 0 0 0 0 0 0 0 0 127 0"/>
<feOffset dy="4"/>
<feGaussianBlur stdDeviation="2"/>
<feColorMatrix type="matrix" values="0 0 0 0 0 0 0 0 0 0 0 0 0 0 0 0 0 0 0.25 0"/>
<feBlend mode="normal" in2="BackgroundImageFix" result="effect1_dropShadow"/>
<feBlend mode="normal" in="SourceGraphic" in2="effect1_dropShadow" result="shape"/>
</filter>
<filter id="filter1_dd" x="886" y="603" width="291" height="63" filterUnits="userSpaceOnUse" color-interpolation-filters="sRGB">
<feFlood flood-opacity="0" result="BackgroundImageFix"/>
<feColorMatrix in="SourceAlpha" type="matrix" values="0 0 0 0 0 0 0 0 0 0 0 0 0 0 0 0 0 0 127 0"/>
<feOffset dy="2"/>
<feGaussianBlur stdDeviation="1"/>
<feColorMatrix type="matrix" values="0 0 0 0 0 0 0 0 0 0 0 0 0 0 0 0 0 0 0.2 0"/>
<feBlend mode="normal" in2="BackgroundImageFix" result="effect1_dropShadow"/>
<feColorMatrix in="SourceAlpha" type="matrix" values="0 0 0 0 0 0 0 0 0 0 0 0 0 0 0 0 0 0 127 0"/>
<feOffset dy="4"/>
<feGaussianBlur stdDeviation="2"/>
<feColorMatrix type="matrix" values="0 0 0 0 0 0 0 0 0 0 0 0 0 0 0 0 0 0 0.25 0"/>
<feBlend mode="normal" in2="effect1_dropShadow" result="effect2_dropShadow"/>
<feBlend mode="normal" in="SourceGraphic" in2="effect2_dropShadow" result="shape"/>
</filter>
<filter id="filter2_d" x="932" y="709" width="235.801" height="47" filterUnits="userSpaceOnUse" color-interpolation-filters="sRGB">
<feFlood flood-opacity="0" result="BackgroundImageFix"/>
<feColorMatrix in="SourceAlpha" type="matrix" values="0 0 0 0 0 0 0 0 0 0 0 0 0 0 0 0 0 0 127 0"/>
<feOffset dy="4"/>
<feGaussianBlur stdDeviation="2"/>
<feColorMatrix type="matrix" values="0 0 0 0 0 0 0 0 0 0 0 0 0 0 0 0 0 0 0.25 0"/>
<feBlend mode="normal" in2="BackgroundImageFix" result="effect1_dropShadow"/>
<feBlend mode="normal" in="SourceGraphic" in2="effect1_dropShadow" result="shape"/>
</filter>
</defs>
</svg>
