<svg xmlns="http://www.w3.org/2000/svg" viewBox="0 0 500 500"><g id="freepik--background-simple--inject-36"><g id="freepik--background-simple--inject-36"><path d="M354.34,70.29c-25.83-15-59.78-13-87.37-1.13s-49.87,32.4-70.07,53.73c-10.52,11.11-20.77,22.67-33.64,31.31-13.53,9.08-29.35,14.54-44.21,21.54-42.57,20-55.26,66.14-44,107.3C101.33,378.69,230.12,393.29,313,359c53.73-22.26,82.83-74.45,92.19-127.06,8.73-49,7.95-110.6-32.22-147.87A104.89,104.89,0,0,0,354.34,70.29Z" style="fill:#2D9CDB"></path><path d="M354.45,70.29c-25.82-15-59.78-13-87.36-1.13s-49.88,32.4-70.07,53.73C186.5,134,176.24,145.56,163.37,154.2c-13.53,9.09-29.35,14.54-44.21,21.54-42.57,20-55.25,66.14-44,107.3,26.24,95.65,155,110.26,237.93,75.92,53.73-22.26,82.82-74.45,92.18-127,8.73-49,7.95-110.61-32.22-147.88A104.53,104.53,0,0,0,354.45,70.29Z" style="fill:#fff;opacity:0.7000000000000001"></path></g></g><g id="freepik--Plants--inject-36"><g id="freepik--plants--inject-36"><path d="M375.71,349.69c-4.64,2.4-3.64-1.86,9.76-17.05,6.28-7.12,19.39-21.43,24.59-11.37,5,9.67-23.73,22.84-23.73,22.84Zm9.12,11.53s31.44-3.12,29.86-13.89c-1.66-11.21-18.71-1.93-27,2.76-17.6,10-19.93,13.71-14.77,13ZM375,379.79s24.5,2.17,24.84-6.3c.37-8.77-14-4.16-21-1.79-14.91,5.11-17.23,7.61-13.17,7.77Zm-9.14,19s24.51,2.17,24.85-6.29c.36-8.77-14-4.16-21-1.8-14.92,5.11-17.23,7.6-13.18,7.76Zm.06-53.92s-11.84-29.28-21.71-24.76c-10.29,4.74,3.4,18.5,10.22,25.09C369,359.33,373.21,360.48,371,355.78Zm-7.44,14.82s-17.42-26.38-26.21-20c-9.14,6.67,7,17.37,15,22.53,17.07,10.9,21.43,11.23,18.34,7Zm-6.08,17.83s-15.35-21.9-22.63-16.26c-7.58,5.87,6.33,14.59,13.21,18.73,14.69,8.82,18.38,9,15.68,5.52Zm-6.32,13.62s-12.93-23.4-20.78-18.57c-8.13,5,4.76,15.18,11.16,20,13.67,10.33,17.32,10.91,15,7.16Zm34.81-66.57s14.35-34.43.36-37.95C366.62,283,368.08,305.3,369,316.23c2,23.25,5.2,27.51,7.24,21.7Z" style="fill:#2D9CDB"></path><path d="M339.94,421.08a.55.55,0,0,1-.43-.11.61.61,0,0,1-.1-.85c11.53-15.14,23.06-37.17,30.1-57.5,6.07-17.5,7.06-62.42,7.06-62.91a.62.62,0,0,1,.62-.59.6.6,0,0,1,.59.62c0,.45-1,45.56-7.13,63.24-7.08,20.43-18.69,42.6-30.28,57.83A.59.59,0,0,1,339.94,421.08Z" style="fill:#2D9CDB"></path><path d="M127.82,370.49c3.82,1.44,2.65-1.78-9.18-12.38-5.54-5-17.06-14.89-20.19-6.58-3,8,20.57,15.59,20.57,15.59Zm-6,9.81s-24.77.47-24.53-8.06c.26-8.88,14.34-3.22,21.24-.33,14.62,6.17,16.78,8.84,12.7,8.72Zm9.35,13.56s-18.88,3.95-19.92-2.61c-1.09-6.8,10.53-4.54,16.19-3.33,12.08,2.6,14.11,4.33,11,4.83Zm8.86,14s-18.87,3.94-19.92-2.61c-1.09-6.8,10.53-4.53,16.19-3.34,12.08,2.61,14.11,4.34,11,4.83Zm-5-42S141.5,342,149.62,344.6c8.45,2.74-.94,14.71-5.65,20.47-10,12.3-13.2,13.59-11.94,9.73Zm7.15,10.85s11.13-22.14,18.56-17.94c7.74,4.37-3.85,14.22-9.6,18.94-12.29,10.07-15.65,10.72-13.64,7.17ZM148.52,390s9.93-18.46,16.12-14.74c6.44,3.87-3.59,11.94-8.56,15.79-10.63,8.23-13.48,8.71-11.7,5.75Zm6.17,10s7.91-19.41,14.46-16.37c6.8,3.18-2.3,12.26-6.84,16.62-9.69,9.3-12.48,10.08-11,6.95Zm-33.23-48.61s-14.34-25.49-3.77-29.52c11.05-4.2,12,13.3,12.24,21.9.56,18.28-1.51,21.89-3.65,17.56Z" style="fill:#2D9CDB"></path><path d="M162.23,422.78a.45.45,0,0,1-.34-.15c-10.43-10.79-21.5-27-28.9-42.23-6.4-13.2-11.33-48.22-11.38-48.58a.47.47,0,0,1,.4-.53.48.48,0,0,1,.54.4c0,.35,5,35.24,11.29,48.33,7.35,15.17,18.36,31.26,28.73,42a.48.48,0,0,1,0,.67A.47.47,0,0,1,162.23,422.78Z" style="fill:#2D9CDB"></path></g></g><g id="freepik--Floor--inject-36"><ellipse cx="257.22" cy="426.44" rx="157.53" ry="12.3" style="fill:#2D9CDB"></ellipse><ellipse cx="257.22" cy="426.44" rx="157.53" ry="12.3" style="fill:#fff;opacity:0.7000000000000001"></ellipse></g><g id="freepik--Clouds--inject-36"><g id="freepik--clouds--inject-36"><path d="M310.44,131.48H432.56s1.4-4.69-4.46-7.74-9.14,0-10.08-3.28,4.22-8.91-8.43-14.53A14.61,14.61,0,0,0,403,95.62c-6.09-4-19.69-5.86-26.25-1.65s-4.45,14.77-9.84,15.47-11.49-1.4-14.3,5.63-4.46,7.27-8.21,6.09-9.61-3-17.11,4.69C327.31,125.85,316.77,121.4,310.44,131.48Z" style="fill:#fff"></path><path d="M189.56,284H67.44s-1.4-4.69,4.46-7.74,9.14,0,10.08-3.28S77.76,264,90.41,258.4A14.61,14.61,0,0,1,97,248.09c6.09-4,19.69-5.86,26.25-1.65s4.45,14.77,9.84,15.47,11.49-1.4,14.3,5.63,4.46,7.27,8.21,6.09,9.61-3,17.11,4.69C172.69,278.32,183.23,273.87,189.56,284Z" style="fill:#fff"></path></g></g><g id="freepik--Character--inject-36"><g id="freepik--character--inject-36"><path d="M184.47,196.35a12.27,12.27,0,0,1,4.33-9.3c4.55-3.68,6.5-4.55,4.84-9.89s-6.58-11.61-7.51-10.86,1.09,5.08,2.28,6.82-.69,5-.69,5,1.66-3-1.52-6.57-5.48-6.71-6.28-6.06,1.52,5.56,3.32,8.08l-.6,4.3s-1.06-3.58-2.79-4.73-5.55-6.35-6.49-5.92S174.8,173,174.8,173s-4.2-4.36-4.92-3.33-.29,3.54,5.28,7.62c0,0-.07,4.59-1.44,6.18a8.42,8.42,0,0,0-1.37,8.59l4.33,7.79s7.36-1.81,7.36-2A12.07,12.07,0,0,1,184.47,196.35Z" style="fill:#fff"></path><g id="freepik--character--inject-36"><path d="M304.76,411.84s-10.56,13.54-14.23,15.35-4.62,6.07-2.07,9.5c0,0,5.4,3.21,16-3.47s14.7-14,14.7-14l-7.08-12.52Z" style="fill:#2D9CDB"></path><path d="M199.79,424.07s.18-3.18,7-5.63,19-6.41,19-6.41l8.48,2.08s-1.9,8.06-3.4,10.15c0,0-8.85-.54-12.24,1S206.21,427.63,199.79,424.07Z" style="fill:#2D9CDB"></path><path d="M173.25,136.63s-5.3-4.93-4.39-11.77,10-15.36,14.75-17.18,11.55-.76,17.48,1.67,12.16,6.84,12.31,11.55-2.73,10-2.43,11.86,1.4,6.17-2.57,5.37c0,0-2.29,6.64-6.55,8s-5.78-.91-8.21,0C193.64,146.14,185.57,134.66,173.25,136.63Z" style="fill:#fff"></path><path d="M202.11,190.29l1.46-1.52a3.85,3.85,0,0,1,4.17.13c2.25,1.46,5.19,2,5.27,2.72s-3.29.73-3.29.73,4.83,2.78,4.5,4.23-1.72.6-1.72.6.2,4.3-5.16,2.71a3.55,3.55,0,0,1-3.37,1.19c-2.06-.46-6.36-6-6.36-6Z" style="fill:#fff"></path><path d="M202.43,109.82c2.63,1.12-5.62-1.62-8.42-1-3.29.72-6,3.1-8,5.74a30.92,30.92,0,0,0-6.4,21.83l-6.75,0a14,14,0,0,1-3.1-12.39c1.75-7.4,8.35-14.14,12.93-16.16S195,106.66,202.43,109.82Z" style="fill:#2D9CDB"></path><path d="M202.43,109.82c2.63,1.12-5.62-1.62-8.42-1-3.29.72-6,3.1-8,5.74a30.92,30.92,0,0,0-6.4,21.83l-6.75,0a14,14,0,0,1-3.1-12.39c1.75-7.4,8.35-14.14,12.93-16.16S195,106.66,202.43,109.82Z" style="fill:#fff;opacity:0.5"></path><path d="M170.44,189.07s6.14,8.8,5.41,18.26-7.48,20.7-7.48,20.7,4,10.56.65,12.41-7.73-3.61-9.92-7.8c0,0-2.24,2.25-3.76,2s-5.34-4.58-5.89-10,3.62-15.71,3.62-15.71-18.66-8.35-20.15-23.54L142.3,194S149.56,179.37,170.44,189.07Z" style="fill:#2D9CDB"></path><path d="M203.77,188.67h0c-.1.31-.17.49-.17.49l-3,3s-.83.58-2,1.35l0,0-1.21.82a26.27,26.27,0,0,1-7.29-3.1l-.41-.28c-.38-.27-.69-.53-1-.77l-.1-.08a4.85,4.85,0,0,1-1.47-2,37.33,37.33,0,0,0,6.33-5.41c2.06-2.52-.08-5.88-.08-5.88s-5.8-11.82-7.27-10.56,1.63,5.14,2.7,7.36a3.41,3.41,0,0,1-.84,3.89,7.25,7.25,0,0,0-.61-4.19s-6.87-9.24-7.67-7.66,3.77,8,3.77,8l-.84,4.16-1.07-3.43L178.51,172c.86,0-1.3-.67-1.3-.67s-3-4.8-4.11-4,1.14,5.14,1.25,5.37l-4.68-3c-.86,2.06,5.49,7.59,5.49,7.59s.58,4-.95,5.7c-1.35,1.54-2.71,6.79-2.71,6.79a10.21,10.21,0,0,0-1-.65h0a2.88,2.88,0,0,0-.31-.17l-.18-.09a27.06,27.06,0,0,0-9.48-2.67,4.35,4.35,0,0,0-.52-.06,3.91,3.91,0,0,0-.48-.05l-.83-.06-.29,0h-.56a17.4,17.4,0,0,0-2.92.13l-.34,0a18.71,18.71,0,0,0-9.72,4.73l-.08.07a17.3,17.3,0,0,0-2.47,2.71c-11.93-7.61-12.79-16.36-12.4-22.54,0-.6.09-1.18.14-1.73.27-2.67,2.63-5.86,5.66-8.78l1.19-1.1c.56-.51,1.13-1,1.71-1.48a51.32,51.32,0,0,1,5.11-3.66,26,26,0,0,1,4.12-2.18c3.64-1.39,11-6.79,16.85-11h0c1.25-.89,2.43-1.72,3.49-2.45l.13-.08c1-.69,1.94-1.28,2.69-1.7a9.24,9.24,0,0,1,5.15-.94,3,3,0,0,1,.42,0c6.11.52,14.33,4.74,19,12.52a22.27,22.27,0,0,1,2.18,4.7.54.54,0,0,1,0,.1c2.47,7.63-.38,13.82-.77,17.27h0a5.79,5.79,0,0,0,0,.91c.11,2.08,1.49,4.65,3,6.9,1.1,1.64,2.26,3.1,3.08,4.11l0,0,.29.36a2.92,2.92,0,0,1,.21.28,4.06,4.06,0,0,1,.58,1.67,0,0,0,0,1,0,0A9,9,0,0,1,203.77,188.67Z" style="fill:#2D9CDB"></path><path d="M194.25,146.06s1.24-.71,3.21.44,7.81.54,10.94-8.37c1.1.78,3-.31,3.13-1.66a6.11,6.11,0,0,0-.38-1.86c-.7-2.83,1.2-5.57,2-8.37a11.94,11.94,0,0,0-.6-8.44s-.95-3.78-8.73-7.36-19.94-7-27.74,2.35-9.22,15.27-3.52,23.12" style="fill:none;stroke:#263238;stroke-linecap:round;stroke-linejoin:round;stroke-width:0.855881px"></path><path d="M207.59,131c-.24.67-.71,1.11-1,1s-.4-.76-.16-1.42.7-1.1,1-1S207.82,130.38,207.59,131Z" style="fill:#263238"></path><path d="M193.15,127.44a11,11,0,0,0-1.44-4.9c-1-1.43-2.77-1.3-4.08-.43-1.62,1.06-2.12,3-2.31,4.77-.37,3.62,2,6,4.74,5.32" style="fill:none;stroke:#263238;stroke-linecap:round;stroke-linejoin:round;stroke-width:0.855881px"></path><path d="M170.44,189.07s-18.43-9.28-27.61,4.26c-.81,1.19,1.72,5.61,2.32,6.51,2.46,3.65,7.21,4.32,10.19,7.35,3.23,3.29.16,8.16-.06,12a22.09,22.09,0,0,0,4.56,14.35c1.77,2.46,5.29,8.46,9.18,6.87,3.31-1.36-.64-12.13-.64-12.13S183.65,206.82,170.44,189.07Z" style="fill:none;stroke:#263238;stroke-linecap:round;stroke-linejoin:round;stroke-width:0.855881px"></path><path d="M132.92,185.38s1.54,14.72,20.15,23.54c0,0-9.15,20.9,2.27,25.75,0,0,.9,1.42,3.11-2.76" style="fill:none;stroke:#263238;stroke-linecap:round;stroke-linejoin:round;stroke-width:0.855881px"></path><path d="M142.27,193.77c-9.59-6.32-12.87-12.47-12.53-21a14.12,14.12,0,0,1,.15-1.62,18.57,18.57,0,0,1,5.8-10.51l1.19-1.1c.56-.49,1.14-1,1.73-1.41A46,46,0,0,1,144,154.6l.93-.5c7.51-4,17-10.49,17-10.49a35.82,35.82,0,0,1,2.77-2.38h0a36.13,36.13,0,0,1,3.49-2.45l.13-.08c2.46-1.48,5.29-2.71,7.84-2.64a3,3,0,0,1,.42,0c6.34.36,16.27,5.39,20.45,15.1a16.9,16.9,0,0,1,.75,2.12.54.54,0,0,1,0,.1c1.92,6.79-1.21,12-.77,17.27h0a10.31,10.31,0,0,0,1.45,4.54c.72,1.21,1.38,2.27,2,3.2,1.11,1.75,2,3.06,2.64,4.18l0,0c.14.26.28.52.42.76a9.6,9.6,0,0,1,.66,1.55,0,0,0,0,1,0,0,6.94,6.94,0,0,1,.28,3.06l-.71.66h0l-5.15,4.83,0,0-1.06,1a21.88,21.88,0,0,1-7.44-3.27l-.41-.28c-.34-.25-.66-.51-1-.77l-.1-.08a17.05,17.05,0,0,1-1.44-1.36" style="fill:none;stroke:#263238;stroke-linecap:round;stroke-linejoin:round;stroke-width:0.855881px"></path><path d="M202.93,135.16a4.67,4.67,0,0,0,1,3.68" style="fill:none;stroke:#263238;stroke-linecap:round;stroke-linejoin:round;stroke-width:0.855881px"></path><path d="M168.48,228.22a9.23,9.23,0,0,1-5.92,1.88" style="fill:none;stroke:#263238;stroke-linecap:round;stroke-linejoin:round;stroke-width:0.855881px"></path><path d="M159.56,162A23.56,23.56,0,0,1,171,167.54" style="fill:none;stroke:#263238;stroke-linecap:round;stroke-linejoin:round;stroke-width:0.855881px"></path><path d="M167.06,160.49a37.67,37.67,0,0,1,4.36,4.83" style="fill:none;stroke:#263238;stroke-linecap:round;stroke-linejoin:round;stroke-width:0.855881px"></path><path d="M204.17,188.46a5.24,5.24,0,0,1,2.64.09,13.11,13.11,0,0,1,2.19,1.16,9.25,9.25,0,0,0,2.65,1c.59.11,1.36.35,1.36,1s-.79.85-1.4.88a5.23,5.23,0,0,1-3-.55c.22.18.68.35.91.53" style="fill:none;stroke:#263238;stroke-linecap:round;stroke-linejoin:round;stroke-width:0.855881px"></path><path d="M208.14,191.68l5.32,3.86a2.21,2.21,0,0,1,.78.8.75.75,0,0,1-.28,1,1.06,1.06,0,0,1-.61,0,14.23,14.23,0,0,1-3.6-1.19" style="fill:none;stroke:#263238;stroke-linecap:round;stroke-linejoin:round;stroke-width:0.855881px"></path><path d="M205,199.12c1.62,1.09,3.75.91,5.69.69a1.92,1.92,0,0,0,.87-.33c1.61-1.13,1-2.07.52-2.33" style="fill:none;stroke:#263238;stroke-linecap:round;stroke-linejoin:round;stroke-width:0.855881px"></path><path d="M207.25,200.15a4.08,4.08,0,0,1-4.11.64,8.12,8.12,0,0,1-3.41-2.66,16.92,16.92,0,0,1-2.34-3.78" style="fill:none;stroke:#263238;stroke-linecap:round;stroke-linejoin:round;stroke-width:0.855881px"></path><path d="M208,197.62a7.11,7.11,0,0,0,3.93,1.49" style="fill:none;stroke:#263238;stroke-linecap:round;stroke-linejoin:round;stroke-width:0.855881px"></path><path d="M141.21,169a2.25,2.25,0,1,1-2.25-2.25A2.25,2.25,0,0,1,141.21,169Z" style="fill:#fff"></path><circle cx="146.16" cy="181.54" r="2.25" style="fill:#fff"></circle><circle cx="151.43" cy="168.15" r="2.25" style="fill:#fff"></circle><path d="M168.23,149.27A2.25,2.25,0,1,1,166,147,2.24,2.24,0,0,1,168.23,149.27Z" style="fill:#fff"></path><circle cx="153.61" cy="158.13" r="2.25" style="fill:#fff"></circle><path d="M185.41,146.8a2.25,2.25,0,1,1-2.25-2.24A2.25,2.25,0,0,1,185.41,146.8Z" style="fill:#fff"></path><path d="M178.86,154.55a2.25,2.25,0,1,1-2.25-2.25A2.25,2.25,0,0,1,178.86,154.55Z" style="fill:#fff"></path><path d="M189.05,158.92a2.25,2.25,0,1,1-2.25-2.25A2.25,2.25,0,0,1,189.05,158.92Z" style="fill:#fff"></path><path d="M167.41,180.46a2.25,2.25,0,1,1-2.25-2.25A2.25,2.25,0,0,1,167.41,180.46Z" style="fill:#fff"></path><path d="M167.31,169.58a2.25,2.25,0,1,1-2.25-2.25A2.25,2.25,0,0,1,167.31,169.58Z" style="fill:#fff"></path><path d="M170.44,189.07s6.14,8.8,5.41,18.26-7.48,20.7-7.48,20.7,4,10.56.65,12.41-7.73-3.61-9.92-7.8c0,0-2.24,2.25-3.76,2s-5.34-4.58-5.89-10,3.62-15.71,3.62-15.71-18.66-8.35-20.15-23.54L142.3,194S149.56,179.37,170.44,189.07Z" style="opacity:0.4"></path><path d="M301.11,267.54s-1.77,44.71-20.28,74.15c0,0,29.87,48.8,34.5,70.67L304,413.2s-50.06-55.94-52.16-62.67,3.78-30.71,3.78-30.71l-17.66,21.45-3.58,75.3-13.25-2.52s-11.36-62.68-10.1-74.46,26.93-49.64,31.13-74.46C242.13,265.13,274.58,277.49,301.11,267.54Z" style="fill:#263238"></path><line x1="253.24" y1="280.84" x2="252.2" y2="276.14" style="fill:none;stroke:#fff;stroke-linecap:round;stroke-linejoin:round;stroke-width:0.855881px"></line><polyline points="258.41 311.01 262.07 297.41 256.41 295.14 254.05 284.51" style="fill:none;stroke:#fff;stroke-linecap:round;stroke-linejoin:round;stroke-width:0.855881px"></polyline><line x1="256.75" y1="318.21" x2="257.57" y2="315.02" style="fill:none;stroke:#fff;stroke-linecap:round;stroke-linejoin:round;stroke-width:0.855881px"></line><path d="M287.34,434.27l1.12,2.42s6.15,2.05,16-3.47a41.52,41.52,0,0,0,14.7-14l-1-2.34s-10.65,13.47-19,16.42S287.34,434.27,287.34,434.27Z" style="fill:#fff"></path><path d="M304.06,413.17s-8.4,9.95-13.53,14-3.21,7.27-2.36,9,18.83,2.57,31-16.9l-5.67-9.83" style="fill:none;stroke:#263238;stroke-linecap:round;stroke-linejoin:round;stroke-width:0.855881px"></path><path d="M287.72,434.5s10.09,1.86,17.29-4.3a127.19,127.19,0,0,0,12.77-12.78" style="fill:none;stroke:#263238;stroke-linecap:round;stroke-linejoin:round;stroke-width:0.855881px"></path><path d="M230.62,424.4l1.67-2a24.68,24.68,0,0,0-5.77-.61,51.51,51.51,0,0,0-11,1.44c-2.58.84-11.48.53-15.12-1.06l-.58,1.87a27.18,27.18,0,0,0,9.17,2.61c4.4.23,9.27-2.12,13.37-2.43A52.88,52.88,0,0,1,230.62,424.4Z" style="fill:#fff"></path><path d="M222.29,413.31s-9.23,2.61-14.54,4.7-8.1,3.23-8,6.06c0,0,9.19,4.13,16.2,1.67s14.88-1.48,14.88-1.48a13.48,13.48,0,0,0,3.08-7.93" style="fill:none;stroke:#263238;stroke-linecap:round;stroke-linejoin:round;stroke-width:0.855881px"></path><path d="M200.44,422.2s8.08,3.13,15.48.9,16.22-.91,16.22-.91" style="fill:none;stroke:#263238;stroke-linecap:round;stroke-linejoin:round;stroke-width:0.855881px"></path><path d="M304.63,257.67c0,8.72-5,11.12-5,11.12a122.9,122.9,0,0,1-15.82,2.36c-10,1-24.43-.15-40-4.11,0,0-2.94-2.59-3.65-3.48A125.36,125.36,0,0,1,245,244.47l-6.67-15.06-28.06,25.74s-12,.77-20.77-12.74S175.2,200.1,175.2,200.1l9.71-2.19a57.81,57.81,0,0,0,9,14.41c6.1,7.19,13.45,17.43,13.45,17.43l1.67-2.29s-17.86-30.22-19.66-36.31l.31.47,3.72,1.76,3.82,1.39s3.16,5.59,5.81,6.23a9.61,9.61,0,0,0,5.49-.67l2.08-.31,6.38,6.92,20.47-24.45,2.3,3.93,1.65-4.78L243,187.4l20-16.82,3.37-2.84s14.51,11,19.31,16,13.52,37.5,13.52,37.5S304.63,248.94,304.63,257.67Z" style="fill:#2D9CDB"></path><path d="M238.63,229.47a103.59,103.59,0,0,0,6.54,14.79s-5.49,15.64-4.88,19.09c0,0,1.42,3.66,9.55,5.08s40.63,5.89,51.4-.61-7.72-76-16.66-85.1a101.49,101.49,0,0,0-18.45-14.78" style="fill:none;stroke:#263238;stroke-linecap:round;stroke-linejoin:round;stroke-width:0.855881px"></path><path d="M237.55,182.28c-1.12,2.85-1.87,5.61-2.63,12" style="fill:none;stroke:#263238;stroke-linecap:round;stroke-linejoin:round;stroke-width:0.855881px"></path><path d="M236.93,183.31c-7.75,9-15.92,19.6-19.66,23.36" style="fill:none;stroke:#263238;stroke-linecap:round;stroke-linejoin:round;stroke-width:0.855881px"></path><path d="M237.68,182.45l-.75.86" style="fill:none;stroke:#263238;stroke-linecap:round;stroke-linejoin:round;stroke-width:0.855881px"></path><path d="M189,190.75c1.78,5.13,6.86,16.76,20.31,36.38" style="fill:none;stroke:#263238;stroke-linecap:round;stroke-linejoin:round;stroke-width:0.855881px"></path><path d="M218.11,207.93c-2.27-2.32-5.38-6.19-7.28-8" style="fill:none;stroke:#263238;stroke-linecap:round;stroke-linejoin:round;stroke-width:0.855881px"></path><path d="M247.57,245a67.91,67.91,0,0,0,16.95,4.72" style="fill:none;stroke:#263238;stroke-linecap:round;stroke-linejoin:round;stroke-width:0.855881px"></path><path d="M255.38,215.3a82.93,82.93,0,0,0,8.21-3.86" style="fill:none;stroke:#263238;stroke-linecap:round;stroke-linejoin:round;stroke-width:0.855881px"></path><path d="M210,230a17.23,17.23,0,0,1,6.12,7.78" style="fill:none;stroke:#263238;stroke-linecap:round;stroke-linejoin:round;stroke-width:0.855881px"></path><path d="M239.86,186.21l-3.09-6,.7-9.64L235.4,167s-7.55-.5-9.64-3-1.95-7.39-.84-15.89c0,0-5.88-3.4-5.87-5.05s5.18-1.78,9.08-9.17,3.9-12.13,3.9-12.13h22.31l11.43,11.43L262.15,151l-5.72,2.37a50.66,50.66,0,0,0,2.51,6.33l1.08-.87,6.47,8.66-23.38,19.65-1.6-5.75Z" style="fill:#fff"></path><path d="M242.82,122.39A15.22,15.22,0,0,0,240.35,137c2.13,5.81,7.72,10,9.2,16,1.1,4.46-.28,9.16-2.17,13.34s-4.33,8.16-5.52,12.6l16.6-18.48-1.85-6.36s4.76-4.63,5.82-10.32-1.32-7.28-1.32-7.28l-5-2.12-9-5.29,1.85-7.41Z" style="fill:#2D9CDB"></path><path d="M242.82,122.39A15.22,15.22,0,0,0,240.35,137c2.13,5.81,7.72,10,9.2,16,1.1,4.46-.28,9.16-2.17,13.34s-4.33,8.16-5.52,12.6l16.6-18.48-1.85-6.36s4.76-4.63,5.82-10.32-1.32-7.28-1.32-7.28l-5-2.12-9-5.29,1.85-7.41Z" style="fill:#fff;opacity:0.5"></path><path d="M234,137.41c-.13,1.11-.67,2-1.2,1.9s-.85-1-.71-2.13.67-2,1.19-1.9S234.14,136.3,234,137.41Z" style="fill:#263238"></path><path d="M227,150.79a8,8,0,0,0,8.72-.57" style="fill:none;stroke:#263238;stroke-linecap:round;stroke-linejoin:round;stroke-width:0.855881px"></path><path d="M252.22,117.19s-12.2-6-16.95,0-5.51,16.8-9.67,20.67-6.4,3.57-6.55,5.2,5.95,4.62,5.95,4.62-2.08,11.45-.44,14.57,4.61,4.76,10.85,4.46,15.47-7.29,15.47-7.29" style="fill:none;stroke:#263238;stroke-linecap:round;stroke-linejoin:round;stroke-width:0.855881px"></path><line x1="241.22" y1="179.74" x2="235.41" y2="166.71" style="fill:none;stroke:#263238;stroke-linecap:round;stroke-linejoin:round;stroke-width:0.855881px"></line><path d="M246,123.52s-5.28-1.56-9.16.12-5.66,3.79-8.29,1.27-5-5.88-3.75-9.13S235,101,240.1,104s5,8.57,8.58,8.77,6.38-3.91,9.7-1.12,2.22,8.26,2.22,8.26,9.08,4.14,11.32,10.66-6.84,20.61-9.82,23-7.47.92-9.19-.83c0,0-1.14-3.54,1.5-4.1s4.53-.62,6.33-4.46,2.18-6.51-.77-7.54-4.49-.18-5.82,2.51-1.73,2.67-3.44,2.26-.89-2.5-.89-2.5-4.35-1.19-5.82-4.59S246,123.52,246,123.52Z" style="fill:#263238"></path><path d="M232.37,132.12s4.85-3,5.9,3" style="fill:none;stroke:#263238;stroke-linecap:round;stroke-linejoin:round;stroke-width:0.855881px"></path><polygon points="259.99 158.77 241.11 179.96 243.11 187.18 266.49 167.53 259.99 158.77" style="fill:none;stroke:#263238;stroke-linecap:round;stroke-linejoin:round;stroke-width:0.855881px"></polygon><polyline points="241.4 180.31 239.86 186.21 236.77 180.2 237.42 171.27" style="fill:none;stroke:#263238;stroke-linecap:round;stroke-linejoin:round;stroke-width:0.855881px"></polyline><path d="M259.88,135.22a25.88,25.88,0,0,0,.34-7,9.92,9.92,0,0,0-3-6.21,11.9,11.9,0,0,0-6.14-2.49,27.26,27.26,0,0,0-11.64.75c-2,.57-4,1.38-6.05,1.24s-4.25-1.67-4.23-3.74" style="fill:none;stroke:#fff;stroke-linecap:round;stroke-linejoin:round;stroke-width:0.42794099999999996px"></path><path d="M239.28,107.25a3,3,0,0,0-2.25.84,5,5,0,0,0-1.28,2.08,6.63,6.63,0,0,0,.14,4.88,2.82,2.82,0,0,0,2,1.79" style="fill:none;stroke:#fff;stroke-linecap:round;stroke-linejoin:round;stroke-width:0.42794099999999996px"></path><path d="M238.82,190.12c-11.53,12.06-26.33,33.87-31.36,39.42" style="fill:none;stroke:#263238;stroke-linecap:round;stroke-linejoin:round;stroke-width:0.855881px"></path><path d="M212.3,237.38c-7.14-14.58-22.25-24.59-27.31-40l-9.38,2.5s3.31,21.13,11.74,38.34S209.06,255,210.42,255s44-41.47,47-44.66" style="fill:none;stroke:#263238;stroke-linecap:round;stroke-linejoin:round;stroke-width:0.855881px"></path><path d="M184.44,197.39c-.19-2.67.59-6.26,1.83-7.95,2-2.73,7-5.05,8.16-8.2.72-2-2.36-8.27-3.46-9.26s-3.3-6.08-4.84-5.68c-1.13.3.5,4.18,2.28,6.82s-.41,5.45-.41,5.45" style="fill:none;stroke:#263238;stroke-linecap:round;stroke-linejoin:round;stroke-width:0.855881px"></path><path d="M178.4,181s1.34-5.93-.71-6.45-7.81-4.91-7.81-4.91c-2,2.34,5.28,7.62,5.28,7.62s.53,3.28-2.44,8.19,3.35,13.86,3.35,13.86" style="fill:none;stroke:#263238;stroke-linecap:round;stroke-linejoin:round;stroke-width:0.855881px"></path><path d="M182.81,179.21s-.53-4.22-2.37-5.42-6.55-7-7.35-6.45.67,3.78,2.12,5.91" style="fill:none;stroke:#263238;stroke-linecap:round;stroke-linejoin:round;stroke-width:0.855881px"></path><path d="M187.58,179.57s.88-3.7.42-5.35-7.24-9.34-8.29-8.52,2.38,6.22,3.77,8l-.69,4.46" style="fill:none;stroke:#263238;stroke-linecap:round;stroke-linejoin:round;stroke-width:0.855881px"></path><path d="M236.88,183.91l-2.64,11.69-25,31.53s-17.57-25.75-19.74-35.92a40.17,40.17,0,0,0,7.7,3.48s2.4,4.66,5.26,6.12c3.37.95,5.21-.47,5.21-.47l3-.53,6.39,6.92Z" style="opacity:0.2"></path><path d="M256.09,212.18l-7.41,9.39s15.95-6.83,16.8-5.12-16.22,10.06-13.08,17.88c5.27,13.11-4.25,33.75-4.25,33.75a23.11,23.11,0,0,1-7.86-4s1.65-11.91,4.88-19.1l-6.67-15.86Z" style="opacity:0.2"></path><path d="M256.23,152.76c.28.2.88,4.16,2.79,6.91" style="fill:none;stroke:#263238;stroke-linecap:round;stroke-linejoin:round;stroke-width:0.855881px"></path></g></g></g></svg>