<svg xmlns="http://www.w3.org/2000/svg" viewBox="0 0 500 500"><g id="freepik--background-complete--inject-9"><rect x="145.84" y="53.03" width="94.84" height="98.86" style="fill:#e0e0e0"></rect><rect x="139.42" y="53.03" width="94.84" height="98.86" style="fill:#ebebeb"></rect><rect x="152.17" y="66.32" width="69.34" height="72.28" style="fill:#fafafa"></rect><path d="M152.17,139.08a13.35,13.35,0,0,1-1.73,2c-1.12,1.16-2.68,2.74-4.42,4.46s-3.35,3.25-4.52,4.35a13.37,13.37,0,0,1-2,1.69,13.43,13.43,0,0,1,1.72-2c1.11-1.16,2.68-2.74,4.43-4.46s3.35-3.26,4.53-4.36A11.88,11.88,0,0,1,152.17,139.08Z" style="fill:#e0e0e0"></path><path d="M221.51,138.9a13.06,13.06,0,0,1,2,1.73c1.16,1.12,2.74,2.68,4.45,4.42s3.26,3.35,4.35,4.52a13.37,13.37,0,0,1,1.69,2,13.11,13.11,0,0,1-1.95-1.72c-1.17-1.11-2.75-2.68-4.47-4.43s-3.26-3.35-4.35-4.53A12.34,12.34,0,0,1,221.51,138.9Z" style="fill:#e0e0e0"></path><path d="M221.32,66.51a13.06,13.06,0,0,1,1.73-2c1.12-1.16,2.68-2.74,4.42-4.46s3.35-3.25,4.52-4.34a12.62,12.62,0,0,1,2-1.69,13.11,13.11,0,0,1-1.72,2c-1.11,1.16-2.68,2.75-4.43,4.47s-3.35,3.26-4.53,4.35A12.34,12.34,0,0,1,221.32,66.51Z" style="fill:#e0e0e0"></path><path d="M152,66.69A13.9,13.9,0,0,1,150,65c-1.17-1.11-2.74-2.67-4.46-4.41s-3.26-3.35-4.35-4.53a12.78,12.78,0,0,1-1.69-2,12.89,12.89,0,0,1,1.95,1.73c1.17,1.11,2.75,2.67,4.47,4.42s3.26,3.36,4.35,4.53A12,12,0,0,1,152,66.69Z" style="fill:#e0e0e0"></path><path d="M221.32,138.6s0-.12,0-.35,0-.58,0-1q0-1.35,0-3.9c0-3.41,0-8.39-.06-14.72,0-12.66-.07-30.7-.12-52.3l.23.22-69.14,0h0l.26-.26c0,26.53,0,51.35,0,72.28l-.22-.23,50.08.12,14.06.06,3.72,0h1l.33,0h-1.24l-3.68,0-14,.06-50.22.11H152v-.22c0-20.93,0-45.75,0-72.28v-.26h.27l69.14,0h.23v.23c-.05,21.66-.09,39.75-.12,52.44,0,6.31,0,11.27-.06,14.68,0,1.67,0,3,0,3.85,0,.42,0,.75,0,1S221.32,138.6,221.32,138.6Z" style="fill:#e0e0e0"></path><rect x="193.93" y="99.6" width="1.72" height="14.54" transform="translate(2.77 218.64) rotate(-58.95)" style="fill:#e0e0e0"></rect><path d="M189,100.79a2.2,2.2,0,0,1,.75,3h0a2.2,2.2,0,0,1-3,.75l-.66-.39a2.21,2.21,0,0,1-.75-3h0a2.2,2.2,0,0,1,3-.75Z" style="fill:#ebebeb"></path><path d="M183,85.28a12.4,12.4,0,1,1-17,4.23A12.41,12.41,0,0,1,183,85.28Z" style="fill:#ebebeb"></path><path d="M183.4,85.56l-.43-.28a12.5,12.5,0,0,0-4.85-1.68c-1.77,7.28-6.53,14.22-11.72,19.4a12.28,12.28,0,0,0,3.77,3.53l.67.37C177,101.42,182.24,93.78,183.4,85.56Z" style="fill:#fafafa"></path><path d="M200.64,110.39a4.78,4.78,0,1,0,6.56-1.63A4.76,4.76,0,0,0,200.64,110.39Zm6.93,4.18a3.32,3.32,0,1,1-1.13-4.55A3.32,3.32,0,0,1,207.57,114.57Z" style="fill:#e0e0e0"></path><path d="M174,94.54c.13-.22,1.83.15,1.83.15s1-1.43,1.17-1.42.42,1.79.42,1.79a7.78,7.78,0,0,1,1.71.66c0,.18-1.57,1-1.57,1s.08,1.75-.11,1.83-1.39-1.2-1.39-1.2a7.78,7.78,0,0,1-1.78.47c-.18-.11.71-1.7.71-1.7S173.84,94.75,174,94.54Z" style="fill:#e0e0e0"></path><path d="M177.17,87.94c.08-.23,1.82-.24,1.82-.24s.63-1.61.83-1.64.8,1.65.8,1.65a7.6,7.6,0,0,1,1.81.28c.08.16-1.32,1.27-1.32,1.27s.46,1.69.29,1.82-1.62-.87-1.62-.87a7.29,7.29,0,0,1-1.63.83c-.21-.06.33-1.8.33-1.8S177.09,88.18,177.17,87.94Z" style="fill:#e0e0e0"></path><path d="M169.44,100.51c-.17.18.64,1.72.64,1.72s-1.13,1.31-1.07,1.5,1.84-.07,1.84-.07.92,1.49,1.1,1.47.5-1.76.5-1.76,1.71-.38,1.74-.59-1.53-1-1.53-1a7.61,7.61,0,0,0,0-1.84c-.15-.15-1.45,1.13-1.45,1.13S169.61,100.33,169.44,100.51Z" style="fill:#e0e0e0"></path><path d="M262.13,189s11.25,1.05,6.07,25.8-9.93,37.6-9.93,37.6-.59,5.58,3.87,5.21,13.41-4.41,16.71.27c3.43,4.86.9,11-5.82,17.63s-20.93,21.67-22.21,23-2.13,4.11,1,4.34,24.71-3.3,25.77,7.07-20.7,25.73-23.05,27.46-2.67,3-2.06,4.38,7.76-.49,14-1.24S279.89,340,280,346s-11,21.78-44.8,34.64l-16.06,4.93-12.54-11.29c-25.37-25.79-28.87-44.73-26.26-50.17s9.36-2.58,14.67.69,11,8,12.17,6.95,1.37-2.3-.05-4.85-14.78-25.59-9.49-34.57,23.47,3.26,26.37,4.33,3.25-1.8,2.67-3.54-7.22-21.38-10.57-30.2-3.09-15.47,2.06-18.45c5-2.88,11.4,4.52,15.3,6.72s5.69-3.12,5.69-3.12,1-13.66,6.66-38.31S262.36,189,262.36,189" style="fill:#f5f5f5"></path><path d="M257.54,211.12a3.56,3.56,0,0,1-.07.46c-.07.33-.16.77-.27,1.33L256.1,218,252,236.69c-3.42,15.83-8.13,37.63-13.33,61.72s-9.92,45.94-13.51,61.7c-1.81,7.85-3.28,14.21-4.31,18.65-.52,2.17-.93,3.87-1.22,5.06-.14.55-.25,1-.33,1.31a1.92,1.92,0,0,1-.14.44,3.92,3.92,0,0,1,.07-.45c.07-.33.16-.77.27-1.33l1.1-5.09L224.7,360c3.47-15.78,8.17-37.61,13.33-61.73s9.92-45.93,13.51-61.69c1.81-7.85,3.28-14.21,4.31-18.65.52-2.17.93-3.87,1.22-5.06l.33-1.32A2.57,2.57,0,0,1,257.54,211.12Z" style="fill:#e0e0e0"></path><path d="M266.57,264a37.9,37.9,0,0,1-3.53,2.83l-8.61,6.67c-3.36,2.61-6.42,5-8.69,6.59-1.13.81-2.07,1.45-2.72,1.87a4.11,4.11,0,0,1-1.07.59c0-.07,1.33-1.11,3.52-2.83L254,273c3.36-2.61,6.46-4.92,8.74-6.52,1.14-.8,2.08-1.44,2.74-1.86A4.08,4.08,0,0,1,266.57,264Z" style="fill:#e0e0e0"></path><path d="M240.56,281.81c-.15.1-4.85-6.32-10.5-14.35s-10.11-14.62-10-14.72,4.85,6.32,10.51,14.35S240.71,281.71,240.56,281.81Z" style="fill:#e0e0e0"></path><path d="M233.47,324.79a4.57,4.57,0,0,1-1.07-.64c-.67-.44-1.6-1.11-2.75-2-2.29-1.7-5.4-4.12-8.69-7s-6.13-5.59-8.13-7.62c-1-1-1.79-1.86-2.33-2.45a4.71,4.71,0,0,1-.78-1,37.83,37.83,0,0,1,3.43,3.09c2.08,1.94,5,4.61,8.24,7.46s6.33,5.32,8.54,7.11A36.86,36.86,0,0,1,233.47,324.79Z" style="fill:#e0e0e0"></path><path d="M260.53,313.84a26.1,26.1,0,0,1-3.88,1.76c-2.43,1-5.81,2.37-9.55,3.83s-7.14,2.74-9.61,3.64a28,28,0,0,1-4.06,1.33,28.75,28.75,0,0,1,3.89-1.76c2.43-1,5.8-2.36,9.55-3.82s7.14-2.75,9.61-3.65A28.59,28.59,0,0,1,260.53,313.84Z" style="fill:#e0e0e0"></path><path d="M259.09,352.58a6.39,6.39,0,0,1-1.32.64l-3.7,1.51c-3.14,1.25-7.48,2.93-12.29,4.75s-9.19,3.44-12.37,4.58l-3.77,1.32a6.36,6.36,0,0,1-1.41.4,6,6,0,0,1,1.32-.64l3.7-1.51c3.14-1.25,7.48-2.93,12.29-4.75s9.19-3.44,12.36-4.58l3.78-1.32A6.21,6.21,0,0,1,259.09,352.58Z" style="fill:#e0e0e0"></path><path d="M225,365.23a7.83,7.83,0,0,1-1.29-.89c-.81-.61-2-1.52-3.37-2.65-2.81-2.28-6.62-5.51-10.69-9.24s-7.62-7.25-10.13-9.85c-1.25-1.31-2.25-2.38-2.93-3.13a7.85,7.85,0,0,1-1-1.21,6.39,6.39,0,0,1,1.19,1l3.07,3c2.59,2.52,6.18,6,10.24,9.7s7.82,7,10.55,9.37l3.23,2.8A7.23,7.23,0,0,1,225,365.23Z" style="fill:#e0e0e0"></path><rect x="372.32" y="344.33" width="58.62" height="59.04" transform="translate(-139.92 462.16) rotate(-52.21)" style="fill:#e0e0e0"></rect><rect x="392.69" y="360.13" width="58.62" height="59.04" transform="matrix(0.61, -0.79, 0.79, 0.61, -144.51, 484.38)" style="fill:#ebebeb"></rect><path d="M423.47,401.7l-2.85,3.67-15.3-11.87,15.32-19.76,14.94,11.58L432.74,389l-10.4-8.06L419,385.22l9.17,7.12-2.75,3.56-9.18-7.12-3.55,4.58Z" style="fill:#fff"></path><path d="M392.24,379.43c0,.14-7.15.15-15.95,0s-16-.37-16-.51,7.14-.15,16,0S392.24,379.28,392.24,379.43Z" style="fill:#ebebeb"></path><path d="M402.58,366.09c0,.14-7.14.15-15.95,0s-15.95-.37-15.95-.51,7.15-.15,16,0S402.58,366,402.58,366.09Z" style="fill:#ebebeb"></path><path d="M412.92,352.75c0,.15-7.14.15-15.95,0s-16-.37-16-.51,7.15-.15,16,0S412.93,352.61,412.92,352.75Z" style="fill:#ebebeb"></path><path d="M404.68,339.12a41.26,41.26,0,0,1-6.66.16,41.94,41.94,0,0,1-6.66-.37,43.69,43.69,0,0,1,6.67-.15A44.17,44.17,0,0,1,404.68,339.12Z" style="fill:#ebebeb"></path><rect x="294.66" y="257.86" width="59.04" height="58.62" style="fill:#ebebeb"></rect><rect x="320.44" y="257.86" width="59.04" height="58.62" style="fill:#f5f5f5"></rect><path d="M337.56,287.93c0-7.54,5.79-12.93,13.58-12.93a12.91,12.91,0,0,1,10.29,4.43l-3.72,3.43a8,8,0,0,0-6.29-2.93,8,8,0,0,0,0,16,8,8,0,0,0,6.29-3l3.72,3.43c-2.36,2.9-6,4.47-10.33,4.47C343.35,300.87,337.56,295.47,337.56,287.93Z" style="fill:#fff"></path><path d="M320.17,297.33c.09.12-5.55,4.5-12.6,9.78s-12.83,9.49-12.91,9.37,5.55-4.49,12.6-9.78S320.09,297.22,320.17,297.33Z" style="fill:#e0e0e0"></path><path d="M320.17,280.45c.09.12-5.55,4.5-12.6,9.79s-12.83,9.48-12.91,9.36,5.55-4.49,12.6-9.78S320.09,280.34,320.17,280.45Z" style="fill:#e0e0e0"></path><path d="M320.17,263.58c.09.11-5.55,4.49-12.6,9.78s-12.83,9.48-12.91,9.37,5.55-4.5,12.6-9.79S320.09,263.46,320.17,263.58Z" style="fill:#e0e0e0"></path><path d="M305.3,257.86a43.1,43.1,0,0,1-5.16,4.2,43.7,43.7,0,0,1-5.48,3.79,41.48,41.48,0,0,1,5.16-4.21A42.92,42.92,0,0,1,305.3,257.86Z" style="fill:#e0e0e0"></path><polygon points="422.7 102.13 422.7 203.54 291.71 203.54 286.99 102.84 422.7 102.13" style="fill:#e0e0e0"></polygon><rect x="302.07" y="87.64" width="100.82" height="130.99" transform="translate(199.35 505.62) rotate(-90)" style="fill:#fff"></rect><path d="M418.48,204.05h-132V102.22h132Zm-131-1h130V103.22h-130Z" style="fill:#e0e0e0"></path><rect x="301.18" y="113.08" width="102.61" height="77.19" style="fill:#fff"></rect><path d="M403.79,113.08l-.49,0h-1.45l-5.59,0-21,.06-74,.12.24-.24c0,23.16,0,49.44,0,77.19h0l-.26-.26,102.61.05-.21.21c.05-23.32.08-42.59.11-56.05,0-6.73,0-12,.06-15.6,0-1.8,0-3.17,0-4.11s0-1.43,0-1.43,0,.46,0,1.38,0,2.29,0,4.07c0,3.59,0,8.85.06,15.56,0,13.49.06,32.8.11,56.18v.22h-.22l-102.61,0h-.26v-.26h0c0-27.75,0-54,0-77.19v-.23h.23l74.19.11,21,.07,5.54,0h1.89Z" style="fill:#e0e0e0"></path><path d="M287,102.49a11.94,11.94,0,0,1,2.22,1.36c1.33.89,3.15,2.16,5.11,3.61s3.71,2.83,4.94,3.86a12.52,12.52,0,0,1,1.92,1.76,12.32,12.32,0,0,1-2.14-1.47l-5-3.73-5-3.73A13.82,13.82,0,0,1,287,102.49Z" style="fill:#e0e0e0"></path><path d="M418,102.72a73.8,73.8,0,0,1-6.94,5.39,73.12,73.12,0,0,1-7.25,5,75.82,75.82,0,0,1,6.94-5.39A73.12,73.12,0,0,1,418,102.72Z" style="fill:#e0e0e0"></path><line x1="417.98" y1="203.55" x2="403.27" y2="190.27" style="fill:#fff"></line><path d="M403.27,190.27a94.75,94.75,0,0,1,7.53,6.45,92.07,92.07,0,0,1,7.18,6.83,94.75,94.75,0,0,1-7.53-6.45A94.32,94.32,0,0,1,403.27,190.27Z" style="fill:#e0e0e0"></path><path d="M287,203.55a84.68,84.68,0,0,1,6.85-6.53,85.56,85.56,0,0,1,7.2-6.15,86.78,86.78,0,0,1-6.85,6.53A87.9,87.9,0,0,1,287,203.55Z" style="fill:#e0e0e0"></path><path d="M348.41,154.8a20.17,20.17,0,0,1-.08-3.23c.07-1.27,0-2.57,0-3.84-.05-4.53-3.07-7.32-7.52-7.27a11.55,11.55,0,0,0-5.77,2.26c-7.9,5.41-5,17.31,0,23.47a22.17,22.17,0,0,0,5.8,4.9c2.75,1.52,7.3,1.63,9.2-1a7.25,7.25,0,0,0,.72-7.17A27.79,27.79,0,0,1,348.41,154.8Z" style="fill:#ebebeb"></path><path d="M350,136.91c-.78,2.46-3,4-4.91,3.35s-2.86-3.11-2.07-5.58,3-4,4.91-3.35S350.83,134.44,350,136.91Z" style="fill:#ebebeb"></path><path d="M341,136.47c0,1.81-1.19,3.26-2.61,3.24s-2.54-1.5-2.52-3.31,1.19-3.26,2.61-3.24S341,134.66,341,136.47Z" style="fill:#ebebeb"></path><path d="M334.7,137.88c.7,1.46.35,3.09-.79,3.64s-2.64-.18-3.35-1.64-.35-3.09.79-3.64S334,136.42,334.7,137.88Z" style="fill:#ebebeb"></path><path d="M330.11,141.65a2.2,2.2,0,1,1-3.46.07C327.35,140.78,328.9,140.75,330.11,141.65Z" style="fill:#ebebeb"></path><path d="M328,146.58a1.9,1.9,0,1,1-2.79,1.09A2.15,2.15,0,0,1,328,146.58Z" style="fill:#ebebeb"></path><path d="M361.28,154.8a20.17,20.17,0,0,0,.08-3.23c-.06-1.27,0-2.57,0-3.84.05-4.53,3.08-7.32,7.53-7.27a11.55,11.55,0,0,1,5.76,2.26c7.91,5.41,5,17.31,0,23.47a22,22,0,0,1-5.8,4.9c-2.75,1.52-7.3,1.63-9.2-1a7.27,7.27,0,0,1-.72-7.17A27.49,27.49,0,0,0,361.28,154.8Z" style="fill:#ebebeb"></path><path d="M359.65,136.91c.79,2.46,3,4,4.92,3.35s2.85-3.11,2.07-5.58-3-4-4.92-3.35S358.87,134.44,359.65,136.91Z" style="fill:#ebebeb"></path><path d="M368.69,136.47c0,1.81,1.19,3.26,2.61,3.24s2.55-1.5,2.52-3.31-1.19-3.26-2.61-3.24S368.67,134.66,368.69,136.47Z" style="fill:#ebebeb"></path><path d="M375,137.88c-.71,1.46-.36,3.09.78,3.64s2.64-.18,3.35-1.64.36-3.09-.79-3.64S375.7,136.42,375,137.88Z" style="fill:#ebebeb"></path><path d="M379.58,141.65a2.49,2.49,0,0,0-.89,3.35c.7.94,2.25,1,3.46.07a2.2,2.2,0,1,0-2.57-3.42Z" style="fill:#ebebeb"></path><path d="M381.73,146.58A2.15,2.15,0,0,0,380,149a2.44,2.44,0,1,0,1.73-2.45Z" style="fill:#ebebeb"></path></g><g id="freepik--Floor--inject-9"><path d="M476.74,434c0,.14-101.53.26-226.73.26S23.26,434.14,23.26,434s101.5-.26,226.75-.26S476.74,433.86,476.74,434Z" style="fill:#263238"></path></g><g id="freepik--Character--inject-9"><path d="M65.27,331.89c1.64,8.75-7.66,18.92-8.51,22.7s-.46,8,2,11.07a13.18,13.18,0,0,0,8.65,4.44,38.92,38.92,0,0,0,9.93-.35L108,366" style="fill:#2D9CDB"></path><path d="M147.44,251.72l23.72,15.87-.25,58.4s1.64,29.88-.41,34.79-105.22,12.7-105.22,12.7-1.22-38.49,0-57.73,34.35-73,34.35-73Z" style="fill:#2D9CDB"></path><path d="M166.37,371.37s36.09-22.85,45.7-19.21,33.11,40.73,33.11,40.73L231.6,418.06l-30.46-22.85s.66,24.51-21.52,29.14S166.37,371.37,166.37,371.37Z" style="fill:#eb996e"></path><path d="M174.6,271.07l.67.87c2.35,3,10.11,13.28,12.7,19.61,3.06,7.5,9.2,21.47,12.6,26.58S222.3,340,227.15,355.61c3.71,11.93,6.14,22.5,6.14,22.5L208.41,389s-27.6-33.39-30.67-40.2-6.44-13-6.44-13l-2.76-38.47" style="fill:#ffbe9d"></path><path d="M64.74,368.54s-5.66,5.69-5.11,11.48,0,18.74,0,18.74,2.25,39.41,40.28,34.72l36.18-3.32s20,.56,30.24-7.7,13.22-50,9.37-53.92l-3-2.48s-.11-3.4-2.12-4.51S64.74,368.54,64.74,368.54Z" style="fill:#f5f5f5"></path><path d="M64.74,368.54l.53-.06,1.57-.14,6.11-.51L95.88,366,131,363.43,152.27,362c3.73-.23,7.55-.45,11.46-.63,2-.08,3.92-.18,5.93-.15a4.93,4.93,0,0,1,.81.07,1.29,1.29,0,0,1,.39.21,2,2,0,0,1,.32.25,4.16,4.16,0,0,1,.94,1.27,8.19,8.19,0,0,1,.75,3l-.09-.18,3,2.48h0a6.24,6.24,0,0,1,1.12,2.87,30,30,0,0,1,.4,3c.16,2,.19,4.06.16,6.12a116.5,116.5,0,0,1-.89,12.52,115,115,0,0,1-2.24,12.74,52.79,52.79,0,0,1-4.42,12.5,17.34,17.34,0,0,1-2.86,3.94,14.39,14.39,0,0,1-1.91,1.51,16.53,16.53,0,0,1-2,1.27,37.59,37.59,0,0,1-8.84,3.44A71.56,71.56,0,0,1,136,430.41h0L107.52,433l-6.75.61c-2.23.19-4.43.46-6.61.44a35.77,35.77,0,0,1-12.52-2,29.18,29.18,0,0,1-10.13-6.19,33.91,33.91,0,0,1-6.67-8.79,45.57,45.57,0,0,1-3.75-9.38,48.87,48.87,0,0,1-1.65-9h0c.22-5,.32-9.49.3-13.39,0-1.95-.07-3.76-.21-5.41a10.65,10.65,0,0,1,.69-4.47,19.79,19.79,0,0,1,3.1-5.35,15,15,0,0,1,1.42-1.59l-.35.41c-.24.27-.58.68-1,1.23a20.12,20.12,0,0,0-3,5.35,10.6,10.6,0,0,0-.65,4.4c.15,1.66.22,3.47.25,5.43.05,3.91,0,8.39-.24,13.4h0a48.26,48.26,0,0,0,5.43,18.19,34.19,34.19,0,0,0,6.61,8.67,29.19,29.19,0,0,0,10,6.08,35.64,35.64,0,0,0,12.37,1.92c2.17,0,4.35-.25,6.57-.44l6.75-.63L136,429.9h0a71.35,71.35,0,0,0,18.12-2.12,37,37,0,0,0,8.71-3.39,15.23,15.23,0,0,0,2-1.25,11.93,11.93,0,0,0,1.84-1.46,16.8,16.8,0,0,0,2.78-3.81,53,53,0,0,0,4.37-12.38,115.4,115.4,0,0,0,2.23-12.68,118,118,0,0,0,.89-12.46c0-2,0-4.07-.15-6.07-.1-1-.2-2-.39-2.94a6.16,6.16,0,0,0-1-2.63l0,0-3-2.48-.08-.07v-.12a7.59,7.59,0,0,0-.69-2.82,3.94,3.94,0,0,0-.83-1.13,1.78,1.78,0,0,0-.27-.21c-.09,0-.21-.16-.26-.14a4.43,4.43,0,0,0-.69-.06c-2,0-3.95.07-5.89.14-3.9.18-7.72.4-11.46.62L131,363.84,95.9,366.32,73,368l-6.11.43-1.58.1Z" style="fill:#263238"></path><path d="M88.84,427.17s-9.09-11.6-6.06-24.28,15.1-34.73,34.83-38.31,28.32-.83,36.57,5.37S167.49,382,177.08,385,214,399.86,214,399.86l-3.58,27.31s-39.16-.07-48.38-2a104.54,104.54,0,0,1-16.06-4.66,20.55,20.55,0,0,1-16,11.85C118.43,433.87,97.66,436.83,88.84,427.17Z" style="fill:#ffbe9d"></path><path d="M171.16,267.59a83.61,83.61,0,0,1,14.36,16.31C191.17,292.82,197.7,310,197.7,310s-28.06,20.48-30.24,20S159,293,159,293Z" style="fill:#2D9CDB"></path><path d="M170.7,346.83a2.74,2.74,0,0,1-.07-.62c0-.46-.06-1-.1-1.77-.08-1.6-.19-3.81-.33-6.52-.28-5.5-.72-13.1-1.38-21.48s-1.43-16-2-21.44c-.3-2.69-.54-4.89-.71-6.48-.07-.73-.13-1.31-.18-1.77a4.81,4.81,0,0,1,0-.62,2.27,2.27,0,0,1,.13.61c.08.45.17,1,.28,1.75.23,1.52.53,3.74.87,6.47.69,5.47,1.51,13.05,2.18,21.44s1,16,1.23,21.51c.09,2.75.14,5,.16,6.53v1.77A2.45,2.45,0,0,1,170.7,346.83Z" style="fill:#263238"></path><path d="M101.77,433.31a11.42,11.42,0,0,1-3.46-.34,18,18,0,0,1-8.19-4.64,23.53,23.53,0,0,1-4-5.18,30.77,30.77,0,0,1-2.87-7A37.17,37.17,0,0,1,81.75,408a16.54,16.54,0,0,1,.32-4.42l.45-2.2c.19-.73.39-1.47.59-2.21a46,46,0,0,1,3.28-8.29c.61-1.31,1.4-2.5,2.08-3.71s1.48-2.31,2.31-3.35a61.51,61.51,0,0,1,9.62-10.21A69,69,0,0,1,111,366.15s-.24.19-.73.53l-2.12,1.44c-1.81,1.3-4.45,3.17-7.46,5.78a62.81,62.81,0,0,0-9.48,10.21c-.81,1-1.5,2.2-2.27,3.34s-1.44,2.37-2,3.67a45.42,45.42,0,0,0-3.24,8.21c-.19.73-.39,1.46-.59,2.18s-.29,1.46-.44,2.18a16,16,0,0,0-.32,4.29,36.47,36.47,0,0,0,1.42,8.08,31.12,31.12,0,0,0,2.78,6.87,22.88,22.88,0,0,0,3.92,5.13,18.08,18.08,0,0,0,8,4.71A22.29,22.29,0,0,0,101.77,433.31Z" style="fill:#263238"></path><path d="M91.41,385.06a5.35,5.35,0,0,1-1.23.27c-.8.15-2,.3-3.4.43a58.46,58.46,0,0,1-22.41-2.36c-1.38-.43-2.49-.82-3.24-1.13a7.06,7.06,0,0,1-1.15-.52,4.93,4.93,0,0,1,1.22.33c.77.25,1.88.58,3.27,1a67.9,67.9,0,0,0,22.28,2.35c1.44-.09,2.6-.19,3.4-.27A6.28,6.28,0,0,1,91.41,385.06Z" style="fill:#263238"></path><path d="M73,426.23s-.13-.08-.34-.29a11.23,11.23,0,0,1-.86-.93,19.15,19.15,0,0,1-2.58-3.91A28.92,28.92,0,0,1,66.49,406,58.54,58.54,0,0,1,70,391c.66-1.85,1.23-3.34,1.64-4.36a10.16,10.16,0,0,1,.68-1.57,11.28,11.28,0,0,1-.49,1.64l-1.49,4.41A64.51,64.51,0,0,0,67,406.07a29.66,29.66,0,0,0,2.52,14.87A27.92,27.92,0,0,0,73,426.23Z" style="fill:#263238"></path><rect x="201.76" y="374.51" width="59.62" height="59.2" style="fill:#2D9CDB"></rect><g style="opacity:0.30000000000000004"><rect x="201.76" y="374.51" width="59.62" height="59.2"></rect></g><rect x="227.8" y="374.51" width="59.62" height="59.2" style="fill:#2D9CDB"></rect><path d="M263.31,412.11H251.58l-2.23,5.41h-6l11.26-25.26h5.78l11.29,25.26h-6.13Zm-1.84-4.44-4-9.67-4,9.67Z" style="fill:#fff"></path><path d="M227.53,414.38c.09.11-5.61,4.54-12.73,9.87s-13,9.58-13,9.47,5.61-4.54,12.73-9.88S227.44,414.26,227.53,414.38Z" style="fill:#263238"></path><path d="M227.53,397.33c.09.12-5.61,4.54-12.73,9.88s-13,9.58-13,9.46,5.61-4.53,12.73-9.88S227.44,397.22,227.53,397.33Z" style="fill:#263238"></path><path d="M227.53,380.29c.09.12-5.61,4.54-12.73,9.88s-13,9.57-13,9.46,5.61-4.54,12.73-9.88S227.44,380.18,227.53,380.29Z" style="fill:#263238"></path><path d="M212.52,374.51a44.41,44.41,0,0,1-5.22,4.25,44.65,44.65,0,0,1-5.54,3.83,43.4,43.4,0,0,1,5.22-4.25A43.81,43.81,0,0,1,212.52,374.51Z" style="fill:#263238"></path><path d="M193,391s36.62,10,39,8.78S254.28,387.6,257,389c1.53.8,3.21-.43,0,6.22-2.26,4.68-11.35,21.93-16.52,31.73a11.39,11.39,0,0,1-11.44,6l-53.26-6.5Z" style="fill:#ffbe9d"></path><path d="M131.33,397.36c.1,0,.2,1.53.77,3.94a29.77,29.77,0,0,0,1.3,4.13,33.26,33.26,0,0,0,2.38,4.73A34.46,34.46,0,0,0,139,414.4a29.28,29.28,0,0,0,3.12,3c1.9,1.57,3.24,2.35,3.19,2.43a4.15,4.15,0,0,1-1-.49,8.49,8.49,0,0,1-1.08-.67,16.59,16.59,0,0,1-1.37-1,27.09,27.09,0,0,1-3.25-3,30.14,30.14,0,0,1-3.27-4.29A30.85,30.85,0,0,1,133,405.6a26.84,26.84,0,0,1-1.21-4.22,16.14,16.14,0,0,1-.28-1.67,9.41,9.41,0,0,1-.12-1.26A4.8,4.8,0,0,1,131.33,397.36Z" style="fill:#eb996e"></path><path d="M145.86,420.2a4.75,4.75,0,0,1-1.16-.18c-.74-.15-1.82-.38-3.13-.72a27.6,27.6,0,0,1-9.68-4.31,15.4,15.4,0,0,1-4-4.33,13.81,13.81,0,0,1-1.69-4.5,12.87,12.87,0,0,1-.18-3.23,4,4,0,0,1,.19-1.17,21.58,21.58,0,0,0,.36,4.33,13.92,13.92,0,0,0,1.73,4.32,15.46,15.46,0,0,0,3.88,4.16,29.58,29.58,0,0,0,9.47,4.37l3.08.89A5.86,5.86,0,0,1,145.86,420.2Z" style="fill:#eb996e"></path><path d="M99.63,242.77s-25.92,7.11-30,23.5-15.79,65-2.28,80.14,52.82,17.19,52.82,17.19l25.79-9.83L98,324.71s5-25,5.76-29.89S99.63,242.77,99.63,242.77Z" style="fill:#ffbe9d"></path><path d="M101.53,242.4S71.15,247,64.74,273.64,60.12,305.13,61,305.91s5.36-3.81,15.75-1.49,19.77,18.72,26.72,13.65,6.18-47,6.18-47Z" style="fill:#2D9CDB"></path><path d="M99.13,319.93s.17.09.5.2a2.55,2.55,0,0,0,1.46,0,3.86,3.86,0,0,0,1.94-1.26,4.93,4.93,0,0,0,1-2.91,32,32,0,0,0-.24-3.86c-.12-1.4-.23-2.89-.34-4.46-.21-3.15-.38-6.61-.46-10.25a182.3,182.3,0,0,1,.51-18.63c.19-2.38.4-4.3.57-5.62l.22-1.52a1.81,1.81,0,0,1,.11-.53,2.22,2.22,0,0,1,0,.54c0,.41-.07.91-.12,1.53-.1,1.33-.26,3.25-.41,5.62-.29,4.75-.52,11.33-.35,18.6.08,3.63.23,7.08.42,10.23.1,1.56.2,3.05.29,4.46a31.52,31.52,0,0,1,.18,3.91,5.15,5.15,0,0,1-1.1,3.07,3.86,3.86,0,0,1-2.11,1.27,2.52,2.52,0,0,1-1.55-.13A1.42,1.42,0,0,1,99.13,319.93Z" style="fill:#263238"></path><path d="M124.34,356.09s-8.32,9.83-2.52,19.25c0,0-1.68,22.12,2.52,22.92,3.86.74,6.14-7.78,6.14-7.78s-2.86,17.61,4.1,14.74c0,0,7.78,1.64,11-12.28,0,0,6.14-2.46,7.37-6.14s0-11.46,0-11.46l-2.64-8,5.51,5.09a11.08,11.08,0,0,0-2.46-11.87c-5.32-5.73-8.88-7.57-8.88-7.57Z" style="fill:#ffbe9d"></path><path d="M144.68,353a2.28,2.28,0,0,1,.4.2c.25.14.61.37,1.07.69A37.93,37.93,0,0,1,150,357c.79.72,1.64,1.53,2.54,2.45a19.24,19.24,0,0,1,2.68,3.23,11.18,11.18,0,0,1,.87,9.89l-.1.26-.22-.2-5.52-5.08.36-.23c.85,2.53,1.74,5.19,2.66,7.95v0c.24,1.64.41,3.31.5,5a24.38,24.38,0,0,1-.2,5.31,6.27,6.27,0,0,1-1,2.6,10.19,10.19,0,0,1-1.94,2.05,20.37,20.37,0,0,1-4.88,2.88l.15-.18-.56,2.07c-.19.71-.49,1.4-.73,2.11a16.82,16.82,0,0,1-3.72,6,8,8,0,0,1-6.35,2.33h.15a3.15,3.15,0,0,1-2.52.11,3.4,3.4,0,0,1-1.64-1.87,14,14,0,0,1-.82-4.59,46.75,46.75,0,0,1,.57-8.66l.44.1a19.61,19.61,0,0,1-3.44,6.57,4.76,4.76,0,0,1-1.42,1.1,2.23,2.23,0,0,1-1.79.15,2.49,2.49,0,0,1-1.21-1.25,8.84,8.84,0,0,1-.57-1.53,30,30,0,0,1-.8-5.82c-.11-1.81-.13-3.48-.12-5,0-3,.15-5.38.25-7,.06-.78.1-1.39.14-1.84,0-.19,0-.34.05-.47s0-.15,0-.15V376c0,.45,0,1.06-.07,1.84-.06,1.61-.14,4-.12,7,0,1.5,0,3.16.17,5a30.62,30.62,0,0,0,.84,5.74,8.17,8.17,0,0,0,.55,1.45,2.18,2.18,0,0,0,1,1.06,1.91,1.91,0,0,0,1.47-.14,4.47,4.47,0,0,0,1.29-1,19.24,19.24,0,0,0,3.31-6.42l.45.1a47.65,47.65,0,0,0-.54,8.57,13.64,13.64,0,0,0,.8,4.42,3,3,0,0,0,1.38,1.6,2.7,2.7,0,0,0,2.13-.12l.06,0h.09a6.32,6.32,0,0,0,3.13-.43,9.4,9.4,0,0,0,2.75-1.78,16.34,16.34,0,0,0,3.6-5.77c.23-.69.52-1.37.71-2.07l.56-2,0-.13.12-.05a20.2,20.2,0,0,0,4.76-2.8,9.59,9.59,0,0,0,1.84-1.93,5.94,5.94,0,0,0,.91-2.41,24.47,24.47,0,0,0,.21-5.19c-.09-1.71-.25-3.38-.49-5v0c-.91-2.76-1.79-5.42-2.62-8l-.27-.82.63.59,5.49,5.1-.32.07a10.87,10.87,0,0,0-.78-9.56,19.25,19.25,0,0,0-2.6-3.2c-.89-.92-1.72-1.75-2.49-2.47a42,42,0,0,0-3.73-3.14c-.45-.33-.8-.58-1-.74A3.59,3.59,0,0,1,144.68,353Z" style="fill:#eb996e"></path><path d="M145.87,373.94a13.15,13.15,0,0,1,.4,2.76c.16,1.72.3,4.1.3,6.73s-.14,5-.3,6.73a13.85,13.85,0,0,1-.4,2.76,15.58,15.58,0,0,1,0-2.79c.07-1.71.14-4.08.15-6.7s-.08-5-.15-6.7A18.36,18.36,0,0,1,145.87,373.94Z" style="fill:#eb996e"></path><path d="M139,375.75a5.73,5.73,0,0,1,.3,1.17,30.85,30.85,0,0,1,.5,3.26,45.66,45.66,0,0,1-2.8,21.38,32.38,32.38,0,0,1-1.33,3,5.77,5.77,0,0,1-.59,1.06c-.09,0,.65-1.59,1.57-4.2a51,51,0,0,0,2.79-21.22C139.24,377.46,138.92,375.77,139,375.75Z" style="fill:#eb996e"></path><path d="M131.19,380.79a15.27,15.27,0,0,1,.24,5.25,15.11,15.11,0,0,1-1.08,5.15c-.15,0,.33-2.32.56-5.19S131,380.8,131.19,380.79Z" style="fill:#eb996e"></path><path d="M124.75,359.45a14.37,14.37,0,0,0-2,1.57,9.27,9.27,0,0,0-2.49,5.49,14.33,14.33,0,0,0,.87,6.08c.53,1.51,1,2.4.91,2.44a8.3,8.3,0,0,1-1.26-2.31,13.15,13.15,0,0,1-1-6.27,9,9,0,0,1,2.76-5.7,6.49,6.49,0,0,1,1.61-1.09C124.49,359.48,124.74,359.42,124.75,359.45Z" style="fill:#eb996e"></path><path d="M99.33,325.33c0,.09-1.14-.55-3.06-1.13a18.31,18.31,0,0,0-3.46-.67,20.2,20.2,0,0,0-4.3.09,20.55,20.55,0,0,0-4.16,1.08,18.44,18.44,0,0,0-3.15,1.58c-1.69,1.08-2.57,2-2.64,1.91s.18-.26.58-.67a6,6,0,0,1,.76-.71A12.53,12.53,0,0,1,81,326a16.84,16.84,0,0,1,3.17-1.72,17.92,17.92,0,0,1,8.69-1.2,16.69,16.69,0,0,1,3.52.8,10,10,0,0,1,1.28.51,7.92,7.92,0,0,1,.93.47C99.09,325.12,99.35,325.29,99.33,325.33Z" style="fill:#eb996e"></path><path d="M145.65,255.47l.11-10.38c13.43-1.74,21.33-12.67,22.22-28.17.48-8.25.81-9.25.23-27.07A117.22,117.22,0,0,0,162,157.07S151.13,143.45,130.55,145s-31.2,29.1-31.2,29.1.14,42,1.35,50.43,1,11.51,1,11.51l.85,13.64a23.63,23.63,0,0,0,22.65,24.22h0C137.75,274.38,144.68,265.81,145.65,255.47Z" style="fill:#ffbe9d"></path><path d="M100.37,200.42c-.36-.16-14.43-4.38-14.08,10S101,221.5,101,221.09,100.37,200.42,100.37,200.42Z" style="fill:#ffbe9d"></path><path d="M96.51,215.74c-.07,0-.25.18-.67.39a2.51,2.51,0,0,1-1.87.08c-1.54-.52-2.88-2.9-3-5.49a8.25,8.25,0,0,1,.62-3.61,2.88,2.88,0,0,1,1.83-2,1.27,1.27,0,0,1,1.5.65c.2.4.12.69.2.71s.3-.25.17-.84a1.59,1.59,0,0,0-.59-.89,1.89,1.89,0,0,0-1.39-.33,3.52,3.52,0,0,0-2.57,2.29,8.57,8.57,0,0,0-.77,4c.16,2.89,1.71,5.57,3.81,6.12a2.67,2.67,0,0,0,2.28-.43C96.49,216.09,96.56,215.77,96.51,215.74Z" style="fill:#eb996e"></path><path d="M156.69,202.2a3.14,3.14,0,0,1-3.05,3.14,3,3,0,0,1-3.21-2.85,3.14,3.14,0,0,1,3-3.15A3,3,0,0,1,156.69,202.2Z" style="fill:#263238"></path><path d="M156.79,196.62c-.4.41-2.76-1.37-6.13-1.39s-5.86,1.66-6.22,1.24c-.18-.18.22-.92,1.31-1.69a8.56,8.56,0,0,1,5-1.5,8.27,8.27,0,0,1,4.87,1.61C156.63,195.7,157,196.44,156.79,196.62Z" style="fill:#263238"></path><path d="M123,202.2a3.14,3.14,0,0,1-3,3.14,3,3,0,0,1-3.21-2.85,3.13,3.13,0,0,1,3-3.15A3,3,0,0,1,123,202.2Z" style="fill:#263238"></path><path d="M123.63,197c-.39.41-2.76-1.37-6.13-1.38s-5.85,1.65-6.22,1.23c-.17-.18.22-.92,1.31-1.69a8.59,8.59,0,0,1,5-1.5,8.3,8.3,0,0,1,4.88,1.61C123.47,196.08,123.82,196.82,123.63,197Z" style="fill:#263238"></path><path d="M121,185c-.19.71-2.22.79-4.46,1.51s-4,1.73-4.53,1.24c-.25-.24-.1-.9.53-1.67A7.23,7.23,0,0,1,119.6,184C120.56,184.23,121.05,184.69,121,185Z" style="fill:#263238"></path><path d="M157.55,185.06c-.3.65-1.45.75-2.55.23s-1.75-1.47-1.44-2.12,1.45-.76,2.55-.23S157.86,184.41,157.55,185.06Z" style="fill:#263238"></path><path d="M132.51,221.58c.05.2-.4.56-1.3.67a4.71,4.71,0,0,1-5.14-3.9c-.13-.89.09-1.43.3-1.43.42,0,.77,1.9,2.45,3.15S132.41,221.16,132.51,221.58Z" style="fill:#263238"></path><path d="M145.76,245.09s-17.25.28-21.32-2.7c0,0,3,8.22,21.27,7.34Z" style="fill:#eb996e"></path><path d="M94.81,199.75a12.2,12.2,0,0,0-.08,5.79c.59,1.85,2.43,3.47,4.34,3.11,2.48-.46,3.34-3.52,3.64-6,.86-7,1.39-14.07,1.59-21.14,0-2,.48-4.49,2.41-4.94,1.12-.27,2.24.34,3.36.64a6.29,6.29,0,0,0,6.27-2c.23,2.7,3.89,3.91,6.35,2.77s3.91-3.67,5.21-6a10.67,10.67,0,0,0,.35,4.47,3.7,3.7,0,0,0,3.35,2.57c1.75-.08,2.94-1.76,3.75-3.31a41.21,41.21,0,0,0,4.09-11.91,25,25,0,0,0,10.42,15.85l1.83-5.41a10.37,10.37,0,0,0,2.51,2.92,3.64,3.64,0,0,0,3.65.48,2.25,2.25,0,0,0,.86-3.26c.44,2.43,3.73,3.62,5.85,2.36a5.44,5.44,0,0,0,1.92-6.53,139.5,139.5,0,0,0,2.27,35.21c3.41-6,6.9-12.28,7.2-19.18.22-4.95-1.24-9.87-.93-14.81.21-3.38,1.24-6.69,1.25-10.08a18.24,18.24,0,0,0-6.15-13.35,21.69,21.69,0,0,0-13.84-5.32c-3.79-.09-7.6.71-11.35.16-3.19-.47-6.15-1.89-9.27-2.67a23.62,23.62,0,0,0-19,3.54s-6.6,3.84-14.73,13.29c0,0-14.74.44-14.08,21.11S90,201.24,90,201.24Z" style="fill:#263238"></path><path d="M102.93,159.73c-.1,0-.27-.95-1-2.28a8.94,8.94,0,0,0-10.2-4.27c-1.49.39-2.3.94-2.35.86s.16-.19.54-.43a7.53,7.53,0,0,1,1.71-.79,8.81,8.81,0,0,1,10.62,4.45,7.59,7.59,0,0,1,.65,1.77A1.65,1.65,0,0,1,102.93,159.73Z" style="fill:#263238"></path><path d="M104.75,159.3a2,2,0,0,1-.62-.44,9.62,9.62,0,0,1-1.42-1.53,11.65,11.65,0,0,1-.71-13.06,9.52,9.52,0,0,1,1.25-1.67c.34-.36.55-.53.57-.51s-.69.84-1.5,2.36a12.08,12.08,0,0,0,.69,12.66C104,158.53,104.82,159.23,104.75,159.3Z" style="fill:#263238"></path><path d="M139,203.85c.21-.06.61.69,1.09,1.93.24.63.49,1.37.76,2.21l.39,1.32a5.66,5.66,0,0,1,.35,1.62,2.54,2.54,0,0,1-.67,1.92,2.9,2.9,0,0,1-1.63.81,3.46,3.46,0,0,1-1.55-.13,4.37,4.37,0,0,1-1.1-.59c-1.15-.93-1.5-1.69-1.38-1.83s.87.35,2,.88a2.64,2.64,0,0,0,1.81.25,1.53,1.53,0,0,0,.78-.43,1.09,1.09,0,0,0,.23-.82,5.77,5.77,0,0,0-.26-1.26c-.1-.47-.21-.91-.31-1.35-.19-.86-.33-1.65-.44-2.31C138.85,204.75,138.82,203.9,139,203.85Z" style="fill:#263238"></path><path d="M95.22,181.53a3.89,3.89,0,0,1-.19-1c-.08-.65-.18-1.6-.27-2.79a31.08,31.08,0,0,1,.48-9.25,15.68,15.68,0,0,1,4.52-8.05,10.46,10.46,0,0,1,2.33-1.6,3,3,0,0,1,1-.37,18.14,18.14,0,0,0-3,2.24,16.18,16.18,0,0,0-4.26,7.9,35.47,35.47,0,0,0-.63,9.11A35.52,35.52,0,0,1,95.22,181.53Z" style="fill:#455a64"></path><path d="M107.68,176.17A8.16,8.16,0,0,1,106,174.1a19.37,19.37,0,0,1-3-12.38,8.39,8.39,0,0,1,.56-2.61c.09,0-.11,1-.19,2.64A22.63,22.63,0,0,0,104,168a22.87,22.87,0,0,0,2.35,5.87C107.12,175.32,107.75,176.12,107.68,176.17Z" style="fill:#455a64"></path><path d="M138.77,163.44a1.47,1.47,0,0,1-.05-.49c0-.38,0-.85-.05-1.42a40.36,40.36,0,0,0-.4-5.16,15.34,15.34,0,0,0-2.78-7,9.8,9.8,0,0,0-3.4-2.81,12.77,12.77,0,0,0-4.6-1.27,18.14,18.14,0,0,0-9.08,1.64A22,22,0,0,0,114.9,149a20.87,20.87,0,0,0-2.65,2.36,18.62,18.62,0,0,0-3,4.18c-.59,1.07-.83,1.71-.88,1.69a1.57,1.57,0,0,1,.14-.48,11.38,11.38,0,0,1,.56-1.31,17.45,17.45,0,0,1,2.93-4.33,20.69,20.69,0,0,1,2.66-2.46,21.27,21.27,0,0,1,3.57-2.16,18.24,18.24,0,0,1,9.33-1.73,13.24,13.24,0,0,1,4.78,1.34,10.16,10.16,0,0,1,3.55,3,15.32,15.32,0,0,1,2.77,7.24,35,35,0,0,1,.24,5.22c0,.62,0,1.1-.06,1.42A1.91,1.91,0,0,1,138.77,163.44Z" style="fill:#455a64"></path><path d="M155.28,166.61a2.8,2.8,0,0,1-.14-.49c-.09-.39-.2-.86-.33-1.44-.28-1.24-.67-3.05-1.31-5.24a31.05,31.05,0,0,0-3-7.35,16.47,16.47,0,0,0-7-6.52,21.53,21.53,0,0,0-9.44-1.94,38.3,38.3,0,0,0-7.91,1c-2.22.49-4,1-5.24,1.32l-1.42.37a2.76,2.76,0,0,1-.51.1,1.58,1.58,0,0,1,.48-.2l1.39-.47c1.22-.38,3-.94,5.22-1.48a36.72,36.72,0,0,1,8-1.11,21.55,21.55,0,0,1,9.67,1.95,16.73,16.73,0,0,1,7.15,6.75,30.52,30.52,0,0,1,3,7.49c.59,2.22.93,4,1.15,5.3.11.63.18,1.12.23,1.46A1.52,1.52,0,0,1,155.28,166.61Z" style="fill:#455a64"></path><path d="M163.39,169.32c-.09,0,.11-1.59.32-4.14a22.21,22.21,0,0,0-1.08-9.79,11.38,11.38,0,0,0-3-4.41,9.23,9.23,0,0,0-3.89-2,9.09,9.09,0,0,0-4.06.09s.08-.07.25-.14a5.37,5.37,0,0,1,.8-.26,7.31,7.31,0,0,1,3.08-.05,9.32,9.32,0,0,1,4.13,2,11.44,11.44,0,0,1,3.21,4.58,20.94,20.94,0,0,1,.95,10c-.14,1.28-.31,2.31-.43,3A5,5,0,0,1,163.39,169.32Z" style="fill:#455a64"></path><path d="M117.09,212.36c-.14,0-.19-.36-.11-.75s.25-.67.39-.65.2.37.12.76S117.24,212.39,117.09,212.36Z" style="fill:#eb996e"></path><path d="M123.11,211.11c-.13,0-.31-.11-.39-.34s0-.46.11-.5.31.1.39.33S123.25,211.06,123.11,211.11Z" style="fill:#eb996e"></path><path d="M120.06,214.74c-.14,0-.29-.28-.33-.67s0-.71.19-.73.29.29.33.68S120.2,214.73,120.06,214.74Z" style="fill:#eb996e"></path><path d="M112.47,214.05c-.14,0-.16-.39,0-.78s.32-.67.46-.62.16.38,0,.77S112.61,214.09,112.47,214.05Z" style="fill:#eb996e"></path><path d="M152.53,211c-.15,0-.29-.26-.33-.61s0-.64.19-.66.29.26.33.61S152.67,211,152.53,211Z" style="fill:#eb996e"></path><path d="M158.16,210.82c-.15,0-.26-.31-.26-.7s.11-.7.26-.7.26.32.26.7S158.3,210.82,158.16,210.82Z" style="fill:#eb996e"></path><path d="M162.82,210.54c-.15,0-.32-.27-.4-.65s0-.73.11-.76.32.27.4.65S163,210.51,162.82,210.54Z" style="fill:#eb996e"></path><path d="M155.49,215.59c-.13,0-.15-.39,0-.78s.33-.66.46-.62.16.39,0,.77S155.63,215.63,155.49,215.59Z" style="fill:#eb996e"></path><path d="M160.79,214.89c-.14,0-.29-.22-.33-.53s0-.57.19-.59.29.22.33.53S160.93,214.87,160.79,214.89Z" style="fill:#eb996e"></path><path d="M146.12,254.43a4.79,4.79,0,0,1,.1.8,19.42,19.42,0,0,1,.05,2.32,21.68,21.68,0,0,1-2,8.28,18.62,18.62,0,0,1-8.71,9,16.46,16.46,0,0,1-7.29,1.69,22.37,22.37,0,0,1-7.89-1.55,34.63,34.63,0,0,1-12.78-8.65,24.74,24.74,0,0,1-6-11,20.62,20.62,0,0,1-.29-8.49,16.85,16.85,0,0,1,.58-2.24c.18-.5.28-.76.29-.76a4.38,4.38,0,0,1-.19.79,20.29,20.29,0,0,0,0,10.62,24.76,24.76,0,0,0,6,10.8,34.68,34.68,0,0,0,12.61,8.48,22,22,0,0,0,7.71,1.53,16.15,16.15,0,0,0,7.08-1.61,18.46,18.46,0,0,0,8.59-8.7,22.31,22.31,0,0,0,2.07-8.13c.07-1,.06-1.77.06-2.3A4.16,4.16,0,0,1,146.12,254.43Z" style="fill:#263238"></path><g style="opacity:0.7000000000000001"><polyline points="142.94 323.17 136.54 319.81 125.35 325.69 127.48 313.23 118.43 304.41 130.94 302.59 136.54 291.25 142.13 302.59 154.64 304.41 145.59 313.23 146.65 319.42" style="fill:#fff"></polyline></g><g style="opacity:0.7000000000000001"><polygon points="139.86 325.08 145.33 327 144.79 321.74 139.86 325.08" style="fill:#fff"></polygon></g><path d="M151,313.1a6.25,6.25,0,0,1-.53,1.34,21.34,21.34,0,0,1-2,3.38,23.78,23.78,0,0,1-22.76,9.75,20.88,20.88,0,0,1-3.82-.88,7,7,0,0,1-1.33-.54,44.84,44.84,0,0,0,5.2,1.06,24.35,24.35,0,0,0,22.41-9.61A44.5,44.5,0,0,0,151,313.1Z" style="fill:#263238"></path><g style="opacity:0.4"><path d="M170.37,327.87c-.11,2.6,4.57-2.64,5-5.21s-.41-5.15-1.19-7.63l-7.83-24.66S170.59,322.87,170.37,327.87Z"></path></g></g><g id="freepik--Plant--inject-9"><path d="M441.79,370.33a11.89,11.89,0,0,1,6.17,7,21.06,21.06,0,0,1,.82,9.47c-.69,6.15-4.19,12.36-7.95,17.27-5.18-4.52-6.37-12.4-6.72-16.44-.56-6.38,2.31-18.25,7.68-17.29" style="fill:#2D9CDB"></path><path d="M446.85,414.21a10.19,10.19,0,0,1,3.28-9.67,13.55,13.55,0,0,1,10-3.11c1.64.13,3.42.61,4.37,2a4.33,4.33,0,0,1,.06,4.4,8.74,8.74,0,0,1-3.26,3.21c-4.48,2.82-9.34,4.72-14.41,3.2" style="fill:#2D9CDB"></path><path d="M440.21,433.06a7.57,7.57,0,0,1,.18-1.27c.17-.88.38-2,.63-3.41a35.85,35.85,0,0,1,3.52-10.91,21.83,21.83,0,0,1,7.83-8.31,15,15,0,0,1,3.19-1.42,8.63,8.63,0,0,1,.92-.23c.21,0,.33-.06.33,0a20.24,20.24,0,0,0-11.88,10.22,38.62,38.62,0,0,0-3.6,10.75c-.31,1.44-.57,2.59-.77,3.39A6.49,6.49,0,0,1,440.21,433.06Z" style="fill:#263238"></path><path d="M440.4,379.56a2.22,2.22,0,0,1,.07.55c0,.41,0,.93.09,1.58.07,1.38.16,3.37.23,5.83.16,4.93.29,11.74.26,19.26s-.22,14.33-.42,19.26c-.1,2.46-.2,4.45-.29,5.83,0,.65-.08,1.17-.1,1.58a3.06,3.06,0,0,1-.07.55,2.33,2.33,0,0,1,0-.55c0-.41,0-.94,0-1.59,0-1.43.08-3.41.14-5.83.12-4.93.26-11.73.29-19.25s0-14.32-.12-19.25c0-2.42-.07-4.4-.09-5.83,0-.65,0-1.18,0-1.59A3.33,3.33,0,0,1,440.4,379.56Z" style="fill:#263238"></path><path d="M437.89,418a23.8,23.8,0,0,0-13-17.42c-1.73-.83-4-1.37-5.41-.08s-1.11,3.6-.41,5.39a20.3,20.3,0,0,0,18.68,12.61" style="fill:#2D9CDB"></path><path d="M425.75,406.36a6.82,6.82,0,0,1,1.1.48c.34.17.77.37,1.24.66s1,.58,1.58,1a21,21,0,0,1,1.8,1.37,23.14,23.14,0,0,1,1.93,1.74,26.71,26.71,0,0,1,3.65,4.7,25.7,25.7,0,0,1,2.41,5.45,20.53,20.53,0,0,1,.61,2.53,17.89,17.89,0,0,1,.31,2.24,15.76,15.76,0,0,1,.09,1.86,12.09,12.09,0,0,1,0,1.41,6.13,6.13,0,0,1-.14,1.19c-.1,0,.08-1.71-.22-4.43a20.06,20.06,0,0,0-.36-2.2,24.56,24.56,0,0,0-.64-2.48,27,27,0,0,0-2.4-5.34,27.68,27.68,0,0,0-3.57-4.64,24.75,24.75,0,0,0-1.86-1.75c-.6-.54-1.21-1-1.76-1.39C427.26,407.16,425.7,406.45,425.75,406.36Z" style="fill:#263238"></path></g><g id="freepik--Blocks--inject-9"><rect x="307.88" y="316.47" width="59.04" height="58.62" style="fill:#2D9CDB"></rect><g style="opacity:0.30000000000000004"><rect x="307.88" y="316.47" width="59.04" height="58.62"></rect></g><rect x="333.66" y="316.47" width="59.04" height="58.62" style="fill:#2D9CDB"></rect><path d="M375.3,352.23c0,4.32-3.43,6.82-10,6.82H352.36V334h12.22c6.25,0,9.47,2.61,9.47,6.5a6,6,0,0,1-3.33,5.51A6.17,6.17,0,0,1,375.3,352.23ZM358.11,338.4v5.9h5.75c2.83,0,4.36-1,4.36-3s-1.53-2.93-4.36-2.93Zm11.36,13.22c0-2.11-1.61-3.11-4.61-3.11h-6.75v6.18h6.75C367.86,354.69,369.47,353.76,369.47,351.62Z" style="fill:#fff"></path><path d="M333.4,355.94c.08.12-5.56,4.5-12.6,9.79s-12.83,9.48-12.92,9.36,5.55-4.49,12.6-9.78S333.31,355.83,333.4,355.94Z" style="fill:#263238"></path><path d="M333.4,339.06c.08.12-5.56,4.5-12.6,9.79s-12.83,9.48-12.92,9.37,5.55-4.5,12.6-9.79S333.31,339,333.4,339.06Z" style="fill:#263238"></path><path d="M333.4,322.19c.08.11-5.56,4.49-12.6,9.78s-12.83,9.48-12.92,9.37,5.55-4.5,12.6-9.79S333.31,322.07,333.4,322.19Z" style="fill:#263238"></path><path d="M318.53,316.47a42.61,42.61,0,0,1-5.17,4.2,41.66,41.66,0,0,1-5.48,3.79,42.61,42.61,0,0,1,5.17-4.2A41.66,41.66,0,0,1,318.53,316.47Z" style="fill:#263238"></path><rect x="295.56" y="375.09" width="59.04" height="58.62" style="fill:#263238"></rect><rect x="321.34" y="375.09" width="59.04" height="58.62" style="fill:#455a64"></rect><path d="M340,392.66H351.4c8.18,0,13.79,4.93,13.79,12.51s-5.61,12.51-13.79,12.51H340Zm11.08,20.27c5,0,8.22-3,8.22-7.76s-3.25-7.75-8.22-7.75h-5.29v15.51Z" style="fill:#fff"></path><path d="M321.07,414.57c.09.11-5.55,4.49-12.6,9.78s-12.83,9.48-12.91,9.37,5.55-4.5,12.6-9.79S321,414.45,321.07,414.57Z" style="fill:#455a64"></path><path d="M321.07,397.69c.09.11-5.55,4.49-12.6,9.78s-12.83,9.48-12.91,9.37,5.55-4.5,12.6-9.78S321,397.57,321.07,397.69Z" style="fill:#455a64"></path><path d="M321.07,380.81c.09.12-5.55,4.5-12.6,9.78s-12.83,9.49-12.91,9.37,5.55-4.49,12.6-9.78S321,380.7,321.07,380.81Z" style="fill:#455a64"></path><path d="M306.21,375.09a83.75,83.75,0,0,1-10.65,8,86.35,86.35,0,0,1,10.65-8Z" style="fill:#455a64"></path></g></svg>