<svg width="630" height="462" viewBox="0 0 630 462" fill="none" xmlns="http://www.w3.org/2000/svg">
<g clip-path="url(#clip0)">
<path d="M363.051 22.4856C368.455 33.6573 357.004 36.8217 343.887 42.8096C330.77 48.7975 320.954 55.3414 315.55 44.1697C310.146 32.998 305.762 10.8243 324.318 2.35336C343.513 -6.40936 357.647 11.314 363.051 22.4856Z" fill="#2F2E41"/>
<path d="M336.289 44.4559C346.041 44.4559 353.947 36.7756 353.947 27.3015C353.947 17.8273 346.041 10.147 336.289 10.147C326.536 10.147 318.63 17.8273 318.63 27.3015C318.63 36.7756 326.536 44.4559 336.289 44.4559Z" fill="#FFB8B8"/>
<path d="M423.771 103.378C423.16 102.603 422.549 101.841 421.93 101.101C421.132 100.137 420.33 99.2036 419.522 98.3003C410.37 88.0402 400.635 81.5796 389.915 80.8881H389.901L389.743 80.8741L368.383 101.101L361.121 107.974L361.279 108.351L365.198 117.829H433.851C430.757 112.841 427.393 108.018 423.771 103.378Z" fill="#2F2E41"/>
<path d="M317.086 34.2078L323.407 31.3222L322.527 22.4637L326.754 29.7947L329.775 28.4155L329.261 23.248L331.727 27.5243L354.176 17.2764C352.068 12.9175 348.263 9.55079 343.599 7.91692C338.936 6.28306 333.795 6.51588 329.308 8.56415L326.055 10.0494C321.568 12.0977 318.102 15.7936 316.42 20.3242C314.738 24.8548 314.978 29.8489 317.086 34.2078Z" fill="#2F2E41"/>
<path d="M463.385 345.589H94.6775C91.5323 345.585 88.5171 344.37 86.2931 342.21C84.0692 340.049 82.8182 337.12 82.8147 334.065V118.837C82.8173 116.599 83.7337 114.453 85.3629 112.87C86.9922 111.287 89.2012 110.397 91.5053 110.394H466.407C468.751 110.397 470.998 111.303 472.656 112.913C474.313 114.523 475.245 116.706 475.248 118.983V334.065C475.245 337.12 473.993 340.049 471.77 342.21C469.546 344.37 466.53 345.585 463.385 345.589Z" fill="#F2F2F2"/>
<path d="M106.181 334.065H451.882C454.933 334.065 457.859 332.887 460.016 330.792C462.173 328.696 463.385 325.853 463.385 322.89V140.214C463.385 137.25 462.173 134.407 460.016 132.312C457.859 130.216 454.933 129.039 451.882 129.039H106.181C103.13 129.039 100.204 130.216 98.0467 132.312C95.8894 134.407 94.6775 137.25 94.6775 140.214V322.89C94.6775 325.853 95.8894 328.696 98.0467 330.792C100.204 332.887 103.13 334.065 106.181 334.065Z" fill="white"/>
<path d="M475.083 118.178H82.6482V112.311C82.6528 109.245 83.9088 106.307 86.1409 104.14C88.3729 101.973 91.3986 100.754 94.5541 100.752H463.177C466.333 100.754 469.358 101.973 471.59 104.14C473.822 106.307 475.078 109.245 475.083 112.311V118.178Z" fill="#7BD4EF"/>
<path d="M104.285 112.474C105.986 112.474 107.365 111.135 107.365 109.482C107.365 107.83 105.986 106.491 104.285 106.491C102.585 106.491 101.206 107.83 101.206 109.482C101.206 111.135 102.585 112.474 104.285 112.474Z" fill="white"/>
<path d="M115.975 112.474C117.676 112.474 119.054 111.135 119.054 109.482C119.054 107.83 117.676 106.491 115.975 106.491C114.274 106.491 112.895 107.83 112.895 109.482C112.895 111.135 114.274 112.474 115.975 112.474Z" fill="white"/>
<path d="M127.664 112.474C129.365 112.474 130.744 111.135 130.744 109.482C130.744 107.83 129.365 106.491 127.664 106.491C125.963 106.491 124.584 107.83 124.584 109.482C124.584 111.135 125.963 112.474 127.664 112.474Z" fill="white"/>
<path d="M289.818 294.448H258.903C257.092 294.446 255.356 293.747 254.076 292.503C252.795 291.259 252.075 289.572 252.073 287.813V257.78C252.075 256.021 252.795 254.334 254.076 253.091C255.356 251.847 257.092 251.147 258.903 251.145H289.818C291.629 251.147 293.365 251.847 294.645 253.091C295.926 254.334 296.646 256.021 296.648 257.78V287.813C296.646 289.572 295.926 291.259 294.645 292.503C293.365 293.747 291.629 294.446 289.818 294.448ZM258.903 252.542C257.473 252.543 256.103 253.096 255.092 254.078C254.081 255.06 253.512 256.391 253.511 257.78V287.813C253.512 289.202 254.081 290.533 255.092 291.515C256.103 292.498 257.473 293.05 258.903 293.051H289.818C291.248 293.05 292.618 292.498 293.629 291.515C294.64 290.533 295.209 289.202 295.21 287.813V257.78C295.209 256.391 294.64 255.06 293.629 254.078C292.618 253.096 291.248 252.543 289.818 252.542H258.903Z" fill="#CCCCCC"/>
<path d="M283.707 286.067H265.014C264.442 286.066 263.894 285.845 263.49 285.453C263.085 285.06 262.858 284.527 262.857 283.972V261.622C262.858 261.066 263.085 260.533 263.49 260.141C263.894 259.748 264.442 259.527 265.014 259.526H278.559C279.05 259.527 279.527 259.69 279.91 259.988L285.058 264.007C285.31 264.203 285.514 264.451 285.653 264.734C285.793 265.017 285.865 265.327 285.864 265.64V283.972C285.863 284.527 285.636 285.06 285.232 285.453C284.827 285.845 284.279 286.066 283.707 286.067ZM265.014 260.923C264.824 260.923 264.641 260.997 264.506 261.128C264.371 261.259 264.296 261.436 264.295 261.622V283.972C264.296 284.157 264.371 284.334 264.506 284.465C264.641 284.596 264.824 284.67 265.014 284.67H283.707C283.898 284.67 284.08 284.596 284.215 284.465C284.35 284.334 284.426 284.157 284.426 283.972V265.64C284.426 265.536 284.402 265.433 284.356 265.338C284.309 265.244 284.242 265.161 284.158 265.096L279.009 261.077C278.881 260.977 278.723 260.923 278.559 260.923H265.014Z" fill="#CCCCCC"/>
<path d="M280.112 269.304H268.609C268.418 269.304 268.235 269.231 268.101 269.1C267.966 268.969 267.89 268.791 267.89 268.606C267.89 268.421 267.966 268.243 268.101 268.112C268.235 267.981 268.418 267.908 268.609 267.908H280.112C280.303 267.908 280.486 267.981 280.621 268.112C280.755 268.243 280.831 268.421 280.831 268.606C280.831 268.791 280.755 268.969 280.621 269.1C280.486 269.231 280.303 269.304 280.112 269.304Z" fill="#CCCCCC"/>
<path d="M280.112 273.495H268.609C268.418 273.495 268.235 273.421 268.101 273.291C267.966 273.16 267.89 272.982 267.89 272.797C267.89 272.611 267.966 272.434 268.101 272.303C268.235 272.172 268.418 272.098 268.609 272.098H280.112C280.303 272.098 280.486 272.172 280.621 272.303C280.755 272.434 280.831 272.611 280.831 272.797C280.831 272.982 280.755 273.16 280.621 273.291C280.486 273.421 280.303 273.495 280.112 273.495Z" fill="#CCCCCC"/>
<path d="M280.112 277.686H268.609C268.418 277.686 268.235 277.612 268.101 277.481C267.966 277.35 267.89 277.173 267.89 276.987C267.89 276.802 267.966 276.624 268.101 276.493C268.235 276.362 268.418 276.289 268.609 276.289H280.112C280.303 276.289 280.486 276.362 280.621 276.493C280.755 276.624 280.831 276.802 280.831 276.987C280.831 277.173 280.755 277.35 280.621 277.481C280.486 277.612 280.303 277.686 280.112 277.686Z" fill="#CCCCCC"/>
<path d="M363.152 294.448H332.237C330.426 294.446 328.69 293.747 327.409 292.503C326.129 291.259 325.409 289.572 325.406 287.813V257.78C325.409 256.021 326.129 254.334 327.409 253.091C328.69 251.847 330.426 251.147 332.237 251.145H363.152C364.962 251.147 366.698 251.847 367.979 253.091C369.259 254.334 369.98 256.021 369.982 257.78V287.813C369.98 289.572 369.259 291.259 367.979 292.503C366.698 293.747 364.962 294.446 363.152 294.448ZM332.237 252.542C330.807 252.543 329.436 253.096 328.425 254.078C327.415 255.06 326.846 256.391 326.844 257.78V287.813C326.846 289.202 327.415 290.533 328.425 291.515C329.436 292.498 330.807 293.05 332.237 293.051H363.152C364.581 293.05 365.952 292.498 366.963 291.515C367.974 290.533 368.542 289.202 368.544 287.813V257.78C368.542 256.391 367.974 255.06 366.963 254.078C365.952 253.096 364.581 252.543 363.152 252.542H332.237Z" fill="#CCCCCC"/>
<path d="M357.759 280.479H337.629C337.057 280.479 336.509 280.258 336.104 279.865C335.7 279.472 335.472 278.94 335.472 278.384V267.209C335.472 266.654 335.7 266.121 336.104 265.728C336.509 265.335 337.057 265.114 337.629 265.114H357.759C358.331 265.114 358.88 265.335 359.284 265.728C359.688 266.121 359.916 266.654 359.916 267.209V278.384C359.916 278.94 359.688 279.472 359.284 279.865C358.88 280.258 358.331 280.479 357.759 280.479ZM337.629 266.511C337.438 266.511 337.255 266.584 337.12 266.715C336.986 266.846 336.91 267.024 336.91 267.209V278.384C336.91 278.569 336.986 278.747 337.12 278.878C337.255 279.009 337.438 279.082 337.629 279.083H357.759C357.95 279.082 358.133 279.009 358.268 278.878C358.402 278.747 358.478 278.569 358.478 278.384V267.209C358.478 267.024 358.402 266.846 358.268 266.715C358.133 266.584 357.95 266.511 357.759 266.511H337.629Z" fill="#CCCCCC"/>
<path d="M347.694 274.639C347.29 274.64 346.894 274.53 346.551 274.323L335.81 267.801C335.648 267.703 335.534 267.546 335.491 267.366C335.448 267.186 335.481 266.996 335.582 266.839C335.683 266.683 335.844 266.571 336.03 266.529C336.215 266.487 336.41 266.519 336.572 266.617L347.313 273.138C347.428 273.207 347.56 273.244 347.694 273.244C347.829 273.244 347.961 273.207 348.075 273.138L358.816 266.617C358.978 266.519 359.173 266.487 359.358 266.529C359.544 266.571 359.705 266.683 359.806 266.839C359.907 266.996 359.94 267.186 359.897 267.366C359.854 267.546 359.74 267.703 359.579 267.801L348.838 274.323C348.494 274.53 348.098 274.64 347.694 274.639Z" fill="#CCCCCC"/>
<path d="M216.485 294.448H185.57C183.759 294.446 182.023 293.747 180.742 292.503C179.462 291.259 178.742 289.572 178.74 287.813V257.78C178.742 256.021 179.462 254.334 180.742 253.091C182.023 251.847 183.759 251.147 185.57 251.145H216.485C218.296 251.147 220.032 251.847 221.312 253.091C222.593 254.334 223.313 256.021 223.315 257.78V287.813C223.313 289.572 222.593 291.259 221.312 292.503C220.032 293.747 218.296 294.446 216.485 294.448ZM185.57 252.542C184.14 252.543 182.77 253.096 181.759 254.078C180.748 255.06 180.179 256.391 180.178 257.78V287.813C180.179 289.202 180.748 290.533 181.759 291.515C182.77 292.498 184.14 293.05 185.57 293.051H216.485C217.914 293.05 219.285 292.498 220.296 291.515C221.307 290.533 221.875 289.202 221.877 287.813V257.78C221.875 256.391 221.307 255.06 220.296 254.078C219.285 253.096 217.914 252.543 216.485 252.542H185.57Z" fill="#CCCCCC"/>
<path d="M211.093 280.479H190.962C190.39 280.479 189.842 280.258 189.437 279.865C189.033 279.472 188.806 278.94 188.805 278.384V267.209C188.806 266.654 189.033 266.121 189.437 265.728C189.842 265.335 190.39 265.114 190.962 265.114H211.093C211.664 265.114 212.213 265.335 212.617 265.728C213.021 266.121 213.249 266.654 213.249 267.209V278.384C213.249 278.94 213.021 279.472 212.617 279.865C212.213 280.258 211.664 280.479 211.093 280.479ZM190.962 266.511C190.771 266.511 190.588 266.584 190.454 266.715C190.319 266.846 190.243 267.024 190.243 267.209V278.384C190.243 278.569 190.319 278.747 190.454 278.878C190.588 279.009 190.771 279.082 190.962 279.083H211.093C211.283 279.082 211.466 279.009 211.601 278.878C211.735 278.747 211.811 278.569 211.811 278.384V267.209C211.811 267.024 211.735 266.846 211.601 266.715C211.466 266.584 211.283 266.511 211.093 266.511H190.962Z" fill="#CCCCCC"/>
<path d="M207.902 280.479H193.434C193.181 280.48 192.933 280.415 192.715 280.292C192.496 280.17 192.314 279.994 192.188 279.781C192.062 279.569 191.996 279.328 191.996 279.083C191.996 278.837 192.062 278.596 192.188 278.384L196.546 271.05C196.673 270.838 196.854 270.662 197.073 270.539C197.291 270.417 197.539 270.352 197.792 270.352C198.044 270.352 198.292 270.417 198.511 270.539C198.729 270.662 198.911 270.838 199.037 271.05L201.852 275.787L203.482 273.043C203.609 272.83 203.79 272.654 204.009 272.532C204.227 272.409 204.475 272.344 204.728 272.344C204.98 272.344 205.228 272.409 205.447 272.532C205.665 272.654 205.847 272.83 205.973 273.043L209.147 278.384C209.274 278.597 209.34 278.837 209.34 279.083C209.34 279.328 209.274 279.569 209.147 279.781C209.021 279.993 208.84 280.17 208.621 280.292C208.402 280.415 208.154 280.48 207.902 280.479H207.902ZM207.902 279.083L204.728 273.741L202.475 277.533C202.412 277.639 202.321 277.727 202.211 277.789C202.102 277.85 201.978 277.882 201.852 277.882C201.726 277.882 201.602 277.85 201.492 277.789C201.383 277.727 201.292 277.639 201.229 277.533L197.792 271.749L193.434 279.083H207.902Z" fill="#CCCCCC"/>
<path d="M208.936 270.701C209.73 270.701 210.373 270.076 210.373 269.304C210.373 268.533 209.73 267.907 208.936 267.907C208.141 267.907 207.498 268.533 207.498 269.304C207.498 270.076 208.141 270.701 208.936 270.701Z" fill="#CCCCCC"/>
<path d="M552.751 452.695L543.936 452.694L539.743 419.666L552.752 419.667L552.751 452.695Z" fill="#FFB8B8"/>
<path d="M554.998 460.995L526.578 460.994V460.645C526.578 459.234 526.864 457.836 527.42 456.532C527.976 455.228 528.791 454.044 529.818 453.046C530.845 452.048 532.065 451.256 533.407 450.716C534.749 450.176 536.187 449.898 537.64 449.898H537.641L554.999 449.899L554.998 460.995Z" fill="#2F2E41"/>
<path d="M588.698 452.695L579.884 452.694L575.691 419.666L588.7 419.667L588.698 452.695Z" fill="#FFB8B8"/>
<path d="M590.946 460.995L562.526 460.994V460.645C562.526 459.234 562.812 457.836 563.368 456.532C563.924 455.228 564.738 454.044 565.766 453.046C566.793 452.048 568.012 451.256 569.354 450.716C570.697 450.176 572.135 449.898 573.588 449.898H573.589L590.947 449.899L590.946 460.995Z" fill="#2F2E41"/>
<path d="M586.056 438.377L577.893 435.964C577.284 435.785 576.744 435.436 576.339 434.96C575.934 434.483 575.683 433.902 575.617 433.287L568.006 363.215C568 363.131 567.961 363.051 567.897 362.993C567.833 362.935 567.749 362.903 567.662 362.903C567.574 362.895 567.487 362.92 567.419 362.974C567.35 363.027 567.306 363.104 567.295 363.189L554.547 431.077C554.47 431.489 554.308 431.881 554.072 432.232C553.837 432.582 553.531 432.884 553.174 433.118C552.816 433.352 552.415 433.514 551.992 433.596C551.569 433.677 551.134 433.675 550.712 433.591L540.278 431.503C539.513 431.348 538.832 430.929 538.359 430.325C537.885 429.72 537.653 428.97 537.703 428.212L545.458 316.942L598.04 311.43L590.227 435.561C590.176 436.359 589.815 437.109 589.216 437.657C588.617 438.206 587.826 438.512 587.003 438.514C586.682 438.514 586.363 438.468 586.056 438.377Z" fill="#2F2E41"/>
<path d="M586.006 220.043C595.759 220.043 603.664 212.362 603.664 202.888C603.664 193.414 595.759 185.734 586.006 185.734C576.254 185.734 568.348 193.414 568.348 202.888C568.348 212.362 576.254 220.043 586.006 220.043Z" fill="#FFB8B8"/>
<path d="M545.377 317.595L556.778 247.855C557.384 244.147 558.796 240.607 560.921 237.47C563.045 234.334 565.832 231.673 569.097 229.664C572.362 227.655 576.03 226.345 579.857 225.821C583.684 225.296 587.582 225.57 591.292 226.623C597.778 228.445 603.331 232.551 606.868 238.139C610.405 243.726 611.67 250.394 610.417 256.839L598.488 319.12L545.377 317.595Z" fill="#7BD4EF"/>
<path d="M590.881 330.073C591.763 329.508 592.507 328.761 593.059 327.886C593.612 327.011 593.961 326.028 594.08 325.008C594.2 323.988 594.088 322.955 593.752 321.981C593.417 321.008 592.865 320.117 592.137 319.373L603.925 297.197L590.65 298.573L581.491 319.421C580.285 320.693 579.601 322.349 579.569 324.078C579.537 325.806 580.158 327.486 581.316 328.799C582.473 330.112 584.086 330.967 585.849 331.202C587.612 331.437 589.402 331.035 590.881 330.073V330.073Z" fill="#FFB8B8"/>
<path d="M593.405 315.462C592.753 315.372 592.145 315.092 591.661 314.658L587.15 310.609C586.663 310.17 586.327 309.596 586.186 308.964C586.046 308.333 586.108 307.675 586.365 307.079L595.379 286.323L594.101 245.31C594.284 243.992 594.734 242.722 595.423 241.572C596.113 240.423 597.029 239.416 598.119 238.611C599.209 237.806 600.452 237.217 601.776 236.878C603.1 236.539 604.48 236.458 605.837 236.637C607.194 236.817 608.501 237.255 609.684 237.926C610.867 238.597 611.902 239.488 612.73 240.547C613.558 241.607 614.163 242.815 614.51 244.102C614.858 245.388 614.94 246.729 614.754 248.047L616.94 273.828C617.605 281.653 615.322 289.446 610.515 295.757L596.458 314.219C596.187 314.573 595.843 314.869 595.447 315.086C595.051 315.303 594.613 315.437 594.16 315.479C593.909 315.502 593.655 315.496 593.405 315.462Z" fill="#7BD4EF"/>
<path d="M484.318 193.542C484.51 194.551 484.928 195.508 485.542 196.343C486.156 197.179 486.951 197.874 487.872 198.379C488.792 198.884 489.815 199.186 490.869 199.266C491.922 199.345 492.981 199.199 493.971 198.837L510.396 218.029L514.267 205.617L498.076 189.295C497.341 187.72 496.037 186.463 494.411 185.76C492.786 185.057 490.951 184.958 489.255 185.481C487.559 186.005 486.12 187.115 485.21 188.6C484.3 190.086 483.982 191.844 484.318 193.542Z" fill="#FFB8B8"/>
<path d="M497.184 201.497C497.523 200.948 498.026 200.513 498.626 200.25L504.222 197.793C504.829 197.529 505.504 197.452 506.158 197.572C506.811 197.693 507.41 198.005 507.874 198.468L524.035 214.624L563.41 229.47C564.588 230.149 565.617 231.046 566.438 232.111C567.259 233.176 567.856 234.388 568.195 235.677C568.534 236.966 568.608 238.308 568.412 239.625C568.217 240.942 567.756 242.209 567.057 243.353C566.357 244.497 565.432 245.495 564.335 246.292C563.238 247.088 561.99 247.667 560.662 247.994C559.335 248.322 557.954 248.392 556.598 248.201C555.243 248.01 553.939 247.561 552.763 246.88L527.472 238.784C519.796 236.328 513.299 231.246 509.191 224.485L497.172 204.712C496.941 204.332 496.795 203.909 496.744 203.47C496.692 203.031 496.737 202.587 496.873 202.166C496.949 201.932 497.054 201.707 497.184 201.497Z" fill="#7BD4EF"/>
<path opacity="0.1" d="M600.329 262.371L599.61 284.721L586.365 307.079L597.424 282.163L600.329 262.371Z" fill="black"/>
<path d="M583.983 206.112C582.874 206.252 581.75 205.996 580.821 205.392C579.891 204.788 579.219 203.877 578.928 202.828C578.648 201.62 578.035 200.509 577.155 199.614C576.275 198.719 575.16 198.074 573.931 197.748C570.692 197.028 566.733 198.51 564.359 196.126C563.851 195.581 563.483 194.927 563.286 194.218C563.089 193.508 563.069 192.764 563.227 192.045C563.664 189.728 565.37 187.978 567.226 186.578C571.133 183.646 575.861 181.929 580.79 181.653C583.342 181.582 585.895 181.705 588.426 182.022C591.077 182.185 593.698 182.65 596.237 183.409C599.128 184.469 601.699 186.221 603.709 188.501C605.72 190.781 607.107 193.517 607.741 196.456C608.321 199.404 608.232 202.439 607.48 205.35C606.728 208.261 605.331 210.978 603.386 213.31C601.059 216.126 598.057 218.346 594.643 219.776C593.83 220.149 592.898 220.195 592.051 219.904C589.925 219.083 590.272 216.524 591.241 214.818C592.279 212.992 593.875 211.223 593.041 209.001C592.623 207.97 591.82 207.131 590.793 206.65C588.679 205.603 586.315 205.85 584.042 206.105L583.983 206.112Z" fill="#2F2E41"/>
<path d="M478.417 215.799H259.854C256.709 215.796 253.694 214.581 251.47 212.42C249.246 210.26 247.995 207.33 247.992 204.275V158.876C247.995 155.821 249.246 152.892 251.47 150.731C253.694 148.571 256.709 147.356 259.854 147.352H478.417C481.562 147.356 484.577 148.571 486.801 150.731C489.025 152.892 490.276 155.821 490.279 158.876V204.275C490.276 207.33 489.025 210.26 486.801 212.42C484.577 214.58 481.562 215.796 478.417 215.799Z" fill="white"/>
<path d="M478.417 216.149H259.854C256.614 216.145 253.507 214.893 251.216 212.667C248.924 210.441 247.636 207.423 247.632 204.275V158.876C247.636 155.728 248.924 152.71 251.216 150.484C253.507 148.259 256.614 147.006 259.854 147.003H478.417C481.657 147.006 484.764 148.259 487.055 150.484C489.346 152.71 490.635 155.728 490.639 158.876V204.275C490.635 207.423 489.346 210.441 487.055 212.667C484.764 214.893 481.657 216.145 478.417 216.149ZM259.854 148.4C256.995 148.403 254.254 149.508 252.232 151.472C250.21 153.436 249.073 156.099 249.07 158.876V204.275C249.073 207.053 250.21 209.716 252.232 211.68C254.254 213.644 256.995 214.749 259.854 214.752H478.417C481.276 214.749 484.017 213.644 486.039 211.68C488.06 209.716 489.198 207.053 489.201 204.275V158.876C489.198 156.099 488.06 153.436 486.039 151.472C484.017 149.508 481.276 148.403 478.417 148.4H259.854Z" fill="#3F3D56"/>
<path d="M451.815 204.624H286.456C283.31 204.621 280.295 203.406 278.071 201.245C275.847 199.085 274.596 196.155 274.593 193.1V169.353C274.596 166.298 275.847 163.368 278.071 161.208C280.295 159.047 283.31 157.832 286.456 157.829H451.815C454.96 157.832 457.976 159.047 460.199 161.208C462.423 163.368 463.674 166.298 463.678 169.353V193.1C463.674 196.155 462.423 199.085 460.199 201.245C457.976 203.406 454.96 204.621 451.815 204.624Z" fill="#F2F2F2"/>
<path d="M322.04 191.825C329.875 191.825 336.227 185.655 336.227 178.043C336.227 170.432 329.875 164.261 322.04 164.261C314.205 164.261 307.854 170.432 307.854 178.043C307.854 185.655 314.205 191.825 322.04 191.825Z" fill="#FF6584"/>
<path d="M441.539 203.233L421.514 186.918L401.835 170.884C401.316 170.461 400.66 170.23 399.982 170.231C399.304 170.233 398.648 170.466 398.131 170.891L378.515 186.999L373.724 190.933L366.5 185.047L344.545 167.159C344.026 166.736 343.369 166.505 342.692 166.506C342.014 166.508 341.358 166.741 340.841 167.166L318.957 185.136L296.729 203.389C296.617 203.481 296.536 203.605 296.498 203.744C296.461 203.882 296.468 204.029 296.518 204.163C296.569 204.297 296.661 204.413 296.782 204.495C296.903 204.577 297.047 204.621 297.195 204.621L342.767 204.535L357.192 204.508L357.051 204.624L400.05 204.544L441.079 204.467C441.226 204.467 441.37 204.423 441.49 204.34C441.611 204.258 441.703 204.141 441.753 204.007C441.803 203.872 441.81 203.726 441.772 203.587C441.733 203.449 441.652 203.326 441.539 203.233Z" fill="#3F3D56"/>
<path d="M629.281 462H491.242C491.051 462 490.868 461.926 490.733 461.795C490.598 461.664 490.523 461.487 490.523 461.302C490.523 461.116 490.598 460.939 490.733 460.808C490.868 460.677 491.051 460.603 491.242 460.603H629.281C629.472 460.603 629.655 460.677 629.789 460.808C629.924 460.939 630 461.116 630 461.302C630 461.487 629.924 461.664 629.789 461.795C629.655 461.926 629.472 462 629.281 462Z" fill="#CCCCCC"/>
<path d="M434.289 92.133C433.715 91.2265 432.957 90.4432 432.06 89.8308C431.164 89.2184 430.149 88.7897 429.077 88.571C428.684 88.4907 428.285 88.4417 427.884 88.4243L373.106 40.8464C372.03 39.7721 370.595 39.1059 369.059 38.9676C368.756 38.9338 368.45 38.9245 368.145 38.9397C366.882 38.9955 365.662 39.4078 364.635 40.1263C363.609 40.8447 362.82 41.8382 362.366 42.9852C361.911 44.1322 361.81 45.3829 362.076 46.5846C362.341 47.7863 362.961 48.8868 363.86 49.7516L384.832 67.5129L419.27 96.6729C419.299 97.2221 419.383 97.7672 419.522 98.3002C419.934 99.8444 420.82 101.23 422.061 102.274C423.303 103.319 424.842 103.971 426.474 104.146C427.963 104.315 429.47 104.073 430.824 103.448C431.897 102.96 432.849 102.252 433.613 101.373C433.692 101.283 433.764 101.199 433.836 101.101C434.842 99.8283 435.424 98.288 435.505 96.6857C435.586 95.0834 435.162 93.4952 434.289 92.133H434.289Z" fill="#FFB8B8"/>
<path d="M340.595 137.986L340.085 117.829L339.653 101.101L339.358 89.3951L338.776 66.5771C338.661 65.3554 338.182 64.1927 337.398 63.231C336.614 62.2692 335.559 61.55 334.361 61.1612C333.163 60.7723 331.875 60.7307 330.653 61.0413C329.432 61.3519 328.329 62.0013 327.481 62.9102C327.282 63.1179 327.101 63.3423 326.942 63.5808C326.057 64.8123 325.659 66.3126 325.82 67.8063L327.1 101.101L327.74 117.829L328.56 139.166C328.323 139.48 328.11 139.809 327.92 140.151C327.409 141.093 327.1 142.126 327.012 143.187C326.924 144.248 327.06 145.316 327.41 146.325C327.775 147.383 328.367 148.354 329.146 149.174C329.926 149.994 330.875 150.644 331.932 151.082C332.989 151.519 334.129 151.734 335.278 151.712C336.427 151.691 337.558 151.433 338.596 150.956C339.803 150.402 340.85 149.567 341.646 148.527C342.441 147.486 342.961 146.271 343.158 144.989C343.356 143.707 343.226 142.397 342.778 141.176C342.331 139.954 341.581 138.859 340.595 137.986H340.595Z" fill="#FFB8B8"/>
<path d="M389.915 80.8881L384.832 67.5129L376.607 45.8473C376.014 44.2709 375.063 42.8446 373.824 41.6742C372.586 40.5038 371.092 39.6193 369.454 39.0864C369.324 39.0445 369.188 39.0026 369.058 38.9676C367.471 38.4996 365.799 38.3709 364.156 38.5904C362.513 38.8098 360.938 39.3721 359.54 40.2388L331.838 57.3087C329.301 58.8684 327.488 61.3251 326.781 64.1597C326.074 66.9943 326.528 69.9849 328.049 72.4998C331.513 78.319 335.288 83.9585 339.358 89.3951C342.587 93.6626 348.597 94.1165 349.64 101.101H370.065L390.742 83.0672L389.915 80.8881Z" fill="#CCCCCC"/>
<path d="M72.7329 244.353C81.9336 244.353 89.3923 237.107 89.3923 228.168C89.3923 219.23 81.9336 211.984 72.7329 211.984C63.5321 211.984 56.0735 219.23 56.0735 228.168C56.0735 237.107 63.5321 244.353 72.7329 244.353Z" fill="#A0616A"/>
<path d="M113.632 217.028C113.796 217.155 113.955 217.29 114.109 217.432C114.875 218.132 115.479 218.982 115.883 219.925C116.286 220.868 116.48 221.883 116.452 222.904C116.424 223.925 116.174 224.929 115.718 225.85C115.263 226.77 114.612 227.587 113.809 228.246C113.622 228.399 113.427 228.542 113.224 228.675L114.352 265.654C114.384 266.864 114.013 268.053 113.295 269.042C112.577 270.032 111.55 270.771 110.365 271.148L110.296 271.163L79.3895 274.36C78.5492 274.447 77.6996 274.371 76.8896 274.137C76.0797 273.903 75.3254 273.516 74.6705 272.997C74.0155 272.478 73.4729 271.839 73.0738 271.115C72.6747 270.391 72.4271 269.598 72.3453 268.781C72.2636 267.964 72.3492 267.139 72.5973 266.355C72.8455 265.57 73.2512 264.841 73.791 264.209C74.3308 263.578 74.9941 263.056 75.7425 262.675C76.4909 262.294 77.3096 262.061 78.1513 261.989L100.183 260.104L103.993 228.079C103.744 227.865 103.511 227.634 103.295 227.388C102.1 226.014 101.474 224.259 101.537 222.461C101.6 220.664 102.348 218.954 103.637 217.663C104.925 216.372 106.661 215.592 108.508 215.475C110.355 215.357 112.181 215.911 113.632 217.028H113.632Z" fill="#A0616A"/>
<path d="M100.171 453.41H108.487L112.442 422.25H100.169L100.171 453.41Z" fill="#A0616A"/>
<path d="M98.0498 450.773L114.426 450.772H114.427C115.797 450.772 117.154 451.034 118.421 451.544C119.687 452.053 120.837 452.8 121.807 453.741C122.776 454.683 123.544 455.801 124.069 457.031C124.593 458.261 124.863 459.579 124.863 460.91V461.24L98.0503 461.241L98.0498 450.773Z" fill="#2F2E41"/>
<path d="M17.5181 442.24L24.663 446.373L44.4724 421.567L33.9268 415.467L17.5181 442.24Z" fill="#A0616A"/>
<path d="M17.0845 438.92L31.1556 447.059L31.1562 447.06C32.3338 447.741 33.3617 448.641 34.1813 449.708C35.001 450.775 35.5962 451.988 35.9331 453.279C36.2699 454.569 36.3418 455.912 36.1447 457.229C35.9475 458.547 35.4851 459.814 34.7839 460.958L34.6104 461.241L11.5718 447.915L17.0845 438.92Z" fill="#2F2E41"/>
<path d="M110.449 442.404H101.137C100.383 442.406 99.6554 442.135 99.0948 441.645C98.5341 441.156 98.1804 440.481 98.102 439.753L88.7144 354.028C88.6907 353.812 88.5946 353.61 88.4409 353.452C88.2872 353.295 88.0844 353.191 87.8639 353.156C87.6433 353.122 87.4172 353.159 87.2205 353.262C87.0238 353.365 86.8673 353.528 86.7753 353.725L69.84 390.155L39.857 437.651C39.469 438.26 38.8681 438.713 38.1645 438.926C37.461 439.14 36.7017 439.1 36.0258 438.814L24.0478 433.695C23.6518 433.525 23.2973 433.276 23.0079 432.964C22.7186 432.651 22.5009 432.282 22.3694 431.882C22.2378 431.481 22.1954 431.058 22.245 430.641C22.2946 430.223 22.4349 429.82 22.6568 429.459L50.2194 384.625L58.6726 346.85C56.014 330.468 67.4116 306.112 67.5271 305.868L67.5836 305.749L98.9786 293.828L99.136 294.015C111.517 333.487 119.062 375.965 113.491 439.688C113.422 440.427 113.073 441.115 112.51 441.617C111.948 442.119 111.213 442.4 110.449 442.404Z" fill="#2F2E41"/>
<path d="M66.3188 309.74L66.1726 309.442C66.1027 309.299 59.1218 294.995 53.7404 279.708C52.7062 276.752 52.3152 273.619 52.5923 270.508C52.8693 267.398 53.8083 264.377 55.3498 261.637C56.9114 258.869 59.0477 256.446 61.6235 254.522C64.1993 252.598 67.1583 251.214 70.3132 250.459C75.7902 249.184 81.5565 249.862 86.5616 252.371C91.5667 254.88 95.4775 259.052 97.5815 264.127C101.85 274.497 100.49 285.566 99.2095 294.27L99.184 294.444L99.0207 294.52L66.3188 309.74Z" fill="#3F3D56"/>
<path d="M92.9319 219.026H66.4788V207.825C72.2849 205.584 77.9665 203.678 81.401 207.825C84.4592 207.825 87.3921 209.005 89.5545 211.106C91.717 213.206 92.9319 216.056 92.9319 219.026V219.026Z" fill="#2F2E41"/>
<path d="M65.0142 205.848C49.2 205.848 44.7736 225.105 44.7736 235.968C44.7736 242.027 47.5941 244.194 52.0261 244.927L53.5913 236.818L57.2573 245.276C58.5023 245.282 59.8102 245.259 61.1661 245.234L62.409 242.748L65.1808 245.19C76.2821 245.206 85.2545 246.778 85.2545 235.968C85.2545 225.105 81.3725 205.848 65.0142 205.848Z" fill="#2F2E41"/>
<path d="M138.758 462H0.718955C0.528276 462 0.345407 461.926 0.210577 461.795C0.0757463 461.664 0 461.487 0 461.302C0 461.116 0.0757463 460.939 0.210577 460.808C0.345407 460.677 0.528276 460.603 0.718955 460.603H138.758C138.949 460.603 139.132 460.677 139.267 460.808C139.402 460.939 139.477 461.116 139.477 461.302C139.477 461.487 139.402 461.664 139.267 461.795C139.132 461.926 138.949 462 138.758 462Z" fill="#CCCCCC"/>
<path d="M141.354 232.213H110.439C108.628 232.211 106.892 231.511 105.612 230.267C104.331 229.023 103.611 227.337 103.609 225.578V195.545C103.611 193.785 104.331 192.099 105.612 190.855C106.892 189.611 108.628 188.911 110.439 188.909H141.354C143.165 188.911 144.901 189.611 146.181 190.855C147.462 192.099 148.182 193.785 148.184 195.545V225.578C148.182 227.337 147.462 229.023 146.181 230.267C144.901 231.511 143.165 232.211 141.354 232.213Z" fill="white"/>
<path d="M141.354 232.213H110.439C108.628 232.211 106.892 231.511 105.612 230.267C104.331 229.023 103.611 227.337 103.609 225.578V195.545C103.611 193.785 104.331 192.099 105.612 190.855C106.892 189.611 108.628 188.911 110.439 188.909H141.354C143.165 188.911 144.901 189.611 146.181 190.855C147.462 192.099 148.182 193.785 148.184 195.545V225.578C148.182 227.337 147.462 229.023 146.181 230.267C144.901 231.511 143.165 232.211 141.354 232.213ZM110.439 190.306C109.009 190.308 107.639 190.86 106.628 191.842C105.617 192.824 105.048 194.156 105.047 195.545V225.578C105.048 226.966 105.617 228.298 106.628 229.28C107.639 230.262 109.009 230.814 110.439 230.816H141.354C142.783 230.814 144.154 230.262 145.165 229.28C146.176 228.298 146.744 226.966 146.746 225.578V195.545C146.744 194.156 146.176 192.824 145.165 191.842C144.154 190.86 142.783 190.308 141.354 190.306H110.439Z" fill="#3F3D56"/>
<path d="M135.962 219.99H115.831C115.259 219.989 114.711 219.768 114.307 219.376C113.902 218.983 113.675 218.45 113.674 217.895V203.227C113.675 202.672 113.902 202.139 114.307 201.746C114.711 201.354 115.259 201.133 115.831 201.132H121.498C121.867 201.131 122.229 201.222 122.551 201.396C122.873 201.571 123.143 201.823 123.335 202.129L124.916 204.624H135.962C136.534 204.625 137.082 204.846 137.486 205.239C137.891 205.632 138.118 206.164 138.119 206.72V217.895C138.118 218.45 137.891 218.983 137.486 219.376C137.082 219.768 136.534 219.989 135.962 219.99Z" fill="#7BD4EF"/>
<path d="M135.307 227.4C135.408 227.579 135.501 227.763 135.586 227.952C136.011 228.886 136.229 229.897 136.224 230.918C136.22 231.94 135.993 232.948 135.559 233.879C135.125 234.809 134.494 235.64 133.706 236.317C132.919 236.993 131.993 237.501 130.99 237.806C130.756 237.876 130.519 237.934 130.279 237.98L116.548 272.487C116.094 273.614 115.278 274.57 114.22 275.211C113.163 275.853 111.921 276.146 110.679 276.048L110.61 276.035L80.8473 267.331C80.0381 267.094 79.2852 266.704 78.6321 266.183C77.9789 265.662 77.4385 265.021 77.042 264.296C76.6455 263.571 76.4008 262.777 76.322 261.96C76.2431 261.142 76.3318 260.318 76.5828 259.534C76.8338 258.75 77.2422 258.022 77.7844 257.392C78.3266 256.763 78.9918 256.244 79.7417 255.865C80.4916 255.486 81.3112 255.256 82.1533 255.187C82.9953 255.118 83.8432 255.211 84.6478 255.462L105.706 262.03L122.01 233.952C121.865 233.66 121.743 233.359 121.642 233.051C121.09 231.335 121.214 229.481 121.99 227.848C122.766 226.216 124.139 224.922 125.842 224.217C127.545 223.513 129.456 223.449 131.206 224.037C132.955 224.625 134.417 225.824 135.307 227.4H135.307Z" fill="#A0616A"/>
</g>
<defs>
<clipPath id="clip0">
<rect width="630" height="462" fill="white"/>
</clipPath>
</defs>
</svg>
