<svg width="600" height="600" viewBox="0 0 600 600" fill="none" xmlns="http://www.w3.org/2000/svg">
<path d="M600 458.88H0V459.18H600V458.88Z" fill="#EBEBEB"/>
<path d="M539.88 478.188H515.796V478.488H539.88V478.188Z" fill="#EBEBEB"/>
<path d="M467.4 473.988H428.976V474.288H467.4V473.988Z" fill="#EBEBEB"/>
<path d="M373.404 467.052H329.028V467.352H373.404V467.052Z" fill="#EBEBEB"/>
<path d="M142.38 475.884H90.552V476.184H142.38V475.884Z" fill="#EBEBEB"/>
<path d="M79.86 475.884H72.264V476.184H79.86V475.884Z" fill="#EBEBEB"/>
<path d="M203.076 466.896H158.1V467.196H203.076V466.896Z" fill="#EBEBEB"/>
<path d="M284.4 405.36H52.6921C50.8769 405.357 49.1371 404.634 47.8547 403.349C46.5723 402.064 45.852 400.323 45.8521 398.508V72.792C45.8679 70.9872 46.5951 69.2616 47.8758 67.9899C49.1565 66.7181 50.8872 66.0031 52.6921 66H284.4C286.217 66 287.96 66.7219 289.245 68.0069C290.53 69.2919 291.252 71.0347 291.252 72.852V398.508C291.252 400.325 290.53 402.068 289.245 403.353C287.96 404.638 286.217 405.36 284.4 405.36ZM52.6921 66.24C50.9564 66.2432 49.293 66.9349 48.0668 68.1633C46.8407 69.3917 46.152 71.0564 46.1521 72.792V398.508C46.152 400.244 46.8407 401.908 48.0668 403.137C49.293 404.365 50.9564 405.057 52.6921 405.06H284.4C286.137 405.057 287.801 404.366 289.029 403.137C290.258 401.909 290.949 400.245 290.952 398.508V72.792C290.949 71.0553 290.258 69.3906 289.029 68.1625C287.801 66.9345 286.137 66.2432 284.4 66.24H52.6921Z" fill="#EBEBEB"/>
<path d="M543.972 405.36H312.252C310.436 405.357 308.695 404.634 307.41 403.35C306.126 402.065 305.403 400.324 305.4 398.508V72.792C305.419 70.9861 306.149 69.2605 307.431 67.9891C308.714 66.7177 310.446 66.0031 312.252 66H543.972C545.775 66.0062 547.502 66.7227 548.781 67.9941C550.059 69.2654 550.784 70.9893 550.8 72.792V398.508C550.8 400.321 550.081 402.06 548.802 403.345C547.522 404.629 545.785 405.354 543.972 405.36ZM312.252 66.24C310.515 66.2432 308.851 66.9345 307.623 68.1625C306.395 69.3906 305.703 71.0553 305.7 72.792V398.508C305.703 400.245 306.395 401.909 307.623 403.137C308.851 404.366 310.515 405.057 312.252 405.06H543.972C545.709 405.057 547.373 404.366 548.601 403.137C549.83 401.909 550.521 400.245 550.524 398.508V72.792C550.521 71.0553 549.83 69.3906 548.601 68.1625C547.373 66.9345 545.709 66.2432 543.972 66.24H312.252Z" fill="#EBEBEB"/>
<path d="M516.276 396.84C489.372 400.44 486.54 439.44 457.692 407.256C437.748 385.02 421.836 407.34 413.964 458.856H556.92C556.8 434.556 541.488 393.504 516.276 396.84Z" fill="#EBEBEB"/>
<path d="M326.964 369.444C247.764 374.58 239.364 430.86 154.404 384.456C95.664 352.392 48.804 384.576 25.608 458.856H446.688C446.4 423.816 401.232 364.62 326.964 369.444Z" fill="#EBEBEB"/>
<path d="M218.856 418.104C280.488 425.556 342.648 415.788 390.12 404.256C437.592 392.724 471.336 424.992 489.72 458.88H60.516C74.652 441.912 125.316 406.8 218.856 418.104Z" fill="#F0F0F0"/>
<path d="M411.84 435.672C340.596 438.612 325.44 439.764 270.708 433.2C215.976 426.636 172.932 439.596 151.716 458.88H536.664C520.38 449.22 471.492 433.2 411.84 435.672Z" fill="#FAFAFA"/>
<path d="M97.3769 276.297C110.777 275.353 120.875 263.724 119.931 250.323C118.987 236.923 107.359 226.825 93.958 227.769C80.5574 228.713 70.4594 240.342 71.4036 253.742C72.3477 267.143 83.9763 277.241 97.3769 276.297Z" fill="#F0F0F0"/>
<path d="M535.008 156.588H410.4C410.4 156.588 412.2 146.724 435.252 147.288C430.668 132.888 443.568 117.168 472.68 116.556C501.792 115.944 491.556 139.356 491.556 139.356C491.556 139.356 540.468 130.956 525.66 148.38C549.936 149.256 554.736 152.4 535.008 156.588Z" fill="#F0F0F0"/>
<path d="M110.856 270.768C106.788 250.488 141.432 228.288 205.212 227.436C268.992 226.584 237 259.632 237 259.632C237 259.632 347.22 247.704 307.728 272.364C360.288 273.564 369.468 277.932 324.66 283.896H52.8C52.8 283.896 60.78 270 110.856 270.768Z" fill="#FAFAFA"/>
<path d="M217.584 156.264H88.5121C88.5121 156.264 59.7121 139.728 93.8521 137.604C87.9841 123.468 102.396 99.492 152.784 98.928C203.172 98.364 177.048 131.46 177.048 131.46C177.048 131.46 253.848 109.332 226.92 144.528C238.644 144.528 280.512 156.264 217.584 156.264Z" fill="#F5F5F5"/>
<path d="M475.608 313.2H417.6C417.6 313.2 404.652 305.772 420 304.8C417.372 298.44 423.84 287.676 446.484 287.424C469.128 287.172 457.392 302.04 457.392 302.04C457.392 302.04 491.904 292.092 479.796 307.908C485.076 307.944 503.88 313.2 475.608 313.2Z" fill="#F5F5F5"/>
<path d="M349.488 105.9C349.488 105.9 365.844 95.412 377.232 110.316C367.884 101.052 350.112 110.388 350.112 110.388C350.112 110.388 329.772 101.148 322.992 110.46C330.24 95.496 349.488 105.9 349.488 105.9Z" fill="#F0F0F0"/>
<path d="M390.468 224.904C390.468 224.904 400.32 218.592 407.172 227.568C401.544 221.988 390.852 227.568 390.852 227.568C390.852 227.568 378.6 222.012 374.52 227.568C378.888 218.64 390.468 224.904 390.468 224.904Z" fill="#F0F0F0"/>
<path d="M211.044 78.624C211.044 78.624 215.976 75.468 219.444 79.956C216.636 77.172 211.284 79.956 211.284 79.956C211.284 79.956 205.164 77.172 203.124 79.956C205.26 75.492 211.044 78.624 211.044 78.624Z" fill="#F5F5F5"/>
<path d="M90.696 186.372C90.696 186.372 95.616 183.216 99.096 187.704C96.276 184.908 90.936 187.704 90.936 187.704C90.936 187.704 84.804 184.932 82.764 187.704C84.9 183.24 90.696 186.372 90.696 186.372Z" fill="#F5F5F5"/>
<path d="M300 513.072C428.499 513.072 532.668 506.99 532.668 499.488C532.668 491.986 428.499 485.904 300 485.904C171.501 485.904 67.332 491.986 67.332 499.488C67.332 506.99 171.501 513.072 300 513.072Z" fill="#F5F5F5"/>
<path d="M346.56 255.6C345.78 243.336 337.296 244.344 338.892 248.064C337.392 246.672 333.624 244.944 329.664 244.068C323.964 242.808 320.16 244.332 321.564 246.468C312.696 247.008 310.896 255.036 313.764 256.668C307.692 259.332 306.804 268.992 316.164 271.332C325.524 273.672 322.236 283.404 330.708 285.804C339.18 288.204 348.84 280.14 347.436 276.54C351.036 274.14 355.512 271.632 352.104 264.108C359.388 261.3 349.416 255.408 346.56 255.6Z" fill="#263238"/>
<path d="M325.512 490.476C324.312 490.584 323.112 490.476 322.62 489.996C322.506 489.858 322.438 489.688 322.426 489.51C322.413 489.331 322.455 489.153 322.548 489C322.612 488.859 322.705 488.733 322.821 488.629C322.937 488.526 323.072 488.448 323.22 488.4C324.792 487.812 328.332 489.432 328.488 489.504C328.533 489.519 328.572 489.548 328.6 489.587C328.628 489.626 328.643 489.672 328.643 489.72C328.643 489.768 328.628 489.814 328.6 489.853C328.572 489.892 328.533 489.921 328.488 489.936C327.513 490.198 326.517 490.379 325.512 490.476ZM323.82 488.736C323.668 488.747 323.519 488.779 323.376 488.832C323.286 488.859 323.203 488.905 323.132 488.967C323.062 489.029 323.006 489.106 322.968 489.192C322.824 489.492 322.896 489.624 322.968 489.696C323.472 490.284 325.908 490.08 327.684 489.696C326.47 489.13 325.158 488.804 323.82 488.736Z" fill="#407BFF"/>
<path d="M328.416 489.936C328.385 489.948 328.351 489.948 328.32 489.936C327.12 489.528 324.612 487.644 324.72 486.54C324.72 486.276 324.888 485.94 325.512 485.82C325.737 485.776 325.969 485.777 326.194 485.824C326.419 485.872 326.632 485.964 326.82 486.096C328.14 486.996 328.632 489.576 328.656 489.696C328.659 489.736 328.653 489.776 328.639 489.814C328.624 489.851 328.601 489.885 328.572 489.912C328.524 489.937 328.469 489.945 328.416 489.936ZM325.704 486.24H325.56C325.152 486.312 325.14 486.48 325.14 486.528C325.14 487.2 326.808 488.7 328.068 489.3C327.857 488.212 327.317 487.215 326.52 486.444C326.281 486.28 325.992 486.207 325.704 486.24Z" fill="#407BFF"/>
<path d="M340.08 493.956L330.432 494.82L327.444 472.56L337.092 471.684L340.08 493.956Z" fill="#B55B52"/>
<path d="M329.316 488.496L339.852 487.548C340.045 487.531 340.238 487.579 340.399 487.686C340.561 487.793 340.681 487.952 340.74 488.136L343.416 496.536C343.482 496.737 343.501 496.95 343.474 497.159C343.447 497.369 343.373 497.57 343.257 497.747C343.142 497.924 342.989 498.073 342.809 498.183C342.629 498.294 342.426 498.362 342.216 498.384C338.412 498.66 335.016 498.756 330.288 499.188C324.696 499.692 326.172 500.232 319.632 500.916C315.672 501.324 314.556 496.896 316.212 496.524C323.796 494.868 324.384 492.48 327.096 489.468C327.692 488.883 328.482 488.537 329.316 488.496Z" fill="#263238"/>
<path d="M308.004 313.572L306.804 313.452L305.784 313.32C305.124 313.248 304.488 313.116 303.84 313.008C302.556 312.78 301.308 312.492 300.072 312.192C297.636 311.575 295.233 310.834 292.872 309.972C288.148 308.25 283.599 306.08 279.288 303.492L277.68 302.496L276.888 302.004L276.444 301.728C276.173 301.547 275.913 301.351 275.664 301.14C275.436 300.948 275.232 300.756 275.076 300.6L274.632 300.12C274.219 299.634 273.849 299.112 273.528 298.56C273.252 298.092 273.048 297.696 272.856 297.3C272.508 296.532 272.244 295.824 272.004 295.152C271.193 292.705 270.579 290.197 270.168 287.652C269.335 282.897 268.902 278.08 268.872 273.252L276.012 271.872C277.8 276.096 279.396 280.452 281.088 284.544C281.496 285.564 281.928 286.572 282.372 287.532C282.816 288.492 283.224 289.428 283.656 290.22C283.884 290.604 284.1 290.964 284.28 291.216C284.341 291.305 284.414 291.386 284.496 291.456C284.496 291.456 284.556 291.456 284.424 291.288L284.28 291.12C284.201 291.028 284.112 290.943 284.016 290.868C283.878 290.748 283.734 290.636 283.584 290.532C283.296 290.352 283.476 290.46 283.512 290.532L284.244 290.88L285.684 291.576C289.534 293.372 293.503 294.9 297.564 296.148C299.58 296.784 301.62 297.348 303.636 297.828C304.656 298.068 305.664 298.284 306.66 298.488L308.136 298.776L309.336 298.98L308.004 313.572Z" fill="#B65B52"/>
<path d="M319.452 315.948C309.108 322.56 293.94 315.18 293.94 315.18C292.128 308.64 291.132 297.036 291.132 292.488C291.132 292.488 308.676 294.636 320.616 293.52C332.28 292.428 327.948 310.524 319.452 315.948Z" fill="#407BFF"/>
<path d="M276.06 277.596L278.832 270.12L268.26 267.864C268.26 267.864 266.316 273.804 270.312 278.22L276.06 277.596Z" fill="#B55B52"/>
<path d="M275.544 262.08L270.744 262.596C270.187 262.65 269.667 262.896 269.272 263.293C268.878 263.689 268.635 264.211 268.584 264.768L268.248 267.864L278.82 270.12L278.22 264.252C278.192 263.932 278.099 263.621 277.949 263.337C277.798 263.053 277.591 262.802 277.342 262.6C277.092 262.397 276.804 262.247 276.496 262.157C276.187 262.068 275.863 262.042 275.544 262.08Z" fill="#B55B52"/>
<path d="M301.2 306C300.66 315.168 301.2 333.996 307.92 368.568L359.52 363.9C359.196 356.58 353.04 335.1 355.356 302.172C355.449 300.976 355.299 299.773 354.916 298.636C354.533 297.498 353.925 296.45 353.127 295.554C352.329 294.657 351.359 293.931 350.274 293.419C349.188 292.907 348.011 292.618 346.812 292.572C344.268 292.488 341.448 292.464 338.688 292.572C331.36 292.813 324.052 293.474 316.8 294.552C314.004 295.068 311.292 295.752 308.964 296.4C306.83 296.99 304.934 298.233 303.541 299.954C302.149 301.676 301.33 303.79 301.2 306Z" fill="#407BFF"/>
<path opacity="0.1" d="M331.008 326.784C331.236 335.268 326.424 342.096 320.268 342.036C314.112 341.976 308.916 335.028 308.688 326.544C308.46 318.06 313.272 311.22 319.488 311.292C325.704 311.364 330.78 318.288 331.008 326.784Z" fill="black"/>
<path d="M332.808 276.108C332.808 282.9 333.912 290.7 338.112 293.736C332.323 298.674 325.857 302.759 318.912 305.868C311.46 300.6 314.904 296.268 314.904 296.268C321.42 292.668 320.964 287.736 318.924 282.42L328.632 273.876C330.216 272.232 332.808 273.6 332.808 276.108Z" fill="#B55B52"/>
<path opacity="0.2" d="M332.82 276.108C332.82 273.612 330.216 272.244 328.608 273.852L318.888 282.396C319.937 284.718 320.351 287.277 320.088 289.812C322.371 289.888 324.638 289.415 326.7 288.432C329.383 287.219 331.64 285.23 333.18 282.72C332.917 280.526 332.796 278.318 332.82 276.108Z" fill="black"/>
<path d="M342.708 267.396C339.336 276.456 337.824 281.928 331.62 285.216C322.272 290.16 311.892 282.396 312.42 272.508C312.9 263.592 318.348 250.284 328.716 249.42C330.982 249.185 333.271 249.531 335.367 250.425C337.463 251.318 339.296 252.731 340.696 254.529C342.095 256.327 343.014 258.451 343.366 260.702C343.718 262.953 343.492 265.257 342.708 267.396Z" fill="#B55B52"/>
<path d="M340.032 255.696C335.232 259.488 336.432 265.536 339.204 265.632C334.932 269.088 336.132 273.54 339.624 273.156C345.6 272.508 349.644 254.616 340.032 255.696Z" fill="#263238"/>
<path d="M342.696 256.38C338.028 258.216 334.392 256.212 334.2 253.656C330.732 255.384 316.464 253.404 319.728 251.34C322.2 246.936 334.452 244.56 342.696 256.38Z" fill="#263238"/>
<path d="M315.288 270.912L326.82 272.112C326.82 272.112 325.416 275.712 320.04 275.1C315.6 274.596 315.288 270.912 315.288 270.912Z" fill="white"/>
<path d="M328.032 263.388C327.624 264.144 326.892 264.528 326.4 264.264C325.908 264 325.848 263.172 326.256 262.428C326.664 261.684 327.384 261.288 327.876 261.552C328.368 261.816 328.44 262.644 328.032 263.388Z" fill="#263238"/>
<path d="M319.2 260.556C318.792 261.312 318.072 261.756 317.58 261.432C317.088 261.108 317.016 260.34 317.424 259.596C317.832 258.852 318.564 258.396 319.056 258.72C319.548 259.044 319.56 259.812 319.2 260.556Z" fill="#263238"/>
<path d="M332.328 261.876C332.239 261.845 332.16 261.791 332.098 261.72C332.037 261.648 331.996 261.561 331.98 261.468C331.909 260.849 331.693 260.256 331.349 259.736C331.005 259.217 330.542 258.787 330 258.48C329.879 258.423 329.785 258.32 329.738 258.195C329.691 258.07 329.695 257.931 329.748 257.808C329.774 257.747 329.812 257.693 329.859 257.647C329.907 257.602 329.964 257.567 330.026 257.545C330.088 257.522 330.154 257.512 330.219 257.517C330.285 257.521 330.349 257.538 330.408 257.568C331.112 257.938 331.717 258.473 332.17 259.127C332.623 259.781 332.912 260.535 333.012 261.324C333.022 261.389 333.019 261.455 333.004 261.518C332.988 261.582 332.96 261.642 332.921 261.694C332.881 261.747 332.832 261.791 332.776 261.824C332.719 261.858 332.657 261.879 332.592 261.888C332.505 261.909 332.413 261.905 332.328 261.876Z" fill="#263238"/>
<path d="M316.62 256.632C316.519 256.594 316.431 256.527 316.368 256.44C316.293 256.331 316.263 256.198 316.286 256.068C316.308 255.937 316.381 255.821 316.488 255.744C317.121 255.264 317.861 254.945 318.645 254.813C319.429 254.681 320.233 254.741 320.988 254.988C321.05 255.011 321.107 255.046 321.156 255.091C321.204 255.136 321.243 255.19 321.27 255.251C321.297 255.311 321.311 255.377 321.312 255.443C321.313 255.509 321.301 255.575 321.276 255.636C321.225 255.758 321.129 255.854 321.008 255.906C320.887 255.958 320.751 255.96 320.628 255.912C320.019 255.728 319.376 255.69 318.75 255.803C318.124 255.916 317.534 256.175 317.028 256.56C316.968 256.599 316.901 256.625 316.831 256.638C316.761 256.65 316.689 256.648 316.62 256.632Z" fill="#263238"/>
<path d="M321.06 261.744C319.335 263.405 317.389 264.818 315.276 265.944C315.577 266.479 315.992 266.941 316.492 267.298C316.992 267.655 317.564 267.897 318.168 268.008L321.06 261.744Z" fill="#A02724"/>
<path d="M343.2 276.276C342.59 277.057 341.828 277.705 340.959 278.182C340.091 278.659 339.134 278.953 338.148 279.048C335.748 279.276 335.016 276.036 336.372 273.72C337.572 271.632 340.092 269.64 342.372 270.012C344.652 270.384 345.216 273.6 343.2 276.276Z" fill="#B55B52"/>
<path opacity="0.2" d="M327.444 472.572L329.124 485.088L338.772 484.212L337.104 471.696L327.444 472.572Z" fill="black"/>
<path d="M307.956 368.532C306.567 386.321 306.997 404.206 309.24 421.908C313.104 452.424 324.384 479.664 324.384 479.664L340.452 475.452C340.452 475.452 336.708 452.556 334.716 422.424C332.544 389.568 341.916 365.46 341.916 365.46L307.956 368.532Z" fill="#263238"/>
<path opacity="0.3" d="M336.288 381.6C327.888 384.24 331.08 398.472 334.476 408C334.723 399.129 335.739 390.296 337.512 381.6H336.288Z" fill="black"/>
<path d="M393.276 470.196C392.412 471.096 391.464 471.852 390.78 471.756C390.604 471.723 390.443 471.638 390.317 471.511C390.19 471.385 390.105 471.224 390.072 471.048C389.989 470.745 390.028 470.422 390.18 470.148C390.984 468.684 394.716 467.568 394.872 467.52C394.918 467.509 394.965 467.511 395.01 467.526C395.054 467.541 395.094 467.568 395.124 467.604C395.15 467.643 395.164 467.689 395.164 467.736C395.164 467.783 395.15 467.829 395.124 467.868C394.58 468.699 393.961 469.478 393.276 470.196ZM390.876 470.004C390.773 470.112 390.684 470.233 390.612 470.364C390.561 470.446 390.528 470.537 390.513 470.631C390.499 470.726 390.504 470.823 390.528 470.916C390.624 471.228 390.768 471.288 390.864 471.3C391.632 471.408 393.336 469.644 394.404 468.168C393.112 468.543 391.905 469.167 390.852 470.004H390.876Z" fill="#407BFF"/>
<path d="M395.112 467.904H395.028C393.828 468.384 390.72 468.612 390.06 467.724C389.892 467.52 389.796 467.16 390.18 466.668C390.324 466.482 390.505 466.328 390.711 466.217C390.918 466.105 391.146 466.038 391.38 466.02C392.964 465.828 394.98 467.448 395.124 467.508C395.154 467.535 395.178 467.568 395.192 467.606C395.207 467.643 395.212 467.684 395.208 467.724C395.19 467.791 395.157 467.852 395.112 467.904ZM390.636 466.896L390.54 466.992C390.288 467.328 390.384 467.46 390.42 467.496C390.828 468.024 393.096 468.036 394.44 467.664C393.577 466.959 392.516 466.54 391.404 466.464C391.102 466.505 390.828 466.66 390.636 466.896Z" fill="#407BFF"/>
<path d="M406.5 463.008L400.032 470.232L382.668 455.976L389.136 448.752L406.5 463.008Z" fill="#B55B52"/>
<path d="M394.8 466.224L402.108 458.58C402.239 458.425 402.421 458.322 402.621 458.289C402.821 458.256 403.026 458.295 403.2 458.4L410.748 462.972C410.931 463.083 411.087 463.233 411.204 463.413C411.321 463.593 411.395 463.796 411.422 464.009C411.449 464.222 411.427 464.437 411.358 464.64C411.289 464.843 411.175 465.028 411.024 465.18C408.336 467.892 404.364 471.72 401.04 475.188C397.164 479.232 399.924 476.796 395.376 481.548C392.616 484.428 388.956 482.436 389.844 480.984C393.888 474.36 393.696 472.44 393.756 468.396C393.822 467.568 394.194 466.793 394.8 466.224Z" fill="#263238"/>
<path opacity="0.2" d="M382.68 455.976L392.436 463.992L398.904 456.768L389.148 448.752L382.68 455.976Z" fill="black"/>
<path d="M326.268 366.876C326.268 366.876 333.372 395.328 346.86 420.312C361.62 447.672 385.452 463.284 385.452 463.284L396.876 450.96C396.876 450.96 377.268 431.58 371.424 410.916C362.508 379.38 359.58 363.864 359.58 363.864L326.268 366.876Z" fill="#263238"/>
<path d="M379.476 460.452C379.476 460.512 387.156 466.056 387.156 466.056L399.336 451.848L395.064 447.48L379.476 460.452Z" fill="#407BFF"/>
<path d="M321.384 475.116C321.312 475.116 323.784 483.3 323.784 483.3L342.984 480.492L341.94 474.12L321.384 475.116Z" fill="#407BFF"/>
<path d="M359.82 303.6L360.828 306.984L361.932 310.464C362.676 312.768 363.48 315.048 364.332 317.256C365.184 319.464 366.096 321.6 367.08 323.556C367.926 325.288 368.96 326.922 370.164 328.428L370.344 328.632L370.416 328.716L370.296 328.632C370.177 328.555 370.053 328.487 369.924 328.428C369.701 328.311 369.468 328.214 369.228 328.14C368.515 327.931 367.763 327.889 367.032 328.02C366.449 328.122 365.896 328.351 365.412 328.692C364.836 329.148 364.968 329.232 365.076 329.112C365.307 328.88 365.504 328.617 365.664 328.332C366.721 326.416 367.601 324.408 368.292 322.332C369.924 317.808 371.304 312.84 372.756 308.028L379.956 308.832C380.165 314.245 379.86 319.665 379.044 325.02C378.62 327.955 377.867 330.833 376.8 333.6C376.439 334.498 375.997 335.362 375.48 336.18C374.715 337.445 373.698 338.54 372.492 339.396C371.411 340.145 370.172 340.634 368.87 340.823C367.569 341.013 366.241 340.898 364.992 340.488C364.447 340.312 363.92 340.083 363.42 339.804C363.002 339.586 362.601 339.337 362.22 339.06L361.728 338.676L361.44 338.436L360.912 337.98C358.523 335.773 356.473 333.226 354.828 330.42C353.344 327.97 352.025 325.425 350.88 322.8C349.74 320.244 348.756 317.664 347.868 315.072C347.436 313.776 347.016 312.48 346.668 311.16C346.32 309.84 345.948 308.58 345.6 307.092L359.82 303.6Z" fill="#B65B52"/>
<path d="M373.2 309.972L371.388 302.22L382.044 302.964C382.044 302.964 383.34 307.428 378.84 311.364L373.2 309.972Z" fill="#B55B52"/>
<path d="M376.296 295.2L380.292 296.664C380.87 296.877 381.366 297.269 381.706 297.782C382.047 298.296 382.216 298.904 382.188 299.52L381.996 302.952L371.34 302.208L372.468 297.276C372.56 296.875 372.737 296.498 372.986 296.17C373.235 295.842 373.552 295.571 373.914 295.374C374.276 295.178 374.675 295.061 375.086 295.031C375.497 295.001 375.909 295.059 376.296 295.2Z" fill="#B55B52"/>
<path d="M350.94 293.376C362.544 297.396 365.34 314.688 365.34 314.688C362.94 318.864 355.188 323.4 348.672 326.856C348.672 326.856 344.772 323.484 340.644 312.228C336.6 301.2 341.412 290.064 350.94 293.376Z" fill="#407BFF"/>
<path d="M179.388 351.18C170.724 300.024 167.388 235.824 167.388 235.824L213.408 248.784C213.408 248.784 209.364 320.712 207.408 355.524C205.428 391.716 203.352 474.228 203.352 474.228H181.464C181.464 474.228 174.588 395.928 179.388 351.18Z" fill="#263238"/>
<path opacity="0.3" d="M172.644 300.588C173.844 311.616 175.188 323.172 176.808 334.512C181.056 317.184 183.444 284.364 183.444 284.364L172.644 300.588Z" fill="black"/>
<path d="M183.312 488.652L181.44 498.864C181.398 499.112 181.411 499.367 181.478 499.609C181.545 499.852 181.664 500.077 181.828 500.268C181.992 500.46 182.196 500.612 182.425 500.716C182.655 500.82 182.904 500.872 183.156 500.868C186.396 500.868 187.956 500.352 193.584 500.268C200.208 500.16 205.74 500.988 213.504 500.868C214.362 500.944 215.217 500.696 215.901 500.172C216.586 499.649 217.049 498.888 217.199 498.04C217.35 497.192 217.177 496.318 216.715 495.591C216.253 494.864 215.536 494.336 214.704 494.112C207.144 492.06 203.844 488.184 200.304 485.916C199.56 482.244 201.372 472.14 201.372 472.14L183.276 473.34C183.601 478.438 183.613 483.552 183.312 488.652Z" fill="#407BFF"/>
<path d="M99.456 489.228L103.836 481.32C105.948 476.328 109.08 466.8 109.08 466.8L125.352 471.036C125.352 471.036 120.864 479.184 119.844 483.036C122.34 485.94 125.7 492.468 132.708 494.052C135.996 494.796 135.756 500.532 131.4 500.916C124.2 501.528 115.728 495.972 109.704 494.676C104.556 493.56 103.812 493.908 100.884 493.224C100.469 493.135 100.083 492.941 99.763 492.661C99.4434 492.381 99.2006 492.024 99.0576 491.624C98.9145 491.223 98.8761 490.793 98.9458 490.374C99.0156 489.955 99.1912 489.56 99.456 489.228Z" fill="#407BFF"/>
<path d="M202.476 477.12L182.316 477.444C181.914 477.45 181.524 477.308 181.221 477.044C180.918 476.781 180.722 476.415 180.672 476.016L179.796 469.356C179.768 469.13 179.787 468.901 179.852 468.683C179.917 468.465 180.027 468.263 180.176 468.09C180.324 467.917 180.506 467.777 180.712 467.679C180.917 467.581 181.141 467.527 181.368 467.52L203.316 466.836C203.553 466.829 203.788 466.873 204.006 466.966C204.224 467.059 204.419 467.198 204.578 467.374C204.737 467.55 204.855 467.758 204.925 467.984C204.996 468.21 205.016 468.449 204.984 468.684L204.072 475.704C204.02 476.092 203.831 476.449 203.538 476.709C203.245 476.969 202.868 477.115 202.476 477.12Z" fill="#263238"/>
<path opacity="0.1" d="M202.476 477.12L182.316 477.444C181.914 477.45 181.524 477.308 181.221 477.044C180.918 476.781 180.722 476.415 180.672 476.016L179.796 469.356C179.768 469.13 179.787 468.901 179.852 468.683C179.917 468.465 180.027 468.263 180.176 468.09C180.324 467.917 180.506 467.777 180.712 467.679C180.917 467.581 181.141 467.527 181.368 467.52L203.316 466.836C203.553 466.829 203.788 466.873 204.006 466.966C204.224 467.059 204.419 467.198 204.578 467.374C204.737 467.55 204.855 467.758 204.925 467.984C204.996 468.21 205.016 468.449 204.984 468.684L204.072 475.704C204.02 476.092 203.831 476.449 203.538 476.709C203.245 476.969 202.868 477.115 202.476 477.12Z" fill="white"/>
<path d="M137.16 349.728C144.732 298.308 142.872 258.24 153.96 234.192L197.076 239.508C197.076 239.508 175.728 319.524 165.972 353.508C156.216 387.492 127.284 470.988 127.284 470.988L106.476 466.392C106.476 466.392 124.212 389.52 137.16 349.728Z" fill="#263238"/>
<path d="M126.324 474.684L106.62 470.4C106.22 470.303 105.872 470.055 105.649 469.709C105.426 469.363 105.344 468.945 105.42 468.54L106.62 462C106.662 461.783 106.746 461.577 106.867 461.393C106.989 461.208 107.145 461.05 107.328 460.926C107.511 460.803 107.716 460.716 107.932 460.672C108.149 460.627 108.371 460.626 108.588 460.668L130.188 465.012C130.427 465.059 130.651 465.161 130.845 465.308C131.039 465.456 131.196 465.646 131.305 465.864C131.413 466.081 131.471 466.321 131.473 466.565C131.475 466.808 131.421 467.049 131.316 467.268L128.256 473.76C128.092 474.115 127.809 474.401 127.456 474.57C127.104 474.738 126.703 474.779 126.324 474.684Z" fill="#263238"/>
<path opacity="0.1" d="M126.324 474.684L106.62 470.4C106.22 470.303 105.872 470.055 105.649 469.709C105.426 469.363 105.344 468.945 105.42 468.54L106.62 462C106.662 461.783 106.746 461.577 106.867 461.393C106.989 461.208 107.145 461.05 107.328 460.926C107.511 460.803 107.716 460.716 107.932 460.672C108.149 460.627 108.371 460.626 108.588 460.668L130.188 465.012C130.427 465.059 130.651 465.161 130.845 465.308C131.039 465.456 131.196 465.646 131.305 465.864C131.413 466.081 131.471 466.321 131.473 466.565C131.475 466.808 131.421 467.049 131.316 467.268L128.256 473.76C128.092 474.115 127.809 474.401 127.456 474.57C127.104 474.738 126.703 474.779 126.324 474.684Z" fill="white"/>
<path d="M232.332 177.66C233.292 184.86 234.228 192.24 235.284 199.464C235.788 203.064 236.388 206.664 236.976 210.264C237.564 213.864 238.296 217.308 239.112 220.524C239.316 221.316 239.532 222.072 239.76 222.804L240.096 223.812L240.492 224.868C241.068 226.272 241.752 227.724 242.52 229.176C243.288 230.628 244.14 232.08 245.064 233.532C245.988 234.984 246.948 236.436 247.968 237.864C252.184 243.696 256.702 249.304 261.504 254.664L261.612 254.784C262.264 255.535 262.625 256.496 262.628 257.491C262.632 258.486 262.278 259.449 261.631 260.205C260.984 260.961 260.087 261.459 259.104 261.61C258.12 261.76 257.115 261.552 256.272 261.024C252.977 258.912 249.815 256.6 246.804 254.1C243.761 251.605 240.864 248.936 238.128 246.108C235.282 243.191 232.681 240.044 230.352 236.7C229.12 234.931 228.005 233.083 227.016 231.168L226.272 229.668L225.6 228C225.18 226.956 224.808 225.948 224.4 224.964C223.044 221.016 222.108 217.212 221.208 213.432C220.308 209.652 219.6 205.872 218.904 202.116C217.572 194.568 216.504 187.128 215.76 179.472C215.512 177.278 216.145 175.074 217.522 173.347C218.898 171.62 220.904 170.51 223.098 170.262C225.292 170.014 227.496 170.647 229.223 172.024C230.95 173.4 232.06 175.406 232.308 177.6L232.332 177.66Z" fill="#FF8B7B"/>
<path d="M222.816 158.328C233.616 167.82 236.4 190.404 236.4 190.404C231.9 196.704 218.604 200.004 209.676 200.832C209.676 200.832 207.276 195.972 204.684 181.884C201.912 166.548 212.736 149.508 222.816 158.328Z" fill="#407BFF"/>
<path d="M178.8 147.396C190.871 148.255 202.824 150.334 214.476 153.6C227.004 157.2 227.94 169.38 227.196 182.4C226.092 201.984 218.46 212.904 215.58 259.704C207.612 263.844 171.288 262.596 148.248 248.304C151.38 230.016 161.868 199.248 163.692 160.824C163.782 158.943 164.246 157.099 165.058 155.401C165.87 153.702 167.014 152.182 168.421 150.932C169.828 149.681 171.471 148.724 173.254 148.117C175.036 147.509 176.922 147.264 178.8 147.396Z" fill="#407BFF"/>
<path d="M206.328 166.212C204.324 166.812 199.992 165.648 199.392 163.176C193.392 163.248 188.592 164.808 187.164 166.008C183.888 160.584 184.932 149.544 185.892 147.78C186.852 146.016 207.564 149.856 212.112 151.812C213.797 152.47 215.235 153.636 216.228 155.148C216.912 156.108 220.056 162.84 216.828 167.808C215.321 166.537 213.738 165.359 212.088 164.28C212.088 164.28 211.716 167.28 206.328 166.212Z" fill="#407BFF"/>
<path opacity="0.8" d="M206.328 166.212C204.324 166.812 199.992 165.648 199.392 163.176C193.392 163.248 188.592 164.808 187.164 166.008C183.888 160.584 184.932 149.544 185.892 147.78C186.852 146.016 207.564 149.856 212.112 151.812C213.797 152.47 215.235 153.636 216.228 155.148C216.912 156.108 220.056 162.84 216.828 167.808C215.321 166.537 213.738 165.359 212.088 164.28C212.088 164.28 211.716 167.28 206.328 166.212Z" fill="white"/>
<path d="M198.06 124.68C196.44 133.452 192.06 144.996 188.46 149.376C191.604 154.092 195.732 159.564 203.604 162.204C204.48 162.504 205.932 168.684 206.532 169.512C207.911 167.74 208.745 165.606 208.932 163.368C216.012 163.812 215.688 157.788 214.068 154.176C205.368 150.288 206.748 146.592 210.216 140.796L198.06 124.68Z" fill="#FF8B7B"/>
<path opacity="0.2" d="M202.092 134.616C202.411 133.554 202.812 132.519 203.292 131.52L210.324 140.796C209.138 142.537 208.262 144.469 207.732 146.508C204.204 144.3 200.94 138.564 202.092 134.616Z" fill="black"/>
<path d="M204.768 108.06C199.5 118.116 195.492 125.412 199.332 132.576C207.732 148.272 215.412 146.208 223.596 137.916C230.964 130.464 238.356 115.284 231.144 105.768C229.553 103.65 227.45 101.972 225.031 100.892C222.613 99.8124 219.959 99.366 217.32 99.5953C214.681 99.8246 212.144 100.722 209.948 102.203C207.752 103.684 205.97 105.7 204.768 108.06Z" fill="#FF8B7B"/>
<path d="M200.64 114.528C207.708 117.264 212.568 109.332 211.644 106.464C215.088 110.796 226.176 113.136 229.644 112.068C230.556 119.916 238.116 123.648 242.376 124.068C241.044 123.372 238.644 121.152 238.908 119.628C246.312 118.572 249.3 108.756 241.176 106.044C233.052 103.332 232.512 98.4 227.904 93.132C222.444 86.868 209.1 87.396 210.276 93.528C205.308 89.532 196.236 94.044 198.912 99.528C188.484 102.576 195.168 117.384 197.376 118.848C199.584 120.312 200.64 114.528 200.64 114.528Z" fill="#263238"/>
<path d="M237.924 120C238.642 120.557 239.487 120.928 240.383 121.079C241.28 121.23 242.199 121.156 243.06 120.864C241.881 120.562 240.816 119.919 240 119.016C240 119.016 237.924 119.136 237.924 120Z" fill="#263238"/>
<path d="M211.2 96.468C209.52 93.996 210.528 86.868 212.46 85.332C206.868 85.656 206.04 92.472 211.2 96.468Z" fill="#263238"/>
<path opacity="0.2" d="M216.36 121.2C215.413 119.692 213.907 118.622 212.172 118.224C213.36 119.481 214.783 120.492 216.36 121.2Z" fill="black"/>
<path opacity="0.2" d="M215.58 122.088C215.023 121.512 214.346 121.066 213.598 120.78C212.849 120.494 212.047 120.375 211.248 120.432C212.555 121.291 214.033 121.856 215.58 122.088Z" fill="black"/>
<path opacity="0.2" d="M210 127.428C208.8 126.852 207.42 126.756 206.892 129.06C207.267 128.585 207.737 128.194 208.272 127.913C208.808 127.632 209.397 127.467 210 127.428Z" fill="black"/>
<path d="M221.196 132.072C222.708 133.092 225.564 136.788 224.292 140.028C221.028 140.028 211.248 134.736 208.956 130.656C209.544 127.656 217.128 129.312 221.196 132.072Z" fill="#263238"/>
<path d="M224.46 124.092C224.46 124.092 223.032 129.612 223.404 133.032C221.184 133.32 219.324 131.136 219.324 131.136L224.46 124.092Z" fill="#FF5652"/>
<path d="M217.464 122.172C217.08 123.012 217.212 123.9 217.764 124.14C218.316 124.38 219.072 123.912 219.468 123.072C219.864 122.232 219.72 121.356 219.168 121.104C218.616 120.852 217.86 121.344 217.464 122.172Z" fill="#263238"/>
<path d="M227.52 126.72C227.136 127.548 227.268 128.436 227.82 128.676C228.372 128.916 229.128 128.448 229.512 127.608C229.896 126.768 229.764 125.892 229.212 125.64C228.66 125.388 227.904 125.88 227.52 126.72Z" fill="#263238"/>
<path opacity="0.5" d="M222.528 123.6C221.244 126.636 218.448 128.4 216.276 127.488C214.104 126.576 213.384 123.408 214.668 120.36" fill="#407BFF"/>
<path opacity="0.5" d="M233.22 128.4C231.936 131.448 229.14 133.2 226.968 132.288C224.796 131.376 224.076 128.208 225.36 125.16" fill="#407BFF"/>
<path d="M228.168 132.84C227.718 132.843 227.273 132.753 226.86 132.576C226.398 132.38 225.981 132.091 225.634 131.728C225.287 131.365 225.018 130.935 224.844 130.464C224.216 128.698 224.302 126.756 225.084 125.052C225.36 124.608 225.384 124.272 225.18 124.032C224.834 123.789 224.432 123.64 224.011 123.598C223.591 123.556 223.167 123.623 222.78 123.792C221.412 126.912 218.484 128.676 216.192 127.728C215.732 127.528 215.317 127.239 214.97 126.876C214.624 126.513 214.354 126.085 214.176 125.616C213.578 123.935 213.625 122.092 214.308 120.444L201.732 112.86C201.663 112.818 201.613 112.75 201.593 112.672C201.573 112.594 201.584 112.51 201.624 112.44C201.668 112.376 201.734 112.331 201.809 112.313C201.885 112.296 201.964 112.307 202.032 112.344L214.8 120.072C214.863 120.108 214.912 120.165 214.936 120.233C214.96 120.302 214.959 120.377 214.932 120.444C214.22 122 214.134 123.77 214.692 125.388C214.842 125.783 215.068 126.145 215.359 126.452C215.649 126.759 215.998 127.005 216.384 127.176C218.4 128.004 221.028 126.336 222.24 123.444C222.252 123.408 222.273 123.375 222.3 123.348C222.327 123.321 222.36 123.301 222.396 123.288C222.906 123.036 223.476 122.931 224.043 122.987C224.609 123.042 225.148 123.254 225.6 123.6C225.794 123.839 225.9 124.138 225.9 124.446C225.9 124.754 225.794 125.053 225.6 125.292C224.906 126.841 224.829 128.596 225.384 130.2C225.531 130.597 225.757 130.959 226.048 131.267C226.338 131.574 226.688 131.819 227.076 131.988C229.092 132.816 231.72 131.148 232.932 128.256C232.964 128.183 233.023 128.125 233.098 128.096C233.172 128.067 233.255 128.068 233.328 128.1C233.401 128.132 233.459 128.191 233.488 128.266C233.517 128.34 233.516 128.423 233.484 128.496C232.392 131.136 230.196 132.84 228.168 132.84Z" fill="white"/>
<path d="M216.72 115.428C216.648 115.37 216.59 115.296 216.552 115.212C216.496 115.078 216.494 114.928 216.548 114.793C216.602 114.658 216.707 114.55 216.84 114.492C217.626 114.132 218.486 113.964 219.35 114.002C220.214 114.039 221.056 114.281 221.808 114.708C221.926 114.79 222.007 114.916 222.033 115.057C222.06 115.198 222.031 115.344 221.952 115.464C221.872 115.581 221.749 115.661 221.61 115.688C221.47 115.715 221.326 115.686 221.208 115.608C220.606 115.284 219.937 115.104 219.254 115.084C218.571 115.063 217.892 115.201 217.272 115.488C217.183 115.526 217.085 115.541 216.988 115.531C216.891 115.52 216.799 115.485 216.72 115.428Z" fill="#263238"/>
<path d="M233.388 123.36C233.304 123.331 233.228 123.28 233.169 123.212C233.11 123.145 233.07 123.064 233.052 122.976C232.92 122.314 232.634 121.691 232.217 121.16C231.8 120.628 231.264 120.202 230.652 119.916C230.525 119.86 230.425 119.758 230.371 119.63C230.317 119.502 230.315 119.359 230.364 119.229C230.414 119.1 230.511 118.994 230.636 118.934C230.761 118.875 230.904 118.865 231.036 118.908C231.822 119.248 232.515 119.772 233.056 120.437C233.597 121.101 233.97 121.885 234.144 122.724C234.16 122.793 234.162 122.865 234.15 122.935C234.138 123.006 234.113 123.073 234.075 123.133C234.037 123.193 233.987 123.245 233.929 123.286C233.871 123.327 233.805 123.356 233.736 123.372C233.623 123.413 233.498 123.409 233.388 123.36Z" fill="#263238"/>
<path d="M259.908 253.548L267.108 256.968C269.722 258.21 272.086 259.923 274.08 262.02L275.808 263.844C276.684 264.768 276.3 266.556 275.04 267.564L270.36 271.296C270.043 271.589 269.648 271.785 269.223 271.862C268.798 271.939 268.36 271.892 267.96 271.728L263.472 269.424C263.472 269.424 253.872 266.136 255.3 258.396L259.908 253.548Z" fill="#FF8B7B"/>
<path d="M174 166.584L162.6 182.928C160.704 185.64 158.832 188.376 157.008 191.076C155.184 193.776 153.408 196.524 151.956 199.044C151.56 199.692 151.32 200.244 150.984 200.808C150.796 201.155 150.636 201.516 150.504 201.888C150.216 202.788 150.074 203.728 150.084 204.672C150.178 207.285 150.705 209.864 151.644 212.304C153.889 218.1 156.784 223.623 160.272 228.768L160.416 228.996C160.955 229.826 161.18 230.821 161.048 231.802C160.917 232.782 160.439 233.683 159.701 234.342C158.962 235.001 158.013 235.373 157.023 235.392C156.034 235.41 155.071 235.074 154.308 234.444C151.502 232.127 148.904 229.57 146.544 226.8C144.093 223.981 141.934 220.922 140.1 217.668C138.015 214.056 136.615 210.089 135.972 205.968C135.612 203.554 135.652 201.097 136.092 198.696C136.328 197.421 136.685 196.171 137.16 194.964C137.544 194.028 137.952 192.996 138.36 192.156C139.968 188.664 141.684 185.652 143.436 182.616C145.188 179.58 147.036 176.616 148.86 173.76C152.58 167.976 156.384 162.36 160.524 156.84C161.831 155.093 163.773 153.93 165.93 153.602C168.087 153.274 170.286 153.806 172.054 155.084C173.822 156.363 175.017 158.285 175.381 160.436C175.745 162.587 175.249 164.795 174 166.584Z" fill="#FF8B7B"/>
<path d="M177.276 147.372C157.932 146.7 147.276 170.484 147.276 170.484C151.536 179.748 157.464 187.896 164.268 189.6C164.268 189.6 172.008 182.868 178.248 169.992C183.6 159.024 180.972 148.26 177.276 147.372Z" fill="#407BFF"/>
<path d="M153 229.02L159.96 228.408L162.708 232.572C164.981 235.987 166.48 239.857 167.1 243.912L167.22 244.692C167.289 245.197 167.252 245.711 167.111 246.201C166.971 246.691 166.73 247.146 166.403 247.538C166.077 247.93 165.673 248.249 165.216 248.476C164.76 248.703 164.261 248.832 163.752 248.856L158.892 249.24C157.956 249.319 157.02 249.081 156.236 248.562C155.452 248.044 154.866 247.277 154.572 246.384L152.964 241.068C152.964 241.068 148.38 231.924 153 229.02Z" fill="#FF8B7B"/>
<path d="M195.864 114.9C195.264 117.539 195.694 120.307 197.064 122.64C198.852 125.532 202.02 124.008 203.412 120.72C204.672 117.756 205.26 112.692 202.548 110.976C199.836 109.26 196.608 111.516 195.864 114.9Z" fill="#FF8B7B"/>
<path d="M401.748 124.992C388.92 142.656 401.904 162.948 389.904 160.128C392.964 172.692 409.104 173.208 412.488 170.136C411.34 172.51 409.59 174.541 407.412 176.028C407.412 176.028 434.148 179.268 439.812 164.316C442.212 167.484 451.224 168.084 454.284 165.132C451.716 164.196 444.852 155.676 445.884 141.684C446.544 132.372 446.52 116.904 436.044 120C430.968 107.808 410.124 113.46 401.748 124.992Z" fill="#263238"/>
<path d="M422.22 196.872C421.56 201.288 420.804 205.668 420.012 210.072C419.22 214.476 418.392 218.832 417.504 223.2C416.616 227.568 415.704 231.948 414.72 236.316C413.736 240.684 412.8 244.992 411.456 249.6L411.648 248.4C411.324 250.744 410.757 253.049 409.956 255.276C409.236 257.304 408.444 259.176 407.616 261C405.983 264.547 404.168 268.007 402.18 271.368C400.236 274.68 398.196 277.884 396.06 280.968C393.924 284.052 391.716 287.148 389.292 290.148C388.622 290.982 387.673 291.545 386.62 291.733C385.567 291.921 384.481 291.721 383.564 291.171C382.646 290.621 381.959 289.757 381.629 288.74C381.299 287.722 381.348 286.62 381.768 285.636L386.052 275.568C387.468 272.208 388.872 268.86 390.168 265.524C391.464 262.188 392.712 258.852 393.768 255.612C394.284 254.004 394.752 252.396 395.088 250.872C395.416 249.574 395.617 248.248 395.688 246.912C395.676 246.804 395.676 246.696 395.688 246.588L395.856 245.724C396.636 241.752 397.32 237.324 398.052 233.028L400.164 219.972C400.86 215.616 401.604 211.248 402.336 206.892C403.068 202.536 403.848 198.168 404.736 193.836C404.932 192.689 405.352 191.593 405.972 190.609C406.592 189.625 407.4 188.772 408.35 188.1C409.299 187.429 410.371 186.95 411.506 186.693C412.64 186.435 413.814 186.404 414.96 186.6C416.107 186.796 417.203 187.216 418.187 187.836C419.171 188.456 420.024 189.264 420.696 190.213C421.368 191.163 421.846 192.235 422.103 193.369C422.361 194.504 422.392 195.678 422.196 196.824L422.22 196.872Z" fill="#7F3E3B"/>
<path d="M381.78 286.14L378.288 290.292C377.134 291.667 376.364 293.323 376.056 295.092L375.732 296.952C375.576 297.833 375.73 298.742 376.167 299.523C376.605 300.303 377.299 300.909 378.132 301.236L382.488 302.94C383.44 303.307 384.499 303.285 385.435 302.879C386.371 302.473 387.11 301.714 387.492 300.768L388.26 298.836C388.26 298.836 392.124 291.804 391.212 285.636L389.532 285.108C388.248 284.667 386.88 284.53 385.534 284.71C384.189 284.889 382.904 285.378 381.78 286.14Z" fill="#7F3E3B"/>
<path d="M406.992 186.432C401.544 191.232 396.876 204.852 396.876 204.852C396.876 204.852 411.108 219.876 422.568 223.38C428.844 220.464 425.82 201.384 425.82 201.384L406.992 186.432Z" fill="#263238"/>
<g opacity="0.4">
<path opacity="0.4" d="M403.728 205.992C404.023 205.99 404.316 205.958 404.604 205.896C405.107 205.798 405.582 205.592 405.996 205.291C406.411 204.991 406.755 204.603 407.004 204.156C407.26 203.663 407.408 203.122 407.439 202.567C407.47 202.013 407.383 201.458 407.184 200.94C406.799 199.871 406.048 198.974 405.063 198.407C404.079 197.84 402.926 197.641 401.808 197.844C401.306 197.939 400.831 198.143 400.416 198.441C400.001 198.74 399.657 199.126 399.408 199.572C399.152 200.065 399.004 200.606 398.973 201.161C398.942 201.715 399.029 202.27 399.228 202.788C399.575 203.708 400.189 204.505 400.99 205.075C401.792 205.646 402.745 205.965 403.728 205.992ZM399.984 199.884C400.182 199.525 400.455 199.213 400.784 198.968C401.113 198.724 401.491 198.553 401.892 198.468C402.141 198.42 402.394 198.396 402.648 198.396C403.497 198.418 404.32 198.693 405.011 199.187C405.702 199.681 406.229 200.371 406.524 201.168C406.697 201.597 406.775 202.058 406.752 202.521C406.73 202.983 406.607 203.434 406.392 203.844C406.192 204.204 405.917 204.516 405.586 204.76C405.254 205.004 404.875 205.175 404.472 205.26C403.508 205.423 402.516 205.244 401.67 204.753C400.824 204.262 400.177 203.49 399.84 202.572C399.672 202.139 399.597 201.676 399.622 201.212C399.647 200.749 399.77 200.296 399.984 199.884Z" fill="white"/>
<path opacity="0.4" d="M416.652 195.18C416.896 195.122 417.146 195.094 417.396 195.096C417.588 195.084 417.78 195.084 417.972 195.096L417.12 194.424C416.914 194.43 416.71 194.454 416.508 194.496C416.005 194.593 415.53 194.799 415.115 195.1C414.7 195.4 414.357 195.788 414.108 196.236C413.852 196.729 413.704 197.27 413.673 197.825C413.642 198.379 413.729 198.934 413.928 199.452C414.276 200.371 414.89 201.165 415.691 201.734C416.493 202.303 417.446 202.619 418.428 202.644C418.723 202.648 419.017 202.616 419.304 202.548C419.807 202.455 420.283 202.251 420.697 201.953C421.112 201.654 421.456 201.267 421.704 200.82C422.09 200.083 422.221 199.239 422.076 198.42L421.2 197.724L421.272 197.88C421.446 198.311 421.524 198.774 421.501 199.238C421.478 199.702 421.355 200.156 421.14 200.568C420.941 200.927 420.666 201.239 420.335 201.481C420.003 201.724 419.623 201.891 419.22 201.972C418.255 202.138 417.263 201.96 416.416 201.468C415.57 200.977 414.923 200.204 414.588 199.284C414.419 198.854 414.344 198.392 414.369 197.93C414.394 197.469 414.518 197.018 414.732 196.608C414.93 196.245 415.204 195.93 415.535 195.683C415.867 195.437 416.248 195.265 416.652 195.18Z" fill="white"/>
<path opacity="0.4" d="M407.712 214.368C407.956 214.31 408.206 214.282 408.456 214.284C409.304 214.309 410.126 214.586 410.817 215.079C411.507 215.573 412.034 216.261 412.332 217.056C412.469 217.442 412.542 217.847 412.548 218.256L413.184 218.676C413.235 218.062 413.153 217.444 412.944 216.864C412.561 215.793 411.811 214.893 410.826 214.324C409.842 213.754 408.687 213.553 407.568 213.756C407.322 213.816 407.081 213.896 406.848 213.996L407.448 214.476L407.712 214.368Z" fill="white"/>
<path opacity="0.4" d="M422.316 210.444C421.814 210.539 421.339 210.743 420.924 211.041C420.509 211.34 420.165 211.726 419.916 212.172C419.66 212.665 419.512 213.207 419.483 213.762C419.454 214.316 419.545 214.871 419.748 215.388C420.093 216.31 420.705 217.108 421.507 217.679C422.309 218.25 423.264 218.568 424.248 218.592C424.543 218.59 424.836 218.557 425.124 218.496C425.35 218.442 425.57 218.37 425.784 218.28C425.856 218.004 425.916 217.716 425.964 217.44C425.665 217.64 425.331 217.782 424.98 217.86C424.017 218.028 423.025 217.85 422.18 217.358C421.335 216.866 420.69 216.092 420.36 215.172C420.187 214.741 420.109 214.277 420.131 213.813C420.154 213.349 420.277 212.896 420.492 212.484C420.691 212.125 420.966 211.813 421.298 211.571C421.629 211.328 422.009 211.161 422.412 211.08C422.656 211.022 422.906 210.993 423.156 210.996C423.805 211.012 424.441 211.177 425.015 211.479C425.59 211.781 426.087 212.211 426.468 212.736C426.468 212.424 426.468 212.112 426.468 211.8C425.94 211.252 425.285 210.841 424.561 210.605C423.837 210.368 423.066 210.313 422.316 210.444Z" fill="white"/>
</g>
<path d="M443.664 357.36C463.548 292.956 468.024 257.184 468.024 257.184L420.552 254.616C420.552 254.616 412.932 319.416 409.608 359.124C406.008 382.8 401.808 423.036 399.144 450.06C407.085 450.188 415.019 449.533 422.832 448.104C431.496 425.016 441.732 391.38 443.664 357.36Z" fill="#407BFF"/>
<path d="M411.792 478.884C411.792 478.884 416.4 466.464 421.2 447.936C415.344 450.012 408.36 445.092 401.1 445.932C400.661 457.592 399.507 469.214 397.644 480.732C399.816 481.848 408.06 480.504 411.792 478.884Z" fill="#7F3E3B"/>
<path d="M379.032 496.128C392.544 491.232 396.588 491.268 396.156 478.488C399.18 477.084 414.3 476.484 414.3 476.484C411.336 489.432 412.08 488.112 412.848 491.28C413.808 495.264 416.076 500.94 410.712 500.94C407.448 500.94 406.248 500.292 402.18 500.328C397.44 500.328 390.024 500.94 380.58 500.94C375.468 500.94 376.392 497.088 379.032 496.128Z" fill="#263238"/>
<path d="M398.736 444C398.544 446.256 398.148 451.908 398.736 453.96C398.766 454.08 398.829 454.188 398.918 454.273C399.007 454.358 399.119 454.416 399.24 454.44C406.438 455.963 413.89 455.811 421.02 453.996C421.251 453.925 421.45 453.777 421.584 453.576C423.312 450.996 425.184 445.392 425.988 443.04C426.036 442.926 426.053 442.801 426.038 442.679C426.022 442.556 425.973 442.44 425.897 442.342C425.822 442.244 425.721 442.168 425.606 442.122C425.491 442.076 425.366 442.062 425.244 442.08C416.782 442.9 408.28 443.228 399.78 443.064C399.524 443.073 399.279 443.171 399.088 443.342C398.897 443.513 398.773 443.746 398.736 444Z" fill="#407BFF"/>
<path opacity="0.2" d="M398.736 444C398.544 446.256 398.148 451.908 398.736 453.96C398.766 454.08 398.829 454.188 398.918 454.273C399.007 454.358 399.119 454.416 399.24 454.44C406.438 455.963 413.89 455.811 421.02 453.996C421.251 453.925 421.45 453.777 421.584 453.576C423.312 450.996 425.184 445.392 425.988 443.04C426.036 442.926 426.053 442.801 426.038 442.679C426.022 442.556 425.973 442.44 425.897 442.342C425.822 442.244 425.721 442.168 425.606 442.122C425.491 442.076 425.366 442.062 425.244 442.08C416.782 442.9 408.28 443.228 399.78 443.064C399.524 443.073 399.279 443.171 399.088 443.342C398.897 443.513 398.773 443.746 398.736 444Z" fill="black"/>
<path opacity="0.2" d="M443.1 288.984C437.988 309.624 441.012 337.812 445.32 351.948C448.096 342.804 450.556 334.276 452.7 326.364C452.772 325.56 452.832 324.756 452.892 323.964C448.908 310.368 444.288 299.028 443.1 288.984Z" fill="black"/>
<path d="M483.3 357.36C484.848 275.76 472.812 253.38 472.812 253.38L430.416 254.58C430.416 254.58 443.172 318.876 451.8 359.544C457.044 382.932 460.464 423 465.624 450.024C473.379 450.172 481.128 449.516 488.748 448.068C490.728 425.016 491.22 391.38 483.3 357.36Z" fill="#407BFF"/>
<path d="M486.636 478.884C487.311 468.582 487.459 458.253 487.08 447.936C481.824 450.012 473.424 445.092 466.404 445.932C469.299 457.39 471.507 469.011 473.016 480.732C475.512 481.848 483.36 480.504 486.636 478.884Z" fill="#7F3E3B"/>
<path d="M458.4 495.6C470.868 490.692 474 491.28 470.892 478.5C473.616 477.096 488.604 476.496 488.604 476.496C488.531 481.789 489.322 487.058 490.944 492.096C492.144 496.32 493.764 500.94 488.748 500.94C485.496 500.94 484.212 500.292 480.156 500.328C475.356 500.328 469.536 500.94 460.128 500.94C454.944 500.94 455.928 496.548 458.4 495.6Z" fill="#263238"/>
<path d="M463.464 444C463.932 446.256 465.156 451.908 466.344 453.96C466.413 454.08 466.506 454.185 466.618 454.268C466.73 454.35 466.857 454.409 466.992 454.44C475.992 456.324 484.992 455.292 488.592 453.996C488.694 453.966 488.787 453.912 488.865 453.839C488.942 453.766 489.001 453.676 489.036 453.576C490.008 450.996 490.308 445.392 490.392 443.04C490.394 442.907 490.369 442.775 490.316 442.653C490.264 442.531 490.187 442.421 490.09 442.33C489.993 442.24 489.877 442.171 489.752 442.127C489.626 442.084 489.492 442.068 489.36 442.08C480.987 442.91 472.572 443.238 464.16 443.064C464.05 443.072 463.942 443.103 463.845 443.156C463.747 443.209 463.663 443.283 463.597 443.372C463.531 443.461 463.485 443.563 463.462 443.671C463.439 443.78 463.44 443.892 463.464 444Z" fill="#407BFF"/>
<path opacity="0.2" d="M463.464 444C463.932 446.256 465.156 451.908 466.344 453.96C466.413 454.08 466.506 454.185 466.618 454.268C466.73 454.35 466.857 454.409 466.992 454.44C475.992 456.324 484.992 455.292 488.592 453.996C488.694 453.966 488.787 453.912 488.865 453.839C488.942 453.766 489.001 453.676 489.036 453.576C490.008 450.996 490.308 445.392 490.392 443.04C490.394 442.907 490.369 442.775 490.316 442.653C490.264 442.531 490.187 442.421 490.09 442.33C489.993 442.24 489.877 442.171 489.752 442.127C489.626 442.084 489.492 442.068 489.36 442.08C480.987 442.91 472.572 443.238 464.16 443.064C464.05 443.072 463.942 443.103 463.845 443.156C463.747 443.209 463.663 443.283 463.597 443.372C463.531 443.461 463.485 443.563 463.462 443.671C463.439 443.78 463.44 443.892 463.464 444Z" fill="black"/>
<path d="M402.372 203.568C405.24 214.524 399.492 223.848 410.232 227.928C409.416 236.568 416.916 262.188 418.632 267.3C424.632 269.796 450.972 265.476 473.976 253.788C472.644 244.128 462.528 218.112 461.448 186.132C461.396 184.378 460.974 182.655 460.212 181.075C459.449 179.495 458.362 178.093 457.022 176.961C455.682 175.829 454.118 174.992 452.432 174.505C450.747 174.017 448.978 173.89 447.24 174.132C445.272 174.408 443.208 174.744 441.096 175.152C433.714 176.405 426.431 178.185 419.304 180.48C417 181.272 414.648 182.16 412.404 183.048C408.503 184.639 405.325 187.61 403.474 191.395C401.624 195.179 401.232 199.512 402.372 203.568Z" fill="#263238"/>
<g opacity="0.4">
<path opacity="0.4" d="M412.488 185.304C412.274 185.655 411.986 185.955 411.644 186.183C411.302 186.411 410.914 186.562 410.508 186.624C409.516 186.778 408.504 186.537 407.688 185.952C407.52 186.096 407.34 186.228 407.184 186.384C407.975 186.986 408.938 187.318 409.932 187.332C410.161 187.33 410.39 187.31 410.616 187.272C411.109 187.191 411.579 187.004 411.993 186.724C412.407 186.445 412.756 186.079 413.016 185.652C413.276 185.209 413.443 184.718 413.509 184.209C413.575 183.7 413.538 183.183 413.4 182.688L412.788 182.928C412.898 183.324 412.928 183.738 412.876 184.146C412.825 184.554 412.693 184.947 412.488 185.304Z" fill="white"/>
<path opacity="0.4" d="M420.288 181.332C420.588 182.306 421.184 183.163 421.992 183.784C422.8 184.406 423.781 184.761 424.8 184.8C425.027 184.824 425.257 184.824 425.484 184.8C425.977 184.717 426.446 184.53 426.86 184.25C427.274 183.971 427.623 183.606 427.884 183.18C428.166 182.701 428.342 182.167 428.4 181.614C428.457 181.062 428.396 180.503 428.22 179.976C428.012 179.35 427.677 178.774 427.236 178.284L426.54 178.464C427.027 178.937 427.389 179.522 427.596 180.168C427.748 180.607 427.803 181.073 427.757 181.535C427.712 181.997 427.567 182.443 427.332 182.844C427.118 183.195 426.83 183.495 426.488 183.723C426.146 183.951 425.758 184.102 425.352 184.164C424.381 184.282 423.399 184.056 422.577 183.525C421.755 182.995 421.145 182.193 420.852 181.26C420.747 180.906 420.698 180.537 420.708 180.168L420.06 180.372C420.094 180.701 420.17 181.023 420.288 181.332Z" fill="white"/>
<path opacity="0.4" d="M435.144 176.4C434.9 177.181 434.9 178.019 435.144 178.8C435.457 179.769 436.062 180.617 436.876 181.227C437.691 181.837 438.675 182.18 439.692 182.208C439.921 182.206 440.15 182.186 440.376 182.148C440.869 182.065 441.338 181.878 441.752 181.598C442.166 181.319 442.515 180.954 442.776 180.528C443.055 180.048 443.228 179.513 443.284 178.961C443.34 178.408 443.277 177.85 443.1 177.324C442.832 176.477 442.333 175.721 441.66 175.14L441.012 175.248H440.808C441.597 175.783 442.188 176.563 442.488 177.468C442.637 177.907 442.69 178.373 442.644 178.834C442.599 179.296 442.456 179.742 442.224 180.144C442.004 180.492 441.713 180.79 441.37 181.017C441.026 181.245 440.639 181.397 440.232 181.464C439.261 181.58 438.28 181.352 437.46 180.819C436.639 180.286 436.032 179.483 435.744 178.548C435.495 177.785 435.533 176.957 435.852 176.22L435.144 176.4Z" fill="white"/>
<path opacity="0.4" d="M450 174.108C449.859 174.789 449.892 175.495 450.096 176.16C450.406 177.129 451.008 177.978 451.821 178.591C452.633 179.203 453.615 179.549 454.632 179.58C454.861 179.578 455.09 179.558 455.316 179.52C455.809 179.437 456.278 179.25 456.692 178.97C457.106 178.691 457.455 178.326 457.716 177.9C457.716 177.9 457.716 177.792 457.776 177.756C457.62 177.588 457.452 177.444 457.284 177.288C457.284 177.372 457.212 177.468 457.152 177.564C456.937 177.913 456.648 178.21 456.306 178.436C455.964 178.662 455.577 178.811 455.172 178.872C454.202 178.994 453.22 178.769 452.399 178.238C451.577 177.707 450.97 176.903 450.684 175.968C450.502 175.393 450.473 174.781 450.6 174.192C450.402 174.153 450.201 174.125 450 174.108Z" fill="white"/>
<path opacity="0.4" d="M402.912 201.372C403.064 201.811 403.119 202.277 403.073 202.739C403.028 203.201 402.883 203.647 402.648 204.048C402.611 204.102 402.571 204.154 402.528 204.204C402.588 204.48 402.648 204.744 402.696 205.02C402.89 204.83 403.059 204.616 403.2 204.384C403.482 203.905 403.658 203.371 403.716 202.818C403.774 202.266 403.712 201.707 403.536 201.18C403.212 200.219 402.6 199.381 401.784 198.78C401.784 199.056 401.784 199.344 401.784 199.632C402.296 200.112 402.683 200.709 402.912 201.372Z" fill="white"/>
<path opacity="0.4" d="M415.668 203.424C416.161 203.341 416.63 203.154 417.044 202.874C417.458 202.595 417.807 202.23 418.068 201.804C418.35 201.325 418.525 200.79 418.581 200.237C418.637 199.684 418.572 199.126 418.392 198.6C418.061 197.512 417.354 196.578 416.398 195.962C415.442 195.347 414.299 195.091 413.172 195.24C412.679 195.323 412.21 195.51 411.796 195.789C411.382 196.069 411.033 196.434 410.772 196.86C410.491 197.339 410.316 197.873 410.258 198.426C410.2 198.978 410.261 199.537 410.436 200.064C410.746 201.035 411.351 201.885 412.166 202.498C412.98 203.111 413.965 203.455 414.984 203.484C415.213 203.482 415.442 203.462 415.668 203.424ZM411.06 199.824C410.909 199.387 410.855 198.923 410.901 198.463C410.946 198.003 411.091 197.559 411.324 197.16C411.538 196.809 411.826 196.509 412.168 196.281C412.51 196.053 412.898 195.902 413.304 195.84C413.5 195.822 413.697 195.822 413.892 195.84C414.769 195.868 415.616 196.166 416.317 196.695C417.017 197.224 417.537 197.956 417.804 198.792C417.953 199.231 418.006 199.697 417.961 200.158C417.915 200.62 417.772 201.066 417.54 201.468C417.32 201.816 417.029 202.114 416.686 202.341C416.342 202.569 415.955 202.721 415.548 202.788C414.577 202.904 413.596 202.676 412.776 202.143C411.955 201.611 411.348 200.807 411.06 199.872V199.824Z" fill="white"/>
<path opacity="0.4" d="M432.984 199.2C433.26 198.719 433.432 198.185 433.488 197.632C433.543 197.08 433.482 196.523 433.308 195.996C432.977 194.908 432.27 193.974 431.314 193.358C430.358 192.743 429.215 192.487 428.088 192.636C427.595 192.719 427.126 192.906 426.712 193.185C426.298 193.465 425.949 193.83 425.688 194.256C425.412 194.737 425.24 195.271 425.185 195.823C425.129 196.375 425.19 196.933 425.364 197.46C425.674 198.428 426.277 199.275 427.09 199.886C427.902 200.496 428.884 200.839 429.9 200.868C430.128 200.886 430.356 200.886 430.584 200.868C431.081 200.78 431.553 200.585 431.967 200.297C432.381 200.009 432.728 199.635 432.984 199.2ZM426 197.292C425.848 196.853 425.793 196.387 425.839 195.925C425.885 195.463 426.03 195.016 426.264 194.616C426.48 194.267 426.769 193.969 427.111 193.741C427.452 193.513 427.839 193.361 428.244 193.296C428.44 193.284 428.636 193.284 428.832 193.296C429.709 193.327 430.554 193.628 431.252 194.159C431.951 194.69 432.468 195.424 432.732 196.26C432.883 196.697 432.937 197.161 432.892 197.621C432.846 198.081 432.702 198.525 432.468 198.924C432.256 199.276 431.968 199.577 431.626 199.805C431.283 200.033 430.895 200.183 430.488 200.244C429.512 200.363 428.524 200.132 427.702 199.591C426.88 199.051 426.277 198.236 426 197.292Z" fill="white"/>
<path opacity="0.4" d="M442.98 190.08C442.487 190.163 442.018 190.35 441.604 190.629C441.19 190.909 440.841 191.274 440.58 191.7C440.303 192.181 440.131 192.715 440.075 193.267C440.02 193.819 440.081 194.377 440.256 194.904C440.568 195.871 441.171 196.717 441.983 197.328C442.796 197.938 443.777 198.282 444.792 198.312C445.019 198.336 445.249 198.336 445.476 198.312C445.969 198.231 446.439 198.044 446.853 197.764C447.267 197.485 447.616 197.119 447.876 196.692C448.16 196.214 448.337 195.68 448.395 195.127C448.453 194.574 448.391 194.015 448.212 193.488C447.89 192.389 447.185 191.442 446.226 190.817C445.267 190.192 444.115 189.931 442.98 190.08ZM447.312 196.296C447.098 196.647 446.81 196.947 446.468 197.175C446.126 197.403 445.738 197.554 445.332 197.616C444.362 197.733 443.383 197.507 442.563 196.976C441.743 196.446 441.134 195.644 440.844 194.712C440.691 194.274 440.634 193.808 440.677 193.346C440.721 192.884 440.864 192.437 441.096 192.036C441.312 191.685 441.603 191.385 441.947 191.157C442.291 190.929 442.68 190.778 443.088 190.716C443.28 190.698 443.472 190.698 443.664 190.716C444.541 190.744 445.388 191.042 446.089 191.571C446.789 192.1 447.309 192.832 447.576 193.668C447.721 194.1 447.772 194.557 447.726 195.01C447.681 195.463 447.54 195.902 447.312 196.296Z" fill="white"/>
<path opacity="0.4" d="M457.968 188.136C458.164 188.119 458.36 188.119 458.556 188.136C459.126 188.15 459.687 188.282 460.203 188.524C460.719 188.765 461.18 189.111 461.556 189.54V188.604C461.056 188.178 460.471 187.862 459.84 187.678C459.21 187.494 458.547 187.446 457.896 187.536C457.403 187.619 456.934 187.806 456.52 188.085C456.106 188.365 455.757 188.73 455.496 189.156C455.215 189.635 455.04 190.169 454.982 190.722C454.924 191.274 454.985 191.833 455.16 192.36C455.472 193.33 456.077 194.18 456.891 194.792C457.705 195.404 458.689 195.749 459.708 195.78C459.937 195.778 460.166 195.758 460.392 195.72C460.979 195.617 461.532 195.369 462 195C462 194.724 462 194.46 461.94 194.184C461.499 194.661 460.912 194.977 460.272 195.084C459.301 195.2 458.32 194.972 457.499 194.439C456.679 193.907 456.072 193.103 455.784 192.168C455.633 191.731 455.579 191.267 455.624 190.807C455.67 190.347 455.815 189.903 456.048 189.504C456.252 189.152 456.528 188.848 456.86 188.612C457.191 188.376 457.569 188.213 457.968 188.136Z" fill="white"/>
<path opacity="0.4" d="M405.816 222.168C406.309 222.082 406.778 221.893 407.192 221.611C407.606 221.33 407.955 220.963 408.216 220.536C408.498 220.057 408.673 219.522 408.729 218.969C408.785 218.416 408.72 217.858 408.54 217.332C408.206 216.247 407.499 215.315 406.543 214.702C405.588 214.089 404.446 213.834 403.32 213.984H403.26V214.656H403.428C403.624 214.638 403.82 214.638 404.016 214.656C404.893 214.685 405.739 214.986 406.438 215.517C407.137 216.048 407.653 216.783 407.916 217.62C408.066 218.056 408.121 218.52 408.078 218.979C408.034 219.439 407.893 219.883 407.664 220.284C407.448 220.635 407.157 220.935 406.813 221.163C406.469 221.391 406.08 221.542 405.672 221.604C405.02 221.71 404.352 221.636 403.74 221.388L403.956 222.132C404.326 222.24 404.71 222.297 405.096 222.3C405.339 222.276 405.58 222.232 405.816 222.168Z" fill="white"/>
<path opacity="0.4" d="M418.248 211.404C417.756 211.487 417.286 211.674 416.872 211.953C416.458 212.233 416.109 212.598 415.848 213.024C415.571 213.505 415.399 214.039 415.343 214.591C415.288 215.143 415.349 215.701 415.524 216.228C415.838 217.179 416.435 218.011 417.235 218.613C418.035 219.216 419 219.56 420 219.6C420.229 219.598 420.458 219.578 420.684 219.54C421.177 219.459 421.647 219.272 422.061 218.992C422.476 218.713 422.824 218.347 423.084 217.92C423.368 217.442 423.545 216.908 423.603 216.355C423.661 215.802 423.599 215.243 423.42 214.716C423.081 213.646 422.378 212.73 421.433 212.124C420.488 211.519 419.361 211.264 418.248 211.404ZM422.844 215.004C422.996 215.443 423.051 215.909 423.005 216.371C422.96 216.833 422.815 217.279 422.58 217.68C422.363 218.028 422.074 218.325 421.732 218.553C421.391 218.781 421.005 218.933 420.6 219C419.631 219.117 418.651 218.891 417.831 218.36C417.011 217.83 416.403 217.028 416.112 216.096C415.962 215.658 415.906 215.192 415.95 214.731C415.993 214.269 416.135 213.823 416.364 213.42C416.581 213.069 416.871 212.768 417.215 212.541C417.559 212.313 417.948 212.162 418.356 212.1C418.548 212.082 418.741 212.082 418.932 212.1C419.796 212.12 420.633 212.403 421.332 212.911C422.031 213.419 422.559 214.128 422.844 214.944V215.004Z" fill="white"/>
<path opacity="0.4" d="M435.6 216.996C436.093 216.913 436.562 216.726 436.976 216.446C437.39 216.167 437.739 215.802 438 215.376C438.281 214.897 438.456 214.363 438.514 213.81C438.572 213.258 438.512 212.699 438.336 212.172C437.992 211.09 437.281 210.162 436.326 209.549C435.371 208.935 434.231 208.675 433.104 208.812C432.611 208.895 432.142 209.082 431.728 209.361C431.314 209.641 430.965 210.006 430.704 210.432C430.422 210.911 430.247 211.445 430.191 211.998C430.135 212.551 430.2 213.11 430.38 213.636C430.688 214.606 431.29 215.456 432.103 216.069C432.916 216.682 433.899 217.027 434.916 217.056C435.145 217.054 435.374 217.034 435.6 216.996ZM430.992 213.396C430.841 212.957 430.787 212.491 430.832 212.029C430.878 211.567 431.022 211.121 431.256 210.72C431.475 210.372 431.766 210.075 432.11 209.849C432.453 209.624 432.842 209.474 433.248 209.412C433.438 209.374 433.631 209.354 433.824 209.352C434.702 209.382 435.55 209.683 436.25 210.214C436.95 210.745 437.469 211.479 437.736 212.316C437.888 212.755 437.943 213.221 437.897 213.683C437.852 214.145 437.707 214.591 437.472 214.992C437.254 215.339 436.965 215.635 436.624 215.86C436.282 216.086 435.896 216.236 435.492 216.3C434.526 216.425 433.547 216.208 432.725 215.686C431.903 215.164 431.29 214.371 430.992 213.444V213.396Z" fill="white"/>
<path opacity="0.4" d="M445.596 207.852C445.315 208.331 445.14 208.865 445.082 209.418C445.024 209.97 445.085 210.529 445.26 211.056C445.573 212.025 446.178 212.873 446.992 213.483C447.807 214.093 448.791 214.436 449.808 214.464C450.032 214.482 450.256 214.482 450.48 214.464C450.973 214.381 451.442 214.194 451.856 213.914C452.27 213.635 452.619 213.27 452.88 212.844C453.156 212.361 453.328 211.824 453.384 211.27C453.44 210.716 453.379 210.157 453.204 209.628C452.871 208.543 452.163 207.611 451.207 206.998C450.252 206.385 449.11 206.13 447.984 206.28C447.498 206.359 447.033 206.539 446.622 206.81C446.21 207.081 445.861 207.436 445.596 207.852ZM448.716 206.82C449.594 206.847 450.441 207.148 451.14 207.679C451.839 208.21 452.355 208.946 452.616 209.784C452.767 210.211 452.825 210.664 452.788 211.115C452.751 211.566 452.619 212.004 452.4 212.4C452.184 212.751 451.893 213.051 451.549 213.279C451.205 213.507 450.816 213.658 450.408 213.72C449.438 213.842 448.456 213.618 447.635 213.086C446.814 212.555 446.206 211.751 445.92 210.816C445.768 210.377 445.713 209.911 445.759 209.449C445.805 208.987 445.95 208.541 446.184 208.14C446.402 207.792 446.691 207.494 447.032 207.267C447.373 207.039 447.759 206.887 448.164 206.82C448.348 206.804 448.532 206.804 448.716 206.82Z" fill="white"/>
<path opacity="0.4" d="M464.016 211.2C463.268 211.054 462.572 210.71 462.002 210.203C461.432 209.696 461.009 209.046 460.776 208.32C460.624 207.881 460.569 207.415 460.615 206.953C460.66 206.491 460.806 206.045 461.04 205.644C461.249 205.3 461.53 205.006 461.864 204.78C462.197 204.554 462.575 204.403 462.972 204.336C462.972 204.12 462.912 203.904 462.888 203.688C462.396 203.772 461.927 203.96 461.514 204.239C461.1 204.519 460.75 204.883 460.488 205.308C460.211 205.789 460.039 206.323 459.983 206.875C459.928 207.428 459.989 207.985 460.164 208.512C460.451 209.387 460.975 210.164 461.679 210.758C462.382 211.351 463.237 211.737 464.148 211.872C464.1 211.608 464.052 211.392 464.016 211.2Z" fill="white"/>
<path opacity="0.4" d="M413.628 233.496C413.371 232.711 412.923 232.003 412.324 231.435C411.725 230.868 410.993 230.458 410.196 230.244C410.196 230.46 410.196 230.688 410.196 230.916C410.847 231.124 411.438 231.484 411.922 231.966C412.406 232.448 412.769 233.038 412.98 233.688C413.149 234.126 413.221 234.595 413.189 235.064C413.158 235.532 413.025 235.988 412.8 236.4C412.415 237 411.813 237.43 411.12 237.6L411.228 238.248C412.109 238.031 412.87 237.48 413.352 236.712C413.625 236.227 413.791 235.689 413.838 235.134C413.886 234.579 413.814 234.021 413.628 233.496Z" fill="white"/>
<path opacity="0.4" d="M425.748 235.728C426.241 235.645 426.71 235.458 427.124 235.178C427.538 234.899 427.887 234.534 428.148 234.108C428.425 233.627 428.597 233.093 428.653 232.541C428.709 231.988 428.647 231.431 428.472 230.904C428.138 229.819 427.431 228.887 426.475 228.274C425.52 227.661 424.378 227.406 423.252 227.556C422.759 227.639 422.29 227.826 421.876 228.105C421.462 228.385 421.113 228.75 420.852 229.176C420.568 229.654 420.391 230.188 420.333 230.741C420.275 231.294 420.337 231.853 420.516 232.38C420.828 233.349 421.434 234.197 422.248 234.807C423.063 235.417 424.047 235.76 425.064 235.788C425.294 235.793 425.523 235.773 425.748 235.728ZM421.2 232.188C421.048 231.749 420.993 231.283 421.039 230.821C421.085 230.359 421.23 229.912 421.464 229.512C421.682 229.164 421.971 228.866 422.312 228.639C422.653 228.411 423.039 228.259 423.444 228.192C423.64 228.174 423.836 228.174 424.032 228.192C424.909 228.22 425.756 228.518 426.457 229.047C427.157 229.576 427.677 230.308 427.944 231.144C428.093 231.583 428.146 232.049 428.1 232.51C428.055 232.972 427.912 233.418 427.68 233.82C427.464 234.171 427.173 234.471 426.829 234.699C426.485 234.927 426.096 235.078 425.688 235.14C424.712 235.257 423.726 235.025 422.904 234.484C422.083 233.944 421.479 233.131 421.2 232.188Z" fill="white"/>
<path opacity="0.4" d="M439.956 233.208C440.185 233.206 440.414 233.186 440.64 233.148C441.133 233.065 441.602 232.878 442.016 232.598C442.43 232.319 442.779 231.954 443.04 231.528C443.316 231.047 443.488 230.512 443.544 229.96C443.599 229.408 443.538 228.851 443.364 228.324C443.033 227.236 442.326 226.302 441.37 225.686C440.414 225.071 439.271 224.815 438.144 224.964C437.651 225.049 437.182 225.239 436.768 225.521C436.354 225.802 436.005 226.169 435.744 226.596C435.462 227.075 435.287 227.609 435.231 228.162C435.175 228.715 435.24 229.274 435.42 229.8C435.732 230.767 436.335 231.613 437.147 232.224C437.96 232.834 438.941 233.178 439.956 233.208ZM436.356 226.932C436.569 226.58 436.856 226.279 437.199 226.051C437.541 225.823 437.929 225.673 438.336 225.612C438.532 225.594 438.729 225.594 438.924 225.612C439.8 225.64 440.645 225.939 441.343 226.468C442.042 226.997 442.559 227.729 442.824 228.564C442.976 229.003 443.031 229.469 442.985 229.931C442.94 230.393 442.795 230.839 442.56 231.24C442.344 231.589 442.055 231.887 441.714 232.115C441.372 232.343 440.985 232.494 440.58 232.56C439.609 232.676 438.628 232.448 437.808 231.915C436.987 231.382 436.38 230.579 436.092 229.644C435.927 229.204 435.861 228.733 435.898 228.264C435.935 227.795 436.075 227.34 436.308 226.932H436.356Z" fill="white"/>
<path opacity="0.4" d="M457.956 228.948C458.237 228.469 458.412 227.935 458.47 227.382C458.528 226.83 458.468 226.271 458.292 225.744C457.961 224.654 457.252 223.718 456.294 223.102C455.335 222.487 454.189 222.232 453.06 222.384C452.567 222.467 452.098 222.654 451.684 222.933C451.27 223.213 450.921 223.578 450.66 224.004C450.381 224.484 450.208 225.018 450.152 225.571C450.096 226.123 450.159 226.682 450.336 227.208C450.646 228.177 451.248 229.026 452.061 229.639C452.873 230.251 453.855 230.597 454.872 230.628C455.101 230.626 455.33 230.606 455.556 230.568C456.049 230.485 456.518 230.298 456.932 230.018C457.346 229.739 457.695 229.374 457.956 228.948ZM455.424 229.92C454.453 230.04 453.47 229.815 452.647 229.284C451.825 228.753 451.215 227.951 450.924 227.016C450.786 226.585 450.739 226.129 450.787 225.679C450.834 225.229 450.975 224.793 451.2 224.4C451.419 224.052 451.71 223.755 452.054 223.529C452.398 223.304 452.786 223.154 453.192 223.092C453.382 223.054 453.575 223.034 453.768 223.032C454.646 223.062 455.494 223.363 456.194 223.894C456.894 224.425 457.413 225.159 457.68 225.996C457.832 226.435 457.887 226.901 457.841 227.363C457.796 227.825 457.651 228.271 457.416 228.672C457.192 229.01 456.899 229.296 456.555 229.511C456.211 229.727 455.826 229.866 455.424 229.92Z" fill="white"/>
<path opacity="0.4" d="M467.34 227.316C467.268 227.004 467.184 226.692 467.112 226.368C466.508 225.858 466.059 225.189 465.816 224.436C465.665 223.999 465.61 223.535 465.655 223.075C465.701 222.615 465.846 222.17 466.08 221.772L465.9 220.944C465.76 221.091 465.636 221.252 465.528 221.424C465.246 221.903 465.071 222.437 465.013 222.99C464.955 223.542 465.016 224.101 465.192 224.628C465.563 225.752 466.325 226.706 467.34 227.316Z" fill="white"/>
<path opacity="0.4" d="M415.908 254.472C416.401 254.389 416.87 254.202 417.284 253.922C417.698 253.643 418.047 253.278 418.308 252.852C418.584 252.371 418.756 251.836 418.812 251.284C418.867 250.732 418.806 250.175 418.632 249.648C418.301 248.56 417.594 247.626 416.638 247.01C415.682 246.395 414.539 246.139 413.412 246.288C413.221 246.327 413.032 246.379 412.848 246.444L412.992 247.08C413.163 247.014 413.34 246.965 413.52 246.936C413.716 246.918 413.913 246.918 414.108 246.936C414.984 246.964 415.829 247.263 416.527 247.792C417.226 248.321 417.743 249.053 418.008 249.888C418.16 250.327 418.215 250.793 418.169 251.255C418.124 251.717 417.979 252.163 417.744 252.564C417.528 252.913 417.239 253.211 416.897 253.439C416.556 253.667 416.169 253.818 415.764 253.884C415.406 253.938 415.042 253.938 414.684 253.884L414.864 254.544H415.188C415.43 254.54 415.671 254.516 415.908 254.472Z" fill="white"/>
<path opacity="0.4" d="M425.904 245.328C425.628 245.809 425.456 246.343 425.401 246.895C425.345 247.447 425.406 248.005 425.58 248.532C425.89 249.501 426.492 250.35 427.305 250.963C428.117 251.575 429.099 251.921 430.116 251.952C430.345 251.95 430.574 251.93 430.8 251.892C431.293 251.811 431.763 251.624 432.177 251.344C432.591 251.065 432.94 250.699 433.2 250.272C433.481 249.793 433.656 249.259 433.714 248.706C433.772 248.154 433.712 247.595 433.536 247.068C433.194 245.987 432.486 245.059 431.532 244.446C430.579 243.832 429.441 243.571 428.316 243.708C427.821 243.789 427.35 243.976 426.934 244.255C426.517 244.535 426.166 244.901 425.904 245.328ZM429.024 244.296C429.902 244.326 430.75 244.627 431.45 245.158C432.15 245.689 432.669 246.423 432.936 247.26C433.087 247.697 433.141 248.161 433.096 248.621C433.05 249.081 432.906 249.525 432.672 249.924C432.458 250.275 432.17 250.575 431.828 250.803C431.486 251.031 431.098 251.182 430.692 251.244C429.721 251.364 428.738 251.139 427.915 250.608C427.093 250.078 426.483 249.275 426.192 248.34C426.043 247.901 425.99 247.435 426.036 246.973C426.081 246.512 426.225 246.066 426.456 245.664C426.676 245.316 426.967 245.018 427.311 244.791C427.654 244.563 428.042 244.411 428.448 244.344C428.639 244.316 428.831 244.3 429.024 244.296Z" fill="white"/>
<path opacity="0.4" d="M445.008 249.36C445.238 249.364 445.467 249.344 445.692 249.3C446.185 249.217 446.654 249.03 447.068 248.75C447.482 248.471 447.831 248.106 448.092 247.68C448.374 247.201 448.55 246.667 448.607 246.114C448.665 245.562 448.604 245.003 448.428 244.476C448.084 243.395 447.372 242.468 446.417 241.857C445.461 241.246 444.322 240.988 443.196 241.128C442.703 241.211 442.234 241.398 441.82 241.677C441.406 241.957 441.057 242.322 440.796 242.748C440.514 243.227 440.339 243.761 440.281 244.313C440.223 244.866 440.284 245.425 440.46 245.952C440.776 246.919 441.382 247.765 442.195 248.375C443.009 248.985 443.991 249.329 445.008 249.36ZM441.408 243.084C441.623 242.734 441.912 242.435 442.253 242.207C442.595 241.979 442.982 241.828 443.388 241.764C443.584 241.747 443.78 241.747 443.976 241.764C444.853 241.792 445.7 242.09 446.401 242.619C447.101 243.147 447.621 243.88 447.888 244.716C448.04 245.155 448.095 245.621 448.049 246.083C448.004 246.545 447.859 246.991 447.624 247.392C447.409 247.742 447.121 248.041 446.779 248.269C446.437 248.497 446.05 248.648 445.644 248.712C444.673 248.83 443.691 248.604 442.869 248.073C442.047 247.543 441.437 246.741 441.144 245.808C440.976 245.367 440.907 244.894 440.942 244.423C440.978 243.952 441.116 243.495 441.348 243.084H441.408Z" fill="white"/>
<path opacity="0.4" d="M459.888 246.78C460.117 246.778 460.346 246.758 460.572 246.72C461.065 246.637 461.534 246.45 461.948 246.17C462.362 245.891 462.711 245.526 462.972 245.1C463.254 244.621 463.429 244.086 463.485 243.533C463.541 242.98 463.476 242.422 463.296 241.896C462.965 240.808 462.258 239.874 461.302 239.258C460.346 238.643 459.203 238.387 458.076 238.536C457.583 238.617 457.113 238.804 456.699 239.083C456.285 239.363 455.936 239.729 455.676 240.156C455.395 240.635 455.22 241.169 455.162 241.722C455.104 242.274 455.165 242.833 455.34 243.36C455.65 244.331 456.255 245.181 457.069 245.794C457.884 246.407 458.869 246.751 459.888 246.78ZM456.288 240.504C456.502 240.153 456.79 239.853 457.132 239.625C457.474 239.397 457.862 239.246 458.268 239.184C458.464 239.166 458.66 239.166 458.856 239.184C459.732 239.212 460.577 239.511 461.275 240.04C461.974 240.569 462.491 241.301 462.756 242.136C462.91 242.574 462.966 243.04 462.923 243.502C462.879 243.963 462.737 244.41 462.504 244.812C462.284 245.16 461.993 245.458 461.649 245.685C461.306 245.913 460.918 246.065 460.512 246.132C459.541 246.248 458.56 246.02 457.74 245.487C456.919 244.955 456.312 244.151 456.024 243.216C455.859 242.776 455.793 242.305 455.83 241.836C455.867 241.367 456.007 240.912 456.24 240.504H456.288Z" fill="white"/>
<path opacity="0.4" d="M470.196 238.512C469.98 239.253 469.98 240.039 470.196 240.78C470.405 241.441 470.757 242.047 471.228 242.556C470.94 241.272 470.568 239.928 470.196 238.512Z" fill="white"/>
<path opacity="0.4" d="M418.488 262.452C418.062 262.529 417.654 262.688 417.288 262.92C417.348 263.124 417.408 263.352 417.48 263.556C417.838 263.308 418.249 263.148 418.68 263.088C418.872 263.07 419.065 263.07 419.256 263.088C420.133 263.116 420.98 263.414 421.681 263.943C422.381 264.472 422.901 265.204 423.168 266.04C423.366 266.685 423.366 267.375 423.168 268.02H423.816C424.013 267.305 424.013 266.551 423.816 265.836C423.487 264.723 422.766 263.767 421.787 263.145C420.807 262.523 419.635 262.277 418.488 262.452Z" fill="white"/>
<path opacity="0.4" d="M437.508 266.4L438.384 266.22C438.614 265.767 438.751 265.272 438.788 264.766C438.825 264.259 438.761 263.75 438.6 263.268C438.269 262.18 437.562 261.246 436.606 260.63C435.65 260.015 434.507 259.759 433.38 259.908C432.887 259.991 432.418 260.178 432.004 260.457C431.59 260.737 431.241 261.102 430.98 261.528C430.699 262.007 430.524 262.541 430.466 263.094C430.408 263.646 430.469 264.205 430.644 264.732C430.983 265.763 431.649 266.656 432.54 267.276L433.548 267.12C433.011 266.87 432.531 266.512 432.139 266.068C431.747 265.624 431.45 265.104 431.268 264.54C431.117 264.101 431.063 263.635 431.108 263.173C431.154 262.711 431.298 262.265 431.532 261.864C431.748 261.516 432.037 261.219 432.379 260.994C432.721 260.768 433.107 260.618 433.512 260.556C433.708 260.538 433.905 260.538 434.1 260.556C434.977 260.584 435.824 260.882 436.525 261.411C437.225 261.939 437.745 262.672 438.012 263.508C438.161 263.947 438.214 264.413 438.168 264.874C438.123 265.336 437.98 265.782 437.748 266.184C437.673 266.261 437.593 266.334 437.508 266.4Z" fill="white"/>
<path opacity="0.4" d="M453.672 262.104C453.701 261.605 453.64 261.105 453.492 260.628C453.158 259.543 452.451 258.611 451.495 257.998C450.54 257.385 449.398 257.13 448.272 257.28C447.779 257.363 447.31 257.55 446.896 257.829C446.482 258.109 446.133 258.474 445.872 258.9C445.596 259.381 445.424 259.915 445.369 260.467C445.313 261.019 445.374 261.577 445.548 262.104C445.802 262.885 446.247 263.591 446.844 264.156L447.6 264C446.93 263.478 446.433 262.768 446.172 261.96C446.002 261.512 445.934 261.032 445.974 260.554C446.013 260.077 446.159 259.614 446.4 259.2C446.616 258.851 446.905 258.553 447.247 258.325C447.588 258.097 447.975 257.945 448.38 257.88C448.572 257.868 448.764 257.868 448.956 257.88C449.835 257.908 450.683 258.209 451.383 258.74C452.084 259.271 452.603 260.006 452.868 260.844C453.021 261.32 453.07 261.823 453.012 262.32L453.672 262.104Z" fill="white"/>
<path opacity="0.4" d="M463.2 254.7C462.707 254.783 462.238 254.97 461.824 255.249C461.41 255.529 461.061 255.894 460.8 256.32C460.523 256.801 460.351 257.335 460.295 257.887C460.24 258.439 460.301 258.997 460.476 259.524C460.495 259.586 460.519 259.646 460.548 259.704L461.16 259.476L461.088 259.332C460.936 258.893 460.881 258.427 460.927 257.965C460.972 257.503 461.118 257.056 461.352 256.656C461.568 256.305 461.859 256.004 462.203 255.777C462.547 255.549 462.936 255.398 463.344 255.336C463.536 255.318 463.728 255.318 463.92 255.336C464.559 255.354 465.185 255.518 465.751 255.815C466.317 256.113 466.807 256.536 467.184 257.052L467.784 256.788C467.288 256.049 466.597 255.463 465.788 255.094C464.978 254.726 464.083 254.589 463.2 254.7Z" fill="white"/>
</g>
<path d="M465.252 184.5C466.236 185.184 466.98 185.7 467.82 186.324C468.66 186.948 469.416 187.524 470.22 188.136C471.792 189.336 473.304 190.656 474.804 191.964C477.84 194.634 480.702 197.496 483.372 200.532C484.716 202.08 486.036 203.7 487.296 205.404C488.575 207.166 489.757 208.997 490.836 210.888C493.365 215.13 494.923 219.88 495.396 224.796V225.3C495.45 225.949 495.394 226.602 495.228 227.232C494.403 230.224 493.193 233.096 491.628 235.776C490.256 238.184 488.712 240.49 487.008 242.676C485.371 244.782 483.629 246.805 481.788 248.736C479.956 250.664 478.013 252.483 475.968 254.184C475.175 254.829 474.185 255.183 473.163 255.186C472.141 255.189 471.149 254.841 470.352 254.201C469.556 253.56 469.003 252.666 468.787 251.667C468.571 250.668 468.704 249.625 469.164 248.712L469.26 248.532L472.56 242.1C473.64 239.952 474.696 237.828 475.644 235.704C476.592 233.58 477.48 231.48 478.2 229.464C478.869 227.678 479.336 225.822 479.592 223.932L479.46 226.332C478.862 223.919 477.824 221.637 476.4 219.6C474.608 217.008 472.601 214.571 470.4 212.316C468.108 209.916 465.6 207.612 463.044 205.392C461.76 204.264 460.428 203.184 459.108 202.092L457.104 200.508C456.456 199.992 455.712 199.428 455.196 199.044L455.004 198.9C453.207 197.494 452.021 195.449 451.695 193.19C451.369 190.932 451.927 188.634 453.253 186.777C454.579 184.92 456.571 183.647 458.813 183.222C461.056 182.798 463.375 183.256 465.288 184.5H465.252Z" fill="#7F3E3B"/>
<path d="M432.444 180.804C434.784 189.78 455.736 202.884 455.736 202.884C455.736 202.884 472.908 196.884 474.084 188.544C472.212 185.676 466.188 177.624 457.884 175.032C450.48 172.716 439.2 172.98 432.444 180.804Z" fill="#263238"/>
<g opacity="0.4">
<path opacity="0.4" d="M432.6 180.636C432.937 180.392 433.321 180.22 433.728 180.132C433.972 180.074 434.222 180.046 434.472 180.048C435.321 180.071 436.143 180.347 436.834 180.841C437.525 181.335 438.052 182.024 438.348 182.82C438.522 183.249 438.6 183.71 438.578 184.173C438.555 184.635 438.431 185.086 438.216 185.496C438.018 185.857 437.743 186.171 437.412 186.415C437.08 186.66 436.7 186.829 436.296 186.912H436.104L436.584 187.476C437.048 187.359 437.483 187.149 437.863 186.858C438.242 186.567 438.558 186.201 438.792 185.784C439.049 185.291 439.197 184.749 439.226 184.194C439.255 183.639 439.164 183.085 438.96 182.568C438.58 181.518 437.847 180.634 436.885 180.066C435.924 179.499 434.795 179.285 433.692 179.46C433.32 179.844 432.96 180.228 432.6 180.636Z" fill="white"/>
<path opacity="0.4" d="M448.332 176.208C447.84 176.308 447.375 176.514 446.971 176.813C446.567 177.111 446.233 177.495 445.992 177.936C445.734 178.428 445.584 178.97 445.553 179.524C445.522 180.079 445.611 180.634 445.812 181.152C446.158 182.073 446.771 182.87 447.573 183.441C448.375 184.012 449.328 184.33 450.312 184.356C450.607 184.354 450.9 184.321 451.188 184.26C451.689 184.157 452.162 183.948 452.576 183.648C452.989 183.348 453.335 182.964 453.588 182.52C453.844 182.027 453.992 181.485 454.021 180.93C454.05 180.375 453.959 179.821 453.756 179.304C453.37 178.226 452.611 177.321 451.617 176.753C450.622 176.185 449.457 175.992 448.332 176.208ZM453.132 179.532C453.305 179.961 453.383 180.422 453.36 180.884C453.338 181.346 453.215 181.798 453 182.208C452.8 182.567 452.525 182.88 452.194 183.124C451.862 183.368 451.483 183.539 451.08 183.624C450.117 183.787 449.128 183.607 448.284 183.116C447.44 182.625 446.794 181.853 446.46 180.936C446.287 180.505 446.209 180.041 446.231 179.577C446.254 179.113 446.377 178.66 446.592 178.248C446.792 177.888 447.067 177.576 447.399 177.332C447.73 177.087 448.11 176.917 448.512 176.832C448.757 176.784 449.006 176.76 449.256 176.76C450.099 176.787 450.916 177.065 451.6 177.559C452.284 178.053 452.805 178.74 453.096 179.532H453.132Z" fill="white"/>
<path opacity="0.4" d="M460.56 177.864C460.907 178.784 461.52 179.579 462.322 180.148C463.124 180.717 464.077 181.033 465.06 181.056C465.355 181.06 465.649 181.028 465.936 180.96C466.361 180.87 466.767 180.708 467.136 180.48L466.608 180.036C466.365 180.164 466.107 180.26 465.84 180.324C464.877 180.489 463.887 180.31 463.042 179.819C462.197 179.328 461.552 178.555 461.22 177.636C461.058 177.198 460.981 176.734 460.992 176.268L460.38 175.992C460.299 176.622 460.36 177.261 460.56 177.864Z" fill="white"/>
<path opacity="0.4" d="M454.152 192.096C453.649 192.191 453.172 192.397 452.758 192.698C452.343 192.998 451.999 193.387 451.752 193.836C451.491 194.327 451.34 194.869 451.309 195.424C451.278 195.979 451.367 196.535 451.572 197.052C451.92 197.971 452.534 198.765 453.335 199.334C454.137 199.903 455.09 200.219 456.072 200.244C456.367 200.248 456.661 200.216 456.948 200.148C457.45 200.053 457.925 199.849 458.34 199.551C458.755 199.252 459.099 198.866 459.348 198.42C459.603 197.927 459.751 197.385 459.782 196.831C459.813 196.277 459.727 195.722 459.528 195.204C459.145 194.133 458.395 193.233 457.41 192.664C456.426 192.094 455.271 191.893 454.152 192.096ZM458.952 195.42C459.121 195.852 459.195 196.316 459.17 196.779C459.145 197.243 459.022 197.696 458.808 198.108C458.612 198.469 458.338 198.783 458.006 199.025C457.674 199.268 457.292 199.434 456.888 199.512C455.925 199.675 454.936 199.495 454.092 199.004C453.248 198.513 452.602 197.741 452.268 196.824C452.094 196.395 452.016 195.934 452.039 195.471C452.061 195.009 452.185 194.558 452.4 194.148C452.6 193.788 452.875 193.476 453.207 193.232C453.538 192.988 453.917 192.817 454.32 192.732C454.568 192.674 454.822 192.646 455.076 192.648C455.918 192.68 456.732 192.96 457.415 193.453C458.099 193.946 458.621 194.631 458.916 195.42H458.952Z" fill="white"/>
<path opacity="0.4" d="M468.9 188.808C468.397 188.901 467.922 189.105 467.507 189.403C467.092 189.702 466.748 190.089 466.5 190.536C466.239 191.027 466.088 191.569 466.057 192.124C466.025 192.679 466.115 193.235 466.32 193.752C466.715 194.785 467.441 195.658 468.384 196.236L468.936 195.804C468.014 195.317 467.302 194.511 466.932 193.536C466.759 193.105 466.681 192.641 466.703 192.177C466.726 191.713 466.849 191.26 467.064 190.848C467.263 190.489 467.538 190.177 467.869 189.935C468.201 189.692 468.581 189.525 468.984 189.444C469.232 189.386 469.486 189.358 469.74 189.36C470.404 189.379 471.054 189.554 471.637 189.871C472.221 190.188 472.722 190.638 473.1 191.184C473.22 190.98 473.328 190.764 473.436 190.536C472.902 189.871 472.2 189.36 471.403 189.056C470.605 188.753 469.741 188.667 468.9 188.808Z" fill="white"/>
</g>
<path d="M421.596 193.2C421.596 193.2 432.108 186.216 438.528 191.148C449.796 175.68 443.796 171.42 441.06 175.152C430.968 179.124 421.596 193.2 421.596 193.2Z" fill="white"/>
<path d="M421.596 193.2C421.596 193.2 415.428 190.02 413.484 192.816C412.56 183.372 416.664 179.484 418.488 180.756C417.804 183.36 421.596 193.2 421.596 193.2Z" fill="white"/>
<path d="M435.744 150.492C435.744 157.932 436.812 169.788 441.06 175.2C435.37 182.009 428.828 188.058 421.596 193.2C417.168 185.328 418.488 180.756 418.488 180.756C423.672 178.116 422.904 171.216 421.62 166.008L435.744 150.492Z" fill="#7F3E3B"/>
<path opacity="0.2" d="M421.62 166.056L429.6 157.2C430.051 158.65 430.113 160.194 429.78 161.676C428.686 165.96 426.115 169.721 422.52 172.296C422.437 170.19 422.135 168.099 421.62 166.056Z" fill="black"/>
<path d="M437.172 136.524C437.172 148.596 437.496 153.696 431.928 160.26C423.528 170.124 409.008 167.46 405.432 155.676C402.204 145.032 402.66 127.08 413.892 121.548C425.124 116.016 437.112 124.44 437.172 136.524Z" fill="#7F3E3B"/>
<path d="M429.24 123.264C421.776 130.128 429.768 140.4 435.84 142.272C441.912 144.144 443.532 117.192 429.24 123.264Z" fill="#263238"/>
<path d="M434.4 123.096C431.196 130.596 402.66 126.6 401.676 137.004C399.972 121.5 422.172 111.804 434.4 123.096Z" fill="#263238"/>
<path d="M420.3 141.6C420.36 142.584 419.892 143.412 419.256 143.448C418.62 143.484 418.056 142.728 417.984 141.744C417.912 140.76 418.392 139.944 419.028 139.908C419.664 139.872 420.24 140.628 420.3 141.6Z" fill="#263238"/>
<path d="M408.264 142.56C408.336 143.544 407.868 144.372 407.22 144.408C406.572 144.444 406.02 143.688 405.948 142.704C405.876 141.72 406.356 140.904 406.992 140.856C407.628 140.808 408.204 141.6 408.264 142.56Z" fill="#263238"/>
<path d="M407.28 140.892L404.88 140.376C404.88 140.376 406.212 142.128 407.28 140.892Z" fill="#263238"/>
<path d="M411.264 142.644C410.535 144.932 409.493 147.109 408.168 149.112C408.691 149.438 409.279 149.645 409.89 149.72C410.502 149.794 411.122 149.734 411.708 149.544L411.264 142.644Z" fill="#630F0F"/>
<path d="M417.6 152.796C417.066 152.934 416.519 153.018 415.968 153.048C415.894 153.051 415.821 153.026 415.765 152.976C415.709 152.927 415.674 152.858 415.668 152.784C415.665 152.746 415.669 152.708 415.681 152.672C415.692 152.636 415.711 152.602 415.735 152.573C415.76 152.544 415.79 152.52 415.823 152.503C415.857 152.485 415.894 152.475 415.932 152.472C417.153 152.42 418.344 152.081 419.41 151.483C420.475 150.884 421.384 150.043 422.064 149.028C422.104 148.963 422.167 148.916 422.241 148.896C422.314 148.876 422.393 148.884 422.46 148.92C422.525 148.96 422.572 149.023 422.592 149.097C422.612 149.17 422.604 149.249 422.568 149.316C421.429 151.079 419.646 152.328 417.6 152.796Z" fill="#263238"/>
<path d="M440.808 146.808C440.293 147.989 439.534 149.047 438.58 149.914C437.627 150.78 436.501 151.436 435.276 151.836C432.132 152.736 430.548 149.304 431.4 145.836C432.18 142.68 434.736 138.408 437.892 139.068C441.048 139.728 442.236 143.7 440.808 146.808Z" fill="#7F3E3B"/>
<path d="M422.148 134.928C422.069 134.927 421.991 134.908 421.921 134.872C421.85 134.837 421.788 134.786 421.74 134.724C421.287 134.16 420.708 133.709 420.049 133.409C419.391 133.109 418.671 132.968 417.948 132.996C417.869 133.005 417.79 132.998 417.713 132.975C417.637 132.953 417.566 132.916 417.504 132.867C417.443 132.817 417.391 132.756 417.353 132.686C417.315 132.617 417.291 132.541 417.282 132.462C417.273 132.383 417.28 132.303 417.302 132.227C417.325 132.151 417.362 132.08 417.411 132.018C417.461 131.956 417.522 131.905 417.592 131.867C417.661 131.829 417.737 131.805 417.816 131.796C418.729 131.743 419.64 131.909 420.476 132.281C421.311 132.652 422.045 133.218 422.616 133.932C422.712 134.049 422.758 134.198 422.744 134.349C422.731 134.499 422.659 134.638 422.544 134.736C422.443 134.85 422.3 134.919 422.148 134.928Z" fill="#263238"/>
<path d="M402.276 136.56C402.13 136.575 401.983 136.532 401.868 136.44C401.809 136.392 401.759 136.333 401.723 136.266C401.686 136.199 401.663 136.125 401.655 136.049C401.648 135.974 401.655 135.897 401.677 135.824C401.699 135.751 401.735 135.683 401.784 135.624C402.347 134.895 403.077 134.313 403.912 133.926C404.748 133.54 405.664 133.361 406.584 133.404C406.743 133.42 406.889 133.498 406.991 133.622C407.092 133.746 407.14 133.905 407.124 134.064C407.108 134.223 407.03 134.369 406.906 134.471C406.782 134.572 406.623 134.62 406.464 134.604C405.74 134.585 405.022 134.738 404.369 135.051C403.716 135.364 403.147 135.828 402.708 136.404C402.651 136.459 402.583 136.501 402.509 136.528C402.434 136.555 402.355 136.566 402.276 136.56Z" fill="#263238"/>
<path d="M419.316 139.956L416.916 139.428C416.916 139.428 418.248 141.18 419.316 139.956Z" fill="#263238"/>
<path d="M470.736 246.804L467.244 250.956C466.09 252.331 465.32 253.987 465.012 255.756L464.688 257.616C464.532 258.497 464.686 259.406 465.123 260.186C465.561 260.967 466.255 261.573 467.088 261.9L471.444 263.604C472.396 263.971 473.455 263.949 474.391 263.543C475.327 263.136 476.066 262.378 476.448 261.432L477.216 259.5C477.216 259.5 481.08 252.468 480.168 246.3L478.488 245.772C477.204 245.331 475.836 245.194 474.49 245.374C473.145 245.553 471.86 246.042 470.736 246.804Z" fill="#7F3E3B"/>
</svg>
