<svg width="143" height="143" viewBox="0 0 143 143" fill="none" xmlns="http://www.w3.org/2000/svg">
<g clip-path="url(#clip0)">
<path d="M142.998 71.5C143.009 80.6851 141.245 89.7858 137.804 98.3019C137.796 98.321 137.79 98.3379 137.781 98.3569V98.359C135.468 104.061 132.425 109.44 128.729 114.36C128.016 115.312 127.281 116.244 126.523 117.156C126.246 117.491 125.965 117.823 125.683 118.151C124.234 119.832 122.71 121.444 121.11 122.984C120.737 123.344 120.361 123.699 119.98 124.05C119.891 124.133 119.802 124.213 119.714 124.296C117.85 125.999 115.898 127.601 113.865 129.098C112.5 130.107 111.1 131.065 109.663 131.973C109.348 132.173 109.031 132.371 108.711 132.565C108.157 132.903 107.598 133.234 107.034 133.557C106.298 133.98 105.552 134.39 104.798 134.786C104.493 134.949 104.187 135.105 103.88 135.262C103.431 135.492 102.981 135.715 102.526 135.933C102.448 135.971 102.37 136.009 102.291 136.045C101.995 136.188 101.695 136.328 101.394 136.468C97.4823 138.272 93.4137 139.716 89.2394 140.781C89.2161 140.787 89.1949 140.792 89.1717 140.798C88.8988 140.868 88.6238 140.935 88.3488 141.001C88.1436 141.052 87.9363 141.1 87.729 141.147C87.7034 141.155 87.6772 141.162 87.6507 141.166C87.2255 141.265 86.8003 141.361 86.3709 141.447C86.1297 141.498 85.8886 141.549 85.6474 141.598C85.5015 141.629 85.3534 141.657 85.2074 141.684C85.0234 141.72 84.8415 141.754 84.6574 141.79C84.5559 141.811 84.4544 141.828 84.3507 141.845C84.118 141.887 83.8853 141.93 83.6547 141.97C83.2613 142.038 82.8636 142.103 82.468 142.162C82.1803 142.207 81.8947 142.249 81.607 142.289C81.2686 142.338 80.9301 142.382 80.5896 142.425C80.4965 142.439 80.4034 142.45 80.3103 142.461C80.1898 142.475 80.0692 142.49 79.9486 142.505C79.7053 142.535 79.4621 142.562 79.2167 142.587C79.0897 142.602 78.9649 142.615 78.838 142.628C78.5969 142.653 78.3557 142.676 78.1146 142.698C77.8036 142.727 77.4926 142.753 77.1796 142.778C76.7988 142.808 76.4201 142.835 76.0373 142.858C75.7919 142.873 75.5465 142.888 75.299 142.901C74.6686 142.934 74.0382 142.958 73.4036 142.975C73.0884 142.983 72.7711 142.989 72.4538 142.994H72.4474C72.1322 142.998 71.8149 143 71.4976 143C68.282 143.001 65.07 142.787 61.8832 142.357C59.5457 142.044 57.2456 141.619 54.9828 141.083C54.8919 141.062 54.8009 141.041 54.7121 141.018C54.4836 140.965 54.2573 140.908 54.0309 140.851C53.8299 140.8 53.6311 140.747 53.4301 140.694C48.2509 139.346 43.2408 137.417 38.4955 134.942C38.4723 134.93 38.4469 134.917 38.4236 134.904C38.2861 134.833 38.1507 134.763 38.0153 134.689C37.7171 134.532 37.4202 134.373 37.1248 134.211C35.443 133.286 33.8043 132.298 32.2086 131.245C31.7982 130.976 31.3921 130.703 30.9901 130.426C30.8611 130.337 30.7342 130.248 30.6073 130.16C30.474 130.067 30.3407 129.973 30.2096 129.88C29.8605 129.633 29.5136 129.383 29.1688 129.129C27.7409 128.08 26.3553 126.979 25.0121 125.827C20.2509 121.75 16.0436 117.067 12.4975 111.897C11.26 110.095 10.105 108.235 9.03246 106.317C3.08887 95.6767 -0.0221192 83.6879 -0.00234775 71.5C-0.00234775 32.0121 32.0098 0 71.4976 0C110.986 0 142.998 32.0121 142.998 71.5Z" fill="#2D9CDB"/>
<path opacity="0.2" d="M82.9971 141.018C83.2255 140.965 83.4519 140.908 83.6782 140.851C83.8792 140.8 84.078 140.747 84.279 140.694C84.2896 140.273 84.3044 139.81 84.3192 139.309C84.444 135.382 84.738 129.062 85.4319 121.446C85.47 121.038 85.508 120.627 85.5461 120.213C85.7936 117.632 86.0834 114.918 86.4304 112.105C86.4409 112.012 86.4536 111.921 86.4642 111.828C86.7455 109.547 87.065 107.206 87.4246 104.819C87.6763 103.15 87.9485 101.463 88.2411 99.7573C88.2623 99.6388 88.2834 99.5183 88.3046 99.3998C88.3892 98.9069 88.4759 98.4162 88.5648 97.9212C88.8123 96.544 89.0767 95.1585 89.3538 93.7729C90.329 88.899 91.4904 83.9956 92.8759 79.2254C94.2834 74.2783 96.0169 69.4298 98.065 64.7117C99.6535 61.0466 101.546 57.5206 103.722 54.1708C103.753 54.1221 103.785 54.0756 103.817 54.0269C106.598 49.8363 109.778 46.2804 113.408 43.6213L112.655 42.5933C109.177 45.1423 105.987 48.534 103.085 52.7683C103.07 52.7894 103.057 52.8085 103.042 52.8296C100.86 56.066 98.955 59.4811 97.3479 63.0385C95.1959 67.7968 93.3806 72.7003 91.9156 77.7129C90.5279 82.371 89.2833 87.4176 88.1819 92.8527C87.7948 94.7671 87.4253 96.7288 87.0734 98.7377C87.0142 99.0804 86.955 99.4231 86.8957 99.7679C86.8957 99.7721 86.8936 99.7785 86.8936 99.7827C86.8027 100.312 86.7159 100.84 86.6271 101.376C86.4071 102.723 86.1998 104.06 86.0052 105.386C85.7048 107.43 85.4333 109.438 85.1907 111.411C85.1104 112.062 85.0328 112.709 84.958 113.351C84.8523 114.256 84.7521 115.15 84.6577 116.031C84.5244 117.258 84.4024 118.459 84.2917 119.633L84.26 119.957C84.243 120.143 84.2261 120.329 84.2092 120.513C83.3503 129.777 83.0817 137.259 82.9971 141.018Z" fill="black"/>
<path opacity="0.2" d="M99.2134 134.942C99.2366 134.93 99.262 134.917 99.2853 134.904C99.7211 134.678 100.153 134.447 100.584 134.211C100.726 132.522 100.916 130.667 101.166 128.717C101.219 128.315 101.272 127.907 101.331 127.496C101.36 127.276 101.392 127.054 101.424 126.83C101.674 125.112 101.97 123.34 102.325 121.558C103.77 114.29 106.169 106.861 110.152 102.275C110.366 102.027 110.584 101.79 110.81 101.56C111.371 100.977 111.98 100.442 112.631 99.9625L111.878 98.9366C110.969 99.6088 110.133 100.374 109.382 101.219C109.118 101.513 108.86 101.819 108.608 102.137C104.942 106.751 102.653 113.581 101.227 120.344C100.855 122.108 100.542 123.871 100.275 125.586C100.208 126.035 100.143 126.479 100.081 126.919C99.6682 129.825 99.3953 132.571 99.2134 134.942Z" fill="black"/>
<path opacity="0.2" d="M120.521 43.5918C124.037 43.5918 126.886 40.7421 126.886 37.2269C126.886 33.7116 124.037 30.862 120.521 30.862C117.006 30.862 114.156 33.7116 114.156 37.2269C114.156 40.7421 117.006 43.5918 120.521 43.5918Z" fill="black"/>
<path opacity="0.2" d="M118.472 98.3822C121.987 98.3822 124.836 95.5326 124.836 92.0173C124.836 88.5021 121.987 85.6525 118.472 85.6525C114.956 85.6525 112.107 88.5021 112.107 92.0173C112.107 95.5326 114.956 98.3822 118.472 98.3822Z" fill="black"/>
<path opacity="0.2" d="M95.2526 47.918C96.6024 55.5328 93.6228 62.4279 93.6228 62.4279C93.6228 62.4279 88.455 56.9769 87.1053 49.3621C85.7555 41.7473 88.7351 34.8522 88.7351 34.8522C88.7351 34.8522 93.9029 40.3032 95.2526 47.918Z" fill="black"/>
<path opacity="0.2" d="M116.406 65.9939C109.142 68.6498 101.844 66.9454 101.844 66.9454C101.844 66.9454 106.321 60.935 113.585 58.2791C120.848 55.6232 128.146 57.3276 128.146 57.3276C128.146 57.3276 123.669 63.338 116.406 65.9939Z" fill="black"/>
<path opacity="0.2" d="M117.638 114.513C112.547 116.374 107.424 115.16 107.424 115.16C107.424 115.16 110.555 110.927 115.646 109.066C120.737 107.204 125.86 108.419 125.86 108.419C125.86 108.419 122.728 112.651 117.638 114.513Z" fill="black"/>
<path d="M93.0686 113.442L93.3267 113.575C93.3013 113.85 93.24 114.019 93.0686 113.442Z" fill="#2F2E41"/>
<path d="M93.4086 113.531C93.4107 113.56 93.4149 113.592 93.417 113.622L93.3264 113.575C93.3285 113.548 93.3306 113.518 93.3348 113.488C93.3559 113.118 93.3306 112.68 93.4086 113.531Z" fill="#2F2E41"/>
<path d="M65.9333 103.411C85.1178 103.411 100.67 87.8585 100.67 68.674C100.67 49.4896 85.1178 33.9375 65.9333 33.9375C46.7489 33.9375 31.1968 49.4896 31.1968 68.674C31.1968 87.8585 46.7489 103.411 65.9333 103.411Z" fill="#2F2E41"/>
<path d="M68.7924 101.995C80.4104 101.995 89.8287 92.5765 89.8287 80.9585C89.8287 69.3404 80.4104 59.9222 68.7924 59.9222C57.1744 59.9222 47.7561 69.3404 47.7561 80.9585C47.7561 92.5765 57.1744 101.995 68.7924 101.995Z" fill="#D0CDE1"/>
<path d="M116.826 121.277L116.801 121.283L111.908 122.457L101.72 124.903L100.33 125.237L84.8372 128.954L83.5215 129.271L45.9332 138.291C43.3922 137.319 40.9095 136.201 38.4976 134.942C38.4744 134.93 38.449 134.917 38.4257 134.904C38.2882 134.832 38.1528 134.763 38.0174 134.689C37.7192 134.532 37.4223 134.373 37.1269 134.211C35.4451 133.286 33.8064 132.298 32.2107 131.245C31.8003 130.976 31.3942 130.703 30.9922 130.426C30.8632 130.337 30.7363 130.248 30.6094 130.16C30.4761 130.067 30.3428 129.973 30.2117 129.88C29.8626 129.633 29.5157 129.383 29.1709 129.129C32.8221 122.493 41.5163 118.083 50.2105 115.669C56.7724 113.846 58.2151 107.853 58.0903 102.52C58.0586 101.304 57.9555 100.09 57.7815 98.8858C57.5164 96.969 57.0947 95.0771 56.5207 93.2292L77.5582 93.9315L79.7286 98.9323C79.6692 99.4816 79.6501 100.034 79.6715 100.587C79.8365 104.688 82.3686 107.341 85.493 109.052C85.8992 109.274 86.3159 109.482 86.739 109.674C91.8624 112.003 97.8934 112.162 97.8934 112.162C99.7299 111.959 101.585 111.994 103.412 112.266C103.857 112.333 104.288 112.414 104.707 112.509C107.152 113.055 109.463 114.089 111.5 115.549C112.278 116.102 113.014 116.712 113.702 117.374C114.925 118.519 115.977 119.833 116.826 121.277Z" fill="#D0CDE1"/>
<path d="M119.982 124.05C119.893 124.133 119.805 124.213 119.716 124.296C117.852 125.999 115.9 127.601 113.867 129.098C112.502 130.107 111.102 131.065 109.666 131.972C109.35 132.173 109.033 132.371 108.714 132.565C108.159 132.903 107.6 133.234 107.036 133.557C106.3 133.98 105.555 134.39 104.8 134.786C104.496 134.949 104.189 135.105 103.882 135.262C103.434 135.492 102.983 135.715 102.528 135.932C102.45 135.971 102.372 136.009 102.293 136.045L101.399 135.302L111.908 122.457L114.021 119.875C114.021 119.875 114.865 119.875 116.801 121.283C117.871 122.08 118.882 122.952 119.826 123.894C119.877 123.947 119.929 123.997 119.982 124.05Z" fill="#D0CDE1"/>
<path d="M119.834 123.907C119.806 124.039 119.766 124.17 119.716 124.296C117.852 125.999 115.9 127.601 113.867 129.098C112.103 129.734 110.273 130.169 108.411 130.394C108.411 130.394 108.57 131.19 108.714 132.565C108.16 132.903 107.6 133.234 107.036 133.557C106.3 133.98 105.555 134.39 104.8 134.786C104.496 134.949 104.189 135.105 103.882 135.262C103.434 135.492 102.983 135.715 102.528 135.932C102.45 135.971 102.372 136.009 102.294 136.045C101.997 136.188 101.697 136.328 101.397 136.468C97.4846 138.272 93.416 139.716 89.2416 140.781C89.2184 140.787 89.1972 140.792 89.1739 140.798C88.9011 140.868 88.6261 140.935 88.3511 141.001C88.1459 141.052 87.9386 141.1 87.7312 141.147C87.7057 141.155 87.6795 141.162 87.653 141.166C87.2278 141.265 86.8026 141.361 86.3732 141.447C86.132 141.498 85.8909 141.549 85.6497 141.597C85.5038 141.629 85.3557 141.657 85.2097 141.684C85.0257 141.72 84.8438 141.754 84.6597 141.79C84.5582 141.811 84.4566 141.828 84.353 141.845C84.1203 141.887 83.8876 141.93 83.657 141.97C83.2635 142.037 82.8659 142.103 82.4703 142.162C82.1826 142.207 81.897 142.249 81.6093 142.289C81.2709 142.338 80.9324 142.382 80.5918 142.425C80.4987 142.439 80.4057 142.45 80.3126 142.461C80.192 142.475 80.0715 142.49 79.9509 142.505C79.7076 142.535 79.4643 142.562 79.2189 142.587C79.092 142.602 78.9672 142.615 78.8403 142.628C78.5991 142.653 78.358 142.676 78.1168 142.697C77.8059 142.727 77.4949 142.752 77.1818 142.778C76.8011 142.807 76.4224 142.835 76.0395 142.858C75.7941 142.873 75.5487 142.888 75.3012 142.901C74.6709 142.934 74.0405 142.958 73.4059 142.975C73.0907 142.983 72.7734 142.989 72.4561 142.994H72.4497C72.1345 142.998 71.8172 143 71.4999 143C68.2843 143.001 65.0722 142.786 61.8855 142.357C59.548 142.044 57.2478 141.619 54.9851 141.083C54.8941 141.062 54.8032 141.041 54.7143 141.018C54.4859 140.965 54.2595 140.908 54.0332 140.851C53.8322 140.8 53.6334 140.747 53.4324 140.694C48.2532 139.346 43.2431 137.417 38.4978 134.942C38.4745 134.93 38.4491 134.917 38.4258 134.904C38.2883 134.832 38.153 134.763 38.0176 134.689C49.6289 131.983 67.9778 127.716 83.9003 124.061C84.3466 123.959 84.7902 123.858 85.2309 123.756C91.1116 122.407 96.6201 121.15 101.28 120.099C101.763 119.991 102.235 119.885 102.698 119.782C107.705 118.656 111.593 117.802 113.702 117.374C114.27 117.244 114.845 117.143 115.424 117.072L119.826 123.894L119.834 123.907Z" fill="#2F2E41"/>
<path d="M34.1525 53.8925C39.867 53.8925 44.4995 49.26 44.4995 43.5455C44.4995 37.831 39.867 33.1984 34.1525 33.1984C28.438 33.1984 23.8054 37.831 23.8054 43.5455C23.8054 49.26 28.438 53.8925 34.1525 53.8925Z" fill="#2F2E41"/>
<path d="M97.7133 50.9362C103.428 50.9362 108.06 46.3037 108.06 40.5892C108.06 34.8747 103.428 30.2421 97.7133 30.2421C91.9987 30.2421 87.3662 34.8747 87.3662 40.5892C87.3662 46.3037 91.9987 50.9362 97.7133 50.9362Z" fill="#2F2E41"/>
<path d="M86.6272 36.1548C86.6275 33.6028 87.571 31.1409 89.2763 29.2423C90.9815 27.3437 93.3283 26.1422 95.8656 25.8689C94.4206 25.711 92.9586 25.8594 91.5748 26.3044C90.191 26.7493 88.9165 27.4808 87.8342 28.4513C86.752 29.4217 85.8864 30.6093 85.2939 31.9366C84.7013 33.2639 84.395 34.7012 84.395 36.1548C84.395 37.6083 84.7013 39.0456 85.2939 40.3729C85.8864 41.7002 86.752 42.8878 87.8342 43.8582C88.9165 44.8287 90.191 45.5602 91.5748 46.0051C92.9586 46.4501 94.4206 46.5985 95.8656 46.4406C93.3283 46.1673 90.9815 44.9658 89.2763 43.0672C87.571 41.1686 86.6275 38.7068 86.6272 36.1548Z" fill="#2F2E41"/>
<path d="M22.5917 51.915C20.8059 50.0919 19.7569 47.6732 19.6462 45.1236C19.5355 42.574 20.3709 40.0734 21.9919 38.1024C20.8493 39.001 19.9089 40.1302 19.2319 41.4165C18.5548 42.7027 18.1564 44.1173 18.0626 45.5678C17.9688 47.0183 18.1816 48.4724 18.6873 49.8352C19.1929 51.198 19.9801 52.4389 20.9974 53.4772C22.0147 54.5155 23.2393 55.3277 24.5915 55.8611C25.9437 56.3944 27.3931 56.6369 28.8453 56.5727C30.2974 56.5084 31.7198 56.139 33.0196 55.4883C34.3194 54.8377 35.4676 53.9204 36.3892 52.7964C34.3856 54.3769 31.8685 55.1612 29.3217 54.9985C26.7749 54.8358 24.378 53.7376 22.5917 51.915Z" fill="#2F2E41"/>
<path d="M65.9327 52.4143C53.6873 52.4143 43.7605 58.205 43.7605 65.3482C43.7605 68.5443 45.7559 71.4654 49.0496 73.722L53.318 70.6293L52.1572 75.4744C52.6389 75.6976 53.1307 75.9137 53.6436 76.1133L60.0201 68.674V77.8132C61.9754 78.1265 63.9525 78.2832 65.9327 78.282C78.1781 78.282 88.105 72.4913 88.105 65.3482C88.105 58.205 78.1781 52.4143 65.9327 52.4143Z" fill="#2F2E41"/>
<path d="M87.3662 40.5892C87.3662 40.5892 85.7592 47.98 95.8011 50.9363L87.3662 40.5892Z" fill="#2F2E41"/>
<path d="M43.7606 41.9344C43.7606 41.9344 47.456 50.1972 36.3699 53.8926L43.7606 41.9344Z" fill="#2F2E41"/>
<path d="M49.2407 89.2172C50.1731 88.9562 50.4211 86.9307 49.7946 84.6931C49.1682 82.4555 47.9046 80.8532 46.9723 81.1142C46.04 81.3752 45.792 83.4007 46.4184 85.6383C47.0448 87.8758 48.3084 89.4782 49.2407 89.2172Z" fill="#D0CDE1"/>
<path d="M91.929 81.7674C92.0718 79.4482 91.4042 77.5198 90.4379 77.4603C89.4715 77.4008 88.5724 79.2327 88.4295 81.5519C88.2867 83.8711 88.9543 85.7994 89.9206 85.8589C90.887 85.9185 91.7861 84.0866 91.929 81.7674Z" fill="#D0CDE1"/>
</g>
<defs>
<clipPath id="clip0">
<rect width="143" height="143" fill="white"/>
</clipPath>
</defs>
</svg>
