<svg width="1440" height="1024" viewBox="0 0 1440 1024" fill="none" xmlns="http://www.w3.org/2000/svg">
<rect width="1440" height="1024" fill="#F5F5F5"/>
<rect width="612" height="1024" fill="#2D9CDB"/>
<g filter="url(#filter0_d)">
<rect x="810" y="186" width="475" height="630" fill="white"/>
</g>
<path d="M890 331C890 329.343 891.343 328 893 328H1201C1202.66 328 1204 329.343 1204 331V372C1204 373.657 1202.66 375 1201 375H893C891.343 375 890 373.657 890 372V331Z" fill="white"/>
<path d="M890.5 331C890.5 329.619 891.619 328.5 893 328.5H1201C1202.38 328.5 1203.5 329.619 1203.5 331V372C1203.5 373.381 1202.38 374.5 1201 374.5H893C891.619 374.5 890.5 373.381 890.5 372V331Z" stroke="black" stroke-opacity="0.8"/>
<path d="M901.024 349.786V353.98H905.596V355.33H901.024V359.65H906.136V361H899.386V348.436H906.136V349.786H901.024ZM920.477 350.956C921.245 350.956 921.929 351.118 922.529 351.442C923.129 351.754 923.603 352.228 923.951 352.864C924.299 353.5 924.473 354.274 924.473 355.186V361H922.853V355.42C922.853 354.436 922.607 353.686 922.115 353.17C921.635 352.642 920.981 352.378 920.153 352.378C919.301 352.378 918.623 352.654 918.119 353.206C917.615 353.746 917.363 354.532 917.363 355.564V361H915.743V355.42C915.743 354.436 915.497 353.686 915.005 353.17C914.525 352.642 913.871 352.378 913.043 352.378C912.191 352.378 911.513 352.654 911.009 353.206C910.505 353.746 910.253 354.532 910.253 355.564V361H908.615V351.136H910.253V352.558C910.577 352.042 911.009 351.646 911.549 351.37C912.101 351.094 912.707 350.956 913.367 350.956C914.195 350.956 914.927 351.142 915.563 351.514C916.199 351.886 916.673 352.432 916.985 353.152C917.261 352.456 917.717 351.916 918.353 351.532C918.989 351.148 919.697 350.956 920.477 350.956ZM926.547 356.032C926.547 355.024 926.751 354.142 927.159 353.386C927.567 352.618 928.125 352.024 928.833 351.604C929.553 351.184 930.351 350.974 931.227 350.974C932.091 350.974 932.841 351.16 933.477 351.532C934.113 351.904 934.587 352.372 934.899 352.936V351.136H936.555V361H934.899V359.164C934.575 359.74 934.089 360.22 933.441 360.604C932.805 360.976 932.061 361.162 931.209 361.162C930.333 361.162 929.541 360.946 928.833 360.514C928.125 360.082 927.567 359.476 927.159 358.696C926.751 357.916 926.547 357.028 926.547 356.032ZM934.899 356.05C934.899 355.306 934.749 354.658 934.449 354.106C934.149 353.554 933.741 353.134 933.225 352.846C932.721 352.546 932.163 352.396 931.551 352.396C930.939 352.396 930.381 352.54 929.877 352.828C929.373 353.116 928.971 353.536 928.671 354.088C928.371 354.64 928.221 355.288 928.221 356.032C928.221 356.788 928.371 357.448 928.671 358.012C928.971 358.564 929.373 358.99 929.877 359.29C930.381 359.578 930.939 359.722 931.551 359.722C932.163 359.722 932.721 359.578 933.225 359.29C933.741 358.99 934.149 358.564 934.449 358.012C934.749 357.448 934.899 356.794 934.899 356.05ZM940.17 349.534C939.858 349.534 939.594 349.426 939.378 349.21C939.162 348.994 939.054 348.73 939.054 348.418C939.054 348.106 939.162 347.842 939.378 347.626C939.594 347.41 939.858 347.302 940.17 347.302C940.47 347.302 940.722 347.41 940.926 347.626C941.142 347.842 941.25 348.106 941.25 348.418C941.25 348.73 941.142 348.994 940.926 349.21C940.722 349.426 940.47 349.534 940.17 349.534ZM940.962 351.136V361H939.324V351.136H940.962ZM945.391 347.68V361H943.753V347.68H945.391Z" fill="black" fill-opacity="0.5"/>
<path d="M890.5 414C890.5 412.619 891.619 411.5 893 411.5H1201C1202.38 411.5 1203.5 412.619 1203.5 414V455C1203.5 456.381 1202.38 457.5 1201 457.5H893C891.619 457.5 890.5 456.381 890.5 455V414Z" fill="white" stroke="black"/>
<path d="M903.364 446.126C902.536 446.126 901.792 445.982 901.132 445.694C900.484 445.394 899.974 444.986 899.602 444.47C899.23 443.942 899.038 443.336 899.026 442.652H900.772C900.832 443.24 901.072 443.738 901.492 444.146C901.924 444.542 902.548 444.74 903.364 444.74C904.144 444.74 904.756 444.548 905.2 444.164C905.656 443.768 905.884 443.264 905.884 442.652C905.884 442.172 905.752 441.782 905.488 441.482C905.224 441.182 904.894 440.954 904.498 440.798C904.102 440.642 903.568 440.474 902.896 440.294C902.068 440.078 901.402 439.862 900.898 439.646C900.406 439.43 899.98 439.094 899.62 438.638C899.272 438.17 899.098 437.546 899.098 436.766C899.098 436.082 899.272 435.476 899.62 434.948C899.968 434.42 900.454 434.012 901.078 433.724C901.714 433.436 902.44 433.292 903.256 433.292C904.432 433.292 905.392 433.586 906.136 434.174C906.892 434.762 907.318 435.542 907.414 436.514H905.614C905.554 436.034 905.302 435.614 904.858 435.254C904.414 434.882 903.826 434.696 903.094 434.696C902.41 434.696 901.852 434.876 901.42 435.236C900.988 435.584 900.772 436.076 900.772 436.712C900.772 437.168 900.898 437.54 901.15 437.828C901.414 438.116 901.732 438.338 902.104 438.494C902.488 438.638 903.022 438.806 903.706 438.998C904.534 439.226 905.2 439.454 905.704 439.682C906.208 439.898 906.64 440.24 907 440.708C907.36 441.164 907.54 441.788 907.54 442.58C907.54 443.192 907.378 443.768 907.054 444.308C906.73 444.848 906.25 445.286 905.614 445.622C904.978 445.958 904.228 446.126 903.364 446.126ZM918.95 440.69C918.95 441.002 918.932 441.332 918.896 441.68H911.012C911.072 442.652 911.402 443.414 912.002 443.966C912.614 444.506 913.352 444.776 914.216 444.776C914.924 444.776 915.512 444.614 915.98 444.29C916.46 443.954 916.796 443.51 916.988 442.958H918.752C918.488 443.906 917.96 444.68 917.168 445.28C916.376 445.868 915.392 446.162 914.216 446.162C913.28 446.162 912.44 445.952 911.696 445.532C910.964 445.112 910.388 444.518 909.968 443.75C909.548 442.97 909.338 442.07 909.338 441.05C909.338 440.03 909.542 439.136 909.95 438.368C910.358 437.6 910.928 437.012 911.66 436.604C912.404 436.184 913.256 435.974 914.216 435.974C915.152 435.974 915.98 436.178 916.7 436.586C917.42 436.994 917.972 437.558 918.356 438.278C918.752 438.986 918.95 439.79 918.95 440.69ZM917.258 440.348C917.258 439.724 917.12 439.19 916.844 438.746C916.568 438.29 916.19 437.948 915.71 437.72C915.242 437.48 914.72 437.36 914.144 437.36C913.316 437.36 912.608 437.624 912.02 438.152C911.444 438.68 911.114 439.412 911.03 440.348H917.258ZM925.919 435.956C927.119 435.956 928.091 436.322 928.835 437.054C929.579 437.774 929.951 438.818 929.951 440.186V446H928.331V440.42C928.331 439.436 928.085 438.686 927.593 438.17C927.101 437.642 926.429 437.378 925.577 437.378C924.713 437.378 924.023 437.648 923.507 438.188C923.003 438.728 922.751 439.514 922.751 440.546V446H921.113V436.136H922.751V437.54C923.075 437.036 923.513 436.646 924.065 436.37C924.629 436.094 925.247 435.956 925.919 435.956ZM937.522 435.956C938.266 435.956 938.938 436.118 939.538 436.442C940.138 436.754 940.606 437.228 940.942 437.864C941.29 438.5 941.464 439.274 941.464 440.186V446H939.844V440.42C939.844 439.436 939.598 438.686 939.106 438.17C938.614 437.642 937.942 437.378 937.09 437.378C936.226 437.378 935.536 437.648 935.02 438.188C934.516 438.728 934.264 439.514 934.264 440.546V446H932.626V432.68H934.264V437.54C934.588 437.036 935.032 436.646 935.596 436.37C936.172 436.094 936.814 435.956 937.522 435.956ZM943.528 441.032C943.528 440.024 943.732 439.142 944.14 438.386C944.548 437.618 945.106 437.024 945.814 436.604C946.534 436.184 947.332 435.974 948.208 435.974C949.072 435.974 949.822 436.16 950.458 436.532C951.094 436.904 951.568 437.372 951.88 437.936V436.136H953.536V446H951.88V444.164C951.556 444.74 951.07 445.22 950.422 445.604C949.786 445.976 949.042 446.162 948.19 446.162C947.314 446.162 946.522 445.946 945.814 445.514C945.106 445.082 944.548 444.476 944.14 443.696C943.732 442.916 943.528 442.028 943.528 441.032ZM951.88 441.05C951.88 440.306 951.73 439.658 951.43 439.106C951.13 438.554 950.722 438.134 950.206 437.846C949.702 437.546 949.144 437.396 948.532 437.396C947.92 437.396 947.362 437.54 946.858 437.828C946.354 438.116 945.952 438.536 945.652 439.088C945.352 439.64 945.202 440.288 945.202 441.032C945.202 441.788 945.352 442.448 945.652 443.012C945.952 443.564 946.354 443.99 946.858 444.29C947.362 444.578 947.92 444.722 948.532 444.722C949.144 444.722 949.702 444.578 950.206 444.29C950.722 443.99 951.13 443.564 951.43 443.012C951.73 442.448 951.88 441.794 951.88 441.05Z" fill="black" fill-opacity="0.5"/>
<path d="M890.5 491C890.5 489.619 891.619 488.5 893 488.5H1201C1202.38 488.5 1203.5 489.619 1203.5 491V532C1203.5 533.381 1202.38 534.5 1201 534.5H893C891.619 534.5 890.5 533.381 890.5 532V491Z" fill="white" stroke="black"/>
<path d="M898.774 513.718C898.774 512.494 899.05 511.396 899.602 510.424C900.154 509.44 900.904 508.672 901.852 508.12C902.812 507.568 903.874 507.292 905.038 507.292C906.406 507.292 907.6 507.622 908.62 508.282C909.64 508.942 910.384 509.878 910.852 511.09H908.89C908.542 510.334 908.038 509.752 907.378 509.344C906.73 508.936 905.95 508.732 905.038 508.732C904.162 508.732 903.376 508.936 902.68 509.344C901.984 509.752 901.438 510.334 901.042 511.09C900.646 511.834 900.448 512.71 900.448 513.718C900.448 514.714 900.646 515.59 901.042 516.346C901.438 517.09 901.984 517.666 902.68 518.074C903.376 518.482 904.162 518.686 905.038 518.686C905.95 518.686 906.73 518.488 907.378 518.092C908.038 517.684 908.542 517.102 908.89 516.346H910.852C910.384 517.546 909.64 518.476 908.62 519.136C907.6 519.784 906.406 520.108 905.038 520.108C903.874 520.108 902.812 519.838 901.852 519.298C900.904 518.746 900.154 517.984 899.602 517.012C899.05 516.04 898.774 514.942 898.774 513.718ZM917.592 520.162C916.668 520.162 915.828 519.952 915.072 519.532C914.328 519.112 913.74 518.518 913.308 517.75C912.888 516.97 912.678 516.07 912.678 515.05C912.678 514.042 912.894 513.154 913.326 512.386C913.77 511.606 914.37 511.012 915.126 510.604C915.882 510.184 916.728 509.974 917.664 509.974C918.6 509.974 919.446 510.184 920.202 510.604C920.958 511.012 921.552 511.6 921.984 512.368C922.428 513.136 922.65 514.03 922.65 515.05C922.65 516.07 922.422 516.97 921.966 517.75C921.522 518.518 920.916 519.112 920.148 519.532C919.38 519.952 918.528 520.162 917.592 520.162ZM917.592 518.722C918.18 518.722 918.732 518.584 919.248 518.308C919.764 518.032 920.178 517.618 920.49 517.066C920.814 516.514 920.976 515.842 920.976 515.05C920.976 514.258 920.82 513.586 920.508 513.034C920.196 512.482 919.788 512.074 919.284 511.81C918.78 511.534 918.234 511.396 917.646 511.396C917.046 511.396 916.494 511.534 915.99 511.81C915.498 512.074 915.102 512.482 914.802 513.034C914.502 513.586 914.352 514.258 914.352 515.05C914.352 515.854 914.496 516.532 914.784 517.084C915.084 517.636 915.48 518.05 915.972 518.326C916.464 518.59 917.004 518.722 917.592 518.722ZM929.61 509.956C930.81 509.956 931.782 510.322 932.526 511.054C933.27 511.774 933.642 512.818 933.642 514.186V520H932.022V514.42C932.022 513.436 931.776 512.686 931.284 512.17C930.792 511.642 930.12 511.378 929.268 511.378C928.404 511.378 927.714 511.648 927.198 512.188C926.694 512.728 926.442 513.514 926.442 514.546V520H924.804V510.136H926.442V511.54C926.766 511.036 927.204 510.646 927.756 510.37C928.32 510.094 928.938 509.956 929.61 509.956ZM940.332 511.486H938.262V520H936.624V511.486H935.346V510.136H936.624V509.434C936.624 508.33 936.906 507.526 937.47 507.022C938.046 506.506 938.964 506.248 940.224 506.248V507.616C939.504 507.616 938.994 507.76 938.694 508.048C938.406 508.324 938.262 508.786 938.262 509.434V510.136H940.332V511.486ZM943.087 508.534C942.775 508.534 942.511 508.426 942.295 508.21C942.079 507.994 941.971 507.73 941.971 507.418C941.971 507.106 942.079 506.842 942.295 506.626C942.511 506.41 942.775 506.302 943.087 506.302C943.387 506.302 943.639 506.41 943.843 506.626C944.059 506.842 944.167 507.106 944.167 507.418C944.167 507.73 944.059 507.994 943.843 508.21C943.639 508.426 943.387 508.534 943.087 508.534ZM943.879 510.136V520H942.241V510.136H943.879ZM948.309 511.738C948.597 511.174 949.005 510.736 949.533 510.424C950.073 510.112 950.727 509.956 951.495 509.956V511.648H951.063C949.227 511.648 948.309 512.644 948.309 514.636V520H946.671V510.136H948.309V511.738ZM965.248 509.956C966.016 509.956 966.7 510.118 967.3 510.442C967.9 510.754 968.374 511.228 968.722 511.864C969.07 512.5 969.244 513.274 969.244 514.186V520H967.624V514.42C967.624 513.436 967.378 512.686 966.886 512.17C966.406 511.642 965.752 511.378 964.924 511.378C964.072 511.378 963.394 511.654 962.89 512.206C962.386 512.746 962.134 513.532 962.134 514.564V520H960.514V514.42C960.514 513.436 960.268 512.686 959.776 512.17C959.296 511.642 958.642 511.378 957.814 511.378C956.962 511.378 956.284 511.654 955.78 512.206C955.276 512.746 955.024 513.532 955.024 514.564V520H953.386V510.136H955.024V511.558C955.348 511.042 955.78 510.646 956.32 510.37C956.872 510.094 957.478 509.956 958.138 509.956C958.966 509.956 959.698 510.142 960.334 510.514C960.97 510.886 961.444 511.432 961.756 512.152C962.032 511.456 962.488 510.916 963.124 510.532C963.76 510.148 964.468 509.956 965.248 509.956ZM980.931 514.69C980.931 515.002 980.913 515.332 980.877 515.68H972.993C973.053 516.652 973.383 517.414 973.983 517.966C974.595 518.506 975.333 518.776 976.197 518.776C976.905 518.776 977.493 518.614 977.961 518.29C978.441 517.954 978.777 517.51 978.969 516.958H980.733C980.469 517.906 979.941 518.68 979.149 519.28C978.357 519.868 977.373 520.162 976.197 520.162C975.261 520.162 974.421 519.952 973.677 519.532C972.945 519.112 972.369 518.518 971.949 517.75C971.529 516.97 971.319 516.07 971.319 515.05C971.319 514.03 971.523 513.136 971.931 512.368C972.339 511.6 972.909 511.012 973.641 510.604C974.385 510.184 975.237 509.974 976.197 509.974C977.133 509.974 977.961 510.178 978.681 510.586C979.401 510.994 979.953 511.558 980.337 512.278C980.733 512.986 980.931 513.79 980.931 514.69ZM979.239 514.348C979.239 513.724 979.101 513.19 978.825 512.746C978.549 512.29 978.171 511.948 977.691 511.72C977.223 511.48 976.701 511.36 976.125 511.36C975.297 511.36 974.589 511.624 974.001 512.152C973.425 512.68 973.095 513.412 973.011 514.348H979.239ZM991.384 520.162C990.628 520.162 989.95 520.036 989.35 519.784C988.75 519.52 988.276 519.16 987.928 518.704C987.58 518.236 987.388 517.702 987.352 517.102H989.044C989.092 517.594 989.32 517.996 989.728 518.308C990.148 518.62 990.694 518.776 991.366 518.776C991.99 518.776 992.482 518.638 992.842 518.362C993.202 518.086 993.382 517.738 993.382 517.318C993.382 516.886 993.19 516.568 992.806 516.364C992.422 516.148 991.828 515.938 991.024 515.734C990.292 515.542 989.692 515.35 989.224 515.158C988.768 514.954 988.372 514.66 988.036 514.276C987.712 513.88 987.55 513.364 987.55 512.728C987.55 512.224 987.7 511.762 988 511.342C988.3 510.922 988.726 510.592 989.278 510.352C989.83 510.1 990.46 509.974 991.168 509.974C992.26 509.974 993.142 510.25 993.814 510.802C994.486 511.354 994.846 512.11 994.894 513.07H993.256C993.22 512.554 993.01 512.14 992.626 511.828C992.254 511.516 991.75 511.36 991.114 511.36C990.526 511.36 990.058 511.486 989.71 511.738C989.362 511.99 989.188 512.32 989.188 512.728C989.188 513.052 989.29 513.322 989.494 513.538C989.71 513.742 989.974 513.91 990.286 514.042C990.61 514.162 991.054 514.3 991.618 514.456C992.326 514.648 992.902 514.84 993.346 515.032C993.79 515.212 994.168 515.488 994.48 515.86C994.804 516.232 994.972 516.718 994.984 517.318C994.984 517.858 994.834 518.344 994.534 518.776C994.234 519.208 993.808 519.55 993.256 519.802C992.716 520.042 992.092 520.162 991.384 520.162ZM1006.04 510.136V520H1004.41V518.542C1004.09 519.046 1003.66 519.442 1003.09 519.73C1002.54 520.006 1001.93 520.144 1001.26 520.144C1000.49 520.144 999.798 519.988 999.186 519.676C998.574 519.352 998.088 518.872 997.728 518.236C997.38 517.6 997.206 516.826 997.206 515.914V510.136H998.826V515.698C998.826 516.67 999.072 517.42 999.564 517.948C1000.06 518.464 1000.73 518.722 1001.58 518.722C1002.46 518.722 1003.15 518.452 1003.65 517.912C1004.15 517.372 1004.41 516.586 1004.41 515.554V510.136H1006.04ZM1008.2 515.032C1008.2 514.024 1008.4 513.142 1008.81 512.386C1009.22 511.618 1009.78 511.024 1010.48 510.604C1011.2 510.184 1012 509.974 1012.88 509.974C1013.74 509.974 1014.49 510.16 1015.13 510.532C1015.76 510.904 1016.24 511.372 1016.55 511.936V510.136H1018.21V520H1016.55V518.164C1016.23 518.74 1015.74 519.22 1015.09 519.604C1014.46 519.976 1013.71 520.162 1012.86 520.162C1011.98 520.162 1011.19 519.946 1010.48 519.514C1009.78 519.082 1009.22 518.476 1008.81 517.696C1008.4 516.916 1008.2 516.028 1008.2 515.032ZM1016.55 515.05C1016.55 514.306 1016.4 513.658 1016.1 513.106C1015.8 512.554 1015.39 512.134 1014.88 511.846C1014.37 511.546 1013.81 511.396 1013.2 511.396C1012.59 511.396 1012.03 511.54 1011.53 511.828C1011.02 512.116 1010.62 512.536 1010.32 513.088C1010.02 513.64 1009.87 514.288 1009.87 515.032C1009.87 515.788 1010.02 516.448 1010.32 517.012C1010.62 517.564 1011.02 517.99 1011.53 518.29C1012.03 518.578 1012.59 518.722 1013.2 518.722C1013.81 518.722 1014.37 518.578 1014.88 518.29C1015.39 517.99 1015.8 517.564 1016.1 517.012C1016.4 516.448 1016.55 515.794 1016.55 515.05ZM1034.06 520.162C1033.31 520.162 1032.63 520.036 1032.03 519.784C1031.43 519.52 1030.96 519.16 1030.61 518.704C1030.26 518.236 1030.07 517.702 1030.03 517.102H1031.72C1031.77 517.594 1032 517.996 1032.41 518.308C1032.83 518.62 1033.37 518.776 1034.05 518.776C1034.67 518.776 1035.16 518.638 1035.52 518.362C1035.88 518.086 1036.06 517.738 1036.06 517.318C1036.06 516.886 1035.87 516.568 1035.49 516.364C1035.1 516.148 1034.51 515.938 1033.7 515.734C1032.97 515.542 1032.37 515.35 1031.9 515.158C1031.45 514.954 1031.05 514.66 1030.72 514.276C1030.39 513.88 1030.23 513.364 1030.23 512.728C1030.23 512.224 1030.38 511.762 1030.68 511.342C1030.98 510.922 1031.41 510.592 1031.96 510.352C1032.51 510.1 1033.14 509.974 1033.85 509.974C1034.94 509.974 1035.82 510.25 1036.49 510.802C1037.17 511.354 1037.53 512.11 1037.57 513.07H1035.94C1035.9 512.554 1035.69 512.14 1035.31 511.828C1034.93 511.516 1034.43 511.36 1033.79 511.36C1033.21 511.36 1032.74 511.486 1032.39 511.738C1032.04 511.99 1031.87 512.32 1031.87 512.728C1031.87 513.052 1031.97 513.322 1032.17 513.538C1032.39 513.742 1032.65 513.91 1032.97 514.042C1033.29 514.162 1033.73 514.3 1034.3 514.456C1035.01 514.648 1035.58 514.84 1036.03 515.032C1036.47 515.212 1036.85 515.488 1037.16 515.86C1037.48 516.232 1037.65 516.718 1037.66 517.318C1037.66 517.858 1037.51 518.344 1037.21 518.776C1036.91 519.208 1036.49 519.55 1035.94 519.802C1035.4 520.042 1034.77 520.162 1034.06 520.162ZM1048.98 514.69C1048.98 515.002 1048.96 515.332 1048.92 515.68H1041.04C1041.1 516.652 1041.43 517.414 1042.03 517.966C1042.64 518.506 1043.38 518.776 1044.24 518.776C1044.95 518.776 1045.54 518.614 1046.01 518.29C1046.49 517.954 1046.82 517.51 1047.01 516.958H1048.78C1048.51 517.906 1047.99 518.68 1047.19 519.28C1046.4 519.868 1045.42 520.162 1044.24 520.162C1043.31 520.162 1042.47 519.952 1041.72 519.532C1040.99 519.112 1040.41 518.518 1039.99 517.75C1039.57 516.97 1039.36 516.07 1039.36 515.05C1039.36 514.03 1039.57 513.136 1039.98 512.368C1040.38 511.6 1040.95 511.012 1041.69 510.604C1042.43 510.184 1043.28 509.974 1044.24 509.974C1045.18 509.974 1046.01 510.178 1046.73 510.586C1047.45 510.994 1048 511.558 1048.38 512.278C1048.78 512.986 1048.98 513.79 1048.98 514.69ZM1047.28 514.348C1047.28 513.724 1047.15 513.19 1046.87 512.746C1046.59 512.29 1046.22 511.948 1045.74 511.72C1045.27 511.48 1044.75 511.36 1044.17 511.36C1043.34 511.36 1042.63 511.624 1042.05 512.152C1041.47 512.68 1041.14 513.412 1041.06 514.348H1047.28ZM1055.94 509.956C1057.14 509.956 1058.12 510.322 1058.86 511.054C1059.6 511.774 1059.98 512.818 1059.98 514.186V520H1058.36V514.42C1058.36 513.436 1058.11 512.686 1057.62 512.17C1057.13 511.642 1056.45 511.378 1055.6 511.378C1054.74 511.378 1054.05 511.648 1053.53 512.188C1053.03 512.728 1052.78 513.514 1052.78 514.546V520H1051.14V510.136H1052.78V511.54C1053.1 511.036 1053.54 510.646 1054.09 510.37C1054.65 510.094 1055.27 509.956 1055.94 509.956ZM1067.55 509.956C1068.29 509.956 1068.96 510.118 1069.56 510.442C1070.16 510.754 1070.63 511.228 1070.97 511.864C1071.32 512.5 1071.49 513.274 1071.49 514.186V520H1069.87V514.42C1069.87 513.436 1069.62 512.686 1069.13 512.17C1068.64 511.642 1067.97 511.378 1067.12 511.378C1066.25 511.378 1065.56 511.648 1065.05 512.188C1064.54 512.728 1064.29 513.514 1064.29 514.546V520H1062.65V506.68H1064.29V511.54C1064.61 511.036 1065.06 510.646 1065.62 510.37C1066.2 510.094 1066.84 509.956 1067.55 509.956ZM1073.55 515.032C1073.55 514.024 1073.76 513.142 1074.17 512.386C1074.57 511.618 1075.13 511.024 1075.84 510.604C1076.56 510.184 1077.36 509.974 1078.23 509.974C1079.1 509.974 1079.85 510.16 1080.48 510.532C1081.12 510.904 1081.59 511.372 1081.91 511.936V510.136H1083.56V520H1081.91V518.164C1081.58 518.74 1081.1 519.22 1080.45 519.604C1079.81 519.976 1079.07 520.162 1078.22 520.162C1077.34 520.162 1076.55 519.946 1075.84 519.514C1075.13 519.082 1074.57 518.476 1074.17 517.696C1073.76 516.916 1073.55 516.028 1073.55 515.032ZM1081.91 515.05C1081.91 514.306 1081.76 513.658 1081.46 513.106C1081.16 512.554 1080.75 512.134 1080.23 511.846C1079.73 511.546 1079.17 511.396 1078.56 511.396C1077.95 511.396 1077.39 511.54 1076.88 511.828C1076.38 512.116 1075.98 512.536 1075.68 513.088C1075.38 513.64 1075.23 514.288 1075.23 515.032C1075.23 515.788 1075.38 516.448 1075.68 517.012C1075.98 517.564 1076.38 517.99 1076.88 518.29C1077.39 518.578 1077.95 518.722 1078.56 518.722C1079.17 518.722 1079.73 518.578 1080.23 518.29C1080.75 517.99 1081.16 517.564 1081.46 517.012C1081.76 516.448 1081.91 515.794 1081.91 515.05Z" fill="black" fill-opacity="0.5"/>
<path d="M890.5 574C890.5 572.619 891.619 571.5 893 571.5H1201C1202.38 571.5 1203.5 572.619 1203.5 574V615C1203.5 616.381 1202.38 617.5 1201 617.5H893C891.619 617.5 890.5 616.381 890.5 615V574Z" fill="white" stroke="black"/>
<path d="M909.25 603H907.612L901.024 593.01V603H899.386V590.436H901.024L907.612 600.408V590.436H909.25V603ZM916.344 603.162C915.42 603.162 914.58 602.952 913.824 602.532C913.08 602.112 912.492 601.518 912.06 600.75C911.64 599.97 911.43 599.07 911.43 598.05C911.43 597.042 911.646 596.154 912.078 595.386C912.522 594.606 913.122 594.012 913.878 593.604C914.634 593.184 915.48 592.974 916.416 592.974C917.352 592.974 918.198 593.184 918.954 593.604C919.71 594.012 920.304 594.6 920.736 595.368C921.18 596.136 921.402 597.03 921.402 598.05C921.402 599.07 921.174 599.97 920.718 600.75C920.274 601.518 919.668 602.112 918.9 602.532C918.132 602.952 917.28 603.162 916.344 603.162ZM916.344 601.722C916.932 601.722 917.484 601.584 918 601.308C918.516 601.032 918.93 600.618 919.242 600.066C919.566 599.514 919.728 598.842 919.728 598.05C919.728 597.258 919.572 596.586 919.26 596.034C918.948 595.482 918.54 595.074 918.036 594.81C917.532 594.534 916.986 594.396 916.398 594.396C915.798 594.396 915.246 594.534 914.742 594.81C914.25 595.074 913.854 595.482 913.554 596.034C913.254 596.586 913.104 597.258 913.104 598.05C913.104 598.854 913.248 599.532 913.536 600.084C913.836 600.636 914.232 601.05 914.724 601.326C915.216 601.59 915.756 601.722 916.344 601.722ZM935.418 592.956C936.186 592.956 936.87 593.118 937.47 593.442C938.07 593.754 938.544 594.228 938.892 594.864C939.24 595.5 939.414 596.274 939.414 597.186V603H937.794V597.42C937.794 596.436 937.548 595.686 937.056 595.17C936.576 594.642 935.922 594.378 935.094 594.378C934.242 594.378 933.564 594.654 933.06 595.206C932.556 595.746 932.304 596.532 932.304 597.564V603H930.684V597.42C930.684 596.436 930.438 595.686 929.946 595.17C929.466 594.642 928.812 594.378 927.984 594.378C927.132 594.378 926.454 594.654 925.95 595.206C925.446 595.746 925.194 596.532 925.194 597.564V603H923.556V593.136H925.194V594.558C925.518 594.042 925.95 593.646 926.49 593.37C927.042 593.094 927.648 592.956 928.308 592.956C929.136 592.956 929.868 593.142 930.504 593.514C931.14 593.886 931.614 594.432 931.926 595.152C932.202 594.456 932.658 593.916 933.294 593.532C933.93 593.148 934.638 592.956 935.418 592.956ZM951.101 597.69C951.101 598.002 951.083 598.332 951.047 598.68H943.163C943.223 599.652 943.553 600.414 944.153 600.966C944.765 601.506 945.503 601.776 946.367 601.776C947.075 601.776 947.663 601.614 948.131 601.29C948.611 600.954 948.947 600.51 949.139 599.958H950.903C950.639 600.906 950.111 601.68 949.319 602.28C948.527 602.868 947.543 603.162 946.367 603.162C945.431 603.162 944.591 602.952 943.847 602.532C943.115 602.112 942.539 601.518 942.119 600.75C941.699 599.97 941.489 599.07 941.489 598.05C941.489 597.03 941.693 596.136 942.101 595.368C942.509 594.6 943.079 594.012 943.811 593.604C944.555 593.184 945.407 592.974 946.367 592.974C947.303 592.974 948.131 593.178 948.851 593.586C949.571 593.994 950.123 594.558 950.507 595.278C950.903 595.986 951.101 596.79 951.101 597.69ZM949.409 597.348C949.409 596.724 949.271 596.19 948.995 595.746C948.719 595.29 948.341 594.948 947.861 594.72C947.393 594.48 946.871 594.36 946.295 594.36C945.467 594.36 944.759 594.624 944.171 595.152C943.595 595.68 943.265 596.412 943.181 597.348H949.409ZM957.45 598.032C957.45 597.024 957.654 596.142 958.062 595.386C958.47 594.618 959.028 594.024 959.736 593.604C960.456 593.184 961.26 592.974 962.148 592.974C962.916 592.974 963.63 593.154 964.29 593.514C964.95 593.862 965.454 594.324 965.802 594.9V589.68H967.458V603H965.802V601.146C965.478 601.734 964.998 602.22 964.362 602.604C963.726 602.976 962.982 603.162 962.13 603.162C961.254 603.162 960.456 602.946 959.736 602.514C959.028 602.082 958.47 601.476 958.062 600.696C957.654 599.916 957.45 599.028 957.45 598.032ZM965.802 598.05C965.802 597.306 965.652 596.658 965.352 596.106C965.052 595.554 964.644 595.134 964.128 594.846C963.624 594.546 963.066 594.396 962.454 594.396C961.842 594.396 961.284 594.54 960.78 594.828C960.276 595.116 959.874 595.536 959.574 596.088C959.274 596.64 959.124 597.288 959.124 598.032C959.124 598.788 959.274 599.448 959.574 600.012C959.874 600.564 960.276 600.99 960.78 601.29C961.284 601.578 961.842 601.722 962.454 601.722C963.066 601.722 963.624 601.578 964.128 601.29C964.644 600.99 965.052 600.564 965.352 600.012C965.652 599.448 965.802 598.794 965.802 598.05ZM979.226 597.69C979.226 598.002 979.208 598.332 979.172 598.68H971.288C971.348 599.652 971.678 600.414 972.278 600.966C972.89 601.506 973.628 601.776 974.492 601.776C975.2 601.776 975.788 601.614 976.256 601.29C976.736 600.954 977.072 600.51 977.264 599.958H979.028C978.764 600.906 978.236 601.68 977.444 602.28C976.652 602.868 975.668 603.162 974.492 603.162C973.556 603.162 972.716 602.952 971.972 602.532C971.24 602.112 970.664 601.518 970.244 600.75C969.824 599.97 969.614 599.07 969.614 598.05C969.614 597.03 969.818 596.136 970.226 595.368C970.634 594.6 971.204 594.012 971.936 593.604C972.68 593.184 973.532 592.974 974.492 592.974C975.428 592.974 976.256 593.178 976.976 593.586C977.696 593.994 978.248 594.558 978.632 595.278C979.028 595.986 979.226 596.79 979.226 597.69ZM977.534 597.348C977.534 596.724 977.396 596.19 977.12 595.746C976.844 595.29 976.466 594.948 975.986 594.72C975.518 594.48 974.996 594.36 974.42 594.36C973.592 594.36 972.884 594.624 972.296 595.152C971.72 595.68 971.39 596.412 971.306 597.348H977.534ZM994.935 593.136V603H993.297V601.542C992.985 602.046 992.547 602.442 991.983 602.73C991.431 603.006 990.819 603.144 990.147 603.144C989.379 603.144 988.689 602.988 988.077 602.676C987.465 602.352 986.979 601.872 986.619 601.236C986.271 600.6 986.097 599.826 986.097 598.914V593.136H987.717V598.698C987.717 599.67 987.963 600.42 988.455 600.948C988.947 601.464 989.619 601.722 990.471 601.722C991.347 601.722 992.037 601.452 992.541 600.912C993.045 600.372 993.297 599.586 993.297 598.554V593.136H994.935ZM1001.19 603.162C1000.44 603.162 999.758 603.036 999.158 602.784C998.558 602.52 998.084 602.16 997.736 601.704C997.388 601.236 997.196 600.702 997.16 600.102H998.852C998.9 600.594 999.128 600.996 999.536 601.308C999.956 601.62 1000.5 601.776 1001.17 601.776C1001.8 601.776 1002.29 601.638 1002.65 601.362C1003.01 601.086 1003.19 600.738 1003.19 600.318C1003.19 599.886 1003 599.568 1002.61 599.364C1002.23 599.148 1001.64 598.938 1000.83 598.734C1000.1 598.542 999.5 598.35 999.032 598.158C998.576 597.954 998.18 597.66 997.844 597.276C997.52 596.88 997.358 596.364 997.358 595.728C997.358 595.224 997.508 594.762 997.808 594.342C998.108 593.922 998.534 593.592 999.086 593.352C999.638 593.1 1000.27 592.974 1000.98 592.974C1002.07 592.974 1002.95 593.25 1003.62 593.802C1004.29 594.354 1004.65 595.11 1004.7 596.07H1003.06C1003.03 595.554 1002.82 595.14 1002.43 594.828C1002.06 594.516 1001.56 594.36 1000.92 594.36C1000.33 594.36 999.866 594.486 999.518 594.738C999.17 594.99 998.996 595.32 998.996 595.728C998.996 596.052 999.098 596.322 999.302 596.538C999.518 596.742 999.782 596.91 1000.09 597.042C1000.42 597.162 1000.86 597.3 1001.43 597.456C1002.13 597.648 1002.71 597.84 1003.15 598.032C1003.6 598.212 1003.98 598.488 1004.29 598.86C1004.61 599.232 1004.78 599.718 1004.79 600.318C1004.79 600.858 1004.64 601.344 1004.34 601.776C1004.04 602.208 1003.62 602.55 1003.06 602.802C1002.52 603.042 1001.9 603.162 1001.19 603.162ZM1015.85 593.136V603H1014.21V601.542C1013.9 602.046 1013.46 602.442 1012.9 602.73C1012.35 603.006 1011.74 603.144 1011.06 603.144C1010.3 603.144 1009.61 602.988 1008.99 602.676C1008.38 602.352 1007.9 601.872 1007.54 601.236C1007.19 600.6 1007.01 599.826 1007.01 598.914V593.136H1008.63V598.698C1008.63 599.67 1008.88 600.42 1009.37 600.948C1009.86 601.464 1010.54 601.722 1011.39 601.722C1012.26 601.722 1012.95 601.452 1013.46 600.912C1013.96 600.372 1014.21 599.586 1014.21 598.554V593.136H1015.85ZM1018.01 598.032C1018.01 597.024 1018.21 596.142 1018.62 595.386C1019.03 594.618 1019.58 594.024 1020.29 593.604C1021.01 593.184 1021.81 592.974 1022.69 592.974C1023.55 592.974 1024.3 593.16 1024.94 593.532C1025.57 593.904 1026.05 594.372 1026.36 594.936V593.136H1028.01V603H1026.36V601.164C1026.03 601.74 1025.55 602.22 1024.9 602.604C1024.26 602.976 1023.52 603.162 1022.67 603.162C1021.79 603.162 1021 602.946 1020.29 602.514C1019.58 602.082 1019.03 601.476 1018.62 600.696C1018.21 599.916 1018.01 599.028 1018.01 598.032ZM1026.36 598.05C1026.36 597.306 1026.21 596.658 1025.91 596.106C1025.61 595.554 1025.2 595.134 1024.68 594.846C1024.18 594.546 1023.62 594.396 1023.01 594.396C1022.4 594.396 1021.84 594.54 1021.34 594.828C1020.83 595.116 1020.43 595.536 1020.13 596.088C1019.83 596.64 1019.68 597.288 1019.68 598.032C1019.68 598.788 1019.83 599.448 1020.13 600.012C1020.43 600.564 1020.83 600.99 1021.34 601.29C1021.84 601.578 1022.4 601.722 1023.01 601.722C1023.62 601.722 1024.18 601.578 1024.68 601.29C1025.2 600.99 1025.61 600.564 1025.91 600.012C1026.21 599.448 1026.36 598.794 1026.36 598.05ZM1025.08 590.346L1021.25 592.398V591.174L1025.08 588.924V590.346ZM1032.42 594.738C1032.71 594.174 1033.12 593.736 1033.64 593.424C1034.18 593.112 1034.84 592.956 1035.61 592.956V594.648H1035.17C1033.34 594.648 1032.42 595.644 1032.42 597.636V603H1030.78V593.136H1032.42V594.738ZM1038.34 591.534C1038.03 591.534 1037.77 591.426 1037.55 591.21C1037.34 590.994 1037.23 590.73 1037.23 590.418C1037.23 590.106 1037.34 589.842 1037.55 589.626C1037.77 589.41 1038.03 589.302 1038.34 589.302C1038.64 589.302 1038.9 589.41 1039.1 589.626C1039.32 589.842 1039.42 590.106 1039.42 590.418C1039.42 590.73 1039.32 590.994 1039.1 591.21C1038.9 591.426 1038.64 591.534 1038.34 591.534ZM1039.14 593.136V603H1037.5V593.136H1039.14ZM1046.23 603.162C1045.31 603.162 1044.47 602.952 1043.71 602.532C1042.97 602.112 1042.38 601.518 1041.95 600.75C1041.53 599.97 1041.32 599.07 1041.32 598.05C1041.32 597.042 1041.53 596.154 1041.96 595.386C1042.41 594.606 1043.01 594.012 1043.76 593.604C1044.52 593.184 1045.37 592.974 1046.3 592.974C1047.24 592.974 1048.08 593.184 1048.84 593.604C1049.6 594.012 1050.19 594.6 1050.62 595.368C1051.07 596.136 1051.29 597.03 1051.29 598.05C1051.29 599.07 1051.06 599.97 1050.6 600.75C1050.16 601.518 1049.55 602.112 1048.79 602.532C1048.02 602.952 1047.17 603.162 1046.23 603.162ZM1046.23 601.722C1046.82 601.722 1047.37 601.584 1047.89 601.308C1048.4 601.032 1048.82 600.618 1049.13 600.066C1049.45 599.514 1049.61 598.842 1049.61 598.05C1049.61 597.258 1049.46 596.586 1049.15 596.034C1048.83 595.482 1048.43 595.074 1047.92 594.81C1047.42 594.534 1046.87 594.396 1046.28 594.396C1045.68 594.396 1045.13 594.534 1044.63 594.81C1044.14 595.074 1043.74 595.482 1043.44 596.034C1043.14 596.586 1042.99 597.258 1042.99 598.05C1042.99 598.854 1043.13 599.532 1043.42 600.084C1043.72 600.636 1044.12 601.05 1044.61 601.326C1045.1 601.59 1045.64 601.722 1046.23 601.722Z" fill="black" fill-opacity="0.5"/>
<g filter="url(#filter1_dd)">
<path d="M906 666H1189V721H906V666Z" fill="#2D9CDB"/>
</g>
<path d="M994.384 701.216C992.752 701.216 991.32 700.864 990.088 700.16C988.872 699.456 987.936 698.448 987.28 697.136C986.624 695.824 986.296 694.288 986.296 692.528C986.296 690.768 986.624 689.24 987.28 687.944C987.936 686.632 988.872 685.624 990.088 684.92C991.32 684.216 992.752 683.864 994.384 683.864C995.44 683.864 996.432 684.024 997.36 684.344C998.288 684.648 999.112 685.096 999.832 685.688C1000.04 685.848 1000.18 686.016 1000.26 686.192C1000.34 686.368 1000.38 686.584 1000.38 686.84C1000.38 687.192 1000.29 687.488 1000.1 687.728C999.904 687.968 999.672 688.088 999.4 688.088C999.08 688.088 998.752 687.976 998.416 687.752C997.728 687.24 997.088 686.888 996.496 686.696C995.904 686.488 995.248 686.384 994.528 686.384C992.864 686.384 991.6 686.904 990.736 687.944C989.888 688.984 989.464 690.512 989.464 692.528C989.464 694.56 989.888 696.096 990.736 697.136C991.6 698.176 992.864 698.696 994.528 698.696C995.216 698.696 995.848 698.592 996.424 698.384C997.016 698.176 997.68 697.824 998.416 697.328C998.576 697.232 998.736 697.152 998.896 697.088C999.056 697.024 999.224 696.992 999.4 696.992C999.672 696.992 999.904 697.112 1000.1 697.352C1000.29 697.592 1000.38 697.888 1000.38 698.24C1000.38 698.48 1000.34 698.696 1000.26 698.888C1000.18 699.064 1000.04 699.232 999.832 699.392C999.112 699.984 998.288 700.44 997.36 700.76C996.432 701.064 995.44 701.216 994.384 701.216ZM1009.38 689.024C1009.79 688.992 1010.12 689.08 1010.36 689.288C1010.6 689.496 1010.72 689.808 1010.72 690.224C1010.72 690.656 1010.62 690.976 1010.41 691.184C1010.2 691.392 1009.83 691.528 1009.28 691.592L1008.56 691.664C1007.62 691.76 1006.92 692.08 1006.47 692.624C1006.04 693.168 1005.83 693.848 1005.83 694.664V699.704C1005.83 700.168 1005.68 700.528 1005.39 700.784C1005.11 701.024 1004.75 701.144 1004.31 701.144C1003.88 701.144 1003.52 701.024 1003.23 700.784C1002.96 700.528 1002.83 700.168 1002.83 699.704V690.416C1002.83 689.968 1002.96 689.624 1003.23 689.384C1003.52 689.144 1003.87 689.024 1004.29 689.024C1004.71 689.024 1005.04 689.144 1005.3 689.384C1005.55 689.608 1005.68 689.936 1005.68 690.368V691.328C1005.99 690.624 1006.43 690.08 1007.03 689.696C1007.63 689.312 1008.31 689.096 1009.04 689.048L1009.38 689.024ZM1013.5 701.144C1013.07 701.144 1012.71 701.024 1012.42 700.784C1012.15 700.528 1012.01 700.168 1012.01 699.704V690.44C1012.01 689.976 1012.15 689.624 1012.42 689.384C1012.71 689.144 1013.07 689.024 1013.5 689.024C1013.93 689.024 1014.29 689.144 1014.58 689.384C1014.87 689.624 1015.01 689.976 1015.01 690.44V699.704C1015.01 700.168 1014.87 700.528 1014.58 700.784C1014.29 701.024 1013.93 701.144 1013.5 701.144ZM1013.5 686.888C1012.96 686.888 1012.53 686.744 1012.21 686.456C1011.89 686.152 1011.73 685.76 1011.73 685.28C1011.73 684.8 1011.89 684.416 1012.21 684.128C1012.53 683.84 1012.96 683.696 1013.5 683.696C1014.03 683.696 1014.45 683.84 1014.77 684.128C1015.11 684.416 1015.28 684.8 1015.28 685.28C1015.28 685.76 1015.12 686.152 1014.8 686.456C1014.48 686.744 1014.05 686.888 1013.5 686.888ZM1023.19 688.976C1024.83 688.976 1026.03 689.384 1026.82 690.2C1027.62 691 1028.02 692.224 1028.02 693.872V699.728C1028.02 700.16 1027.89 700.504 1027.63 700.76C1027.38 701 1027.03 701.12 1026.58 701.12C1026.16 701.12 1025.82 700.992 1025.55 700.736C1025.29 700.48 1025.16 700.144 1025.16 699.728V699.2C1024.89 699.824 1024.46 700.312 1023.87 700.664C1023.29 701.016 1022.62 701.192 1021.85 701.192C1021.07 701.192 1020.35 701.032 1019.71 700.712C1019.07 700.392 1018.57 699.952 1018.2 699.392C1017.83 698.832 1017.65 698.208 1017.65 697.52C1017.65 696.656 1017.87 695.976 1018.3 695.48C1018.75 694.984 1019.47 694.624 1020.46 694.4C1021.45 694.176 1022.82 694.064 1024.56 694.064H1025.16V693.512C1025.16 692.728 1024.99 692.16 1024.66 691.808C1024.32 691.44 1023.78 691.256 1023.03 691.256C1022.56 691.256 1022.09 691.328 1021.61 691.472C1021.13 691.6 1020.56 691.792 1019.91 692.048C1019.49 692.256 1019.19 692.36 1018.99 692.36C1018.71 692.36 1018.47 692.256 1018.27 692.048C1018.1 691.84 1018.01 691.568 1018.01 691.232C1018.01 690.96 1018.07 690.728 1018.2 690.536C1018.35 690.328 1018.58 690.136 1018.9 689.96C1019.46 689.656 1020.12 689.416 1020.89 689.24C1021.67 689.064 1022.44 688.976 1023.19 688.976ZM1022.45 699.032C1023.25 699.032 1023.9 698.768 1024.39 698.24C1024.91 697.696 1025.16 697 1025.16 696.152V695.648H1024.73C1023.66 695.648 1022.83 695.696 1022.23 695.792C1021.64 695.888 1021.22 696.056 1020.96 696.296C1020.71 696.536 1020.58 696.864 1020.58 697.28C1020.58 697.792 1020.75 698.216 1021.11 698.552C1021.47 698.872 1021.92 699.032 1022.45 699.032ZM1037.62 689.024C1038.04 688.992 1038.36 689.08 1038.6 689.288C1038.84 689.496 1038.96 689.808 1038.96 690.224C1038.96 690.656 1038.86 690.976 1038.65 691.184C1038.44 691.392 1038.07 691.528 1037.52 691.592L1036.8 691.664C1035.86 691.76 1035.16 692.08 1034.72 692.624C1034.28 693.168 1034.07 693.848 1034.07 694.664V699.704C1034.07 700.168 1033.92 700.528 1033.64 700.784C1033.35 701.024 1032.99 701.144 1032.56 701.144C1032.12 701.144 1031.76 701.024 1031.48 700.784C1031.2 700.528 1031.07 700.168 1031.07 699.704V690.416C1031.07 689.968 1031.2 689.624 1031.48 689.384C1031.76 689.144 1032.12 689.024 1032.53 689.024C1032.95 689.024 1033.28 689.144 1033.54 689.384C1033.8 689.608 1033.92 689.936 1033.92 690.368V691.328C1034.23 690.624 1034.68 690.08 1035.27 689.696C1035.88 689.312 1036.55 689.096 1037.28 689.048L1037.62 689.024ZM1051.98 701.192C1050.81 701.192 1049.78 700.944 1048.88 700.448C1048 699.952 1047.32 699.248 1046.84 698.336C1046.36 697.424 1046.12 696.36 1046.12 695.144C1046.12 693.928 1046.37 692.856 1046.87 691.928C1047.38 690.984 1048.09 690.256 1049 689.744C1049.91 689.232 1050.96 688.976 1052.15 688.976C1052.77 688.976 1053.39 689.064 1054.02 689.24C1054.66 689.416 1055.22 689.656 1055.7 689.96C1056.21 690.296 1056.47 690.72 1056.47 691.232C1056.47 691.584 1056.38 691.872 1056.2 692.096C1056.04 692.304 1055.83 692.408 1055.55 692.408C1055.38 692.408 1055.19 692.368 1055 692.288C1054.81 692.208 1054.62 692.112 1054.43 692C1054.07 691.792 1053.74 691.632 1053.42 691.52C1053.1 691.392 1052.73 691.328 1052.31 691.328C1051.32 691.328 1050.55 691.656 1050.01 692.312C1049.48 692.952 1049.22 693.88 1049.22 695.096C1049.22 696.296 1049.48 697.224 1050.01 697.88C1050.55 698.52 1051.32 698.84 1052.31 698.84C1052.71 698.84 1053.07 698.784 1053.37 698.672C1053.69 698.544 1054.04 698.376 1054.43 698.168C1054.67 698.024 1054.87 697.92 1055.05 697.856C1055.23 697.776 1055.4 697.736 1055.58 697.736C1055.83 697.736 1056.05 697.848 1056.23 698.072C1056.4 698.296 1056.49 698.576 1056.49 698.912C1056.49 699.184 1056.43 699.424 1056.3 699.632C1056.19 699.824 1055.99 700 1055.72 700.16C1055.23 700.48 1054.65 700.736 1053.99 700.928C1053.34 701.104 1052.67 701.192 1051.98 701.192ZM1063.84 701.192C1062.64 701.192 1061.59 700.944 1060.67 700.448C1059.78 699.952 1059.08 699.24 1058.59 698.312C1058.09 697.384 1057.84 696.304 1057.84 695.072C1057.84 693.84 1058.09 692.768 1058.59 691.856C1059.08 690.928 1059.78 690.216 1060.67 689.72C1061.59 689.224 1062.64 688.976 1063.84 688.976C1065.04 688.976 1066.09 689.224 1066.99 689.72C1067.9 690.216 1068.59 690.928 1069.07 691.856C1069.57 692.768 1069.82 693.84 1069.82 695.072C1069.82 696.304 1069.57 697.384 1069.07 698.312C1068.59 699.24 1067.9 699.952 1066.99 700.448C1066.09 700.944 1065.04 701.192 1063.84 701.192ZM1063.82 698.864C1064.79 698.864 1065.54 698.544 1066.05 697.904C1066.56 697.264 1066.82 696.32 1066.82 695.072C1066.82 693.84 1066.56 692.904 1066.05 692.264C1065.54 691.608 1064.8 691.28 1063.84 691.28C1062.88 691.28 1062.14 691.608 1061.61 692.264C1061.1 692.904 1060.84 693.84 1060.84 695.072C1060.84 696.32 1061.1 697.264 1061.61 697.904C1062.12 698.544 1062.86 698.864 1063.82 698.864ZM1079.11 688.976C1080.52 688.976 1081.57 689.376 1082.25 690.176C1082.94 690.976 1083.29 692.184 1083.29 693.8V699.704C1083.29 700.152 1083.15 700.504 1082.88 700.76C1082.62 701.016 1082.26 701.144 1081.8 701.144C1081.33 701.144 1080.97 701.016 1080.69 700.76C1080.42 700.504 1080.29 700.152 1080.29 699.704V693.968C1080.29 693.056 1080.11 692.392 1079.76 691.976C1079.42 691.56 1078.89 691.352 1078.15 691.352C1077.29 691.352 1076.59 691.624 1076.06 692.168C1075.55 692.712 1075.29 693.44 1075.29 694.352V699.704C1075.29 700.152 1075.16 700.504 1074.89 700.76C1074.61 701.016 1074.25 701.144 1073.78 701.144C1073.32 701.144 1072.95 701.016 1072.68 700.76C1072.42 700.504 1072.29 700.152 1072.29 699.704V690.416C1072.29 690 1072.43 689.664 1072.7 689.408C1072.97 689.152 1073.34 689.024 1073.81 689.024C1074.22 689.024 1074.56 689.152 1074.81 689.408C1075.09 689.648 1075.22 689.968 1075.22 690.368V691.016C1075.62 690.36 1076.16 689.856 1076.83 689.504C1077.5 689.152 1078.26 688.976 1079.11 688.976ZM1092.43 698.912C1093.23 698.96 1093.63 699.32 1093.63 699.992C1093.63 700.376 1093.47 700.672 1093.15 700.88C1092.85 701.072 1092.41 701.152 1091.83 701.12L1091.18 701.072C1088.49 700.88 1087.15 699.44 1087.15 696.752V691.52H1085.95C1085.52 691.52 1085.18 691.424 1084.94 691.232C1084.72 691.04 1084.61 690.76 1084.61 690.392C1084.61 690.024 1084.72 689.744 1084.94 689.552C1085.18 689.36 1085.52 689.264 1085.95 689.264H1087.15V687.056C1087.15 686.624 1087.29 686.28 1087.56 686.024C1087.83 685.768 1088.2 685.64 1088.66 685.64C1089.11 685.64 1089.47 685.768 1089.74 686.024C1090.01 686.28 1090.15 686.624 1090.15 687.056V689.264H1092.19C1092.62 689.264 1092.95 689.36 1093.17 689.552C1093.41 689.744 1093.53 690.024 1093.53 690.392C1093.53 690.76 1093.41 691.04 1093.17 691.232C1092.95 691.424 1092.62 691.52 1092.19 691.52H1090.15V696.968C1090.15 698.152 1090.69 698.784 1091.78 698.864L1092.43 698.912ZM1100.28 688.976C1101.91 688.976 1103.12 689.384 1103.9 690.2C1104.7 691 1105.1 692.224 1105.1 693.872V699.728C1105.1 700.16 1104.98 700.504 1104.72 700.76C1104.46 701 1104.11 701.12 1103.66 701.12C1103.25 701.12 1102.9 700.992 1102.63 700.736C1102.38 700.48 1102.25 700.144 1102.25 699.728V699.2C1101.98 699.824 1101.54 700.312 1100.95 700.664C1100.38 701.016 1099.7 701.192 1098.94 701.192C1098.15 701.192 1097.44 701.032 1096.8 700.712C1096.16 700.392 1095.66 699.952 1095.29 699.392C1094.92 698.832 1094.74 698.208 1094.74 697.52C1094.74 696.656 1094.95 695.976 1095.38 695.48C1095.83 694.984 1096.55 694.624 1097.54 694.4C1098.54 694.176 1099.9 694.064 1101.65 694.064H1102.25V693.512C1102.25 692.728 1102.08 692.16 1101.74 691.808C1101.41 691.44 1100.86 691.256 1100.11 691.256C1099.65 691.256 1099.18 691.328 1098.7 691.472C1098.22 691.6 1097.65 691.792 1096.99 692.048C1096.58 692.256 1096.27 692.36 1096.08 692.36C1095.79 692.36 1095.55 692.256 1095.36 692.048C1095.18 691.84 1095.1 691.568 1095.1 691.232C1095.1 690.96 1095.16 690.728 1095.29 690.536C1095.43 690.328 1095.66 690.136 1095.98 689.96C1096.54 689.656 1097.21 689.416 1097.98 689.24C1098.76 689.064 1099.53 688.976 1100.28 688.976ZM1099.54 699.032C1100.34 699.032 1100.98 698.768 1101.48 698.24C1101.99 697.696 1102.25 697 1102.25 696.152V695.648H1101.82C1100.74 695.648 1099.91 695.696 1099.32 695.792C1098.73 695.888 1098.3 696.056 1098.05 696.296C1097.79 696.536 1097.66 696.864 1097.66 697.28C1097.66 697.792 1097.84 698.216 1098.19 698.552C1098.56 698.872 1099.01 699.032 1099.54 699.032Z" fill="white"/>
<g filter="url(#filter2_d)">
<path d="M934.742 760.242V772.172C934.742 775.391 932.965 777 929.41 777V775.945C932.145 775.945 933.512 774.688 933.512 772.172V760.242H934.742ZM937.789 773.52C937.789 771.074 939.414 769.852 942.664 769.852C943.812 769.852 945.039 769.93 946.344 770.086V768.574C946.344 766.691 945.16 765.75 942.793 765.75C941.527 765.75 940.23 765.945 938.902 766.336V765.281C940.23 764.891 941.527 764.695 942.793 764.695C945.98 764.695 947.574 765.969 947.574 768.516V777H946.824L946.543 775.781C945.004 776.594 943.512 777 942.066 777C939.215 777 937.789 775.84 937.789 773.52ZM942.664 770.906C940.234 770.906 939.02 771.766 939.02 773.484C939.02 775.125 940.035 775.945 942.066 775.945C943.566 775.945 944.992 775.547 946.344 774.75V771.141C945.039 770.984 943.812 770.906 942.664 770.906ZM943.812 760.242H945.676L942.875 763.043H941.891L943.812 760.242ZM957.148 762.703H958.016L958.238 764.695H961.93V765.75H958.344V773.52C958.344 775.137 958.938 775.945 960.125 775.945H961.93V777H960.148C958.148 777 957.148 775.895 957.148 773.684V762.703ZM969.512 764.695C972.879 764.695 974.562 766.559 974.562 770.285C974.562 770.551 974.555 770.828 974.539 771.117H965.199C965.199 774.336 966.902 775.945 970.309 775.945C971.707 775.945 972.949 775.75 974.035 775.359V776.414C972.949 776.805 971.707 777 970.309 777C966.082 777 963.969 774.902 963.969 770.707C963.969 766.699 965.816 764.695 969.512 764.695ZM965.199 770.016H973.379C973.332 767.156 972.043 765.727 969.512 765.727C966.777 765.727 965.34 767.156 965.199 770.016ZM977.727 777V764.695H978.605L978.758 766.266C980.328 765.219 981.867 764.695 983.375 764.695C986.367 764.695 987.863 765.988 987.863 768.574V777H986.633V768.539C986.633 766.711 985.527 765.797 983.316 765.797C981.84 765.797 980.387 766.316 978.957 767.355V777H977.727ZM991.625 777V760.242H992.855V766.031C994.293 765.141 995.766 764.695 997.273 764.695C1000.27 764.695 1001.76 766.223 1001.76 769.277V777H1000.53V768.773C1000.53 766.789 999.426 765.797 997.215 765.797C995.738 765.797 994.285 766.316 992.855 767.355V777H991.625ZM1006.17 770.801C1006.17 774.309 1007.67 776.062 1010.68 776.062C1013.69 776.062 1015.19 774.309 1015.19 770.801C1015.19 767.355 1013.69 765.633 1010.68 765.633C1007.67 765.633 1006.17 767.355 1006.17 770.801ZM1004.94 770.848C1004.94 766.668 1006.85 764.578 1010.68 764.578C1014.51 764.578 1016.42 766.668 1016.42 770.848C1016.42 775.02 1014.51 777.105 1010.68 777.105C1006.87 777.105 1004.95 775.02 1004.94 770.848ZM1035.58 764.695V777H1034.68L1034.54 775.43C1033.12 776.477 1031.55 777 1029.8 777C1026.9 777 1025.45 775.473 1025.45 772.418V764.695H1026.68V772.453C1026.68 774.75 1027.74 775.898 1029.86 775.898C1031.42 775.898 1032.91 775.379 1034.35 774.34V764.695H1035.58ZM1039.34 777V764.695H1040.22L1040.35 766.242C1041.61 765.211 1042.97 764.695 1044.44 764.695C1046.38 764.695 1047.63 765.258 1048.2 766.383C1049.62 765.258 1051.05 764.695 1052.5 764.695C1055.25 764.695 1056.63 766.059 1056.63 768.785V777H1055.4V768.785C1055.4 766.793 1054.43 765.797 1052.49 765.797C1050.95 765.797 1049.67 766.328 1048.66 767.391V777H1047.43V768.586C1047.43 766.727 1046.43 765.797 1044.43 765.797C1042.98 765.797 1041.69 766.328 1040.57 767.391V777H1039.34ZM1059.69 773.52C1059.69 771.074 1061.31 769.852 1064.56 769.852C1065.71 769.852 1066.94 769.93 1068.24 770.086V768.574C1068.24 766.691 1067.06 765.75 1064.69 765.75C1063.43 765.75 1062.13 765.945 1060.8 766.336V765.281C1062.13 764.891 1063.43 764.695 1064.69 764.695C1067.88 764.695 1069.47 765.969 1069.47 768.516V777H1068.72L1068.44 775.781C1066.9 776.594 1065.41 777 1063.96 777C1061.11 777 1059.69 775.84 1059.69 773.52ZM1064.56 770.906C1062.13 770.906 1060.92 771.766 1060.92 773.484C1060.92 775.125 1061.93 775.945 1063.96 775.945C1065.46 775.945 1066.89 775.547 1068.24 774.75V771.141C1066.94 770.984 1065.71 770.906 1064.56 770.906ZM1088 776.648C1086.98 776.883 1085.89 777 1084.72 777C1080.58 777 1078.51 774.871 1078.51 770.613C1078.51 766.668 1080.58 764.695 1084.72 764.695C1085.89 764.695 1086.98 764.812 1088 765.047V766.102C1086.91 765.867 1085.85 765.75 1084.84 765.75C1081.52 765.75 1079.86 767.371 1079.86 770.613C1079.86 774.168 1081.52 775.945 1084.84 775.945C1085.85 775.945 1086.91 775.828 1088 775.594V776.648ZM1091.53 770.801C1091.53 774.309 1093.03 776.062 1096.04 776.062C1099.05 776.062 1100.55 774.309 1100.55 770.801C1100.55 767.355 1099.05 765.633 1096.04 765.633C1093.03 765.633 1091.53 767.355 1091.53 770.801ZM1090.3 770.848C1090.3 766.668 1092.21 764.578 1096.04 764.578C1099.87 764.578 1101.78 766.668 1101.78 770.848C1101.78 775.02 1099.87 777.105 1096.04 777.105C1092.23 777.105 1090.31 775.02 1090.3 770.848ZM1104.95 777V764.695H1105.82L1105.98 766.266C1107.55 765.219 1109.09 764.695 1110.59 764.695C1113.59 764.695 1115.08 765.988 1115.08 768.574V777H1113.85V768.539C1113.85 766.711 1112.75 765.797 1110.54 765.797C1109.06 765.797 1107.61 766.316 1106.18 767.355V777H1104.95ZM1118.8 762.703H1119.66L1119.89 764.695H1123.58V765.75H1119.99V773.52C1119.99 775.137 1120.59 775.945 1121.77 775.945H1123.58V777H1121.8C1119.8 777 1118.8 775.895 1118.8 773.684V762.703ZM1125.5 773.52C1125.5 771.074 1127.12 769.852 1130.38 769.852C1131.52 769.852 1132.75 769.93 1134.05 770.086V768.574C1134.05 766.691 1132.87 765.75 1130.5 765.75C1129.24 765.75 1127.94 765.945 1126.61 766.336V765.281C1127.94 764.891 1129.24 764.695 1130.5 764.695C1133.69 764.695 1135.29 765.969 1135.29 768.516V777H1134.54L1134.25 775.781C1132.71 776.594 1131.22 777 1129.78 777C1126.93 777 1125.5 775.84 1125.5 773.52ZM1130.38 770.906C1127.95 770.906 1126.73 771.766 1126.73 773.484C1126.73 775.125 1127.75 775.945 1129.78 775.945C1131.28 775.945 1132.7 775.547 1134.05 774.75V771.141C1132.75 770.984 1131.52 770.906 1130.38 770.906Z" fill="#2D9CDB"/>
</g>
<path d="M891.584 259.104C891.584 255.776 892.304 252.816 893.744 250.224C895.184 247.6 897.184 245.568 899.744 244.128C902.336 242.656 905.264 241.92 908.528 241.92C912.528 241.92 915.952 242.976 918.8 245.088C921.648 247.2 923.552 250.08 924.512 253.728H915.488C914.816 252.32 913.856 251.248 912.608 250.512C911.392 249.776 910 249.408 908.432 249.408C905.904 249.408 903.856 250.288 902.288 252.048C900.72 253.808 899.936 256.16 899.936 259.104C899.936 262.048 900.72 264.4 902.288 266.16C903.856 267.92 905.904 268.8 908.432 268.8C910 268.8 911.392 268.432 912.608 267.696C913.856 266.96 914.816 265.888 915.488 264.48H924.512C923.552 268.128 921.648 271.008 918.8 273.12C915.952 275.2 912.528 276.24 908.528 276.24C905.264 276.24 902.336 275.52 899.744 274.08C897.184 272.608 895.184 270.576 893.744 267.984C892.304 265.392 891.584 262.432 891.584 259.104ZM927.907 262.56C927.907 259.808 928.419 257.392 929.443 255.312C930.499 253.232 931.923 251.632 933.715 250.512C935.507 249.392 937.507 248.832 939.715 248.832C941.603 248.832 943.251 249.216 944.659 249.984C946.099 250.752 947.203 251.76 947.971 253.008V249.216H956.179V276H947.971V272.208C947.171 273.456 946.051 274.464 944.611 275.232C943.203 276 941.555 276.384 939.667 276.384C937.491 276.384 935.507 275.824 933.715 274.704C931.923 273.552 930.499 271.936 929.443 269.856C928.419 267.744 927.907 265.312 927.907 262.56ZM947.971 262.608C947.971 260.56 947.395 258.944 946.243 257.76C945.123 256.576 943.747 255.984 942.115 255.984C940.483 255.984 939.091 256.576 937.939 257.76C936.819 258.912 936.259 260.512 936.259 262.56C936.259 264.608 936.819 266.24 937.939 267.456C939.091 268.64 940.483 269.232 942.115 269.232C943.747 269.232 945.123 268.64 946.243 267.456C947.395 266.272 947.971 264.656 947.971 262.608ZM960.485 262.56C960.485 259.808 960.997 257.392 962.021 255.312C963.077 253.232 964.501 251.632 966.293 250.512C968.085 249.392 970.085 248.832 972.293 248.832C974.053 248.832 975.653 249.2 977.093 249.936C978.565 250.672 979.717 251.664 980.549 252.912V240.48H988.757V276H980.549V272.16C979.781 273.44 978.677 274.464 977.237 275.232C975.829 276 974.181 276.384 972.293 276.384C970.085 276.384 968.085 275.824 966.293 274.704C964.501 273.552 963.077 271.936 962.021 269.856C960.997 267.744 960.485 265.312 960.485 262.56ZM980.549 262.608C980.549 260.56 979.973 258.944 978.821 257.76C977.701 256.576 976.325 255.984 974.693 255.984C973.061 255.984 971.669 256.576 970.517 257.76C969.397 258.912 968.837 260.512 968.837 262.56C968.837 264.608 969.397 266.24 970.517 267.456C971.669 268.64 973.061 269.232 974.693 269.232C976.325 269.232 977.701 268.64 978.821 267.456C979.973 266.272 980.549 264.656 980.549 262.608ZM993.063 262.56C993.063 259.808 993.575 257.392 994.599 255.312C995.655 253.232 997.079 251.632 998.871 250.512C1000.66 249.392 1002.66 248.832 1004.87 248.832C1006.76 248.832 1008.41 249.216 1009.81 249.984C1011.25 250.752 1012.36 251.76 1013.13 253.008V249.216H1021.33V276H1013.13V272.208C1012.33 273.456 1011.21 274.464 1009.77 275.232C1008.36 276 1006.71 276.384 1004.82 276.384C1002.65 276.384 1000.66 275.824 998.871 274.704C997.079 273.552 995.655 271.936 994.599 269.856C993.575 267.744 993.063 265.312 993.063 262.56ZM1013.13 262.608C1013.13 260.56 1012.55 258.944 1011.4 257.76C1010.28 256.576 1008.9 255.984 1007.27 255.984C1005.64 255.984 1004.25 256.576 1003.09 257.76C1001.97 258.912 1001.41 260.512 1001.41 262.56C1001.41 264.608 1001.97 266.24 1003.09 267.456C1004.25 268.64 1005.64 269.232 1007.27 269.232C1008.9 269.232 1010.28 268.64 1011.4 267.456C1012.55 266.272 1013.13 264.656 1013.13 262.608ZM1038.17 276.384C1035.83 276.384 1033.75 275.984 1031.93 275.184C1030.1 274.384 1028.66 273.296 1027.61 271.92C1026.55 270.512 1025.96 268.944 1025.83 267.216H1033.94C1034.04 268.144 1034.47 268.896 1035.24 269.472C1036.01 270.048 1036.95 270.336 1038.07 270.336C1039.1 270.336 1039.88 270.144 1040.42 269.76C1041 269.344 1041.29 268.816 1041.29 268.176C1041.29 267.408 1040.89 266.848 1040.09 266.496C1039.29 266.112 1037.99 265.696 1036.2 265.248C1034.28 264.8 1032.68 264.336 1031.4 263.856C1030.12 263.344 1029.02 262.56 1028.09 261.504C1027.16 260.416 1026.7 258.96 1026.7 257.136C1026.7 255.6 1027.11 254.208 1027.94 252.96C1028.81 251.68 1030.06 250.672 1031.69 249.936C1033.35 249.2 1035.32 248.832 1037.59 248.832C1040.95 248.832 1043.59 249.664 1045.51 251.328C1047.46 252.992 1048.58 255.2 1048.87 257.952H1041.29C1041.16 257.024 1040.74 256.288 1040.04 255.744C1039.37 255.2 1038.47 254.928 1037.35 254.928C1036.39 254.928 1035.66 255.12 1035.14 255.504C1034.63 255.856 1034.38 256.352 1034.38 256.992C1034.38 257.76 1034.78 258.336 1035.58 258.72C1036.41 259.104 1037.69 259.488 1039.42 259.872C1041.4 260.384 1043.02 260.896 1044.26 261.408C1045.51 261.888 1046.6 262.688 1047.53 263.808C1048.49 264.896 1048.98 266.368 1049.02 268.224C1049.02 269.792 1048.57 271.2 1047.67 272.448C1046.81 273.664 1045.54 274.624 1043.88 275.328C1042.25 276.032 1040.34 276.384 1038.17 276.384ZM1068.97 269.04V276H1064.79C1061.81 276 1059.49 275.28 1057.83 273.84C1056.17 272.368 1055.33 269.984 1055.33 266.688V256.032H1052.07V249.216H1055.33V242.688H1063.54V249.216H1068.92V256.032H1063.54V266.784C1063.54 267.584 1063.73 268.16 1064.12 268.512C1064.5 268.864 1065.14 269.04 1066.04 269.04H1068.97ZM1081.75 253.68C1082.71 252.208 1083.91 251.056 1085.35 250.224C1086.79 249.36 1088.39 248.928 1090.15 248.928V257.616H1087.89C1085.84 257.616 1084.31 258.064 1083.28 258.96C1082.26 259.824 1081.75 261.36 1081.75 263.568V276H1073.54V249.216H1081.75V253.68ZM1119.32 262.176C1119.32 262.944 1119.27 263.744 1119.17 264.576H1100.6C1100.73 266.24 1101.25 267.52 1102.18 268.416C1103.14 269.28 1104.31 269.712 1105.69 269.712C1107.73 269.712 1109.16 268.848 1109.96 267.12H1118.69C1118.25 268.88 1117.43 270.464 1116.25 271.872C1115.09 273.28 1113.64 274.384 1111.88 275.184C1110.12 275.984 1108.15 276.384 1105.97 276.384C1103.35 276.384 1101.01 275.824 1098.97 274.704C1096.92 273.584 1095.32 271.984 1094.17 269.904C1093.01 267.824 1092.44 265.392 1092.44 262.608C1092.44 259.824 1093 257.392 1094.12 255.312C1095.27 253.232 1096.87 251.632 1098.92 250.512C1100.97 249.392 1103.32 248.832 1105.97 248.832C1108.57 248.832 1110.87 249.376 1112.89 250.464C1114.9 251.552 1116.47 253.104 1117.59 255.12C1118.74 257.136 1119.32 259.488 1119.32 262.176ZM1110.92 260.016C1110.92 258.608 1110.44 257.488 1109.48 256.656C1108.52 255.824 1107.32 255.408 1105.88 255.408C1104.5 255.408 1103.33 255.808 1102.37 256.608C1101.45 257.408 1100.87 258.544 1100.65 260.016H1110.92ZM1144.29 255.744V262.56H1123.17V255.744H1144.29ZM1162.39 276.384C1160.05 276.384 1157.97 275.984 1156.15 275.184C1154.32 274.384 1152.88 273.296 1151.83 271.92C1150.77 270.512 1150.18 268.944 1150.05 267.216H1158.16C1158.26 268.144 1158.69 268.896 1159.46 269.472C1160.23 270.048 1161.17 270.336 1162.29 270.336C1163.32 270.336 1164.1 270.144 1164.64 269.76C1165.22 269.344 1165.51 268.816 1165.51 268.176C1165.51 267.408 1165.11 266.848 1164.31 266.496C1163.51 266.112 1162.21 265.696 1160.42 265.248C1158.5 264.8 1156.9 264.336 1155.62 263.856C1154.34 263.344 1153.24 262.56 1152.31 261.504C1151.38 260.416 1150.92 258.96 1150.92 257.136C1150.92 255.6 1151.33 254.208 1152.16 252.96C1153.03 251.68 1154.28 250.672 1155.91 249.936C1157.57 249.2 1159.54 248.832 1161.81 248.832C1165.17 248.832 1167.81 249.664 1169.73 251.328C1171.68 252.992 1172.8 255.2 1173.09 257.952H1165.51C1165.38 257.024 1164.96 256.288 1164.26 255.744C1163.59 255.2 1162.69 254.928 1161.57 254.928C1160.61 254.928 1159.88 255.12 1159.36 255.504C1158.85 255.856 1158.6 256.352 1158.6 256.992C1158.6 257.76 1159 258.336 1159.8 258.72C1160.63 259.104 1161.91 259.488 1163.64 259.872C1165.62 260.384 1167.24 260.896 1168.48 261.408C1169.73 261.888 1170.82 262.688 1171.75 263.808C1172.71 264.896 1173.2 266.368 1173.24 268.224C1173.24 269.792 1172.79 271.2 1171.89 272.448C1171.03 273.664 1169.76 274.624 1168.1 275.328C1166.47 276.032 1164.56 276.384 1162.39 276.384ZM1203.51 262.176C1203.51 262.944 1203.46 263.744 1203.36 264.576H1184.79C1184.91 266.24 1185.44 267.52 1186.37 268.416C1187.33 269.28 1188.5 269.712 1189.87 269.712C1191.92 269.712 1193.35 268.848 1194.15 267.12H1202.88C1202.43 268.88 1201.62 270.464 1200.43 271.872C1199.28 273.28 1197.83 274.384 1196.07 275.184C1194.31 275.984 1192.34 276.384 1190.16 276.384C1187.54 276.384 1185.2 275.824 1183.15 274.704C1181.11 273.584 1179.51 271.984 1178.35 269.904C1177.2 267.824 1176.63 265.392 1176.63 262.608C1176.63 259.824 1177.19 257.392 1178.31 255.312C1179.46 253.232 1181.06 251.632 1183.11 250.512C1185.15 249.392 1187.51 248.832 1190.16 248.832C1192.75 248.832 1195.06 249.376 1197.07 250.464C1199.09 251.552 1200.66 253.104 1201.78 255.12C1202.93 257.136 1203.51 259.488 1203.51 262.176ZM1195.11 260.016C1195.11 258.608 1194.63 257.488 1193.67 256.656C1192.71 255.824 1191.51 255.408 1190.07 255.408C1188.69 255.408 1187.52 255.808 1186.56 256.608C1185.63 257.408 1185.06 258.544 1184.83 260.016H1195.11ZM1218.64 241.104L1217.68 264.096H1210.72L1209.76 241.104H1218.64ZM1214.32 276.384C1212.88 276.384 1211.69 275.968 1210.76 275.136C1209.87 274.272 1209.42 273.216 1209.42 271.968C1209.42 270.688 1209.87 269.616 1210.76 268.752C1211.69 267.888 1212.88 267.456 1214.32 267.456C1215.72 267.456 1216.88 267.888 1217.77 268.752C1218.7 269.616 1219.16 270.688 1219.16 271.968C1219.16 273.216 1218.7 274.272 1217.77 275.136C1216.88 275.968 1215.72 276.384 1214.32 276.384Z" fill="#2D9CDB"/>
<g clip-path="url(#clip0)">
<path d="M404.327 368.241C403.053 368.241 401.778 367.712 400.805 366.654C398.86 364.537 398.86 361.106 400.805 358.989L409.584 349.435C416.16 342.28 424.356 337.005 433.287 334.182C435.929 333.345 438.692 335.001 439.459 337.875C440.226 340.75 438.706 343.757 436.065 344.591C428.741 346.906 422.02 351.23 416.627 357.1L407.849 366.654C406.876 367.711 405.601 368.241 404.327 368.241Z" fill="#495059"/>
<path d="M275.572 399.373C294.698 399.373 310.203 382.5 310.203 361.687C310.203 340.873 294.698 324 275.572 324C256.446 324 240.941 340.873 240.941 361.687C240.941 382.5 256.446 399.373 275.572 399.373Z" fill="#F5D7B7"/>
<path opacity="0.1" d="M275.572 399.373C294.698 399.373 310.203 382.5 310.203 361.687C310.203 340.873 294.698 324 275.572 324C256.446 324 240.941 340.873 240.941 361.687C240.941 382.5 256.446 399.373 275.572 399.373Z" fill="black"/>
<path d="M405.369 540.623C424.495 540.623 440 523.751 440 502.937C440 482.123 424.495 465.25 405.369 465.25C386.243 465.25 370.738 482.123 370.738 502.937C370.738 523.751 386.243 540.623 405.369 540.623Z" fill="#F5D7B7"/>
<path opacity="0.1" d="M405.369 540.623C424.495 540.623 440 523.751 440 502.937C440 482.123 424.495 465.25 405.369 465.25C386.243 465.25 370.738 482.123 370.738 502.937C370.738 523.751 386.243 540.623 405.369 540.623Z" fill="black"/>
<path d="M166.718 694C203.566 694 233.437 661.493 233.437 621.395C233.437 581.296 203.566 548.789 166.718 548.789C129.871 548.789 100 581.296 100 621.395C100 661.493 129.871 694 166.718 694Z" fill="#38648C"/>
<path opacity="0.1" d="M213.893 672.735C239.947 644.382 239.947 598.411 213.893 570.058C187.838 541.704 145.595 541.704 119.541 570.058C109.234 581.274 103.021 595.249 100.869 609.798C106.3 614 113.889 618.074 124.172 622.403C132.859 626.059 143.473 629.855 155.484 633.621C158.944 646.691 162.432 658.242 165.792 667.695C169.77 678.886 173.513 687.145 177.374 693.055C190.744 690.711 203.586 683.951 213.893 672.735Z" fill="black"/>
<path d="M408.836 511.827C448.768 468.372 449.476 398.689 410.419 356.185C371.361 313.682 307.328 314.453 267.397 357.907C227.466 401.362 226.757 471.045 265.814 513.549C304.872 556.053 368.905 555.282 408.836 511.827Z" fill="#F5D7B7"/>
<path d="M309.579 412.364C315.908 405.477 314.596 392.882 306.648 384.234C298.701 375.585 287.127 374.157 280.798 381.045C274.469 387.932 275.782 400.526 283.729 409.175C291.676 417.824 303.25 419.252 309.579 412.364Z" fill="#F28B74"/>
<path d="M358.806 465.933C352.477 472.82 353.789 485.415 361.736 494.063C369.684 502.712 381.257 504.14 387.586 497.253C393.915 490.365 392.603 477.771 384.655 469.122C376.708 460.473 365.135 459.046 358.806 465.933Z" fill="#F28B74"/>
<path d="M322.897 405.133C321.623 405.133 320.348 404.604 319.376 403.546C317.431 401.429 317.431 397.998 319.376 395.881C320.264 394.914 320.754 393.629 320.754 392.261C320.754 390.892 320.264 389.606 319.376 388.639C318.487 387.671 317.305 387.139 316.048 387.139C314.791 387.139 313.61 387.671 312.721 388.639C310.776 390.756 307.623 390.755 305.677 388.639C303.732 386.523 303.732 383.091 305.677 380.974C308.448 377.959 312.131 376.299 316.048 376.299C319.966 376.299 323.65 377.959 326.42 380.974C329.189 383.988 330.715 387.997 330.715 392.26C330.715 396.522 329.189 400.531 326.419 403.546C325.447 404.604 324.172 405.133 322.897 405.133Z" fill="#495059"/>
<path d="M384.124 471.763C382.85 471.763 381.575 471.234 380.603 470.176C378.658 468.059 378.658 464.627 380.603 462.511C381.491 461.544 381.98 460.258 381.98 458.89C381.98 457.522 381.491 456.235 380.603 455.268C378.767 453.27 375.782 453.27 373.947 455.268C372.002 457.384 368.849 457.384 366.904 455.268C364.959 453.151 364.959 449.72 366.904 447.603C372.622 441.38 381.927 441.38 387.646 447.603C390.415 450.618 391.941 454.627 391.941 458.89C391.941 463.153 390.416 467.161 387.646 470.176C386.673 471.233 385.398 471.763 384.124 471.763Z" fill="#495059"/>
<path d="M344.982 447.648C340.061 447.648 335.325 445.529 331.825 441.721C328.022 437.583 326.053 431.856 326.422 426.009C326.61 423.022 328.992 420.764 331.732 420.973C334.476 421.177 336.547 423.764 336.359 426.751C336.188 429.472 337.103 432.134 338.868 434.055C340.634 435.977 343.079 436.967 345.58 436.785C348.323 436.591 350.702 438.834 350.89 441.82C351.079 444.807 349.007 447.394 346.263 447.6C345.835 447.632 345.408 447.648 344.982 447.648Z" fill="#495059"/>
<path opacity="0.05" d="M310.956 329.514C295.062 334.7 280.026 344.167 267.4 357.907C227.468 401.362 226.761 471.045 265.819 513.551C288.465 538.195 319.505 548.288 349.378 543.952C285.636 520.916 266.114 405.09 310.956 329.514Z" fill="black"/>
<path d="M186.451 483.611C227.168 484.142 319.192 494.692 372.172 524.788C380.439 529.484 384.178 540.124 380.901 549.626C372.591 573.719 350.663 609.317 330.591 630.733C320.443 641.56 306.514 647.203 292.325 646.325C236.332 642.861 112.789 611.912 103.788 591.855C94.6459 571.483 123.366 519.064 157.696 493.094C166.118 486.723 176.195 483.477 186.451 483.611Z" fill="#76B7EB"/>
<path opacity="0.1" d="M186.451 483.611C227.168 484.142 319.192 494.692 372.172 524.788C380.439 529.484 384.178 540.124 380.901 549.626C372.591 573.719 350.663 609.317 330.591 630.733C320.443 641.56 306.514 647.203 292.325 646.325C236.332 642.861 112.789 611.912 103.788 591.855C94.6459 571.483 123.366 519.064 157.696 493.094C166.118 486.723 176.195 483.477 186.451 483.611Z" fill="black"/>
<path opacity="0.1" d="M157.696 493.094C148.897 499.75 140.469 508.146 132.95 517.292C136.424 545.145 142.404 578.65 149.683 610.144C150.18 612.294 150.68 614.41 151.182 616.505C194.281 630.869 256.107 643.958 291.616 646.276C293.139 644.146 294.603 641.993 295.993 639.817C303.474 628.104 307.344 614.245 307.184 599.74C306.972 580.463 304.63 540.697 297.745 497.932C255.228 487.987 211.292 483.933 186.452 483.609C176.195 483.477 166.117 486.723 157.696 493.094Z" fill="black"/>
<path d="M293.33 599.922C292.843 555.611 283.148 455.468 255.492 397.814C251.176 388.816 241.399 384.748 232.668 388.314C210.528 397.357 177.817 421.22 158.137 443.063C148.188 454.106 143.003 469.265 143.809 484.706C146.993 545.639 175.432 680.083 193.862 689.878C212.583 699.827 260.753 668.573 284.617 631.214C290.47 622.049 293.453 611.082 293.33 599.922Z" fill="#76B7EB"/>
<g opacity="0.1">
<path opacity="0.1" d="M176.574 557.215C174.248 557.216 172.169 555.434 171.695 552.858C171.271 550.552 169.29 536.439 169.29 533.703C169.29 530.709 171.519 528.283 174.27 528.283C177.012 528.283 179.236 530.694 179.25 533.674C179.304 535.464 180.962 548.008 181.462 550.731C182.002 553.666 180.254 556.522 177.556 557.109C177.226 557.18 176.897 557.215 176.574 557.215ZM179.25 533.703H179.257H179.25Z" fill="black"/>
<path opacity="0.1" d="M230.78 458.728C230.256 458.728 229.723 458.637 229.197 458.447C226.588 457.5 225.182 454.416 226.052 451.576C226.416 450.385 227.405 448.121 229.63 443.165C230.245 441.795 230.826 440.5 231.037 439.993C232.171 437.266 235.121 436.055 237.628 437.29C240.133 438.525 241.245 441.736 240.111 444.463C239.84 445.116 239.284 446.354 238.58 447.923C237.606 450.093 235.792 454.134 235.493 455.033C234.797 457.301 232.862 458.728 230.78 458.728Z" fill="black"/>
<path opacity="0.1" d="M253.952 564.325C253.102 564.325 252.242 564.089 251.455 563.592C249.02 562.052 242.217 557.82 240.012 556.726C237.509 555.484 236.405 552.27 237.546 549.546C238.687 546.822 241.64 545.619 244.143 546.862C247.191 548.374 255.518 553.623 256.458 554.217C258.836 555.72 259.645 559.037 258.264 561.625C257.339 563.358 255.668 564.325 253.952 564.325Z" fill="black"/>
<path opacity="0.1" d="M219.826 655.211C217.076 655.211 214.846 652.786 214.846 649.792C214.846 646.805 214.129 635.544 213.785 630.132C213.674 628.394 213.591 627.082 213.559 626.509C213.395 623.521 215.487 620.953 218.233 620.775C220.986 620.578 223.338 622.874 223.502 625.862C223.533 626.419 223.614 627.693 223.722 629.383C224.247 637.631 224.807 646.69 224.807 649.792C224.807 652.786 222.577 655.211 219.826 655.211Z" fill="black"/>
<path opacity="0.1" d="M318.194 560.771C316.14 560.771 314.217 559.378 313.496 557.15C312.582 554.327 313.945 551.232 316.539 550.238C318.447 549.506 322.926 546.585 325.889 544.653C330.224 541.826 331.664 540.917 333.087 540.607C335.783 540.022 338.408 541.923 338.948 544.858C339.454 547.61 337.948 550.291 335.536 551.1C334.791 551.485 332.618 552.903 331.01 553.951C327.117 556.49 322.705 559.366 319.849 560.462C319.301 560.671 318.743 560.771 318.194 560.771ZM335.048 551.235C335.046 551.235 335.044 551.236 335.042 551.236C335.044 551.236 335.046 551.235 335.048 551.235Z" fill="black"/>
</g>
</g>
<path d="M209.602 142.469L204.117 148.375V163H193.57V111.812H204.117V135.016L208.758 128.652L221.801 111.812H234.773L216.598 134.559L235.301 163H222.75L209.602 142.469ZM249.328 163H239.133V124.961H249.328V163ZM238.535 115.117C238.535 113.594 239.039 112.34 240.047 111.355C241.078 110.371 242.473 109.879 244.23 109.879C245.965 109.879 247.348 110.371 248.379 111.355C249.41 112.34 249.926 113.594 249.926 115.117C249.926 116.664 249.398 117.93 248.344 118.914C247.312 119.898 245.941 120.391 244.23 120.391C242.52 120.391 241.137 119.898 240.082 118.914C239.051 117.93 238.535 116.664 238.535 115.117ZM256.148 143.699C256.148 137.77 257.473 133.047 260.121 129.531C262.793 126.016 266.438 124.258 271.055 124.258C274.758 124.258 277.816 125.641 280.23 128.406V109H290.426V163H281.25L280.758 158.957C278.227 162.121 274.969 163.703 270.984 163.703C266.508 163.703 262.91 161.945 260.191 158.43C257.496 154.891 256.148 149.98 256.148 143.699ZM266.309 144.438C266.309 148 266.93 150.73 268.172 152.629C269.414 154.527 271.219 155.477 273.586 155.477C276.727 155.477 278.941 154.152 280.23 151.504V136.492C278.965 133.844 276.773 132.52 273.656 132.52C268.758 132.52 266.309 136.492 266.309 144.438ZM301.219 127.527L296.438 124.75C298.453 121.586 299.496 118.316 299.566 114.941V109H307.652V114.449C307.652 116.559 307.066 118.844 305.895 121.305C304.723 123.766 303.164 125.84 301.219 127.527ZM327.27 152.488C327.27 151.246 326.648 150.273 325.406 149.57C324.188 148.844 322.219 148.199 319.5 147.637C310.453 145.738 305.93 141.895 305.93 136.105C305.93 132.73 307.324 129.918 310.113 127.668C312.926 125.395 316.594 124.258 321.117 124.258C325.945 124.258 329.801 125.395 332.684 127.668C335.59 129.941 337.043 132.895 337.043 136.527H326.883C326.883 135.074 326.414 133.879 325.477 132.941C324.539 131.98 323.074 131.5 321.082 131.5C319.371 131.5 318.047 131.887 317.109 132.66C316.172 133.434 315.703 134.418 315.703 135.613C315.703 136.738 316.23 137.652 317.285 138.355C318.363 139.035 320.168 139.633 322.699 140.148C325.23 140.641 327.363 141.203 329.098 141.836C334.465 143.805 337.148 147.215 337.148 152.066C337.148 155.535 335.66 158.348 332.684 160.504C329.707 162.637 325.863 163.703 321.152 163.703C317.965 163.703 315.129 163.141 312.645 162.016C310.184 160.867 308.25 159.309 306.844 157.34C305.438 155.348 304.734 153.203 304.734 150.906H314.367C314.461 152.711 315.129 154.094 316.371 155.055C317.613 156.016 319.277 156.496 321.363 156.496C323.309 156.496 324.773 156.133 325.758 155.406C326.766 154.656 327.27 153.684 327.27 152.488ZM384.434 159.133C381.926 162.18 378.457 163.703 374.027 163.703C369.949 163.703 366.832 162.531 364.676 160.188C362.543 157.844 361.453 154.41 361.406 149.887V124.961H371.566V149.535C371.566 153.496 373.371 155.477 376.98 155.477C380.426 155.477 382.793 154.281 384.082 151.891V124.961H394.277V163H384.715L384.434 159.133ZM436.184 144.332C436.184 150.191 434.848 154.891 432.176 158.43C429.527 161.945 425.941 163.703 421.418 163.703C417.574 163.703 414.469 162.367 412.102 159.695V177.625H401.941V124.961H411.363L411.715 128.688C414.176 125.734 417.387 124.258 421.348 124.258C426.035 124.258 429.68 125.992 432.281 129.461C434.883 132.93 436.184 137.711 436.184 143.805V144.332ZM426.023 143.594C426.023 140.055 425.391 137.324 424.125 135.402C422.883 133.48 421.066 132.52 418.676 132.52C415.488 132.52 413.297 133.738 412.102 136.176V151.75C413.344 154.258 415.559 155.512 418.746 155.512C423.598 155.512 426.023 151.539 426.023 143.594Z" fill="white"/>
<defs>
<filter id="filter0_d" x="806" y="186" width="483" height="638" filterUnits="userSpaceOnUse" color-interpolation-filters="sRGB">
<feFlood flood-opacity="0" result="BackgroundImageFix"/>
<feColorMatrix in="SourceAlpha" type="matrix" values="0 0 0 0 0 0 0 0 0 0 0 0 0 0 0 0 0 0 127 0"/>
<feOffset dy="4"/>
<feGaussianBlur stdDeviation="2"/>
<feColorMatrix type="matrix" values="0 0 0 0 0 0 0 0 0 0 0 0 0 0 0 0 0 0 0.25 0"/>
<feBlend mode="normal" in2="BackgroundImageFix" result="effect1_dropShadow"/>
<feBlend mode="normal" in="SourceGraphic" in2="effect1_dropShadow" result="shape"/>
</filter>
<filter id="filter1_dd" x="902" y="666" width="291" height="63" filterUnits="userSpaceOnUse" color-interpolation-filters="sRGB">
<feFlood flood-opacity="0" result="BackgroundImageFix"/>
<feColorMatrix in="SourceAlpha" type="matrix" values="0 0 0 0 0 0 0 0 0 0 0 0 0 0 0 0 0 0 127 0"/>
<feOffset dy="2"/>
<feGaussianBlur stdDeviation="1"/>
<feColorMatrix type="matrix" values="0 0 0 0 0 0 0 0 0 0 0 0 0 0 0 0 0 0 0.2 0"/>
<feBlend mode="normal" in2="BackgroundImageFix" result="effect1_dropShadow"/>
<feColorMatrix in="SourceAlpha" type="matrix" values="0 0 0 0 0 0 0 0 0 0 0 0 0 0 0 0 0 0 127 0"/>
<feOffset dy="4"/>
<feGaussianBlur stdDeviation="2"/>
<feColorMatrix type="matrix" values="0 0 0 0 0 0 0 0 0 0 0 0 0 0 0 0 0 0 0.25 0"/>
<feBlend mode="normal" in2="effect1_dropShadow" result="effect2_dropShadow"/>
<feBlend mode="normal" in="SourceGraphic" in2="effect2_dropShadow" result="shape"/>
</filter>
<filter id="filter2_d" x="925" y="755" width="231" height="47" filterUnits="userSpaceOnUse" color-interpolation-filters="sRGB">
<feFlood flood-opacity="0" result="BackgroundImageFix"/>
<feColorMatrix in="SourceAlpha" type="matrix" values="0 0 0 0 0 0 0 0 0 0 0 0 0 0 0 0 0 0 127 0"/>
<feOffset dy="4"/>
<feGaussianBlur stdDeviation="2"/>
<feColorMatrix type="matrix" values="0 0 0 0 0 0 0 0 0 0 0 0 0 0 0 0 0 0 0.25 0"/>
<feBlend mode="normal" in2="BackgroundImageFix" result="effect1_dropShadow"/>
<feBlend mode="normal" in="SourceGraphic" in2="effect1_dropShadow" result="shape"/>
</filter>
<clipPath id="clip0">
<rect width="340" height="370" fill="white" transform="translate(100 324)"/>
</clipPath>
</defs>
</svg>
