<svg width="36" height="43" viewBox="0 0 36 43" fill="none" xmlns="http://www.w3.org/2000/svg">
<path d="M6.66101 32.7672C6.66101 33.8641 7.55632 34.7594 8.65789 34.7594H10.9407V40.4032C10.9407 41.8328 12.0891 43 13.5001 43C14.9157 43 16.0594 41.8375 16.0594 40.4032V34.7547H20.0438V40.3985C20.0438 41.8282 21.1923 42.9953 22.6032 42.9953C24.0188 42.9953 25.1626 41.8329 25.1626 40.3985V34.7547H27.4454C28.5469 34.7547 29.4423 33.8594 29.4423 32.7625V14.2375H6.66101V32.7672ZM23.4001 4.63754L25.5048 1.59066C25.6266 1.41254 25.5985 1.17348 25.4344 1.05629C25.2704 0.943788 25.036 1.00004 24.9141 1.17816L22.7298 4.34691C21.2907 3.77973 19.6876 3.46566 18.0048 3.46566C16.3219 3.46566 14.7188 3.77973 13.2798 4.34691L11.0954 1.18285C10.9735 1.00473 10.7391 0.943788 10.5751 1.06098C10.411 1.17348 10.3829 1.40785 10.5048 1.59535L12.6094 4.64223C9.26257 6.19848 6.91882 9.14691 6.61882 12.5922H29.4001C29.0907 9.14223 26.7423 6.19379 23.4001 4.63754ZM13.1954 9.44223C12.946 9.44223 12.7022 9.36827 12.4948 9.22972C12.2875 9.09117 12.1259 8.89423 12.0304 8.66383C11.935 8.43342 11.91 8.17989 11.9587 7.93529C12.0073 7.69069 12.1274 7.46602 12.3038 7.28967C12.4801 7.11333 12.7048 6.99323 12.9494 6.94458C13.194 6.89593 13.4475 6.9209 13.6779 7.01633C13.9083 7.11177 14.1053 7.27339 14.2438 7.48075C14.3824 7.68811 14.4563 7.9319 14.4563 8.18129C14.4555 8.51544 14.3223 8.83566 14.086 9.07195C13.8498 9.30823 13.5295 9.44136 13.1954 9.44223ZM22.9641 9.44223C22.7147 9.44223 22.471 9.36827 22.2636 9.22972C22.0562 9.09117 21.8946 8.89423 21.7992 8.66383C21.7037 8.43342 21.6788 8.17989 21.7274 7.93529C21.7761 7.69069 21.8962 7.46602 22.0725 7.28967C22.2489 7.11333 22.4735 6.99323 22.7181 6.94458C22.9627 6.89593 23.2163 6.9209 23.4467 7.01633C23.6771 7.11177 23.874 7.27339 24.0126 7.48075C24.1511 7.68811 24.2251 7.9319 24.2251 8.18129C24.2242 8.51544 24.0911 8.83566 23.8548 9.07195C23.6185 9.30823 23.2983 9.44136 22.9641 9.44223ZM33.436 14.1625C32.0204 14.1625 30.8766 15.325 30.8766 16.7594V26.9032C30.8766 28.3328 32.0251 29.5 33.436 29.5C34.8516 29.5 35.9954 28.3375 35.9954 26.9032V16.7547C36.0001 15.3204 34.8563 14.1625 33.436 14.1625ZM2.56414 14.1625C1.14851 14.1625 0.00476074 15.325 0.00476074 16.7594V26.9032C0.00476074 28.3328 1.1532 29.5 2.56414 29.5C3.97976 29.5 5.12351 28.3375 5.12351 26.9032V16.7547C5.12351 15.3204 3.97507 14.1625 2.56414 14.1625Z" fill="white"/>
</svg>
