<svg width="38" height="38" viewBox="0 0 38 38" fill="none" xmlns="http://www.w3.org/2000/svg">
<path d="M27.7355 19.8795C27.7207 17.3486 28.8674 15.4412 31.183 14.0348C29.8879 12.1793 27.9285 11.1588 25.3457 10.9621C22.9002 10.7691 20.2246 12.3871 19.2449 12.3871C18.2096 12.3871 15.842 11.0289 13.9791 11.0289C10.1346 11.0883 6.04883 14.0941 6.04883 20.2098C6.04883 22.017 6.3791 23.8836 7.03965 25.8059C7.92285 28.3367 11.1068 34.5377 14.4281 34.4375C16.1648 34.3967 17.3932 33.2055 19.6531 33.2055C21.8463 33.2055 22.9818 34.4375 24.9189 34.4375C28.2699 34.3893 31.1496 28.7523 31.9883 26.2141C27.4943 24.0951 27.7355 20.0094 27.7355 19.8795ZM23.8354 8.56113C25.7168 6.32715 25.5461 4.29355 25.4904 3.5625C23.8279 3.65898 21.9057 4.69434 20.8109 5.96719C19.6049 7.33281 18.8961 9.02129 19.0482 10.925C20.8443 11.0623 22.4846 10.1383 23.8354 8.56113Z" fill="white"/>
</svg>
