<svg width="28" height="22" viewBox="0 0 28 22" fill="none" xmlns="http://www.w3.org/2000/svg">
<path d="M27 0H1C0.446875 0 0 0.446875 0 1V21C0 21.5531 0.446875 22 1 22H27C27.5531 22 28 21.5531 28 21V1C28 0.446875 27.5531 0 27 0ZM25.75 3.4625V19.75H2.25V3.4625L1.3875 2.79063L2.61562 1.2125L3.95312 2.25313H24.05L25.3875 1.2125L26.6156 2.79063L25.75 3.4625ZM24.05 2.25L14 10.0625L3.95 2.25L2.6125 1.20937L1.38438 2.7875L2.24687 3.45938L12.9219 11.7594C13.2289 11.9979 13.6066 12.1273 13.9953 12.1273C14.3841 12.1273 14.7618 11.9979 15.0688 11.7594L25.75 3.4625L26.6125 2.79063L25.3844 1.2125L24.05 2.25Z" fill="white"/>
</svg>
