<svg width="32" height="32" viewBox="0 0 32 32" fill="none" xmlns="http://www.w3.org/2000/svg">
<path fill-rule="evenodd" clip-rule="evenodd" d="M9.95337 1.42125C11.5174 1.34925 12.016 1.33325 16 1.33325C19.984 1.33325 20.4827 1.35059 22.0454 1.42125C23.608 1.49192 24.6747 1.74125 25.608 2.10259C26.5854 2.47192 27.472 3.04925 28.2054 3.79592C28.952 4.52792 29.528 5.41325 29.896 6.39192C30.2587 7.32525 30.5067 8.39192 30.5787 9.95192C30.6507 11.5186 30.6667 12.0173 30.6667 15.9999C30.6667 19.9839 30.6494 20.4826 30.5787 22.0466C30.508 23.6066 30.2587 24.6733 29.896 25.6066C29.528 26.5854 28.9511 27.4722 28.2054 28.2052C27.472 28.9519 26.5854 29.5279 25.608 29.8959C24.6747 30.2586 23.608 30.5066 22.048 30.5786C20.4827 30.6506 19.984 30.6666 16 30.6666C12.016 30.6666 11.5174 30.6493 9.95337 30.5786C8.39337 30.5079 7.32671 30.2586 6.39337 29.8959C5.4146 29.5279 4.5278 28.9509 3.79471 28.2052C3.04855 27.4728 2.47113 26.5864 2.10271 25.6079C1.74137 24.6746 1.49337 23.6079 1.42137 22.0479C1.34937 20.4813 1.33337 19.9826 1.33337 15.9999C1.33337 12.0159 1.35071 11.5173 1.42137 9.95459C1.49204 8.39192 1.74137 7.32525 2.10271 6.39192C2.47167 5.41336 3.04953 4.527 3.79604 3.79458C4.52809 3.04859 5.414 2.47118 6.39204 2.10259C7.32537 1.74125 8.39204 1.49325 9.95204 1.42125H9.95337ZM21.9267 4.06125C20.38 3.99059 19.916 3.97592 16 3.97592C12.084 3.97592 11.62 3.99059 10.0734 4.06125C8.64271 4.12659 7.86671 4.36525 7.34937 4.56659C6.66537 4.83325 6.17604 5.14925 5.66271 5.66259C5.1761 6.13599 4.80161 6.71229 4.56671 7.34925C4.36537 7.86659 4.12671 8.64258 4.06137 10.0733C3.99071 11.6199 3.97604 12.0839 3.97604 15.9999C3.97604 19.9159 3.99071 20.3799 4.06137 21.9266C4.12671 23.3573 4.36537 24.1333 4.56671 24.6506C4.80137 25.2866 5.17604 25.8639 5.66271 26.3373C6.13604 26.8239 6.71337 27.1986 7.34937 27.4333C7.86671 27.6346 8.64271 27.8733 10.0734 27.9386C11.62 28.0093 12.0827 28.0239 16 28.0239C19.9174 28.0239 20.38 28.0093 21.9267 27.9386C23.3574 27.8733 24.1334 27.6346 24.6507 27.4333C25.3347 27.1666 25.824 26.8506 26.3374 26.3373C26.824 25.8639 27.1987 25.2866 27.4334 24.6506C27.6347 24.1333 27.8734 23.3573 27.9387 21.9266C28.0094 20.3799 28.024 19.9159 28.024 15.9999C28.024 12.0839 28.0094 11.6199 27.9387 10.0733C27.8734 8.64258 27.6347 7.86659 27.4334 7.34925C27.1667 6.66525 26.8507 6.17592 26.3374 5.66259C25.8639 5.17601 25.2876 4.80153 24.6507 4.56659C24.1334 4.36525 23.3574 4.12659 21.9267 4.06125ZM14.1267 20.5212C15.1729 20.9568 16.3379 21.0155 17.4226 20.6875C18.5073 20.3596 19.4446 19.6651 20.0742 18.7229C20.7038 17.7807 20.9868 16.6491 20.8748 15.5214C20.7628 14.3937 20.2627 13.3399 19.46 12.5399C18.9484 12.0286 18.3297 11.637 17.6485 11.3934C16.9673 11.1499 16.2406 11.0604 15.5207 11.1314C14.8008 11.2024 14.1056 11.4322 13.4851 11.8041C12.8646 12.176 12.3344 12.6809 11.9324 13.2824C11.5305 13.8839 11.267 14.567 11.1607 15.2825C11.0545 15.9981 11.1082 16.7283 11.3181 17.4206C11.5279 18.1129 11.8887 18.7501 12.3743 19.2862C12.86 19.8224 13.4585 20.2442 14.1267 20.5212ZM10.6694 10.6693C11.3694 9.96922 12.2005 9.41392 13.1151 9.03507C14.0297 8.65621 15.01 8.46122 16 8.46122C16.99 8.46122 17.9703 8.65621 18.885 9.03507C19.7996 9.41392 20.6307 9.96922 21.3307 10.6693C22.0307 11.3693 22.586 12.2003 22.9649 13.115C23.3437 14.0296 23.5387 15.0099 23.5387 15.9999C23.5387 16.9899 23.3437 17.9702 22.9649 18.8849C22.586 19.7995 22.0307 20.6306 21.3307 21.3306C19.9169 22.7444 17.9994 23.5386 16 23.5386C14.0007 23.5386 12.0832 22.7444 10.6694 21.3306C9.25559 19.9168 8.46134 17.9993 8.46134 15.9999C8.46134 14.0005 9.25559 12.083 10.6694 10.6693ZM25.2107 9.58392C25.3842 9.42028 25.5231 9.22349 25.6191 9.00522C25.7152 8.78694 25.7665 8.55161 25.7699 8.31316C25.7734 8.07471 25.729 7.83798 25.6393 7.617C25.5497 7.39602 25.4166 7.19527 25.248 7.02664C25.0794 6.85801 24.8786 6.72493 24.6576 6.63528C24.4366 6.54562 24.1999 6.50122 23.9615 6.5047C23.723 6.50817 23.4877 6.55946 23.2694 6.65551C23.0511 6.75157 22.8543 6.89045 22.6907 7.06392C22.3725 7.40129 22.1982 7.84941 22.205 8.31316C22.2117 8.7769 22.399 9.21976 22.7269 9.54771C23.0549 9.87566 23.4977 10.0629 23.9615 10.0696C24.4252 10.0764 24.8733 9.90217 25.2107 9.58392Z" fill="white"/>
</svg>
